<svg width="375" height="812" viewBox="0 0 375 812" fill="none" xmlns="http://www.w3.org/2000/svg">
<g clip-path="url(#clip0_17453_7521)">
<rect width="375" height="812" rx="10" fill="white"/>
<rect width="375" height="104" fill="white"/>
<path d="M35.7202 33V24.3354H35.5957L32.9663 26.1812V24.3647L35.7276 22.4312H37.6099V33H35.7202ZM42.9216 33V24.3354H42.7971L40.1677 26.1812V24.3647L42.929 22.4312H44.8113V33H42.9216ZM48.9365 31.5425C48.248 31.5425 47.7646 31.0444 47.7646 30.3853C47.7646 29.7188 48.248 29.228 48.9365 29.228C49.6323 29.228 50.1084 29.7188 50.1084 30.3853C50.1084 31.0444 49.6323 31.5425 48.9365 31.5425ZM48.9365 26.1958C48.248 26.1958 47.7646 25.7051 47.7646 25.0459C47.7646 24.3794 48.248 23.8887 48.9365 23.8887C49.6323 23.8887 50.1084 24.3794 50.1084 25.0459C50.1084 25.7051 49.6323 26.1958 48.9365 26.1958ZM56.0793 33.2637C53.5452 33.2637 52.0437 31.2129 52.0437 27.7046C52.0437 24.2109 53.5671 22.1675 56.0793 22.1675C58.5842 22.1675 60.1077 24.2109 60.1077 27.7192C60.1077 31.2129 58.6062 33.2637 56.0793 33.2637ZM56.0793 31.6963C57.4197 31.6963 58.196 30.3267 58.196 27.7046C58.196 25.0972 57.405 23.7422 56.0793 23.7422C54.7537 23.7422 53.9553 25.1045 53.9553 27.7046C53.9553 30.3267 54.739 31.6963 56.0793 31.6963ZM65.8735 33.2637C63.4492 33.2637 61.7793 32.0039 61.7793 30.1729C61.7793 28.8325 62.6802 27.7705 64.0644 27.4775V27.353C62.9365 27.0747 62.2041 26.1592 62.2041 25.0312C62.2041 23.3613 63.7348 22.1675 65.8808 22.1675C68.0268 22.1675 69.5503 23.3613 69.5503 25.0312C69.5503 26.1665 68.8325 27.0674 67.6972 27.353V27.4775C69.0742 27.7339 69.9824 28.8032 69.9824 30.1655C69.9824 32.0039 68.3125 33.2637 65.8735 33.2637ZM65.8808 31.7915C67.1553 31.7915 68.0268 31.0664 68.0268 30.0117C68.0268 28.957 67.1479 28.2319 65.8808 28.2319C64.6064 28.2319 63.7275 28.957 63.7275 30.0117C63.7275 31.0664 64.6064 31.7915 65.8808 31.7915ZM65.8808 26.7817C66.9502 26.7817 67.6899 26.1445 67.6899 25.2144C67.6899 24.2695 66.9575 23.6177 65.8808 23.6177C64.7969 23.6177 64.0644 24.2695 64.0644 25.2144C64.0644 26.1445 64.8042 26.7817 65.8808 26.7817Z" fill="black" fill-opacity="0.96"/>
<path d="M285.339 29.3337C285.891 29.3337 286.339 29.7815 286.339 30.3337V32.3337C286.339 32.8859 285.891 33.3337 285.339 33.3337H284.339C283.787 33.3337 283.339 32.8859 283.339 32.3337V30.3337C283.339 29.7815 283.787 29.3337 284.339 29.3337H285.339ZM290.006 27.3337C290.558 27.3339 291.006 27.7816 291.006 28.3337V32.3337C291.006 32.8858 290.558 33.3336 290.006 33.3337H289.006C288.454 33.3337 288.006 32.8859 288.006 32.3337V28.3337C288.006 27.7815 288.454 27.3337 289.006 27.3337H290.006ZM294.672 24.9998C295.224 24.9998 295.672 25.4476 295.672 25.9998V32.3337C295.672 32.8859 295.224 33.3337 294.672 33.3337H293.672C293.12 33.3336 292.672 32.8858 292.672 32.3337V25.9998C292.672 25.4477 293.12 24.9999 293.672 24.9998H294.672ZM299.339 22.6667C299.891 22.6667 300.339 23.1145 300.339 23.6667V32.3337C300.339 32.8859 299.891 33.3337 299.339 33.3337H298.339C297.787 33.3337 297.339 32.8859 297.339 32.3337V23.6667C297.339 23.1145 297.787 22.6667 298.339 22.6667H299.339Z" fill="black" fill-opacity="0.96"/>
<path fill-rule="evenodd" clip-rule="evenodd" d="M311.287 30.9267C312.568 29.8444 314.444 29.8444 315.725 30.9267C315.789 30.9849 315.826 31.0675 315.828 31.1542C315.83 31.2409 315.795 31.324 315.733 31.3847L313.729 33.4072C313.67 33.4666 313.589 33.4999 313.506 33.4999C313.422 33.4999 313.342 33.4666 313.283 33.4072L311.277 31.3847C311.216 31.324 311.182 31.2407 311.184 31.1542C311.185 31.0675 311.223 30.9848 311.287 30.9267ZM308.611 28.2294C311.37 25.665 315.643 25.6651 318.402 28.2294C318.465 28.2896 318.5 28.3724 318.501 28.4589C318.502 28.5453 318.468 28.6281 318.407 28.6894L317.248 29.8603C317.129 29.9796 316.936 29.9814 316.813 29.8652C315.907 29.0454 314.728 28.5917 313.506 28.5917C312.284 28.5923 311.107 29.0461 310.201 29.8652C310.079 29.9815 309.885 29.9798 309.766 29.8603L308.607 28.6894C308.546 28.6282 308.512 28.5453 308.513 28.4589C308.514 28.3724 308.549 28.2895 308.611 28.2294ZM305.936 25.539C310.167 21.4869 316.843 21.4871 321.075 25.539C321.136 25.5992 321.171 25.6817 321.172 25.7675C321.172 25.8533 321.139 25.9361 321.078 25.997L319.918 27.1669C319.798 27.287 319.604 27.2881 319.482 27.1699C317.87 25.6384 315.73 24.7842 313.506 24.7841C311.281 24.7841 309.141 25.6382 307.528 27.1699C307.407 27.2882 307.213 27.287 307.094 27.1669L305.933 25.997C305.872 25.9361 305.838 25.8532 305.839 25.7675C305.839 25.6817 305.874 25.5991 305.936 25.539Z" fill="black" fill-opacity="0.96"/>
<rect opacity="0.35" x="327.172" y="22.8333" width="21" height="10.3333" rx="3.5" stroke="black" stroke-opacity="0.96"/>
<path opacity="0.4" d="M349.672 26V30C350.477 29.6612 351 28.8731 351 28C351 27.1269 350.477 26.3388 349.672 26Z" fill="black" fill-opacity="0.96"/>
<rect x="328.672" y="24.3333" width="18" height="7.33333" rx="2.3" fill="black" fill-opacity="0.96"/>
<g clip-path="url(#clip1_17453_7521)">
<path d="M30.2934 75.2928L38.2942 67.292L39.7086 68.7063L32.4149 76L39.7086 83.2936L38.2942 84.708L30.2934 76.7072C29.9028 76.3166 29.9028 75.6834 30.2934 75.2928Z" fill="black" fill-opacity="0.64"/>
</g>
<path d="M35.06 138.28C28.788 138.28 25.288 134.276 25.288 128.116V127.892C25.288 121.872 29.432 117.672 35.004 117.672C39.596 117.672 43.152 119.968 43.6 124.672H39.82C39.4 122.012 37.916 120.64 35.032 120.64C31.504 120.64 29.208 123.384 29.208 127.864V128.088C29.208 132.596 31.364 135.256 35.06 135.256C37.832 135.256 39.792 133.856 40.184 131.028H43.824C43.236 135.844 39.82 138.28 35.06 138.28ZM52.4813 138.28C48.1693 138.28 44.9772 135.284 44.9772 130.832V130.608C44.9772 126.072 48.1973 123.048 52.5093 123.048C56.7933 123.048 60.0132 126.044 60.0132 130.524V130.748C60.0132 135.312 56.7933 138.28 52.4813 138.28ZM52.5093 135.648C55.0293 135.648 56.5413 133.772 56.5413 130.776V130.58C56.5413 127.556 55.0293 125.708 52.5093 125.708C49.9893 125.708 48.4493 127.528 48.4493 130.552V130.776C48.4493 133.772 49.9333 135.648 52.5093 135.648ZM62.2344 138V123.356H65.6224V125.596C66.3224 124.224 67.9184 123.048 70.0744 123.048C71.9784 123.048 73.4904 123.86 74.2184 125.68C75.3384 123.86 77.3544 123.048 79.1744 123.048C81.8624 123.048 84.0464 124.7 84.0464 128.732V138H80.6584V128.956C80.6584 126.8 79.7344 125.876 78.0544 125.876C76.3744 125.876 74.8344 126.996 74.8344 129.236V138H71.4464V128.956C71.4464 126.8 70.4944 125.876 68.8424 125.876C67.1624 125.876 65.6224 126.996 65.6224 129.236V138H62.2344ZM87.0976 143.012V123.356H90.4856V125.708C91.2976 124.308 93.1176 123.048 95.2736 123.048C98.9416 123.048 101.77 125.764 101.77 130.496V130.72C101.77 135.424 99.0536 138.28 95.2736 138.28C92.9496 138.28 91.2696 137.132 90.4856 135.704V143.012H87.0976ZM94.4336 135.592C96.9256 135.592 98.2976 133.912 98.2976 130.776V130.552C98.2976 127.304 96.6176 125.708 94.4056 125.708C92.0536 125.708 90.3736 127.304 90.3736 130.552V130.776C90.3736 134.052 91.9696 135.592 94.4336 135.592ZM104.06 138V116.58H107.448V138H104.06ZM117.178 138.28C112.866 138.28 109.758 135.452 109.758 130.832V130.608C109.758 126.072 112.866 123.048 117.038 123.048C120.678 123.048 123.954 125.204 123.954 130.44V131.42H113.23C113.342 134.192 114.742 135.76 117.262 135.76C119.306 135.76 120.37 134.948 120.622 133.52H123.898C123.422 136.6 120.93 138.28 117.178 138.28ZM113.286 129.152H120.594C120.426 126.632 119.138 125.512 117.038 125.512C114.994 125.512 113.622 126.884 113.286 129.152ZM131.124 138.252C128.212 138.252 126.7 136.684 126.7 133.912V125.904H124.74V123.356H126.7V120.136H130.088V123.356H133.308V125.904H130.088V133.604C130.088 134.892 130.704 135.48 131.768 135.48C132.44 135.48 132.944 135.396 133.42 135.2V137.888C132.888 138.084 132.16 138.252 131.124 138.252ZM142.076 138.28C137.764 138.28 134.656 135.452 134.656 130.832V130.608C134.656 126.072 137.764 123.048 141.936 123.048C145.576 123.048 148.852 125.204 148.852 130.44V131.42H138.128C138.24 134.192 139.64 135.76 142.16 135.76C144.204 135.76 145.268 134.948 145.52 133.52H148.796C148.32 136.6 145.828 138.28 142.076 138.28ZM138.184 129.152H145.492C145.324 126.632 144.036 125.512 141.936 125.512C139.892 125.512 138.52 126.884 138.184 129.152ZM163.394 138.28C159.082 138.28 155.89 135.284 155.89 130.832V130.608C155.89 126.072 159.11 123.048 163.422 123.048C167.706 123.048 170.926 126.044 170.926 130.524V130.748C170.926 135.312 167.706 138.28 163.394 138.28ZM163.422 135.648C165.942 135.648 167.454 133.772 167.454 130.776V130.58C167.454 127.556 165.942 125.708 163.422 125.708C160.902 125.708 159.362 127.528 159.362 130.552V130.776C159.362 133.772 160.846 135.648 163.422 135.648ZM185.419 138.28C181.107 138.28 177.999 135.452 177.999 130.832V130.608C177.999 126.072 181.107 123.048 185.279 123.048C188.919 123.048 192.195 125.204 192.195 130.44V131.42H181.471C181.583 134.192 182.983 135.76 185.503 135.76C187.547 135.76 188.611 134.948 188.863 133.52H192.139C191.663 136.6 189.171 138.28 185.419 138.28ZM181.527 129.152H188.835C188.667 126.632 187.379 125.512 185.279 125.512C183.235 125.512 181.863 126.884 181.527 129.152ZM194.381 138V123.356H197.769V125.68C198.469 124.252 200.093 123.048 202.501 123.048C205.441 123.048 207.513 124.756 207.513 128.788V138H204.125V129.096C204.125 126.884 203.229 125.876 201.213 125.876C199.309 125.876 197.769 127.052 197.769 129.376V138H194.381ZM216.064 138.28C212.396 138.28 209.624 135.676 209.624 130.916V130.692C209.624 126.016 212.396 123.048 216.204 123.048C218.584 123.048 220.068 124.14 220.88 125.596V116.58H224.268V138H220.88V135.536C220.096 136.992 218.22 138.28 216.064 138.28ZM216.904 135.592C219.256 135.592 220.992 134.024 220.992 130.748V130.524C220.992 127.304 219.508 125.708 217.044 125.708C214.552 125.708 213.096 127.444 213.096 130.608V130.832C213.096 134.052 214.72 135.592 216.904 135.592ZM233.895 138.28C229.583 138.28 226.475 135.452 226.475 130.832V130.608C226.475 126.072 229.583 123.048 233.755 123.048C237.395 123.048 240.671 125.204 240.671 130.44V131.42H229.947C230.059 134.192 231.459 135.76 233.979 135.76C236.023 135.76 237.087 134.948 237.339 133.52H240.615C240.139 136.6 237.647 138.28 233.895 138.28ZM230.003 129.152H237.311C237.143 126.632 235.855 125.512 233.755 125.512C231.711 125.512 230.339 126.884 230.003 129.152ZM242.857 138V123.356H246.245V126.1C247.169 124.252 248.541 123.16 251.005 123.132V126.296C248.037 126.324 246.245 127.276 246.245 130.384V138H242.857ZM259.286 138.28C254.974 138.28 251.866 135.452 251.866 130.832V130.608C251.866 126.072 254.974 123.048 259.146 123.048C262.786 123.048 266.062 125.204 266.062 130.44V131.42H255.338C255.45 134.192 256.85 135.76 259.37 135.76C261.414 135.76 262.478 134.948 262.73 133.52H266.006C265.53 136.6 263.038 138.28 259.286 138.28ZM255.394 129.152H262.702C262.534 126.632 261.246 125.512 259.146 125.512C257.102 125.512 255.73 126.884 255.394 129.152ZM274.156 144.132C272.392 144.132 271.244 143.18 271.076 141.668H272.924C273.008 142.144 273.372 142.592 274.044 142.592C274.688 142.592 275.08 142.2 275.08 141.64C275.08 141.108 274.688 140.744 274.1 140.744C273.708 140.744 273.428 140.884 273.26 140.996L272.308 140.1L273.428 138.196C269.844 137.72 267.268 135.088 267.268 130.86V130.636C267.268 125.988 270.572 123.048 274.66 123.048C277.908 123.048 280.96 124.504 281.352 128.536H278.076C277.796 126.576 276.508 125.764 274.716 125.764C272.392 125.764 270.74 127.556 270.74 130.58V130.804C270.74 133.996 272.308 135.676 274.8 135.676C276.592 135.676 278.132 134.612 278.328 132.54H281.436C281.184 135.788 278.804 138.112 275.052 138.28L274.408 139.4C275.808 139.232 277.208 139.96 277.208 141.724C277.208 143.292 275.892 144.132 274.156 144.132ZM290.037 138.28C285.725 138.28 282.533 135.284 282.533 130.832V130.608C282.533 126.072 285.753 123.048 290.065 123.048C294.349 123.048 297.569 126.044 297.569 130.524V130.748C297.569 135.312 294.349 138.28 290.037 138.28ZM290.065 135.648C292.585 135.648 294.097 133.772 294.097 130.776V130.58C294.097 127.556 292.585 125.708 290.065 125.708C287.545 125.708 286.005 127.528 286.005 130.552V130.776C286.005 133.772 287.489 135.648 290.065 135.648Z" fill="black" fill-opacity="0.96"/>
<path d="M25.148 199V188.99H31.406V190.46H27.01V193.204H30.538V194.604H27.01V197.53H31.644V199H25.148ZM33.0438 199V191.678H34.7378V192.84C35.0878 192.126 35.8998 191.524 37.1038 191.524C38.5738 191.524 39.6098 192.378 39.6098 194.394V199H37.9158V194.548C37.9158 193.442 37.4678 192.938 36.4598 192.938C35.5078 192.938 34.7378 193.526 34.7378 194.688V199H33.0438ZM44.1654 199.14C42.3314 199.14 40.9454 197.838 40.9454 195.458V195.346C40.9454 193.008 42.3314 191.524 44.2354 191.524C45.4254 191.524 46.1674 192.07 46.5734 192.798V188.29H48.2674V199H46.5734V197.768C46.1814 198.496 45.2434 199.14 44.1654 199.14ZM44.5854 197.796C45.7614 197.796 46.6294 197.012 46.6294 195.374V195.262C46.6294 193.652 45.8874 192.854 44.6554 192.854C43.4094 192.854 42.6814 193.722 42.6814 195.304V195.416C42.6814 197.026 43.4934 197.796 44.5854 197.796ZM53.3607 199.14C51.2047 199.14 49.6507 197.726 49.6507 195.416V195.304C49.6507 193.036 51.2047 191.524 53.2907 191.524C55.1107 191.524 56.7487 192.602 56.7487 195.22V195.71H51.3867C51.4427 197.096 52.1427 197.88 53.4027 197.88C54.4247 197.88 54.9567 197.474 55.0827 196.76H56.7207C56.4827 198.3 55.2367 199.14 53.3607 199.14ZM51.4147 194.576H55.0687C54.9847 193.316 54.3407 192.756 53.2907 192.756C52.2687 192.756 51.5827 193.442 51.4147 194.576ZM58.1218 199V191.678H59.8158V193.05C60.2778 192.126 60.9638 191.58 62.1958 191.566V193.148C60.7118 193.162 59.8158 193.638 59.8158 195.192V199H58.1218ZM66.6159 199.14C64.4599 199.14 62.9059 197.726 62.9059 195.416V195.304C62.9059 193.036 64.4599 191.524 66.5459 191.524C68.3659 191.524 70.0039 192.602 70.0039 195.22V195.71H64.6419C64.6979 197.096 65.3979 197.88 66.6579 197.88C67.6799 197.88 68.2119 197.474 68.3379 196.76H69.9759C69.7379 198.3 68.4919 199.14 66.6159 199.14ZM64.6699 194.576H68.3239C68.2399 193.316 67.5959 192.756 66.5459 192.756C65.5239 192.756 64.8379 193.442 64.6699 194.576ZM74.331 202.066C73.449 202.066 72.875 201.59 72.791 200.834H73.715C73.757 201.072 73.939 201.296 74.275 201.296C74.597 201.296 74.793 201.1 74.793 200.82C74.793 200.554 74.597 200.372 74.303 200.372C74.107 200.372 73.967 200.442 73.883 200.498L73.407 200.05L73.967 199.098C72.175 198.86 70.887 197.544 70.887 195.43V195.318C70.887 192.994 72.539 191.524 74.583 191.524C76.207 191.524 77.733 192.252 77.929 194.268H76.291C76.151 193.288 75.507 192.882 74.611 192.882C73.449 192.882 72.623 193.778 72.623 195.29V195.402C72.623 196.998 73.407 197.838 74.653 197.838C75.549 197.838 76.319 197.306 76.417 196.27H77.971C77.845 197.894 76.655 199.056 74.779 199.14L74.457 199.7C75.157 199.616 75.857 199.98 75.857 200.862C75.857 201.646 75.199 202.066 74.331 202.066ZM82.5517 199.14C80.3957 199.14 78.7997 197.642 78.7997 195.416V195.304C78.7997 193.036 80.4097 191.524 82.5657 191.524C84.7077 191.524 86.3177 193.022 86.3177 195.262V195.374C86.3177 197.656 84.7077 199.14 82.5517 199.14ZM82.5657 197.824C83.8257 197.824 84.5817 196.886 84.5817 195.388V195.29C84.5817 193.778 83.8257 192.854 82.5657 192.854C81.3057 192.854 80.5357 193.764 80.5357 195.276V195.388C80.5357 196.886 81.2777 197.824 82.5657 197.824Z" fill="black" fill-opacity="0.64"/>
<g clip-path="url(#clip2_17453_7521)">
<g clip-path="url(#clip3_17453_7521)">
<path d="M25.312 233V221.56H29.152C31.664 221.56 33.424 222.584 33.424 224.92V224.984C33.424 226.776 32.304 227.688 30.88 228.056L34.096 233H31.792L28.8 228.376H27.44V233H25.312ZM27.44 226.856H29.152C30.576 226.856 31.328 226.248 31.328 225.032V224.968C31.328 223.656 30.512 223.208 29.152 223.208H27.44V226.856ZM38.0733 233.16C36.4253 233.16 35.1933 232.216 35.1933 229.992V224.632H37.1293V229.768C37.1293 231.032 37.6573 231.608 38.7773 231.608C39.8173 231.608 40.7293 230.936 40.7293 229.608V224.632H42.6653V233H40.7293V231.688C40.3133 232.504 39.4333 233.16 38.0733 233.16ZM46.9928 233.16C45.4568 233.16 44.1928 232.424 44.1928 230.68C44.1928 228.728 46.0808 228.024 48.4808 228.024H49.5208V227.592C49.5208 226.472 49.1368 225.912 48.0008 225.912C46.9928 225.912 46.4968 226.392 46.4008 227.224H44.5288C44.6888 225.272 46.2408 224.456 48.1128 224.456C49.9848 224.456 51.4568 225.224 51.4568 227.512V233H49.5528V231.976C49.0088 232.696 48.2728 233.16 46.9928 233.16ZM47.4568 231.768C48.6408 231.768 49.5208 231.144 49.5208 230.072V229.24H48.5288C47.0568 229.24 46.1128 229.576 46.1128 230.6C46.1128 231.304 46.4968 231.768 47.4568 231.768ZM57.3923 233V221.56H59.5363V233H57.3923ZM61.9145 235.864V224.632H63.8505V225.976C64.3145 225.176 65.3545 224.456 66.5865 224.456C68.6825 224.456 70.2985 226.008 70.2985 228.712V228.84C70.2985 231.528 68.7465 233.16 66.5865 233.16C65.2585 233.16 64.2985 232.504 63.8505 231.688V235.864H61.9145ZM66.1065 231.624C67.5305 231.624 68.3145 230.664 68.3145 228.872V228.744C68.3145 226.888 67.3545 225.976 66.0905 225.976C64.7465 225.976 63.7865 226.888 63.7865 228.744V228.872C63.7865 230.744 64.6985 231.624 66.1065 231.624ZM72.8715 223.256C72.2315 223.256 71.7195 222.776 71.7195 222.152C71.7195 221.512 72.2315 221.032 72.8715 221.032C73.5115 221.032 74.0235 221.512 74.0235 222.152C74.0235 222.776 73.5115 223.256 72.8715 223.256ZM71.9275 233V224.632H73.8635V233H71.9275ZM76.0633 233V224.632H77.9993V226.2C78.5273 225.144 79.3113 224.52 80.7193 224.504V226.312C79.0233 226.328 77.9993 226.872 77.9993 228.648V233H76.0633ZM84.3296 233.16C82.7936 233.16 81.5296 232.424 81.5296 230.68C81.5296 228.728 83.4176 228.024 85.8176 228.024H86.8576V227.592C86.8576 226.472 86.4736 225.912 85.3376 225.912C84.3296 225.912 83.8336 226.392 83.7376 227.224H81.8656C82.0256 225.272 83.5776 224.456 85.4496 224.456C87.3216 224.456 88.7936 225.224 88.7936 227.512V233H86.8896V231.976C86.3456 232.696 85.6096 233.16 84.3296 233.16ZM84.7936 231.768C85.9776 231.768 86.8576 231.144 86.8576 230.072V229.24H85.8656C84.3936 229.24 83.4496 229.576 83.4496 230.6C83.4496 231.304 83.8336 231.768 84.7936 231.768ZM90.8526 233V224.632H92.7886V225.96C93.1886 225.144 94.1166 224.456 95.4926 224.456C97.1726 224.456 98.3566 225.432 98.3566 227.736V233H96.4206V227.912C96.4206 226.648 95.9086 226.072 94.7566 226.072C93.6686 226.072 92.7886 226.744 92.7886 228.072V233H90.8526ZM103.995 236.072C101.371 236.072 100.187 234.888 99.963 233.288H101.915C102.075 234.12 102.715 234.6 103.979 234.6C105.483 234.6 106.315 233.848 106.315 232.344V231.112C105.851 231.912 104.811 232.664 103.579 232.664C101.483 232.664 99.867 231.096 99.867 228.68V228.568C99.867 226.216 101.467 224.456 103.627 224.456C105.003 224.456 105.835 225.08 106.315 225.912V224.632H108.251V232.376C108.235 234.84 106.587 236.072 103.995 236.072ZM104.059 231.176C105.403 231.176 106.379 230.216 106.379 228.616V228.504C106.379 226.92 105.515 225.976 104.123 225.976C102.683 225.976 101.851 227.016 101.851 228.536V228.664C101.851 230.216 102.811 231.176 104.059 231.176ZM112.584 233.16C111.048 233.16 109.784 232.424 109.784 230.68C109.784 228.728 111.672 228.024 114.072 228.024H115.112V227.592C115.112 226.472 114.728 225.912 113.592 225.912C112.584 225.912 112.088 226.392 111.992 227.224H110.12C110.28 225.272 111.832 224.456 113.704 224.456C115.576 224.456 117.048 225.224 117.048 227.512V233H115.144V231.976C114.6 232.696 113.864 233.16 112.584 233.16ZM113.048 231.768C114.232 231.768 115.112 231.144 115.112 230.072V229.24H114.12C112.648 229.24 111.704 229.576 111.704 230.6C111.704 231.304 112.088 231.768 113.048 231.768Z" fill="black" fill-opacity="0.32"/>
</g>
</g>
<path d="M24 253C24 252.448 24.4477 252 25 252H350C350.552 252 351 252.448 351 253C351 253.552 350.552 254 350 254H25C24.4477 254 24 253.552 24 253Z" fill="#EFEFEF"/>
<path d="M25.148 291V280.99H27.374L31.588 288.228V280.99H33.282V291H31.35L26.842 283.328V291H25.148ZM37.7786 282.586L38.6046 280.416H40.4806L39.0246 282.586H37.7786ZM37.7086 291.14C36.2666 291.14 35.1886 290.314 35.1886 288.368V283.678H36.8826V288.172C36.8826 289.278 37.3446 289.782 38.3246 289.782C39.2346 289.782 40.0326 289.194 40.0326 288.032V283.678H41.7266V291H40.0326V289.852C39.6686 290.566 38.8986 291.14 37.7086 291.14ZM43.5952 291V283.678H45.2892V284.798C45.6392 284.112 46.4372 283.524 47.5152 283.524C48.4672 283.524 49.2232 283.93 49.5872 284.84C50.1472 283.93 51.1552 283.524 52.0652 283.524C53.4092 283.524 54.5012 284.35 54.5012 286.366V291H52.8072V286.478C52.8072 285.4 52.3452 284.938 51.5052 284.938C50.6652 284.938 49.8952 285.498 49.8952 286.618V291H48.2012V286.478C48.2012 285.4 47.7252 284.938 46.8992 284.938C46.0592 284.938 45.2892 285.498 45.2892 286.618V291H43.5952ZM59.5268 291.14C57.3707 291.14 55.8167 289.726 55.8167 287.416V287.304C55.8167 285.036 57.3707 283.524 59.4568 283.524C61.2768 283.524 62.9148 284.602 62.9148 287.22V287.71H57.5528C57.6088 289.096 58.3087 289.88 59.5688 289.88C60.5908 289.88 61.1228 289.474 61.2488 288.76H62.8868C62.6488 290.3 61.4028 291.14 59.5268 291.14ZM57.5807 286.576H61.2348C61.1508 285.316 60.5068 284.756 59.4568 284.756C58.4348 284.756 57.7488 285.442 57.5807 286.576ZM64.2878 291V283.678H65.9818V285.05C66.4438 284.126 67.1298 283.58 68.3618 283.566V285.148C66.8778 285.162 65.9818 285.638 65.9818 287.192V291H64.2878ZM72.8239 291.14C70.6679 291.14 69.0719 289.642 69.0719 287.416V287.304C69.0719 285.036 70.6819 283.524 72.8379 283.524C74.9799 283.524 76.5899 285.022 76.5899 287.262V287.374C76.5899 289.656 74.9799 291.14 72.8239 291.14ZM72.8379 289.824C74.0979 289.824 74.8539 288.886 74.8539 287.388V287.29C74.8539 285.778 74.0979 284.854 72.8379 284.854C71.5779 284.854 70.8079 285.764 70.8079 287.276V287.388C70.8079 288.886 71.5499 289.824 72.8379 289.824Z" fill="black" fill-opacity="0.64"/>
<g clip-path="url(#clip4_17453_7521)">
<g clip-path="url(#clip5_17453_7521)">
<path d="M25.64 326V311.7H29.98C34.96 311.7 37.38 314.54 37.38 318.7V318.88C37.38 323.04 34.96 326 29.94 326H25.64ZM28.3 323.9H29.86C33.06 323.9 34.6 322.06 34.6 318.9V318.74C34.6 315.66 33.2 313.8 29.84 313.8H28.3V323.9ZM40.5573 313.82C39.7573 313.82 39.1173 313.22 39.1173 312.44C39.1173 311.64 39.7573 311.04 40.5573 311.04C41.3573 311.04 41.9973 311.64 41.9973 312.44C41.9973 313.22 41.3573 313.82 40.5573 313.82ZM39.3773 326V315.54H41.7973V326H39.3773ZM48.807 329.84C45.527 329.84 44.047 328.36 43.767 326.36H46.207C46.407 327.4 47.207 328 48.787 328C50.667 328 51.707 327.06 51.707 325.18V323.64C51.127 324.64 49.827 325.58 48.287 325.58C45.667 325.58 43.647 323.62 43.647 320.6V320.46C43.647 317.52 45.647 315.32 48.347 315.32C50.067 315.32 51.107 316.1 51.707 317.14V315.54H54.127V325.22C54.107 328.3 52.047 329.84 48.807 329.84ZM48.887 323.72C50.567 323.72 51.787 322.52 51.787 320.52V320.38C51.787 318.4 50.707 317.22 48.967 317.22C47.167 317.22 46.127 318.52 46.127 320.42V320.58C46.127 322.52 47.327 323.72 48.887 323.72ZM57.8433 313.82C57.0433 313.82 56.4033 313.22 56.4033 312.44C56.4033 311.64 57.0433 311.04 57.8433 311.04C58.6433 311.04 59.2833 311.64 59.2833 312.44C59.2833 313.22 58.6433 313.82 57.8433 313.82ZM56.6633 326V315.54H59.0833V326H56.6633ZM65.193 326.18C63.113 326.18 62.033 325.06 62.033 323.08V317.36H60.633V315.54H62.033V313.24H64.453V315.54H66.753V317.36H64.453V322.86C64.453 323.78 64.893 324.2 65.653 324.2C66.133 324.2 66.493 324.14 66.833 324V325.92C66.453 326.06 65.933 326.18 65.193 326.18ZM73.2158 326.2C70.1358 326.2 67.9158 324.18 67.9158 320.88V320.72C67.9158 317.48 70.1358 315.32 73.1158 315.32C75.7158 315.32 78.0558 316.86 78.0558 320.6V321.3H70.3958C70.4758 323.28 71.4758 324.4 73.2758 324.4C74.7358 324.4 75.4958 323.82 75.6758 322.8H78.0158C77.6758 325 75.8958 326.2 73.2158 326.2ZM70.4358 319.68H75.6558C75.5358 317.88 74.6158 317.08 73.1158 317.08C71.6558 317.08 70.6758 318.06 70.4358 319.68ZM88.843 326.2C85.763 326.2 83.483 324.06 83.483 320.88V320.72C83.483 317.48 85.783 315.32 88.863 315.32C91.923 315.32 94.223 317.46 94.223 320.66V320.82C94.223 324.08 91.923 326.2 88.843 326.2ZM88.863 324.32C90.663 324.32 91.743 322.98 91.743 320.84V320.7C91.743 318.54 90.663 317.22 88.863 317.22C87.063 317.22 85.963 318.52 85.963 320.68V320.84C85.963 322.98 87.023 324.32 88.863 324.32ZM100.375 326V315.54H102.795V317.2C103.295 316.18 104.455 315.32 106.175 315.32C108.275 315.32 109.755 316.54 109.755 319.42V326H107.335V319.64C107.335 318.06 106.695 317.34 105.255 317.34C103.895 317.34 102.795 318.18 102.795 319.84V326H100.375ZM115.743 313.98L116.923 310.88H119.603L117.523 313.98H115.743ZM115.643 326.2C113.583 326.2 112.043 325.02 112.043 322.24V315.54H114.463V321.96C114.463 323.54 115.123 324.26 116.523 324.26C117.823 324.26 118.963 323.42 118.963 321.76V315.54H121.383V326H118.963V324.36C118.443 325.38 117.343 326.2 115.643 326.2ZM123.852 326V315.54H126.272V317.14C126.772 316.16 127.912 315.32 129.452 315.32C130.812 315.32 131.892 315.9 132.412 317.2C133.212 315.9 134.652 315.32 135.952 315.32C137.872 315.32 139.432 316.5 139.432 319.38V326H137.012V319.54C137.012 318 136.352 317.34 135.152 317.34C133.952 317.34 132.852 318.14 132.852 319.74V326H130.432V319.54C130.432 318 129.752 317.34 128.572 317.34C127.372 317.34 126.272 318.14 126.272 319.74V326H123.852ZM146.412 326.2C143.332 326.2 141.112 324.18 141.112 320.88V320.72C141.112 317.48 143.332 315.32 146.312 315.32C148.912 315.32 151.252 316.86 151.252 320.6V321.3H143.592C143.672 323.28 144.672 324.4 146.472 324.4C147.932 324.4 148.692 323.82 148.872 322.8H151.212C150.872 325 149.092 326.2 146.412 326.2ZM143.632 319.68H148.852C148.732 317.88 147.812 317.08 146.312 317.08C144.852 317.08 143.872 318.06 143.632 319.68ZM153.013 326V315.54H155.433V317.5C156.093 316.18 157.073 315.4 158.833 315.38V317.64C156.713 317.66 155.433 318.34 155.433 320.56V326H153.013ZM165.008 326.2C161.928 326.2 159.648 324.06 159.648 320.88V320.72C159.648 317.48 161.948 315.32 165.028 315.32C168.088 315.32 170.388 317.46 170.388 320.66V320.82C170.388 324.08 168.088 326.2 165.008 326.2ZM165.028 324.32C166.828 324.32 167.908 322.98 167.908 320.84V320.7C167.908 318.54 166.828 317.22 165.028 317.22C163.228 317.22 162.128 318.52 162.128 320.68V320.84C162.128 322.98 163.188 324.32 165.028 324.32Z" fill="black" fill-opacity="0.32"/>
</g>
</g>
<g clip-path="url(#clip6_17453_7521)">
<rect width="327" height="2" transform="translate(24 344)" fill="#EFEFEF"/>
</g>
<path d="M29.53 383.14C26.394 383.14 24.644 381.138 24.644 378.058V377.946C24.644 374.936 26.716 372.836 29.502 372.836C31.798 372.836 33.576 373.984 33.8 376.336H31.91C31.7 375.006 30.958 374.32 29.516 374.32C27.752 374.32 26.604 375.692 26.604 377.932V378.044C26.604 380.298 27.682 381.628 29.53 381.628C30.916 381.628 31.896 380.928 32.092 379.514H33.912C33.618 381.922 31.91 383.14 29.53 383.14ZM38.5206 383.14C36.3646 383.14 34.7686 381.642 34.7686 379.416V379.304C34.7686 377.036 36.3786 375.524 38.5346 375.524C40.6766 375.524 42.2866 377.022 42.2866 379.262V379.374C42.2866 381.656 40.6766 383.14 38.5206 383.14ZM38.5346 381.824C39.7946 381.824 40.5506 380.886 40.5506 379.388V379.29C40.5506 377.778 39.7946 376.854 38.5346 376.854C37.2746 376.854 36.5046 377.764 36.5046 379.276V379.388C36.5046 380.886 37.2466 381.824 38.5346 381.824ZM43.6772 383V375.678H45.3712V376.798C45.7212 376.112 46.5192 375.524 47.5972 375.524C48.5492 375.524 49.3052 375.93 49.6692 376.84C50.2292 375.93 51.2372 375.524 52.1472 375.524C53.4912 375.524 54.5832 376.35 54.5832 378.366V383H52.8892V378.478C52.8892 377.4 52.4272 376.938 51.5872 376.938C50.7472 376.938 49.9772 377.498 49.9772 378.618V383H48.2832V378.478C48.2832 377.4 47.8072 376.938 46.9812 376.938C46.1412 376.938 45.3712 377.498 45.3712 378.618V383H43.6772ZM56.3888 385.506V375.678H58.0828V376.854C58.4888 376.154 59.3988 375.524 60.4768 375.524C62.3108 375.524 63.7248 376.882 63.7248 379.248V379.36C63.7248 381.712 62.3668 383.14 60.4768 383.14C59.3148 383.14 58.4748 382.566 58.0828 381.852V385.506H56.3888ZM60.0568 381.796C61.3028 381.796 61.9888 380.956 61.9888 379.388V379.276C61.9888 377.652 61.1488 376.854 60.0428 376.854C58.8668 376.854 58.0268 377.652 58.0268 379.276V379.388C58.0268 381.026 58.8248 381.796 60.0568 381.796ZM65.1502 383V372.29H66.8442V383H65.1502ZM71.9889 383.14C69.8329 383.14 68.2789 381.726 68.2789 379.416V379.304C68.2789 377.036 69.8329 375.524 71.9189 375.524C73.7389 375.524 75.3769 376.602 75.3769 379.22V379.71H70.0149C70.0709 381.096 70.7709 381.88 72.0309 381.88C73.0529 381.88 73.5849 381.474 73.7109 380.76H75.3489C75.1109 382.3 73.8649 383.14 71.9889 383.14ZM70.0429 378.576H73.6969C73.6129 377.316 72.9689 376.756 71.9189 376.756C70.8969 376.756 70.2109 377.442 70.0429 378.576ZM76.75 383V375.678H78.444V376.798C78.794 376.112 79.592 375.524 80.67 375.524C81.622 375.524 82.378 375.93 82.742 376.84C83.302 375.93 84.31 375.524 85.22 375.524C86.564 375.524 87.656 376.35 87.656 378.366V383H85.962V378.478C85.962 377.4 85.5 376.938 84.66 376.938C83.82 376.938 83.05 377.498 83.05 378.618V383H81.356V378.478C81.356 377.4 80.88 376.938 80.054 376.938C79.214 376.938 78.444 377.498 78.444 378.618V383H76.75ZM92.6816 383.14C90.5256 383.14 88.9716 381.726 88.9716 379.416V379.304C88.9716 377.036 90.5256 375.524 92.6116 375.524C94.4316 375.524 96.0696 376.602 96.0696 379.22V379.71H90.7076C90.7636 381.096 91.4636 381.88 92.7236 381.88C93.7456 381.88 94.2776 381.474 94.4036 380.76H96.0416C95.8036 382.3 94.5576 383.14 92.6816 383.14ZM90.7356 378.576H94.3896C94.3056 377.316 93.6616 376.756 92.6116 376.756C91.5896 376.756 90.9036 377.442 90.7356 378.576ZM97.4427 383V375.678H99.1367V376.84C99.4867 376.126 100.299 375.524 101.503 375.524C102.973 375.524 104.009 376.378 104.009 378.394V383H102.315V378.548C102.315 377.442 101.867 376.938 100.859 376.938C99.9067 376.938 99.1367 377.526 99.1367 378.688V383H97.4427ZM108.312 383.126C106.856 383.126 106.1 382.342 106.1 380.956V376.952H105.12V375.678H106.1V374.068H107.794V375.678H109.404V376.952H107.794V380.802C107.794 381.446 108.102 381.74 108.634 381.74C108.97 381.74 109.222 381.698 109.46 381.6V382.944C109.194 383.042 108.83 383.126 108.312 383.126ZM114.11 383.14C111.954 383.14 110.358 381.642 110.358 379.416V379.304C110.358 377.036 111.968 375.524 114.124 375.524C116.266 375.524 117.876 377.022 117.876 379.262V379.374C117.876 381.656 116.266 383.14 114.11 383.14ZM114.124 381.824C115.384 381.824 116.14 380.886 116.14 379.388V379.29C116.14 377.778 115.384 376.854 114.124 376.854C112.864 376.854 112.094 377.764 112.094 379.276V379.388C112.094 380.886 112.836 381.824 114.124 381.824Z" fill="black" fill-opacity="0.64"/>
<g clip-path="url(#clip7_17453_7521)">
<g clip-path="url(#clip8_17453_7521)">
<path d="M24.54 418L29.32 403.7H32.8L37.52 418H34.76L33.62 414.46H28.16L27.04 418H24.54ZM30.9 405.88L28.78 412.52H33L30.9 405.88ZM39.1025 421.58V407.54H41.5225V409.22C42.1025 408.22 43.4025 407.32 44.9425 407.32C47.5625 407.32 49.5825 409.26 49.5825 412.64V412.8C49.5825 416.16 47.6425 418.2 44.9425 418.2C43.2825 418.2 42.0825 417.38 41.5225 416.36V421.58H39.1025ZM44.3425 416.28C46.1225 416.28 47.1025 415.08 47.1025 412.84V412.68C47.1025 410.36 45.9025 409.22 44.3225 409.22C42.6425 409.22 41.4425 410.36 41.4425 412.68V412.84C41.4425 415.18 42.5825 416.28 44.3425 416.28ZM54.0988 418.2C52.1788 418.2 50.5988 417.28 50.5988 415.1C50.5988 412.66 52.9588 411.78 55.9588 411.78H57.2588V411.24C57.2588 409.84 56.7788 409.14 55.3588 409.14C54.0988 409.14 53.4788 409.74 53.3588 410.78H51.0188C51.2188 408.34 53.1588 407.32 55.4988 407.32C57.8388 407.32 59.6788 408.28 59.6788 411.14V418H57.2988V416.72C56.6188 417.62 55.6988 418.2 54.0988 418.2ZM54.6788 416.46C56.1588 416.46 57.2588 415.68 57.2588 414.34V413.3H56.0188C54.1788 413.3 52.9988 413.72 52.9988 415C52.9988 415.88 53.4788 416.46 54.6788 416.46ZM62.0525 418V407.54H64.4725V409.5C65.1325 408.18 66.1125 407.4 67.8725 407.38V409.64C65.7525 409.66 64.4725 410.34 64.4725 412.56V418H62.0525ZM73.2789 418.18C71.1989 418.18 70.1189 417.06 70.1189 415.08V409.36H68.7189V407.54H70.1189V405.24H72.5389V407.54H74.8389V409.36H72.5389V414.86C72.5389 415.78 72.9789 416.2 73.7389 416.2C74.2189 416.2 74.5789 416.14 74.9189 416V417.92C74.5389 418.06 74.0189 418.18 73.2789 418.18ZM79.5198 418.2C77.5998 418.2 76.0198 417.28 76.0198 415.1C76.0198 412.66 78.3798 411.78 81.3798 411.78H82.6798V411.24C82.6798 409.84 82.1998 409.14 80.7798 409.14C79.5198 409.14 78.8998 409.74 78.7798 410.78H76.4398C76.6398 408.34 78.5798 407.32 80.9198 407.32C83.2598 407.32 85.0998 408.28 85.0998 411.14V418H82.7198V416.72C82.0398 417.62 81.1198 418.2 79.5198 418.2ZM80.0998 416.46C81.5798 416.46 82.6798 415.68 82.6798 414.34V413.3H81.4398C79.5998 413.3 78.4198 413.72 78.4198 415C78.4198 415.88 78.8998 416.46 80.0998 416.46ZM87.4736 418V407.54H89.8936V409.14C90.3936 408.16 91.5336 407.32 93.0736 407.32C94.4336 407.32 95.5136 407.9 96.0336 409.2C96.8336 407.9 98.2736 407.32 99.5736 407.32C101.494 407.32 103.054 408.5 103.054 411.38V418H100.634V411.54C100.634 410 99.9736 409.34 98.7736 409.34C97.5736 409.34 96.4736 410.14 96.4736 411.74V418H94.0536V411.54C94.0536 410 93.3736 409.34 92.1936 409.34C90.9936 409.34 89.8936 410.14 89.8936 411.74V418H87.4736ZM110.033 418.2C106.953 418.2 104.733 416.18 104.733 412.88V412.72C104.733 409.48 106.953 407.32 109.933 407.32C112.533 407.32 114.873 408.86 114.873 412.6V413.3H107.213C107.293 415.28 108.293 416.4 110.093 416.4C111.553 416.4 112.313 415.82 112.493 414.8H114.833C114.493 417 112.713 418.2 110.033 418.2ZM107.253 411.68H112.473C112.353 409.88 111.433 409.08 109.933 409.08C108.473 409.08 107.493 410.06 107.253 411.68ZM116.635 418V407.54H119.055V409.2C119.555 408.18 120.715 407.32 122.435 407.32C124.535 407.32 126.015 408.54 126.015 411.42V418H123.595V411.64C123.595 410.06 122.955 409.34 121.515 409.34C120.155 409.34 119.055 410.18 119.055 411.84V418H116.635ZM131.963 418.18C129.883 418.18 128.803 417.06 128.803 415.08V409.36H127.403V407.54H128.803V405.24H131.223V407.54H133.523V409.36H131.223V414.86C131.223 415.78 131.663 416.2 132.423 416.2C132.903 416.2 133.263 416.14 133.603 416V417.92C133.223 418.06 132.703 418.18 131.963 418.18ZM140.045 418.2C136.965 418.2 134.685 416.06 134.685 412.88V412.72C134.685 409.48 136.985 407.32 140.065 407.32C143.125 407.32 145.425 409.46 145.425 412.66V412.82C145.425 416.08 143.125 418.2 140.045 418.2ZM140.065 416.32C141.865 416.32 142.945 414.98 142.945 412.84V412.7C142.945 410.54 141.865 409.22 140.065 409.22C138.265 409.22 137.165 410.52 137.165 412.68V412.84C137.165 414.98 138.225 416.32 140.065 416.32ZM146.664 420.04V418.9C147.604 418.8 148.044 418.46 148.064 417.86C147.144 417.82 146.584 417.32 146.584 416.44C146.584 415.6 147.304 415 148.124 415C149.064 415 149.764 415.66 149.764 416.78V417.14C149.764 419.08 148.504 419.98 146.664 420.04ZM156.67 418V403.7H161.79C164.73 403.7 166.47 404.82 166.47 407.42V407.5C166.47 408.92 165.83 410.04 164.21 410.54C166.15 410.96 167.07 412.02 167.07 413.92V414C167.07 416.66 165.31 418 162.17 418H156.67ZM159.27 409.72H161.47C163.23 409.72 163.91 409.08 163.91 407.62V407.54C163.91 406.18 163.13 405.6 161.43 405.6H159.27V409.72ZM159.27 416.1H161.85C163.63 416.1 164.45 415.3 164.45 413.82V413.74C164.45 412.26 163.63 411.52 161.67 411.52H159.27V416.1ZM169.021 418V402.7H171.441V418H169.021ZM178.651 418.2C175.571 418.2 173.291 416.06 173.291 412.88V412.72C173.291 409.48 175.591 407.32 178.671 407.32C181.731 407.32 184.031 409.46 184.031 412.66V412.82C184.031 416.08 181.731 418.2 178.651 418.2ZM178.671 416.32C180.471 416.32 181.551 414.98 181.551 412.84V412.7C181.551 410.54 180.471 409.22 178.671 409.22C176.871 409.22 175.771 410.52 175.771 412.68V412.84C175.771 414.98 176.831 416.32 178.671 416.32ZM190.397 418.2C187.397 418.2 185.117 416.24 185.117 412.9V412.74C185.117 409.42 187.477 407.32 190.397 407.32C192.717 407.32 194.897 408.36 195.177 411.24H192.837C192.637 409.84 191.717 409.26 190.437 409.26C188.777 409.26 187.597 410.54 187.597 412.7V412.86C187.597 415.14 188.717 416.34 190.497 416.34C191.777 416.34 192.877 415.58 193.017 414.1H195.237C195.057 416.5 193.237 418.2 190.397 418.2ZM201.581 418.2C198.501 418.2 196.221 416.06 196.221 412.88V412.72C196.221 409.48 198.521 407.32 201.601 407.32C204.661 407.32 206.961 409.46 206.961 412.66V412.82C206.961 416.08 204.661 418.2 201.581 418.2ZM201.601 416.32C203.401 416.32 204.481 414.98 204.481 412.84V412.7C204.481 410.54 203.401 409.22 201.601 409.22C199.801 409.22 198.701 410.52 198.701 412.68V412.84C198.701 414.98 199.761 416.32 201.601 416.32ZM208.2 420.04V418.9C209.14 418.8 209.58 418.46 209.6 417.86C208.68 417.82 208.12 417.32 208.12 416.44C208.12 415.6 208.84 415 209.66 415C210.6 415 211.3 415.66 211.3 416.78V417.14C211.3 419.08 210.04 419.98 208.2 420.04ZM222.606 418.2C219.526 418.2 217.306 416.18 217.306 412.88V412.72C217.306 409.48 219.526 407.32 222.506 407.32C225.106 407.32 227.446 408.86 227.446 412.6V413.3H219.786C219.866 415.28 220.866 416.4 222.666 416.4C224.126 416.4 224.886 415.82 225.066 414.8H227.406C227.066 417 225.286 418.2 222.606 418.2ZM219.826 411.68H225.046C224.926 409.88 224.006 409.08 222.506 409.08C221.046 409.08 220.066 410.06 219.826 411.68ZM232.768 418.18C230.688 418.18 229.608 417.06 229.608 415.08V409.36H228.208V407.54H229.608V405.24H232.028V407.54H234.328V409.36H232.028V414.86C232.028 415.78 232.468 416.2 233.228 416.2C233.708 416.2 234.068 416.14 234.408 416V417.92C234.028 418.06 233.508 418.18 232.768 418.18ZM240.771 418.2C237.771 418.2 235.491 416.24 235.491 412.9V412.74C235.491 409.42 237.851 407.32 240.771 407.32C243.091 407.32 245.271 408.36 245.551 411.24H243.211C243.011 409.84 242.091 409.26 240.811 409.26C239.151 409.26 237.971 410.54 237.971 412.7V412.86C237.971 415.14 239.091 416.34 240.871 416.34C242.151 416.34 243.251 415.58 243.391 414.1H245.611C245.431 416.5 243.611 418.2 240.771 418.2Z" fill="black" fill-opacity="0.32"/>
</g>
</g>
<g clip-path="url(#clip9_17453_7521)">
<rect width="327" height="2" transform="translate(24 436)" fill="#EFEFEF"/>
</g>
<path d="M25.148 475V464.99H28.368C30.608 464.99 32.078 465.984 32.078 468.084V468.14C32.078 470.254 30.552 471.192 28.41 471.192H27.01V475H25.148ZM27.01 469.848H28.368C29.6 469.848 30.258 469.246 30.258 468.14V468.084C30.258 466.894 29.558 466.432 28.368 466.432H27.01V469.848ZM36.4425 475.14C34.2865 475.14 32.6905 473.642 32.6905 471.416V471.304C32.6905 469.036 34.3005 467.524 36.4565 467.524C38.5985 467.524 40.2085 469.022 40.2085 471.262V471.374C40.2085 473.656 38.5985 475.14 36.4425 475.14ZM36.4565 473.824C37.7165 473.824 38.4725 472.886 38.4725 471.388V471.29C38.4725 469.778 37.7165 468.854 36.4565 468.854C35.1965 468.854 34.4265 469.764 34.4265 471.276V471.388C34.4265 472.886 35.1685 473.824 36.4565 473.824ZM41.5991 475V467.678H43.2931V468.84C43.6431 468.126 44.4551 467.524 45.6591 467.524C47.1291 467.524 48.1651 468.378 48.1651 470.394V475H46.4711V470.548C46.4711 469.442 46.0231 468.938 45.0151 468.938C44.0631 468.938 43.2931 469.526 43.2931 470.688V475H41.5991ZM52.4687 475.126C51.0127 475.126 50.2567 474.342 50.2567 472.956V468.952H49.2767V467.678H50.2567V466.068H51.9507V467.678H53.5607V468.952H51.9507V472.802C51.9507 473.446 52.2587 473.74 52.7907 473.74C53.1267 473.74 53.3787 473.698 53.6167 473.6V474.944C53.3507 475.042 52.9867 475.126 52.4687 475.126ZM58.2666 475.14C56.1106 475.14 54.5146 473.642 54.5146 471.416V471.304C54.5146 469.036 56.1246 467.524 58.2806 467.524C60.4226 467.524 62.0326 469.022 62.0326 471.262V471.374C62.0326 473.656 60.4226 475.14 58.2666 475.14ZM58.2806 473.824C59.5406 473.824 60.2966 472.886 60.2966 471.388V471.29C60.2966 469.778 59.5406 468.854 58.2806 468.854C57.0206 468.854 56.2506 469.764 56.2506 471.276V471.388C56.2506 472.886 56.9926 473.824 58.2806 473.824ZM69.3632 475.14C67.5292 475.14 66.1432 473.838 66.1432 471.458V471.346C66.1432 469.008 67.5292 467.524 69.4332 467.524C70.6232 467.524 71.3652 468.07 71.7712 468.798V464.29H73.4652V475H71.7712V473.768C71.3792 474.496 70.4412 475.14 69.3632 475.14ZM69.7832 473.796C70.9592 473.796 71.8272 473.012 71.8272 471.374V471.262C71.8272 469.652 71.0852 468.854 69.8532 468.854C68.6072 468.854 67.8792 469.722 67.8792 471.304V471.416C67.8792 473.026 68.6912 473.796 69.7832 473.796ZM78.5585 475.14C76.4025 475.14 74.8485 473.726 74.8485 471.416V471.304C74.8485 469.036 76.4025 467.524 78.4885 467.524C80.3085 467.524 81.9465 468.602 81.9465 471.22V471.71H76.5845C76.6405 473.096 77.3405 473.88 78.6005 473.88C79.6225 473.88 80.1545 473.474 80.2805 472.76H81.9185C81.6805 474.3 80.4345 475.14 78.5585 475.14ZM76.6125 470.576H80.2665C80.1825 469.316 79.5385 468.756 78.4885 468.756C77.4665 468.756 76.7805 469.442 76.6125 470.576ZM86.5156 475V467.678H88.2096V469.05C88.6716 468.126 89.3576 467.58 90.5896 467.566V469.148C89.1056 469.162 88.2096 469.638 88.2096 471.192V475H86.5156ZM95.0096 475.14C92.8536 475.14 91.2996 473.726 91.2996 471.416V471.304C91.2996 469.036 92.8536 467.524 94.9396 467.524C96.7596 467.524 98.3976 468.602 98.3976 471.22V471.71H93.0356C93.0916 473.096 93.7916 473.88 95.0516 473.88C96.0736 473.88 96.6056 473.474 96.7316 472.76H98.3696C98.1316 474.3 96.8856 475.14 95.0096 475.14ZM93.0636 470.576H96.7176C96.6336 469.316 95.9896 468.756 94.9396 468.756C93.9176 468.756 93.2316 469.442 93.0636 470.576ZM100.065 475V468.952H99.0707V467.678H100.065V466.698C100.065 465.088 100.961 464.22 102.529 464.22C102.935 464.22 103.187 464.262 103.495 464.36V465.676C103.299 465.606 103.033 465.55 102.725 465.55C102.039 465.55 101.759 465.998 101.759 466.628V467.678H103.425V468.952H101.759V475H100.065ZM107.609 475.14C105.453 475.14 103.899 473.726 103.899 471.416V471.304C103.899 469.036 105.453 467.524 107.539 467.524C109.359 467.524 110.997 468.602 110.997 471.22V471.71H105.635C105.691 473.096 106.391 473.88 107.651 473.88C108.673 473.88 109.205 473.474 109.331 472.76H110.969C110.731 474.3 109.485 475.14 107.609 475.14ZM105.663 470.576H109.317C109.233 469.316 108.589 468.756 107.539 468.756C106.517 468.756 105.831 469.442 105.663 470.576ZM112.37 475V467.678H114.064V469.05C114.526 468.126 115.212 467.58 116.444 467.566V469.148C114.96 469.162 114.064 469.638 114.064 471.192V475H112.37ZM118.512 466.572L120.108 464.458H121.452L123.006 466.572H121.802L120.752 465.62L119.688 466.572H118.512ZM120.864 475.14C118.708 475.14 117.154 473.726 117.154 471.416V471.304C117.154 469.036 118.708 467.524 120.794 467.524C122.614 467.524 124.252 468.602 124.252 471.22V471.71H118.89C118.946 473.096 119.646 473.88 120.906 473.88C121.928 473.88 122.46 473.474 122.586 472.76H124.224C123.986 474.3 122.74 475.14 120.864 475.14ZM118.918 470.576H122.572C122.488 469.316 121.844 468.756 120.794 468.756C119.772 468.756 119.086 469.442 118.918 470.576ZM125.625 475V467.678H127.319V468.84C127.669 468.126 128.481 467.524 129.685 467.524C131.155 467.524 132.191 468.378 132.191 470.394V475H130.497V470.548C130.497 469.442 130.049 468.938 129.041 468.938C128.089 468.938 127.319 469.526 127.319 470.688V475H125.625ZM137.208 475.14C135.108 475.14 133.512 473.768 133.512 471.43V471.318C133.512 468.994 135.164 467.524 137.208 467.524C138.832 467.524 140.358 468.252 140.554 470.268H138.916C138.776 469.288 138.132 468.882 137.236 468.882C136.074 468.882 135.248 469.778 135.248 471.29V471.402C135.248 472.998 136.032 473.838 137.278 473.838C138.174 473.838 138.944 473.306 139.042 472.27H140.596C140.47 473.95 139.196 475.14 137.208 475.14ZM142.783 466.474C142.223 466.474 141.775 466.054 141.775 465.508C141.775 464.948 142.223 464.528 142.783 464.528C143.343 464.528 143.791 464.948 143.791 465.508C143.791 466.054 143.343 466.474 142.783 466.474ZM141.957 475V467.678H143.651V475H141.957ZM147.494 475.14C146.15 475.14 145.044 474.496 145.044 472.97C145.044 471.262 146.696 470.646 148.796 470.646H149.706V470.268C149.706 469.288 149.37 468.798 148.376 468.798C147.494 468.798 147.06 469.218 146.976 469.946H145.338C145.478 468.238 146.836 467.524 148.474 467.524C150.112 467.524 151.4 468.196 151.4 470.198V475H149.734V474.104C149.258 474.734 148.614 475.14 147.494 475.14ZM147.9 473.922C148.936 473.922 149.706 473.376 149.706 472.438V471.71H148.838C147.55 471.71 146.724 472.004 146.724 472.9C146.724 473.516 147.06 473.922 147.9 473.922Z" fill="black" fill-opacity="0.64"/>
<g clip-path="url(#clip10_17453_7521)">
<g clip-path="url(#clip11_17453_7521)">
<path d="M25.64 510V495.7H34.58V497.8H28.3V501.72H33.34V503.72H28.3V507.9H34.92V510H25.64ZM35.7778 510L39.4178 504.64L36.0178 499.54H38.8178L40.9978 502.92L43.1578 499.54H45.6978L42.3178 504.46L46.0578 510H43.2378L40.7978 506.22L38.2978 510H35.7778ZM48.9725 504.3C48.0925 504.3 47.3925 503.6 47.3925 502.72C47.3925 501.84 48.0925 501.16 48.9725 501.16C49.8725 501.16 50.5725 501.84 50.5725 502.72C50.5725 503.6 49.8725 504.3 48.9725 504.3ZM48.9725 510.14C48.0925 510.14 47.3925 509.46 47.3925 508.58C47.3925 507.7 48.0925 507 48.9725 507C49.8725 507 50.5725 507.7 50.5725 508.58C50.5725 509.46 49.8725 510.14 48.9725 510.14ZM61.9556 510.2C58.8756 510.2 56.6556 508.18 56.6556 504.88V504.72C56.6556 501.48 58.8756 499.32 61.8556 499.32C64.4556 499.32 66.7956 500.86 66.7956 504.6V505.3H59.1356C59.2156 507.28 60.2156 508.4 62.0156 508.4C63.4756 508.4 64.2356 507.82 64.4156 506.8H66.7556C66.4156 509 64.6356 510.2 61.9556 510.2ZM59.1756 503.68H64.3956C64.2756 501.88 63.3556 501.08 61.8556 501.08C60.3956 501.08 59.4156 502.06 59.1756 503.68ZM68.5572 510V499.54H70.9772V501.14C71.4772 500.16 72.6172 499.32 74.1572 499.32C75.5172 499.32 76.5972 499.9 77.1172 501.2C77.9172 499.9 79.3572 499.32 80.6572 499.32C82.5772 499.32 84.1372 500.5 84.1372 503.38V510H81.7172V503.54C81.7172 502 81.0572 501.34 79.8572 501.34C78.6572 501.34 77.5572 502.14 77.5572 503.74V510H75.1372V503.54C75.1372 502 74.4572 501.34 73.2772 501.34C72.0772 501.34 70.9772 502.14 70.9772 503.74V510H68.5572ZM91.3022 510V501.36H89.8822V499.54H91.3022V498.14C91.3022 495.84 92.5822 494.6 94.8222 494.6C95.4022 494.6 95.7622 494.66 96.2022 494.8V496.68C95.9222 496.58 95.5422 496.5 95.1022 496.5C94.1222 496.5 93.7222 497.14 93.7222 498.04V499.54H96.1022V501.36H93.7222V510H91.3022ZM97.7283 510V499.54H100.148V501.5C100.808 500.18 101.788 499.4 103.548 499.38V501.64C101.428 501.66 100.148 502.34 100.148 504.56V510H97.7283ZM109.663 510.2C106.583 510.2 104.363 508.18 104.363 504.88V504.72C104.363 501.48 106.583 499.32 109.563 499.32C112.163 499.32 114.503 500.86 114.503 504.6V505.3H106.843C106.923 507.28 107.923 508.4 109.723 508.4C111.183 508.4 111.943 507.82 112.123 506.8H114.463C114.123 509 112.343 510.2 109.663 510.2ZM106.883 503.68H112.103C111.983 501.88 111.063 501.08 109.563 501.08C108.103 501.08 107.123 502.06 106.883 503.68ZM116.264 510V499.54H118.684V501.2C119.184 500.18 120.344 499.32 122.064 499.32C124.164 499.32 125.644 500.54 125.644 503.42V510H123.224V503.64C123.224 502.06 122.584 501.34 121.144 501.34C119.784 501.34 118.684 502.18 118.684 503.84V510H116.264ZM131.592 510.18C129.512 510.18 128.432 509.06 128.432 507.08V501.36H127.032V499.54H128.432V497.24H130.852V499.54H133.152V501.36H130.852V506.86C130.852 507.78 131.292 508.2 132.052 508.2C132.532 508.2 132.892 508.14 133.232 508V509.92C132.852 510.06 132.332 510.18 131.592 510.18ZM139.615 510.2C136.535 510.2 134.315 508.18 134.315 504.88V504.72C134.315 501.48 136.535 499.32 139.515 499.32C142.115 499.32 144.455 500.86 144.455 504.6V505.3H136.795C136.875 507.28 137.875 508.4 139.675 508.4C141.135 508.4 141.895 507.82 142.075 506.8H144.415C144.075 509 142.295 510.2 139.615 510.2ZM136.835 503.68H142.055C141.935 501.88 141.015 501.08 139.515 501.08C138.055 501.08 137.075 502.06 136.835 503.68ZM153.942 497.98L151.862 494.88H154.542L155.722 497.98H153.942ZM153.322 510.2C151.402 510.2 149.822 509.28 149.822 507.1C149.822 504.66 152.182 503.78 155.182 503.78H156.482V503.24C156.482 501.84 156.002 501.14 154.582 501.14C153.322 501.14 152.702 501.74 152.582 502.78H150.242C150.442 500.34 152.382 499.32 154.722 499.32C157.062 499.32 158.902 500.28 158.902 503.14V510H156.522V508.72C155.842 509.62 154.922 510.2 153.322 510.2ZM153.902 508.46C155.382 508.46 156.482 507.68 156.482 506.34V505.3H155.242C153.402 505.3 152.222 505.72 152.222 507C152.222 507.88 152.702 508.46 153.902 508.46ZM165.642 510V499.54H168.062V501.14C168.562 500.16 169.702 499.32 171.242 499.32C172.602 499.32 173.682 499.9 174.202 501.2C175.002 499.9 176.442 499.32 177.742 499.32C179.662 499.32 181.222 500.5 181.222 503.38V510H178.802V503.54C178.802 502 178.142 501.34 176.942 501.34C175.742 501.34 174.642 502.14 174.642 503.74V510H172.222V503.54C172.222 502 171.542 501.34 170.362 501.34C169.162 501.34 168.062 502.14 168.062 503.74V510H165.642ZM188.201 510.2C185.121 510.2 182.901 508.18 182.901 504.88V504.72C182.901 501.48 185.121 499.32 188.101 499.32C190.701 499.32 193.041 500.86 193.041 504.6V505.3H185.381C185.461 507.28 186.461 508.4 188.261 508.4C189.721 508.4 190.481 507.82 190.661 506.8H193.001C192.661 509 190.881 510.2 188.201 510.2ZM185.421 503.68H190.641C190.521 501.88 189.601 501.08 188.101 501.08C186.641 501.08 185.661 502.06 185.421 503.68ZM194.803 510V499.54H197.223V501.5C197.883 500.18 198.863 499.4 200.623 499.38V501.64C198.503 501.66 197.223 502.34 197.223 504.56V510H194.803ZM206.717 510.2C203.717 510.2 201.437 508.24 201.437 504.9V504.74C201.437 501.42 203.797 499.32 206.717 499.32C209.037 499.32 211.217 500.36 211.497 503.24H209.157C208.957 501.84 208.037 501.26 206.757 501.26C205.097 501.26 203.917 502.54 203.917 504.7V504.86C203.917 507.14 205.037 508.34 206.817 508.34C208.097 508.34 209.197 507.58 209.337 506.1H211.557C211.377 508.5 209.557 510.2 206.717 510.2ZM217.841 510.2C214.761 510.2 212.541 508.18 212.541 504.88V504.72C212.541 501.48 214.761 499.32 217.741 499.32C220.341 499.32 222.681 500.86 222.681 504.6V505.3H215.021C215.101 507.28 216.101 508.4 217.901 508.4C219.361 508.4 220.121 507.82 220.301 506.8H222.641C222.301 509 220.521 510.2 217.841 510.2ZM215.061 503.68H220.281C220.161 501.88 219.241 501.08 217.741 501.08C216.281 501.08 215.301 502.06 215.061 503.68ZM227.28 510.2C225.36 510.2 223.78 509.28 223.78 507.1C223.78 504.66 226.14 503.78 229.14 503.78H230.44V503.24C230.44 501.84 229.96 501.14 228.54 501.14C227.28 501.14 226.66 501.74 226.54 502.78H224.2C224.4 500.34 226.34 499.32 228.68 499.32C231.02 499.32 232.86 500.28 232.86 503.14V510H230.48V508.72C229.8 509.62 228.88 510.2 227.28 510.2ZM227.86 508.46C229.34 508.46 230.44 507.68 230.44 506.34V505.3H229.2C227.36 505.3 226.18 505.72 226.18 507C226.18 507.88 226.66 508.46 227.86 508.46ZM235.234 510V499.54H237.654V501.5C238.314 500.18 239.294 499.4 241.054 499.38V501.64C238.934 501.66 237.654 502.34 237.654 504.56V510H235.234ZM244.023 497.82C243.223 497.82 242.583 497.22 242.583 496.44C242.583 495.64 243.223 495.04 244.023 495.04C244.823 495.04 245.463 495.64 245.463 496.44C245.463 497.22 244.823 497.82 244.023 497.82ZM242.843 510V499.54H245.263V510H242.843ZM250.553 510.2C248.633 510.2 247.053 509.28 247.053 507.1C247.053 504.66 249.413 503.78 252.413 503.78H253.713V503.24C253.713 501.84 253.233 501.14 251.813 501.14C250.553 501.14 249.933 501.74 249.813 502.78H247.473C247.673 500.34 249.613 499.32 251.953 499.32C254.293 499.32 256.133 500.28 256.133 503.14V510H253.753V508.72C253.073 509.62 252.153 510.2 250.553 510.2ZM251.133 508.46C252.613 508.46 253.713 507.68 253.713 506.34V505.3H252.473C250.633 505.3 249.453 505.72 249.453 507C249.453 507.88 249.933 508.46 251.133 508.46Z" fill="black" fill-opacity="0.32"/>
</g>
</g>
<g clip-path="url(#clip12_17453_7521)">
<rect width="327" height="2" transform="translate(24 528)" fill="#EFEFEF"/>
</g>
<path d="M303 772C303 758.745 313.745 748 327 748C340.255 748 351 758.745 351 772C351 785.255 340.255 796 327 796C313.745 796 303 785.255 303 772Z" fill="#EFEFEF"/>
<path d="M327 764L325.59 765.41L331.17 771H319V773H331.17L325.59 778.59L327 780L334.293 772.707C334.683 772.317 334.683 771.683 334.293 771.293L327 764Z" fill="black" fill-opacity="0.32"/>
</g>
<defs>
<clipPath id="clip0_17453_7521">
<rect width="375" height="812" rx="10" fill="white"/>
</clipPath>
<clipPath id="clip1_17453_7521">
<rect width="48" height="48" fill="white" transform="translate(12 52)"/>
</clipPath>
<clipPath id="clip2_17453_7521">
<rect width="327" height="24" fill="white" transform="translate(24 216)"/>
</clipPath>
<clipPath id="clip3_17453_7521">
<rect width="327" height="24" fill="white" transform="translate(24 216)"/>
</clipPath>
<clipPath id="clip4_17453_7521">
<rect width="148" height="24" fill="white" transform="translate(24 308)"/>
</clipPath>
<clipPath id="clip5_17453_7521">
<rect width="148" height="24" fill="white" transform="translate(24 308)"/>
</clipPath>
<clipPath id="clip6_17453_7521">
<rect width="327" height="2" fill="white" transform="translate(24 344)"/>
</clipPath>
<clipPath id="clip7_17453_7521">
<rect width="223" height="24" fill="white" transform="translate(24 400)"/>
</clipPath>
<clipPath id="clip8_17453_7521">
<rect width="223" height="24" fill="white" transform="translate(24 400)"/>
</clipPath>
<clipPath id="clip9_17453_7521">
<rect width="327" height="2" fill="white" transform="translate(24 436)"/>
</clipPath>
<clipPath id="clip10_17453_7521">
<rect width="234" height="24" fill="white" transform="translate(24 492)"/>
</clipPath>
<clipPath id="clip11_17453_7521">
<rect width="234" height="24" fill="white" transform="translate(24 492)"/>
</clipPath>
<clipPath id="clip12_17453_7521">
<rect width="327" height="2" fill="white" transform="translate(24 528)"/>
</clipPath>
</defs>
</svg>
