<svg width="375" height="812" viewBox="0 0 375 812" fill="none" xmlns="http://www.w3.org/2000/svg">
<g clip-path="url(#clip0_17453_7534)">
<rect width="375" height="812" rx="10" fill="white"/>
<rect width="375" height="104" fill="white"/>
<path d="M35.7202 33V24.3354H35.5957L32.9663 26.1812V24.3647L35.7276 22.4312H37.6099V33H35.7202ZM42.9216 33V24.3354H42.7971L40.1677 26.1812V24.3647L42.929 22.4312H44.8113V33H42.9216ZM48.9365 31.5425C48.248 31.5425 47.7646 31.0444 47.7646 30.3853C47.7646 29.7188 48.248 29.228 48.9365 29.228C49.6323 29.228 50.1084 29.7188 50.1084 30.3853C50.1084 31.0444 49.6323 31.5425 48.9365 31.5425ZM48.9365 26.1958C48.248 26.1958 47.7646 25.7051 47.7646 25.0459C47.7646 24.3794 48.248 23.8887 48.9365 23.8887C49.6323 23.8887 50.1084 24.3794 50.1084 25.0459C50.1084 25.7051 49.6323 26.1958 48.9365 26.1958ZM56.0793 33.2637C53.5452 33.2637 52.0437 31.2129 52.0437 27.7046C52.0437 24.2109 53.5671 22.1675 56.0793 22.1675C58.5842 22.1675 60.1077 24.2109 60.1077 27.7192C60.1077 31.2129 58.6062 33.2637 56.0793 33.2637ZM56.0793 31.6963C57.4197 31.6963 58.196 30.3267 58.196 27.7046C58.196 25.0972 57.405 23.7422 56.0793 23.7422C54.7537 23.7422 53.9553 25.1045 53.9553 27.7046C53.9553 30.3267 54.739 31.6963 56.0793 31.6963ZM65.8735 33.2637C63.4492 33.2637 61.7793 32.0039 61.7793 30.1729C61.7793 28.8325 62.6802 27.7705 64.0644 27.4775V27.353C62.9365 27.0747 62.2041 26.1592 62.2041 25.0312C62.2041 23.3613 63.7348 22.1675 65.8808 22.1675C68.0268 22.1675 69.5503 23.3613 69.5503 25.0312C69.5503 26.1665 68.8325 27.0674 67.6972 27.353V27.4775C69.0742 27.7339 69.9824 28.8032 69.9824 30.1655C69.9824 32.0039 68.3125 33.2637 65.8735 33.2637ZM65.8808 31.7915C67.1553 31.7915 68.0268 31.0664 68.0268 30.0117C68.0268 28.957 67.1479 28.2319 65.8808 28.2319C64.6064 28.2319 63.7275 28.957 63.7275 30.0117C63.7275 31.0664 64.6064 31.7915 65.8808 31.7915ZM65.8808 26.7817C66.9502 26.7817 67.6899 26.1445 67.6899 25.2144C67.6899 24.2695 66.9575 23.6177 65.8808 23.6177C64.7969 23.6177 64.0644 24.2695 64.0644 25.2144C64.0644 26.1445 64.8042 26.7817 65.8808 26.7817Z" fill="black" fill-opacity="0.96"/>
<path d="M285.339 29.3337C285.891 29.3337 286.339 29.7815 286.339 30.3337V32.3337C286.339 32.8859 285.891 33.3337 285.339 33.3337H284.339C283.787 33.3337 283.339 32.8859 283.339 32.3337V30.3337C283.339 29.7815 283.787 29.3337 284.339 29.3337H285.339ZM290.006 27.3337C290.558 27.3339 291.006 27.7816 291.006 28.3337V32.3337C291.006 32.8858 290.558 33.3336 290.006 33.3337H289.006C288.454 33.3337 288.006 32.8859 288.006 32.3337V28.3337C288.006 27.7815 288.454 27.3337 289.006 27.3337H290.006ZM294.672 24.9998C295.224 24.9998 295.672 25.4476 295.672 25.9998V32.3337C295.672 32.8859 295.224 33.3337 294.672 33.3337H293.672C293.12 33.3336 292.672 32.8858 292.672 32.3337V25.9998C292.672 25.4477 293.12 24.9999 293.672 24.9998H294.672ZM299.339 22.6667C299.891 22.6667 300.339 23.1145 300.339 23.6667V32.3337C300.339 32.8859 299.891 33.3337 299.339 33.3337H298.339C297.787 33.3337 297.339 32.8859 297.339 32.3337V23.6667C297.339 23.1145 297.787 22.6667 298.339 22.6667H299.339Z" fill="black" fill-opacity="0.96"/>
<path fill-rule="evenodd" clip-rule="evenodd" d="M311.287 30.9267C312.568 29.8444 314.444 29.8444 315.725 30.9267C315.789 30.9849 315.826 31.0675 315.828 31.1542C315.83 31.2409 315.795 31.324 315.733 31.3847L313.729 33.4072C313.67 33.4666 313.589 33.4999 313.506 33.4999C313.422 33.4999 313.342 33.4666 313.283 33.4072L311.277 31.3847C311.216 31.324 311.182 31.2407 311.184 31.1542C311.185 31.0675 311.223 30.9848 311.287 30.9267ZM308.611 28.2294C311.37 25.665 315.643 25.6651 318.402 28.2294C318.465 28.2896 318.5 28.3724 318.501 28.4589C318.502 28.5453 318.468 28.6281 318.407 28.6894L317.248 29.8603C317.129 29.9796 316.936 29.9814 316.813 29.8652C315.907 29.0454 314.728 28.5917 313.506 28.5917C312.284 28.5923 311.107 29.0461 310.201 29.8652C310.079 29.9815 309.885 29.9798 309.766 29.8603L308.607 28.6894C308.546 28.6282 308.512 28.5453 308.513 28.4589C308.514 28.3724 308.549 28.2895 308.611 28.2294ZM305.936 25.539C310.167 21.4869 316.843 21.4871 321.075 25.539C321.136 25.5992 321.171 25.6817 321.172 25.7675C321.172 25.8533 321.139 25.9361 321.078 25.997L319.918 27.1669C319.798 27.287 319.604 27.2881 319.482 27.1699C317.87 25.6384 315.73 24.7842 313.506 24.7841C311.281 24.7841 309.141 25.6382 307.528 27.1699C307.407 27.2882 307.213 27.287 307.094 27.1669L305.933 25.997C305.872 25.9361 305.838 25.8532 305.839 25.7675C305.839 25.6817 305.874 25.5991 305.936 25.539Z" fill="black" fill-opacity="0.96"/>
<rect opacity="0.35" x="327.172" y="22.8333" width="21" height="10.3333" rx="3.5" stroke="black" stroke-opacity="0.96"/>
<path opacity="0.4" d="M349.672 26V30C350.477 29.6612 351 28.8731 351 28C351 27.1269 350.477 26.3388 349.672 26Z" fill="black" fill-opacity="0.96"/>
<rect x="328.672" y="24.3333" width="18" height="7.33333" rx="2.3" fill="black" fill-opacity="0.96"/>
<g clip-path="url(#clip1_17453_7534)">
<path d="M30.2934 75.2928L38.2942 67.292L39.7086 68.7063L32.4149 76L39.7086 83.2936L38.2942 84.708L30.2934 76.7072C29.9028 76.3166 29.9028 75.6834 30.2934 75.2928Z" fill="black" fill-opacity="0.64"/>
</g>
<path d="M35.424 138.28C29.292 138.28 25.288 133.884 25.288 128.116V127.892C25.288 122.04 29.488 117.7 35.424 117.7C41.388 117.7 45.504 121.928 45.504 127.808V128.032C45.504 133.884 41.5 138.28 35.424 138.28ZM35.48 135.284C39.26 135.284 41.64 132.4 41.64 128.06V127.836C41.64 123.72 39.344 120.668 35.424 120.668C31.504 120.668 29.18 123.552 29.18 127.864V128.088C29.18 132.456 31.84 135.284 35.48 135.284ZM47.9807 138V123.356H51.3687V125.68C52.0687 124.252 53.6927 123.048 56.1007 123.048C59.0407 123.048 61.1127 124.756 61.1127 128.788V138H57.7247V129.096C57.7247 126.884 56.8287 125.876 54.8127 125.876C52.9087 125.876 51.3687 127.052 51.3687 129.376V138H47.9807ZM69.6638 138.28C65.9958 138.28 63.2238 135.676 63.2238 130.916V130.692C63.2238 126.016 65.9958 123.048 69.8038 123.048C72.1838 123.048 73.6678 124.14 74.4798 125.596V116.58H77.8678V138H74.4798V135.536C73.6958 136.992 71.8198 138.28 69.6638 138.28ZM70.5038 135.592C72.8558 135.592 74.5918 134.024 74.5918 130.748V130.524C74.5918 127.304 73.1078 125.708 70.6438 125.708C68.1518 125.708 66.6958 127.444 66.6958 130.608V130.832C66.6958 134.052 68.3198 135.592 70.5038 135.592ZM87.4946 138.28C83.1826 138.28 80.0746 135.452 80.0746 130.832V130.608C80.0746 126.072 83.1826 123.048 87.3546 123.048C90.9946 123.048 94.2706 125.204 94.2706 130.44V131.42H83.5466C83.6586 134.192 85.0586 135.76 87.5786 135.76C89.6226 135.76 90.6866 134.948 90.9386 133.52H94.2146C93.7386 136.6 91.2466 138.28 87.4946 138.28ZM83.6026 129.152H90.9106C90.7426 126.632 89.4546 125.512 87.3546 125.512C85.3106 125.512 83.9386 126.884 83.6026 129.152ZM106.125 138L100.777 123.356H104.417L108.253 134.528L112.033 123.356H115.365L110.073 138H106.125ZM123.012 138.28C118.7 138.28 115.508 135.284 115.508 130.832V130.608C115.508 126.072 118.728 123.048 123.04 123.048C127.324 123.048 130.544 126.044 130.544 130.524V130.748C130.544 135.312 127.324 138.28 123.012 138.28ZM123.04 135.648C125.56 135.648 127.072 133.772 127.072 130.776V130.58C127.072 127.556 125.56 125.708 123.04 125.708C120.52 125.708 118.98 127.528 118.98 130.552V130.776C118.98 133.772 120.464 135.648 123.04 135.648ZM139.177 138.28C134.977 138.28 131.785 135.536 131.785 130.86V130.636C131.785 125.988 135.089 123.048 139.177 123.048C142.425 123.048 145.477 124.504 145.869 128.536H142.593C142.313 126.576 141.025 125.764 139.233 125.764C136.909 125.764 135.257 127.556 135.257 130.58V130.804C135.257 133.996 136.825 135.676 139.317 135.676C141.109 135.676 142.649 134.612 142.845 132.54H145.953C145.701 135.9 143.153 138.28 139.177 138.28ZM149.766 121.144L152.958 116.916H155.646L158.754 121.144H156.346L154.246 119.24L152.118 121.144H149.766ZM154.47 138.28C150.158 138.28 147.05 135.452 147.05 130.832V130.608C147.05 126.072 150.158 123.048 154.33 123.048C157.97 123.048 161.246 125.204 161.246 130.44V131.42H150.522C150.634 134.192 152.034 135.76 154.554 135.76C156.598 135.76 157.662 134.948 157.914 133.52H161.19C160.714 136.6 158.222 138.28 154.47 138.28ZM150.578 129.152H157.886C157.718 126.632 156.43 125.512 154.33 125.512C152.286 125.512 150.914 126.884 150.578 129.152ZM179.568 143.012V135.592C178.784 136.992 176.908 138.28 174.752 138.28C171.084 138.28 168.312 135.676 168.312 130.916V130.692C168.312 126.016 171.084 123.048 174.892 123.048C177.272 123.048 178.756 124.14 179.568 125.596V123.356H182.956V143.012H179.568ZM175.592 135.592C177.944 135.592 179.68 134.024 179.68 130.748V130.524C179.68 127.304 178.196 125.708 175.732 125.708C173.24 125.708 171.784 127.444 171.784 130.608V130.832C171.784 134.052 173.408 135.592 175.592 135.592ZM191.043 138.28C188.159 138.28 186.003 136.628 186.003 132.736V123.356H189.391V132.344C189.391 134.556 190.315 135.564 192.275 135.564C194.095 135.564 195.691 134.388 195.691 132.064V123.356H199.079V138H195.691V135.704C194.963 137.132 193.423 138.28 191.043 138.28ZM208.696 138.28C204.384 138.28 201.276 135.452 201.276 130.832V130.608C201.276 126.072 204.384 123.048 208.556 123.048C212.196 123.048 215.472 125.204 215.472 130.44V131.42H204.748C204.86 134.192 206.26 135.76 208.78 135.76C210.824 135.76 211.888 134.948 212.14 133.52H215.416C214.94 136.6 212.448 138.28 208.696 138.28ZM204.804 129.152H212.112C211.944 126.632 210.656 125.512 208.556 125.512C206.512 125.512 205.14 126.884 204.804 129.152ZM217.659 138V123.356H221.047V126.1C221.971 124.252 223.343 123.16 225.807 123.132V126.296C222.839 126.324 221.047 127.276 221.047 130.384V138H217.659ZM233.779 138V123.356H237.167V126.1C238.091 124.252 239.463 123.16 241.927 123.132V126.296C238.959 126.324 237.167 127.276 237.167 130.384V138H233.779ZM250.207 138.28C245.895 138.28 242.787 135.452 242.787 130.832V130.608C242.787 126.072 245.895 123.048 250.067 123.048C253.707 123.048 256.983 125.204 256.983 130.44V131.42H246.259C246.371 134.192 247.771 135.76 250.291 135.76C252.335 135.76 253.399 134.948 253.651 133.52H256.927C256.451 136.6 253.959 138.28 250.207 138.28ZM246.315 129.152H253.623C253.455 126.632 252.167 125.512 250.067 125.512C248.023 125.512 246.651 126.884 246.315 129.152ZM265.582 138.28C261.382 138.28 258.19 135.536 258.19 130.86V130.636C258.19 125.988 261.494 123.048 265.582 123.048C268.83 123.048 271.882 124.504 272.274 128.536H268.998C268.718 126.576 267.43 125.764 265.638 125.764C263.314 125.764 261.662 127.556 261.662 130.58V130.804C261.662 133.996 263.23 135.676 265.722 135.676C267.514 135.676 269.054 134.612 269.25 132.54H272.358C272.106 135.9 269.558 138.28 265.582 138.28ZM280.875 138.28C276.563 138.28 273.455 135.452 273.455 130.832V130.608C273.455 126.072 276.563 123.048 280.735 123.048C284.375 123.048 287.651 125.204 287.651 130.44V131.42H276.927C277.039 134.192 278.439 135.76 280.959 135.76C283.003 135.76 284.067 134.948 284.319 133.52H287.595C287.119 136.6 284.627 138.28 280.875 138.28ZM276.983 129.152H284.291C284.123 126.632 282.835 125.512 280.735 125.512C278.691 125.512 277.319 126.884 276.983 129.152ZM298.013 138.28C295.689 138.28 294.009 137.132 293.225 135.648V138H289.837V116.58H293.225V125.708C294.037 124.308 295.857 123.048 298.013 123.048C301.681 123.048 304.509 125.764 304.509 130.496V130.72C304.509 135.424 301.793 138.28 298.013 138.28ZM297.173 135.592C299.665 135.592 301.037 133.912 301.037 130.776V130.552C301.037 127.304 299.357 125.708 297.145 125.708C294.793 125.708 293.113 127.304 293.113 130.552V130.776C293.113 134.052 294.709 135.592 297.173 135.592ZM313.156 138.28C308.844 138.28 305.736 135.452 305.736 130.832V130.608C305.736 126.072 308.844 123.048 313.016 123.048C316.656 123.048 319.932 125.204 319.932 130.44V131.42H309.208C309.32 134.192 310.72 135.76 313.24 135.76C315.284 135.76 316.348 134.948 316.6 133.52H319.876C319.4 136.6 316.908 138.28 313.156 138.28ZM309.264 129.152H316.572C316.404 126.632 315.116 125.512 313.016 125.512C310.972 125.512 309.6 126.884 309.264 129.152ZM322.118 138V123.356H325.506V126.1C326.43 124.252 327.802 123.16 330.266 123.132V126.296C327.298 126.324 325.506 127.276 325.506 130.384V138H322.118ZM31.028 172.28C27.248 172.28 25.036 170.544 24.896 167.436H28.088C28.256 168.92 29.012 169.788 31 169.788C32.82 169.788 33.632 169.144 33.632 167.912C33.632 166.708 32.652 166.26 30.496 165.896C26.632 165.28 25.204 164.188 25.204 161.444C25.204 158.504 27.948 157.048 30.692 157.048C33.688 157.048 36.068 158.168 36.432 161.472H33.296C33.016 160.128 32.26 159.512 30.692 159.512C29.236 159.512 28.368 160.212 28.368 161.248C28.368 162.312 29.068 162.732 31.392 163.124C34.836 163.656 36.88 164.496 36.88 167.604C36.88 170.572 34.78 172.28 31.028 172.28ZM43.9119 172.28C41.0279 172.28 38.8719 170.628 38.8719 166.736V157.356H42.2599V166.344C42.2599 168.556 43.1839 169.564 45.1439 169.564C46.9639 169.564 48.5599 168.388 48.5599 166.064V157.356H51.9479V172H48.5599V169.704C47.8319 171.132 46.2919 172.28 43.9119 172.28ZM58.9611 172.28C56.2731 172.28 54.0611 170.992 54.0611 167.94C54.0611 164.524 57.3651 163.292 61.5651 163.292H63.3851V162.536C63.3851 160.576 62.7131 159.596 60.7251 159.596C58.9611 159.596 58.0931 160.436 57.9251 161.892H54.6491C54.9291 158.476 57.6451 157.048 60.9211 157.048C64.1971 157.048 66.7731 158.392 66.7731 162.396V172H63.4411V170.208C62.4891 171.468 61.2011 172.28 58.9611 172.28ZM59.7731 169.844C61.8451 169.844 63.3851 168.752 63.3851 166.876V165.42H61.6491C59.0731 165.42 57.4211 166.008 57.4211 167.8C57.4211 169.032 58.0931 169.844 59.7731 169.844ZM75.9282 172V151.98H82.6482C87.0442 151.98 90.1242 153.772 90.1242 157.86V157.972C90.1242 161.108 88.1642 162.704 85.6722 163.348L91.3002 172H87.2682L82.0322 163.908H79.6522V172H75.9282ZM79.6522 161.248H82.6482C85.1402 161.248 86.4562 160.184 86.4562 158.056V157.944C86.4562 155.648 85.0282 154.864 82.6482 154.864H79.6522V161.248ZM99.1603 172.28C94.8483 172.28 91.6563 169.284 91.6563 164.832V164.608C91.6563 160.072 94.8763 157.048 99.1883 157.048C103.472 157.048 106.692 160.044 106.692 164.524V164.748C106.692 169.312 103.472 172.28 99.1603 172.28ZM99.1883 169.648C101.708 169.648 103.22 167.772 103.22 164.776V164.58C103.22 161.556 101.708 159.708 99.1883 159.708C96.6683 159.708 95.1283 161.528 95.1283 164.552V164.776C95.1283 167.772 96.6123 169.648 99.1883 169.648ZM106.556 172L111.652 164.496L106.892 157.356H110.812L113.864 162.088L116.888 157.356H120.444L115.712 164.244L120.948 172H117L113.584 166.708L110.084 172H106.556ZM124.438 154.948C123.318 154.948 122.422 154.108 122.422 153.016C122.422 151.896 123.318 151.056 124.438 151.056C125.558 151.056 126.454 151.896 126.454 153.016C126.454 154.108 125.558 154.948 124.438 154.948ZM122.786 172V157.356H126.174V172H122.786ZM129.464 172V157.356H132.852V159.68C133.552 158.252 135.176 157.048 137.584 157.048C140.524 157.048 142.596 158.756 142.596 162.788V172H139.208V163.096C139.208 160.884 138.312 159.876 136.296 159.876C134.392 159.876 132.852 161.052 132.852 163.376V172H129.464ZM145.659 172V150.58H149.047V159.68C149.747 158.252 151.371 157.048 153.779 157.048C156.719 157.048 158.791 158.756 158.791 162.788V172H155.403V163.096C155.403 160.884 154.507 159.876 152.491 159.876C150.587 159.876 149.047 161.052 149.047 163.376V172H145.659ZM165.69 172.28C163.002 172.28 160.79 170.992 160.79 167.94C160.79 164.524 164.094 163.292 168.294 163.292H170.114V162.536C170.114 160.576 169.442 159.596 167.454 159.596C165.69 159.596 164.822 160.436 164.654 161.892H161.378C161.658 158.476 164.374 157.048 167.65 157.048C170.926 157.048 173.502 158.392 173.502 162.396V172H170.17V170.208C169.218 171.468 167.93 172.28 165.69 172.28ZM166.502 169.844C168.574 169.844 170.114 168.752 170.114 166.876V165.42H168.378C165.802 165.42 164.15 166.008 164.15 167.8C164.15 169.032 164.822 169.844 166.502 169.844ZM178.883 165.98V164.916C178.883 162.704 180.367 161.332 181.711 160.016C182.747 158.98 183.671 158.056 183.671 156.852C183.671 155.424 182.887 154.5 181.179 154.5C179.443 154.5 178.239 155.732 178.043 157.664H174.795C174.991 153.996 177.595 151.7 181.347 151.7C185.351 151.7 187.227 153.884 187.227 156.6C187.227 158.588 186.023 159.876 184.763 161.108C183.447 162.368 182.103 163.516 182.019 165.084V165.98H178.883ZM180.423 172.196C179.163 172.196 178.127 171.244 178.127 170.04C178.127 168.808 179.163 167.856 180.423 167.856C181.655 167.856 182.663 168.808 182.663 170.04C182.663 171.244 181.655 172.196 180.423 172.196Z" fill="black" fill-opacity="0.96"/>
<rect width="375" height="242" transform="translate(0 570)" fill="#D0D5DB"/>
<g filter="url(#filter0_d_17453_7534)">
<rect x="253" y="579.5" width="114" height="44" rx="4" fill="white"/>
</g>
<g filter="url(#filter1_d_17453_7534)">
<rect x="130" y="579.5" width="115" height="44" rx="4" fill="white"/>
</g>
<g filter="url(#filter2_d_17453_7534)">
<rect x="8" y="579.5" width="114" height="44" rx="4" fill="white"/>
</g>
<g filter="url(#filter3_d_17453_7534)">
<rect x="253" y="631.5" width="114" height="44" rx="4" fill="white"/>
</g>
<g filter="url(#filter4_d_17453_7534)">
<rect x="130" y="631.5" width="115" height="44" rx="4" fill="white"/>
</g>
<g filter="url(#filter5_d_17453_7534)">
<rect x="8" y="631.5" width="114" height="44" rx="4" fill="white"/>
</g>
<g filter="url(#filter6_d_17453_7534)">
<rect x="253" y="683.5" width="114" height="44" rx="4" fill="white"/>
</g>
<g filter="url(#filter7_d_17453_7534)">
<rect x="130" y="683.5" width="115" height="44" rx="4" fill="white"/>
</g>
<g filter="url(#filter8_d_17453_7534)">
<rect x="130" y="735.5" width="115" height="44" rx="4" fill="white"/>
</g>
<g filter="url(#filter9_d_17453_7534)">
<rect x="8" y="683.5" width="114" height="44" rx="4" fill="white"/>
</g>
<path fill-rule="evenodd" clip-rule="evenodd" d="M317.274 748.5C319.331 748.503 320.997 750.169 321 752.226V761.775C320.997 763.832 319.331 765.498 317.274 765.501H307.694C306.531 765.504 305.414 765.042 304.594 764.216L298.439 758.061C297.854 757.475 297.854 756.526 298.439 755.94L304.599 749.785C305.417 748.961 306.532 748.498 307.694 748.5H317.274ZM307.694 750C306.929 749.999 306.195 750.303 305.654 750.845L299.499 757.001L305.659 763.156C306.199 763.696 306.931 764 307.694 764.001H317.274C318.503 764.001 319.5 763.004 319.5 761.775V752.226C319.5 751.635 319.266 751.069 318.849 750.651C318.431 750.234 317.865 750 317.274 750H307.694ZM308.69 753.221C308.921 753.167 309.163 753.248 309.315 753.431L311.999 756.12L314.685 753.431C314.928 753.189 315.321 753.189 315.565 753.431C315.682 753.548 315.748 753.707 315.748 753.873C315.748 754.039 315.682 754.198 315.565 754.315L312.88 757L315.565 759.686C315.77 759.934 315.754 760.298 315.525 760.526C315.297 760.754 314.933 760.771 314.685 760.565L311.999 757.881L309.315 760.565C309.163 760.748 308.921 760.83 308.69 760.775C308.459 760.721 308.279 760.541 308.225 760.31C308.171 760.079 308.252 759.837 308.435 759.686L311.119 757L308.435 754.311C308.252 754.159 308.171 753.917 308.225 753.687C308.279 753.455 308.459 753.275 308.69 753.221Z" fill="#030303"/>
<path d="M187.012 766.898C183.203 766.898 181.012 763.664 181.012 758.039C181.012 752.461 183.227 749.191 187.012 749.191C190.773 749.191 192.988 752.473 192.988 758.074C192.988 763.688 190.809 766.898 187.012 766.898ZM187.012 765.059C189.508 765.059 190.867 762.574 190.867 758.039C190.867 753.551 189.484 751.043 187.012 751.043C184.539 751.043 183.133 753.574 183.133 758.039C183.133 762.562 184.516 765.059 187.012 765.059Z" fill="#030303"/>
<path d="M296.291 714.382L294.507 720.5H293.594L291.483 712.75H292.493L294.035 719.05H294.099L295.834 712.75H296.812L298.546 719.05H298.611L300.152 712.75H301.162L299.051 720.5H298.138L296.355 714.382H296.291ZM303.129 720.5L305.782 716.601L303.161 712.75H304.327L306.368 715.833H306.454L308.527 712.75H309.628L306.942 716.644L309.569 720.5H308.409L306.378 717.444H306.292L304.225 720.5H303.129ZM315.204 720.5H314.237V717.165L311.487 712.75H312.588L314.678 716.192H314.764L316.853 712.75H317.954L315.204 717.165V720.5ZM320.104 720.5V719.812L324.492 713.706V713.62H320.254V712.75H325.743V713.437L321.376 719.544V719.63H325.834V720.5H320.104Z" fill="#030303"/>
<path d="M309.637 706.887C306.766 706.887 304.621 705.223 304.094 702.562H306.262C306.707 704.086 307.996 705.012 309.66 705.012C312.414 705.012 313.973 702.574 314.09 698.074H313.902C313.07 699.715 311.418 700.676 309.402 700.676C306.18 700.676 303.848 698.297 303.848 695.016C303.848 691.617 306.309 689.191 309.777 689.191C313.422 689.191 316.141 691.992 316.141 697.746C316.141 703.559 313.773 706.887 309.637 706.887ZM309.777 698.848C312.016 698.848 313.621 697.254 313.621 695.016C313.621 692.754 311.969 691.043 309.801 691.043C307.633 691.043 305.98 692.73 305.98 694.945C305.98 697.254 307.539 698.848 309.777 698.848Z" fill="#030303"/>
<path d="M177.969 720.5H177.002V713.62H174.505V712.75H180.467V713.62H177.969V720.5ZM183.916 712.75V717.771C183.916 718.942 184.684 719.791 186.027 719.791C187.37 719.791 188.138 718.942 188.138 717.771V712.75H189.104V717.836C189.104 719.49 187.95 720.683 186.027 720.683C184.104 720.683 182.949 719.49 182.949 717.836V712.75H183.916ZM195.266 720.5H194.31L191.453 712.75H192.468L194.745 719.249H194.831L197.108 712.75H198.124L195.266 720.5Z" fill="#030303"/>
<path d="M187 706.898C183.414 706.898 180.906 704.871 180.906 701.977C180.906 699.773 182.301 698.062 184.422 697.664V697.477C182.699 697.008 181.598 695.543 181.598 693.703C181.598 691.066 183.836 689.191 187 689.191C190.164 689.191 192.402 691.066 192.402 693.703C192.402 695.555 191.324 696.996 189.578 697.477V697.664C191.699 698.062 193.094 699.773 193.094 701.977C193.094 704.871 190.586 706.898 187 706.898ZM187 705.094C189.344 705.094 190.961 703.758 190.961 701.824C190.961 699.891 189.344 698.555 187 698.555C184.656 698.555 183.039 699.891 183.039 701.824C183.039 703.758 184.656 705.094 187 705.094ZM187 696.773C188.992 696.773 190.328 695.625 190.328 693.902C190.328 692.156 189.004 690.996 187 690.996C184.996 690.996 183.672 692.156 183.672 693.902C183.672 695.625 185.008 696.773 187 696.773Z" fill="#030303"/>
<path d="M48.9883 712.75H51.9155C53.3818 712.75 54.397 713.781 54.397 715.258C54.397 716.708 53.3604 717.734 51.9048 717.734H49.9551V720.5H48.9883V712.75ZM49.9551 713.609V716.875H51.6631C52.7642 716.875 53.4033 716.284 53.4033 715.258C53.4033 714.194 52.7856 713.609 51.6631 713.609H49.9551ZM60.2417 720.683C58.0342 720.683 56.6807 719.141 56.6807 716.627C56.6807 714.125 58.0503 712.567 60.2417 712.567C62.4224 712.567 63.7866 714.13 63.7866 716.627C63.7866 718.169 63.2925 719.377 62.4116 720.011L63.3945 721.375H62.3096L61.6274 720.446C61.2139 720.602 60.7412 720.683 60.2417 720.683ZM60.2471 719.791C60.5317 719.791 60.8057 719.753 61.0742 719.673L60.0483 718.282H61.144L61.8477 719.216C62.4546 718.733 62.793 717.809 62.793 716.627C62.793 714.683 61.8101 713.458 60.2417 713.458C58.6626 713.458 57.6743 714.678 57.6743 716.627C57.6743 718.583 58.6572 719.791 60.2471 719.791ZM67.4346 713.609V716.574H69.3413C70.335 716.574 70.8989 716.042 70.8989 715.091C70.8989 714.162 70.2974 713.609 69.2983 713.609H67.4346ZM67.4346 717.433V720.5H66.4678V712.75H69.4272C70.9204 712.75 71.8979 713.663 71.8979 715.059C71.8979 716.139 71.3125 716.977 70.3403 717.283L72.1343 720.5H71.001L69.3413 717.433H67.4346ZM74.2837 718.475H75.2612C75.3794 719.286 76.1528 719.802 77.2539 719.802C78.2959 719.802 79.064 719.238 79.064 718.47C79.064 717.809 78.5806 717.39 77.5117 717.122L76.5181 716.864C75.1162 716.509 74.5093 715.875 74.5093 714.774C74.5093 713.458 75.6104 712.567 77.2485 712.567C78.7471 712.567 79.8643 713.458 79.9448 714.71H78.9727C78.8384 713.915 78.1831 713.442 77.2163 713.442C76.1851 713.442 75.5029 713.958 75.5029 714.742C75.5029 715.349 75.9272 715.698 76.9961 715.972L77.8071 716.187C79.4131 716.59 80.0576 717.213 80.0576 718.352C80.0576 719.775 78.9351 720.683 77.1626 720.683C75.519 720.683 74.3857 719.812 74.2837 718.475Z" fill="#030303"/>
<path d="M60.7461 706.5L68.3398 691.641V691.477H59.293V689.59H70.4844V691.547L62.9609 706.5H60.7461Z" fill="#030303"/>
<path d="M304.626 668.5H303.724V662.581H303.659L301.215 668.5H300.399L297.955 662.581H297.891V668.5H296.988V660.75H298.111L300.764 667.216H300.85L303.503 660.75H304.626V668.5ZM308.559 668.5H307.603V660.75H308.542L312.748 666.781H312.834V660.75H313.79V668.5H312.85L308.645 662.49H308.559V668.5ZM320.021 660.567C322.224 660.567 323.577 662.135 323.577 664.622C323.577 667.098 322.234 668.683 320.021 668.683C317.798 668.683 316.466 667.104 316.466 664.622C316.466 662.13 317.83 660.567 320.021 660.567ZM320.021 661.458C318.442 661.458 317.459 662.683 317.459 664.622C317.459 666.545 318.41 667.791 320.021 667.791C321.611 667.791 322.583 666.545 322.583 664.622C322.583 662.683 321.606 661.458 320.021 661.458Z" fill="#030303"/>
<path d="M310.211 654.887C306.531 654.887 303.848 652.027 303.848 646.332C303.848 640.52 306.355 637.191 310.352 637.191C313.434 637.191 315.461 638.891 315.895 641.516H313.727C313.375 639.945 312.133 639.066 310.422 639.066C307.609 639.066 305.969 641.41 305.898 646.004H306.086C306.918 644.363 308.57 643.402 310.586 643.402C313.809 643.402 316.141 645.781 316.141 649.062C316.141 652.461 313.68 654.887 310.211 654.887ZM310.188 653.035C312.355 653.035 314.008 651.348 314.008 649.133C314.008 646.824 312.449 645.23 310.211 645.23C307.973 645.23 306.367 646.824 306.367 649.062C306.367 651.324 308.02 653.035 310.188 653.035Z" fill="#030303"/>
<path d="M176.462 666.69H177.423C177.445 667.34 177.939 667.791 178.669 667.791C179.497 667.791 179.964 667.286 179.964 666.335V660.75H180.931V666.341C180.931 667.818 180.077 668.683 178.675 668.683C177.375 668.683 176.462 667.877 176.462 666.69ZM184.874 668.5H183.907V660.75H184.874V664.515H184.96L188.354 660.75H189.568L186.469 664.096L189.853 668.5H188.602L185.803 664.767L184.874 665.793V668.5ZM196.863 667.63V668.5H192.158V660.75H193.125V667.63H196.863Z" fill="#030303"/>
<path d="M187.082 654.898C183.883 654.898 181.586 652.93 181.398 650.035H183.473C183.66 651.84 185.113 653.047 187.105 653.047C189.32 653.047 190.785 651.453 190.785 649.086C190.785 646.801 189.32 645.266 187.188 645.266C185.582 645.266 184.316 646.004 183.648 647.258H181.668L182.641 637.59H192.027V639.477H184.293L183.766 644.984H183.953C184.773 643.965 186.027 643.449 187.715 643.449C190.551 643.449 192.895 645.676 192.895 649.027C192.895 652.508 190.539 654.898 187.082 654.898Z" fill="#030303"/>
<path d="M60.4927 665.503C60.4927 667.415 59.1821 668.683 57.2002 668.683C55.0571 668.683 53.6875 667.104 53.6875 664.622C53.6875 662.173 55.0786 660.567 57.2002 660.567C58.9189 660.567 60.165 661.523 60.4443 663.059H59.4614C59.1284 662.012 58.3496 661.458 57.2002 661.458C55.6641 661.458 54.6812 662.694 54.6812 664.622C54.6812 666.577 55.6479 667.791 57.2056 667.791C58.5913 667.791 59.5312 666.905 59.5312 665.594V665.406H57.3506V664.558H60.4927V665.503ZM69.3936 668.5H68.4268V664.971H64.1729V668.5H63.2061V660.75H64.1729V664.101H68.4268V660.75H69.3936V668.5ZM73.3369 668.5H72.3701V660.75H73.3369V668.5Z" fill="#030303"/>
<path d="M66.3867 655V651.496H58.1484V649.574C60.4336 645.742 63.0234 641.617 65.3906 638.09H68.4492V649.609H70.8516V651.496H68.4492V655H66.3867ZM60.3047 649.48V649.621H66.3984V640.047H66.2578C64.3594 642.883 62.1445 646.375 60.3047 649.48Z" fill="#030303"/>
<path d="M298.988 608.75H301.647C303.946 608.75 305.305 610.184 305.305 612.622C305.305 615.066 303.951 616.5 301.647 616.5H298.988V608.75ZM299.955 609.62V615.63H301.583C303.312 615.63 304.316 614.523 304.316 612.633C304.316 610.737 303.301 609.62 301.583 609.62H299.955ZM312.782 615.63V616.5H307.98V608.75H312.782V609.62H308.947V612.106H312.583V612.966H308.947V615.63H312.782ZM316.5 616.5H315.533V608.75H320.238V609.62H316.5V612.284H319.932V613.143H316.5V616.5Z" fill="#030303"/>
<path d="M307.914 594.707V592.902H309.918C311.863 592.902 313.246 591.66 313.246 589.902C313.246 588.32 312.039 587.031 310 587.031C307.961 587.031 306.637 588.074 306.461 589.973H304.41C304.621 587.219 306.719 585.191 310.141 585.191C313.48 585.191 315.402 587.301 315.391 589.668C315.379 591.707 314.113 593.055 312.379 593.559V593.746C314.57 594.098 316.023 595.586 316.023 597.941C316.023 600.777 313.434 602.898 310.07 602.898C306.637 602.898 304.27 601.012 304.117 598.141H306.156C306.344 599.922 307.867 601.059 310.047 601.059C312.273 601.059 313.855 599.781 313.855 597.883C313.855 595.926 312.391 594.707 310.012 594.707H307.914Z" fill="#030303"/>
<path d="M181.026 616.5L180.248 614.282H177.165L176.386 616.5H175.371L178.228 608.75H179.184L182.042 616.5H181.026ZM178.663 610.001L177.449 613.46H179.963L178.749 610.001H178.663ZM187.424 616.5H184.4V608.75H187.365C188.789 608.75 189.659 609.496 189.659 610.683C189.659 611.489 189.068 612.219 188.321 612.354V612.439C189.379 612.574 190.051 613.299 190.051 614.325C190.051 615.689 189.073 616.5 187.424 616.5ZM185.367 609.604V612.09H186.914C188.085 612.09 188.681 611.671 188.681 610.85C188.681 610.06 188.123 609.604 187.161 609.604H185.367ZM185.367 615.646H187.279C188.445 615.646 189.057 615.173 189.057 614.276C189.057 613.379 188.423 612.923 187.188 612.923H185.367V615.646ZM195.75 616.683C193.645 616.683 192.329 615.125 192.329 612.627C192.329 610.125 193.64 608.567 195.745 608.567C197.378 608.567 198.651 609.593 198.882 611.086H197.899C197.641 610.087 196.814 609.458 195.745 609.458C194.257 609.458 193.323 610.683 193.323 612.627C193.323 614.572 194.257 615.791 195.75 615.791C196.83 615.791 197.652 615.238 197.899 614.341H198.882C198.624 615.764 197.399 616.683 195.75 616.683Z" fill="#030303"/>
<path d="M182.027 590.359C182.027 587.348 184.348 585.191 187.582 585.191C190.535 585.191 192.797 587.195 192.797 589.938C192.797 591.883 191.953 593.289 188.906 596.441L185.062 600.414V600.602H193.078V602.5H182.133V601.047L187.852 594.859C190.008 592.527 190.641 591.648 190.641 590.16C190.641 588.367 189.434 587.031 187.441 587.031C185.414 587.031 184.066 588.355 184.066 590.359H182.027Z" fill="#030303"/>
<path d="M65.3281 602.5V587.934H65.1406L60.8398 591.051V588.824L65.3398 585.59H67.4375V602.5H65.3281Z" fill="#030303"/>
<path d="M117.5 801.5C117.5 800.119 118.619 799 120 799H255C256.381 799 257.5 800.119 257.5 801.5C257.5 802.881 256.381 804 255 804H120C118.619 804 117.5 802.881 117.5 801.5Z" fill="black" fill-opacity="0.96"/>
<g clip-path="url(#clip2_17453_7534)">
<g clip-path="url(#clip3_17453_7534)">
<path d="M24.42 242V241.328L31.98 233.348C33.884 231.332 35.032 229.568 35.032 227.664C35.032 225.788 33.968 224.612 32.036 224.612C30.048 224.612 28.788 225.76 28.452 228.588H25.036C25.288 224.22 27.92 221.7 32.148 221.7C36.292 221.7 38.756 224.08 38.756 227.608C38.756 230.212 37.216 232.48 34.836 234.776L30.384 239.116H38.896V242H24.42ZM39.8495 242V241.328L47.4095 233.348C49.3135 231.332 50.4615 229.568 50.4615 227.664C50.4615 225.788 49.3975 224.612 47.4655 224.612C45.4775 224.612 44.2175 225.76 43.8815 228.588H40.4655C40.7175 224.22 43.3495 221.7 47.5775 221.7C51.7215 221.7 54.1855 224.08 54.1855 227.608C54.1855 230.212 52.6455 232.48 50.2655 234.776L45.8135 239.116H54.3255V242H39.8495ZM55.2791 242V241.328L62.8391 233.348C64.7431 231.332 65.8911 229.568 65.8911 227.664C65.8911 225.788 64.8271 224.612 62.8951 224.612C60.9071 224.612 59.6471 225.76 59.3111 228.588H55.8951C56.1471 224.22 58.7791 221.7 63.0071 221.7C67.1511 221.7 69.6151 224.08 69.6151 227.608C69.6151 230.212 68.0751 232.48 65.6951 234.776L61.2431 239.116H69.7551V242H55.2791ZM80.2483 242V237.94H70.3363V236.624L79.1843 221.98H83.8603V235.168H86.5483V237.94H83.8603V242H80.2483ZM74.3123 235.168H80.3043V224.808L74.3123 235.168ZM94.7138 242.28C90.0098 242.28 87.7978 239.704 87.5738 236.26H91.0458C91.3538 238.108 92.1098 239.396 94.6858 239.396C96.9818 239.396 98.2978 237.8 98.2978 235.336C98.2978 232.928 96.8978 231.388 94.6858 231.388C92.6418 231.388 91.4098 232.088 90.5138 233.124H88.6098L88.7778 221.98H100.93V224.92H91.6338L91.6058 230.352C92.3898 229.456 93.7898 228.672 95.9178 228.672C99.5298 228.672 102.078 231.192 102.078 235.392C102.078 239.62 99.0258 242.28 94.7138 242.28ZM104.192 235.588V232.788H110.912V235.588H104.192ZM116.232 242V225.676L112.004 228.56V225.284L116.652 221.98H119.984V242H116.232ZM122.419 242V241.328L129.979 233.348C131.883 231.332 133.031 229.568 133.031 227.664C133.031 225.788 131.967 224.612 130.035 224.612C128.047 224.612 126.787 225.76 126.451 228.588H123.035C123.287 224.22 125.919 221.7 130.147 221.7C134.291 221.7 136.755 224.08 136.755 227.608C136.755 230.212 135.215 232.48 132.835 234.776L128.383 239.116H136.895V242H122.419ZM147.038 242.28C141.942 242.28 138.638 238.528 138.638 232.508V231.5C138.638 225.424 141.998 221.7 147.038 221.7C152.106 221.7 155.41 225.396 155.41 231.416V232.424C155.41 238.444 152.274 242.28 147.038 242.28ZM147.122 239.312C150.202 239.312 151.686 236.96 151.686 232.424V231.444C151.686 227.188 150.062 224.612 147.066 224.612C144.042 224.612 142.39 227.02 142.39 231.472V232.48C142.39 237.016 144.126 239.312 147.122 239.312Z" fill="black" fill-opacity="0.96"/>
</g>
<rect x="158" y="216" width="2" height="34" fill="#652590"/>
</g>
<g clip-path="url(#clip4_17453_7534)">
<rect width="327" height="2" transform="translate(24 256)" fill="#EFEFEF"/>
<path d="M25.148 281V270.99H28.508C30.706 270.99 32.246 271.886 32.246 273.93V273.986C32.246 275.554 31.266 276.352 30.02 276.674L32.834 281H30.818L28.2 276.954H27.01V281H25.148ZM27.01 275.624H28.508C29.754 275.624 30.412 275.092 30.412 274.028V273.972C30.412 272.824 29.698 272.432 28.508 272.432H27.01V275.624ZM36.3141 281.14C34.8721 281.14 33.7941 280.314 33.7941 278.368V273.678H35.4881V278.172C35.4881 279.278 35.9501 279.782 36.9301 279.782C37.8401 279.782 38.6381 279.194 38.6381 278.032V273.678H40.3321V281H38.6381V279.852C38.2741 280.566 37.5041 281.14 36.3141 281.14ZM44.1187 281.14C42.7747 281.14 41.6687 280.496 41.6687 278.97C41.6687 277.262 43.3207 276.646 45.4207 276.646H46.3307V276.268C46.3307 275.288 45.9947 274.798 45.0007 274.798C44.1187 274.798 43.6847 275.218 43.6007 275.946H41.9627C42.1027 274.238 43.4607 273.524 45.0987 273.524C46.7367 273.524 48.0247 274.196 48.0247 276.198V281H46.3587V280.104C45.8827 280.734 45.2387 281.14 44.1187 281.14ZM44.5247 279.922C45.5607 279.922 46.3307 279.376 46.3307 278.438V277.71H45.4627C44.1747 277.71 43.3487 278.004 43.3487 278.9C43.3487 279.516 43.6847 279.922 44.5247 279.922ZM53.2182 281V270.99H55.0942V281H53.2182ZM57.1752 283.506V273.678H58.8692V274.854C59.2752 274.154 60.1852 273.524 61.2632 273.524C63.0972 273.524 64.5112 274.882 64.5112 277.248V277.36C64.5112 279.712 63.1532 281.14 61.2632 281.14C60.1012 281.14 59.2612 280.566 58.8692 279.852V283.506H57.1752ZM60.8432 279.796C62.0892 279.796 62.7752 278.956 62.7752 277.388V277.276C62.7752 275.652 61.9352 274.854 60.8292 274.854C59.6532 274.854 58.8132 275.652 58.8132 277.276V277.388C58.8132 279.026 59.6112 279.796 60.8432 279.796ZM66.7626 272.474C66.2026 272.474 65.7546 272.054 65.7546 271.508C65.7546 270.948 66.2026 270.528 66.7626 270.528C67.3226 270.528 67.7706 270.948 67.7706 271.508C67.7706 272.054 67.3226 272.474 66.7626 272.474ZM65.9366 281V273.678H67.6306V281H65.9366ZM69.5553 281V273.678H71.2493V275.05C71.7113 274.126 72.3973 273.58 73.6293 273.566V275.148C72.1453 275.162 71.2493 275.638 71.2493 277.192V281H69.5553ZM76.7884 281.14C75.4444 281.14 74.3384 280.496 74.3384 278.97C74.3384 277.262 75.9904 276.646 78.0904 276.646H79.0004V276.268C79.0004 275.288 78.6644 274.798 77.6704 274.798C76.7884 274.798 76.3544 275.218 76.2704 275.946H74.6324C74.7724 274.238 76.1304 273.524 77.7684 273.524C79.4064 273.524 80.6944 274.196 80.6944 276.198V281H79.0284V280.104C78.5524 280.734 77.9084 281.14 76.7884 281.14ZM77.1944 279.922C78.2304 279.922 79.0004 279.376 79.0004 278.438V277.71H78.1324C76.8444 277.71 76.0184 278.004 76.0184 278.9C76.0184 279.516 76.3544 279.922 77.1944 279.922ZM82.496 281V273.678H84.19V274.84C84.54 274.126 85.352 273.524 86.556 273.524C88.026 273.524 89.062 274.378 89.062 276.394V281H87.368V276.548C87.368 275.442 86.92 274.938 85.912 274.938C84.96 274.938 84.19 275.526 84.19 276.688V281H82.496ZM93.9956 283.688C91.6996 283.688 90.6636 282.652 90.4676 281.252H92.1756C92.3156 281.98 92.8756 282.4 93.9816 282.4C95.2976 282.4 96.0256 281.742 96.0256 280.426V279.348C95.6196 280.048 94.7096 280.706 93.6316 280.706C91.7976 280.706 90.3836 279.334 90.3836 277.22V277.122C90.3836 275.064 91.7836 273.524 93.6736 273.524C94.8776 273.524 95.6056 274.07 96.0256 274.798V273.678H97.7196V280.454C97.7056 282.61 96.2636 283.688 93.9956 283.688ZM94.0516 279.404C95.2276 279.404 96.0816 278.564 96.0816 277.164V277.066C96.0816 275.68 95.3256 274.854 94.1076 274.854C92.8476 274.854 92.1196 275.764 92.1196 277.094V277.206C92.1196 278.564 92.9596 279.404 94.0516 279.404ZM101.511 281.14C100.167 281.14 99.061 280.496 99.061 278.97C99.061 277.262 100.713 276.646 102.813 276.646H103.723V276.268C103.723 275.288 103.387 274.798 102.393 274.798C101.511 274.798 101.077 275.218 100.993 275.946H99.355C99.495 274.238 100.853 273.524 102.491 273.524C104.129 273.524 105.417 274.196 105.417 276.198V281H103.751V280.104C103.275 280.734 102.631 281.14 101.511 281.14ZM101.917 279.922C102.953 279.922 103.723 279.376 103.723 278.438V277.71H102.855C101.567 277.71 100.741 278.004 100.741 278.9C100.741 279.516 101.077 279.922 101.917 279.922ZM28.55 299.14C25.82 299.14 24.672 297.782 24.532 295.892H26.324C26.45 296.9 26.856 297.74 28.55 297.74C29.656 297.74 30.44 297.124 30.44 296.2C30.44 295.276 29.978 294.926 28.354 294.66C25.96 294.338 24.826 293.61 24.826 291.734C24.826 290.096 26.226 288.864 28.312 288.864C30.468 288.864 31.756 289.844 31.952 291.762H30.244C30.062 290.712 29.46 290.264 28.312 290.264C27.178 290.264 26.59 290.81 26.59 291.58C26.59 292.392 26.926 292.798 28.662 293.05C31.014 293.372 32.232 294.044 32.232 296.046C32.232 297.782 30.762 299.14 28.55 299.14ZM37.4647 290.516C36.7927 290.516 36.3167 289.956 35.9107 289.956C35.6587 289.956 35.4487 290.194 35.3927 290.516H34.3427C34.4547 289.34 35.0567 288.682 35.8407 288.682C36.4847 288.682 36.9747 289.228 37.4087 289.228C37.6607 289.228 37.8567 289.004 37.9127 288.668H38.9627C38.8507 289.844 38.2347 290.516 37.4647 290.516ZM35.6727 299.14C34.3287 299.14 33.2227 298.496 33.2227 296.97C33.2227 295.262 34.8747 294.646 36.9747 294.646H37.8847V294.268C37.8847 293.288 37.5487 292.798 36.5547 292.798C35.6727 292.798 35.2387 293.218 35.1547 293.946H33.5167C33.6567 292.238 35.0147 291.524 36.6527 291.524C38.2907 291.524 39.5787 292.196 39.5787 294.198V299H37.9127V298.104C37.4367 298.734 36.7927 299.14 35.6727 299.14ZM36.0787 297.922C37.1147 297.922 37.8847 297.376 37.8847 296.438V295.71H37.0167C35.7287 295.71 34.9027 296.004 34.9027 296.9C34.9027 297.516 35.2387 297.922 36.0787 297.922ZM44.6423 299.14C42.4863 299.14 40.8903 297.642 40.8903 295.416V295.304C40.8903 293.036 42.5003 291.524 44.6563 291.524C46.7983 291.524 48.4083 293.022 48.4083 295.262V295.374C48.4083 297.656 46.7983 299.14 44.6423 299.14ZM44.6563 297.824C45.9163 297.824 46.6723 296.886 46.6723 295.388V295.29C46.6723 293.778 45.9163 292.854 44.6563 292.854C43.3963 292.854 42.6263 293.764 42.6263 295.276V295.388C42.6263 296.886 43.3683 297.824 44.6563 297.824ZM53.1349 299V288.99H56.3549C58.5949 288.99 60.0649 289.984 60.0649 292.084V292.14C60.0649 294.254 58.5389 295.192 56.3969 295.192H54.9969V299H53.1349ZM54.9969 293.848H56.3549C57.5869 293.848 58.2449 293.246 58.2449 292.14V292.084C58.2449 290.894 57.5449 290.432 56.3549 290.432H54.9969V293.848ZM63.1674 299.14C61.8234 299.14 60.7174 298.496 60.7174 296.97C60.7174 295.262 62.3694 294.646 64.4694 294.646H65.3794V294.268C65.3794 293.288 65.0434 292.798 64.0494 292.798C63.1674 292.798 62.7334 293.218 62.6494 293.946H61.0114C61.1514 292.238 62.5094 291.524 64.1474 291.524C65.7854 291.524 67.0734 292.196 67.0734 294.198V299H65.4074V298.104C64.9314 298.734 64.2874 299.14 63.1674 299.14ZM63.5734 297.922C64.6094 297.922 65.3794 297.376 65.3794 296.438V295.71H64.5114C63.2234 295.71 62.3974 296.004 62.3974 296.9C62.3974 297.516 62.7334 297.922 63.5734 297.922ZM71.325 299.14C69.883 299.14 68.805 298.314 68.805 296.368V291.678H70.499V296.172C70.499 297.278 70.961 297.782 71.941 297.782C72.851 297.782 73.649 297.194 73.649 296.032V291.678H75.343V299H73.649V297.852C73.285 298.566 72.515 299.14 71.325 299.14ZM77.2536 299V288.29H78.9476V299H77.2536ZM84.1344 299.14C81.9784 299.14 80.3824 297.642 80.3824 295.416V295.304C80.3824 293.036 81.9924 291.524 84.1484 291.524C86.2904 291.524 87.9004 293.022 87.9004 295.262V295.374C87.9004 297.656 86.2904 299.14 84.1344 299.14ZM84.1484 297.824C85.4084 297.824 86.1644 296.886 86.1644 295.388V295.29C86.1644 293.778 85.4084 292.854 84.1484 292.854C82.8884 292.854 82.1184 293.764 82.1184 295.276V295.388C82.1184 296.886 82.8604 297.824 84.1484 297.824ZM92.2629 295.794V294.394H95.6229V295.794H92.2629ZM104.02 299.14C101.29 299.14 100.142 297.782 100.002 295.892H101.794C101.92 296.9 102.326 297.74 104.02 297.74C105.126 297.74 105.91 297.124 105.91 296.2C105.91 295.276 105.448 294.926 103.824 294.66C101.43 294.338 100.296 293.61 100.296 291.734C100.296 290.096 101.696 288.864 103.782 288.864C105.938 288.864 107.226 289.844 107.422 291.762H105.714C105.532 290.712 104.93 290.264 103.782 290.264C102.648 290.264 102.06 290.81 102.06 291.58C102.06 292.392 102.396 292.798 104.132 293.05C106.484 293.372 107.702 294.044 107.702 296.046C107.702 297.782 106.232 299.14 104.02 299.14ZM109.365 299V288.99H112.585C114.825 288.99 116.295 289.984 116.295 292.084V292.14C116.295 294.254 114.769 295.192 112.627 295.192H111.227V299H109.365ZM111.227 293.848H112.585C113.817 293.848 114.475 293.246 114.475 292.14V292.084C114.475 290.894 113.775 290.432 112.585 290.432H111.227V293.848Z" fill="black" fill-opacity="0.64"/>
</g>
<rect width="375" height="24" transform="translate(0 328)" fill="white"/>
<path d="M39 332C39.5523 332 40 332.448 40 333V335H43C45.2091 335 47 336.791 47 339V345H44C44 346.657 42.6569 348 41 348C39.3431 348 38 346.657 38 345H33C33 346.657 31.6569 348 30 348C28.3431 348 27 346.657 27 345H25V333C25 332.448 25.4477 332 26 332H39ZM29 344V346H31V344H29ZM40 344V346H42V344H40ZM27 334V343H27.7637C28.313 342.386 29.1115 342 30 342C30.8885 342 31.687 342.386 32.2363 343H38V334H27ZM40 337V342.171C40.3128 342.06 40.6494 342 41 342C41.8885 342 42.687 342.386 43.2363 343H45V341H43V339H45C45 337.895 44.1046 337 43 337H40Z" fill="black" fill-opacity="0.96"/>
<path d="M65.26 344V333.99H71.098V334.984H66.478V338.386H70.202V339.38H66.478V343.006H71.35V344H65.26ZM72.9657 344V336.678H74.1277V337.798C74.4637 337.112 75.2617 336.552 76.3117 336.552C77.2497 336.552 78.0757 336.944 78.4537 337.924C78.9577 336.972 80.0497 336.552 80.9597 336.552C82.2757 336.552 83.4237 337.336 83.4237 339.464V344H82.2617V339.38C82.2617 338.092 81.7157 337.56 80.7077 337.56C79.7557 337.56 78.7757 338.204 78.7757 339.52V344H77.6137V339.38C77.6137 338.092 77.0677 337.56 76.0597 337.56C75.1077 337.56 74.1277 338.204 74.1277 339.52V344H72.9657ZM90.967 344.126C89.609 344.126 88.531 343.468 88.531 341.97C88.531 340.276 90.323 339.702 92.199 339.702H93.249V339.17C93.249 338.008 92.801 337.518 91.681 337.518C90.673 337.518 90.113 337.938 90.001 338.834H88.839C88.993 337.168 90.323 336.552 91.737 336.552C93.137 336.552 94.411 337.126 94.411 339.17V344H93.249V343.076C92.703 343.762 92.045 344.126 90.967 344.126ZM91.079 343.202C92.311 343.202 93.249 342.572 93.249 341.438V340.528H92.241C90.771 340.528 89.693 340.892 89.693 341.97C89.693 342.726 90.057 343.202 91.079 343.202ZM98.7795 344.098C97.4495 344.098 96.8055 343.314 96.8055 342.166V337.658H95.7555V336.678H96.8055V335.012H97.9675V336.678H99.6755V337.658H97.9675V342.054C97.9675 342.768 98.2895 343.118 98.8775 343.118C99.2415 343.118 99.5215 343.062 99.7735 342.964V343.944C99.5355 344.028 99.2555 344.098 98.7795 344.098ZM103.756 335.418L104.624 333.36H106.08L104.624 335.418H103.756ZM104.386 344.126C102.314 344.126 100.844 342.67 100.844 340.416V340.304C100.844 338.092 102.258 336.552 104.274 336.552C105.968 336.552 107.564 337.574 107.564 340.192V340.57H102.048C102.104 342.236 102.902 343.16 104.4 343.16C105.534 343.16 106.192 342.74 106.346 341.886H107.508C107.256 343.356 106.038 344.126 104.386 344.126ZM102.09 339.632H106.374C106.262 338.12 105.478 337.518 104.274 337.518C103.084 337.518 102.286 338.33 102.09 339.632ZM112.184 344V343.72L116.16 339.534C117.07 338.568 117.602 337.658 117.602 336.636C117.602 335.516 116.944 334.844 115.81 334.844C114.648 334.844 113.892 335.502 113.696 337.07H112.562C112.716 335.11 113.906 333.864 115.81 333.864C117.658 333.864 118.834 334.956 118.834 336.678C118.834 337.91 118.05 339.114 116.818 340.318L114.06 343.006H118.89V344H112.184ZM127.35 344.126C125.432 344.126 124.046 342.768 124.046 340.486V340.374C124.046 338.134 125.446 336.552 127.462 336.552C128.68 336.552 129.436 337.14 129.856 337.854V333.178H131.018V344H129.856V342.74C129.436 343.454 128.414 344.126 127.35 344.126ZM127.476 343.16C128.834 343.16 129.898 342.264 129.898 340.388V340.276C129.898 338.4 129.002 337.518 127.574 337.518C126.118 337.518 125.25 338.54 125.25 340.318V340.43C125.25 342.278 126.244 343.16 127.476 343.16ZM133.817 335.152C133.397 335.152 133.047 334.802 133.047 334.382C133.047 333.962 133.397 333.612 133.817 333.612C134.237 333.612 134.587 333.962 134.587 334.382C134.587 334.802 134.237 335.152 133.817 335.152ZM133.257 344V336.678H134.419V344H133.257ZM138.491 344.126C137.133 344.126 136.055 343.468 136.055 341.97C136.055 340.276 137.847 339.702 139.723 339.702H140.773V339.17C140.773 338.008 140.325 337.518 139.205 337.518C138.197 337.518 137.637 337.938 137.525 338.834H136.363C136.517 337.168 137.847 336.552 139.261 336.552C140.661 336.552 141.935 337.126 141.935 339.17V344H140.773V343.076C140.227 343.762 139.569 344.126 138.491 344.126ZM138.603 343.202C139.835 343.202 140.773 342.572 140.773 341.438V340.528H139.765C138.295 340.528 137.217 340.892 137.217 341.97C137.217 342.726 137.581 343.202 138.603 343.202ZM146.346 344.126C144.596 344.126 143.546 343.244 143.476 341.746H144.61C144.694 342.614 145.156 343.16 146.332 343.16C147.438 343.16 147.928 342.782 147.928 341.998C147.928 341.228 147.354 340.976 146.22 340.766C144.316 340.416 143.672 339.884 143.672 338.61C143.672 337.252 145.002 336.552 146.15 336.552C147.466 336.552 148.6 337.084 148.796 338.666H147.676C147.508 337.868 147.06 337.518 146.136 337.518C145.296 337.518 144.75 337.938 144.75 338.568C144.75 339.226 145.114 339.492 146.458 339.73C147.97 340.01 149.034 340.346 149.034 341.9C149.034 343.23 148.124 344.126 146.346 344.126ZM156.694 335.418L157.562 333.36H159.018L157.562 335.418H156.694ZM156.708 344.126C155.252 344.126 154.16 343.328 154.16 341.312V336.678H155.322V341.256C155.322 342.544 155.868 343.118 157.016 343.118C158.052 343.118 159.032 342.432 159.032 341.116V336.678H160.194V344H159.032V342.838C158.696 343.524 157.884 344.126 156.708 344.126ZM164.628 344.098C163.298 344.098 162.654 343.314 162.654 342.166V337.658H161.604V336.678H162.654V335.012H163.816V336.678H165.524V337.658H163.816V342.054C163.816 342.768 164.138 343.118 164.726 343.118C165.09 343.118 165.37 343.062 165.622 342.964V343.944C165.384 344.028 165.104 344.098 164.628 344.098ZM170.235 344.126C168.163 344.126 166.693 342.67 166.693 340.416V340.304C166.693 338.092 168.107 336.552 170.123 336.552C171.817 336.552 173.413 337.574 173.413 340.192V340.57H167.897C167.953 342.236 168.751 343.16 170.249 343.16C171.383 343.16 172.041 342.74 172.195 341.886H173.357C173.105 343.356 171.887 344.126 170.235 344.126ZM167.939 339.632H172.223C172.111 338.12 171.327 337.518 170.123 337.518C168.933 337.518 168.135 338.33 167.939 339.632ZM175.644 335.152C175.224 335.152 174.874 334.802 174.874 334.382C174.874 333.962 175.224 333.612 175.644 333.612C176.064 333.612 176.414 333.962 176.414 334.382C176.414 334.802 176.064 335.152 175.644 335.152ZM175.084 344V336.678H176.246V344H175.084ZM180.752 344.126C179.002 344.126 177.952 343.244 177.882 341.746H179.016C179.1 342.614 179.562 343.16 180.738 343.16C181.844 343.16 182.334 342.782 182.334 341.998C182.334 341.228 181.76 340.976 180.626 340.766C178.722 340.416 178.078 339.884 178.078 338.61C178.078 337.252 179.408 336.552 180.556 336.552C181.872 336.552 183.006 337.084 183.202 338.666H182.082C181.914 337.868 181.466 337.518 180.542 337.518C179.702 337.518 179.156 337.938 179.156 338.568C179.156 339.226 179.52 339.492 180.864 339.73C182.376 340.01 183.44 340.346 183.44 341.9C183.44 343.23 182.53 344.126 180.752 344.126Z" fill="black" fill-opacity="0.64"/>
<path d="M303 530C303 516.745 313.745 506 327 506C340.255 506 351 516.745 351 530C351 543.255 340.255 554 327 554C313.745 554 303 543.255 303 530Z" fill="#714F8F"/>
<path d="M327 522L325.59 523.41L331.17 529H319V531H331.17L325.59 536.59L327 538L334.293 530.707C334.683 530.317 334.683 529.683 334.293 529.293L327 522Z" fill="white"/>
</g>
<defs>
<filter id="filter0_d_17453_7534" x="253" y="579.5" width="114" height="45" filterUnits="userSpaceOnUse" color-interpolation-filters="sRGB">
<feFlood flood-opacity="0" result="BackgroundImageFix"/>
<feColorMatrix in="SourceAlpha" type="matrix" values="0 0 0 0 0 0 0 0 0 0 0 0 0 0 0 0 0 0 127 0" result="hardAlpha"/>
<feOffset dy="1"/>
<feColorMatrix type="matrix" values="0 0 0 0 0 0 0 0 0 0 0 0 0 0 0 0 0 0 0.35 0"/>
<feBlend mode="normal" in2="BackgroundImageFix" result="effect1_dropShadow_17453_7534"/>
<feBlend mode="normal" in="SourceGraphic" in2="effect1_dropShadow_17453_7534" result="shape"/>
</filter>
<filter id="filter1_d_17453_7534" x="130" y="579.5" width="115" height="45" filterUnits="userSpaceOnUse" color-interpolation-filters="sRGB">
<feFlood flood-opacity="0" result="BackgroundImageFix"/>
<feColorMatrix in="SourceAlpha" type="matrix" values="0 0 0 0 0 0 0 0 0 0 0 0 0 0 0 0 0 0 127 0" result="hardAlpha"/>
<feOffset dy="1"/>
<feColorMatrix type="matrix" values="0 0 0 0 0 0 0 0 0 0 0 0 0 0 0 0 0 0 0.35 0"/>
<feBlend mode="normal" in2="BackgroundImageFix" result="effect1_dropShadow_17453_7534"/>
<feBlend mode="normal" in="SourceGraphic" in2="effect1_dropShadow_17453_7534" result="shape"/>
</filter>
<filter id="filter2_d_17453_7534" x="8" y="579.5" width="114" height="45" filterUnits="userSpaceOnUse" color-interpolation-filters="sRGB">
<feFlood flood-opacity="0" result="BackgroundImageFix"/>
<feColorMatrix in="SourceAlpha" type="matrix" values="0 0 0 0 0 0 0 0 0 0 0 0 0 0 0 0 0 0 127 0" result="hardAlpha"/>
<feOffset dy="1"/>
<feColorMatrix type="matrix" values="0 0 0 0 0 0 0 0 0 0 0 0 0 0 0 0 0 0 0.35 0"/>
<feBlend mode="normal" in2="BackgroundImageFix" result="effect1_dropShadow_17453_7534"/>
<feBlend mode="normal" in="SourceGraphic" in2="effect1_dropShadow_17453_7534" result="shape"/>
</filter>
<filter id="filter3_d_17453_7534" x="253" y="631.5" width="114" height="45" filterUnits="userSpaceOnUse" color-interpolation-filters="sRGB">
<feFlood flood-opacity="0" result="BackgroundImageFix"/>
<feColorMatrix in="SourceAlpha" type="matrix" values="0 0 0 0 0 0 0 0 0 0 0 0 0 0 0 0 0 0 127 0" result="hardAlpha"/>
<feOffset dy="1"/>
<feColorMatrix type="matrix" values="0 0 0 0 0 0 0 0 0 0 0 0 0 0 0 0 0 0 0.35 0"/>
<feBlend mode="normal" in2="BackgroundImageFix" result="effect1_dropShadow_17453_7534"/>
<feBlend mode="normal" in="SourceGraphic" in2="effect1_dropShadow_17453_7534" result="shape"/>
</filter>
<filter id="filter4_d_17453_7534" x="130" y="631.5" width="115" height="45" filterUnits="userSpaceOnUse" color-interpolation-filters="sRGB">
<feFlood flood-opacity="0" result="BackgroundImageFix"/>
<feColorMatrix in="SourceAlpha" type="matrix" values="0 0 0 0 0 0 0 0 0 0 0 0 0 0 0 0 0 0 127 0" result="hardAlpha"/>
<feOffset dy="1"/>
<feColorMatrix type="matrix" values="0 0 0 0 0 0 0 0 0 0 0 0 0 0 0 0 0 0 0.35 0"/>
<feBlend mode="normal" in2="BackgroundImageFix" result="effect1_dropShadow_17453_7534"/>
<feBlend mode="normal" in="SourceGraphic" in2="effect1_dropShadow_17453_7534" result="shape"/>
</filter>
<filter id="filter5_d_17453_7534" x="8" y="631.5" width="114" height="45" filterUnits="userSpaceOnUse" color-interpolation-filters="sRGB">
<feFlood flood-opacity="0" result="BackgroundImageFix"/>
<feColorMatrix in="SourceAlpha" type="matrix" values="0 0 0 0 0 0 0 0 0 0 0 0 0 0 0 0 0 0 127 0" result="hardAlpha"/>
<feOffset dy="1"/>
<feColorMatrix type="matrix" values="0 0 0 0 0 0 0 0 0 0 0 0 0 0 0 0 0 0 0.35 0"/>
<feBlend mode="normal" in2="BackgroundImageFix" result="effect1_dropShadow_17453_7534"/>
<feBlend mode="normal" in="SourceGraphic" in2="effect1_dropShadow_17453_7534" result="shape"/>
</filter>
<filter id="filter6_d_17453_7534" x="253" y="683.5" width="114" height="45" filterUnits="userSpaceOnUse" color-interpolation-filters="sRGB">
<feFlood flood-opacity="0" result="BackgroundImageFix"/>
<feColorMatrix in="SourceAlpha" type="matrix" values="0 0 0 0 0 0 0 0 0 0 0 0 0 0 0 0 0 0 127 0" result="hardAlpha"/>
<feOffset dy="1"/>
<feColorMatrix type="matrix" values="0 0 0 0 0 0 0 0 0 0 0 0 0 0 0 0 0 0 0.35 0"/>
<feBlend mode="normal" in2="BackgroundImageFix" result="effect1_dropShadow_17453_7534"/>
<feBlend mode="normal" in="SourceGraphic" in2="effect1_dropShadow_17453_7534" result="shape"/>
</filter>
<filter id="filter7_d_17453_7534" x="130" y="683.5" width="115" height="45" filterUnits="userSpaceOnUse" color-interpolation-filters="sRGB">
<feFlood flood-opacity="0" result="BackgroundImageFix"/>
<feColorMatrix in="SourceAlpha" type="matrix" values="0 0 0 0 0 0 0 0 0 0 0 0 0 0 0 0 0 0 127 0" result="hardAlpha"/>
<feOffset dy="1"/>
<feColorMatrix type="matrix" values="0 0 0 0 0 0 0 0 0 0 0 0 0 0 0 0 0 0 0.35 0"/>
<feBlend mode="normal" in2="BackgroundImageFix" result="effect1_dropShadow_17453_7534"/>
<feBlend mode="normal" in="SourceGraphic" in2="effect1_dropShadow_17453_7534" result="shape"/>
</filter>
<filter id="filter8_d_17453_7534" x="130" y="735.5" width="115" height="45" filterUnits="userSpaceOnUse" color-interpolation-filters="sRGB">
<feFlood flood-opacity="0" result="BackgroundImageFix"/>
<feColorMatrix in="SourceAlpha" type="matrix" values="0 0 0 0 0 0 0 0 0 0 0 0 0 0 0 0 0 0 127 0" result="hardAlpha"/>
<feOffset dy="1"/>
<feColorMatrix type="matrix" values="0 0 0 0 0 0 0 0 0 0 0 0 0 0 0 0 0 0 0.35 0"/>
<feBlend mode="normal" in2="BackgroundImageFix" result="effect1_dropShadow_17453_7534"/>
<feBlend mode="normal" in="SourceGraphic" in2="effect1_dropShadow_17453_7534" result="shape"/>
</filter>
<filter id="filter9_d_17453_7534" x="8" y="683.5" width="114" height="45" filterUnits="userSpaceOnUse" color-interpolation-filters="sRGB">
<feFlood flood-opacity="0" result="BackgroundImageFix"/>
<feColorMatrix in="SourceAlpha" type="matrix" values="0 0 0 0 0 0 0 0 0 0 0 0 0 0 0 0 0 0 127 0" result="hardAlpha"/>
<feOffset dy="1"/>
<feColorMatrix type="matrix" values="0 0 0 0 0 0 0 0 0 0 0 0 0 0 0 0 0 0 0.35 0"/>
<feBlend mode="normal" in2="BackgroundImageFix" result="effect1_dropShadow_17453_7534"/>
<feBlend mode="normal" in="SourceGraphic" in2="effect1_dropShadow_17453_7534" result="shape"/>
</filter>
<clipPath id="clip0_17453_7534">
<rect width="375" height="812" rx="10" fill="white"/>
</clipPath>
<clipPath id="clip1_17453_7534">
<rect width="48" height="48" fill="white" transform="translate(12 52)"/>
</clipPath>
<clipPath id="clip2_17453_7534">
<rect width="136" height="34" fill="white" transform="translate(24 216)"/>
</clipPath>
<clipPath id="clip3_17453_7534">
<rect width="133" height="34" fill="white" transform="translate(24 216)"/>
</clipPath>
<clipPath id="clip4_17453_7534">
<rect width="327" height="48" fill="white" transform="translate(24 256)"/>
</clipPath>
</defs>
</svg>
