<svg width="375" height="812" viewBox="0 0 375 812" fill="none" xmlns="http://www.w3.org/2000/svg">
<g clip-path="url(#clip0_17453_7510)">
<rect width="375" height="812" fill="white"/>
<g clip-path="url(#clip1_17453_7510)">
<rect width="375" height="667" transform="translate(0 145)" fill="white"/>
<g clip-path="url(#clip2_17453_7510)">
<path d="M26.952 631V605.26H35.232C40.992 605.26 44.772 607.816 44.772 613.216V613.36C44.772 618.796 40.848 621.208 35.34 621.208H31.74V631H26.952ZM31.74 617.752H35.232C38.4 617.752 40.092 616.204 40.092 613.36V613.216C40.092 610.156 38.292 608.968 35.232 608.968H31.74V617.752ZM55.167 631.36C49.623 631.36 45.627 627.724 45.627 621.784V621.496C45.627 615.664 49.623 611.776 54.987 611.776C59.667 611.776 63.879 614.548 63.879 621.28V622.54H50.091C50.235 626.104 52.035 628.12 55.275 628.12C57.903 628.12 59.271 627.076 59.595 625.24H63.807C63.195 629.2 59.991 631.36 55.167 631.36ZM50.163 619.624H59.559C59.343 616.384 57.687 614.944 54.987 614.944C52.359 614.944 50.595 616.708 50.163 619.624ZM73.7458 631.36C69.0298 631.36 65.4658 628.012 65.4658 621.892V621.604C65.4658 615.592 69.0298 611.776 73.9258 611.776C76.9858 611.776 78.8938 613.18 79.9378 615.052V603.46H84.2938V631H79.9378V627.832C78.9298 629.704 76.5178 631.36 73.7458 631.36ZM74.8258 627.904C77.8498 627.904 80.0818 625.888 80.0818 621.676V621.388C80.0818 617.248 78.1738 615.196 75.0058 615.196C71.8018 615.196 69.9298 617.428 69.9298 621.496V621.784C69.9298 625.924 72.0178 627.904 74.8258 627.904ZM90.6231 609.076C89.1831 609.076 88.0311 607.996 88.0311 606.592C88.0311 605.152 89.1831 604.072 90.6231 604.072C92.0631 604.072 93.2151 605.152 93.2151 606.592C93.2151 607.996 92.0631 609.076 90.6231 609.076ZM88.4991 631V612.172H92.8551V631H88.4991ZM97.0845 631V612.172H101.441V615.16C102.341 613.324 104.429 611.776 107.525 611.776C111.305 611.776 113.969 613.972 113.969 619.156V631H109.613V619.552C109.613 616.708 108.461 615.412 105.869 615.412C103.421 615.412 101.441 616.924 101.441 619.912V631H97.0845ZM124.963 631.36C120.247 631.36 116.683 628.012 116.683 621.892V621.604C116.683 615.592 120.247 611.776 125.143 611.776C128.203 611.776 130.111 613.18 131.155 615.052V603.46H135.511V631H131.155V627.832C130.147 629.704 127.735 631.36 124.963 631.36ZM126.043 627.904C129.067 627.904 131.299 625.888 131.299 621.676V621.388C131.299 617.248 129.391 615.196 126.223 615.196C123.019 615.196 121.147 617.428 121.147 621.496V621.784C121.147 625.924 123.235 627.904 126.043 627.904ZM147.996 631.36C142.452 631.36 138.348 627.508 138.348 621.784V621.496C138.348 615.664 142.488 611.776 148.032 611.776C153.54 611.776 157.68 615.628 157.68 621.388V621.676C157.68 627.544 153.54 631.36 147.996 631.36ZM148.032 627.976C151.272 627.976 153.216 625.564 153.216 621.712V621.46C153.216 617.572 151.272 615.196 148.032 615.196C144.792 615.196 142.812 617.536 142.812 621.424V621.712C142.812 625.564 144.72 627.976 148.032 627.976ZM174.478 631.36C169.618 631.36 166.774 629.128 166.594 625.132H170.698C170.914 627.04 171.886 628.156 174.442 628.156C176.782 628.156 177.826 627.328 177.826 625.744C177.826 624.196 176.566 623.62 173.794 623.152C168.826 622.36 166.99 620.956 166.99 617.428C166.99 613.648 170.518 611.776 174.046 611.776C177.898 611.776 180.958 613.216 181.426 617.464H177.394C177.034 615.736 176.062 614.944 174.046 614.944C172.174 614.944 171.058 615.844 171.058 617.176C171.058 618.544 171.958 619.084 174.946 619.588C179.374 620.272 182.002 621.352 182.002 625.348C182.002 629.164 179.302 631.36 174.478 631.36ZM191.043 631.36C187.335 631.36 184.563 629.236 184.563 624.232V612.172H188.919V623.728C188.919 626.572 190.107 627.868 192.627 627.868C194.967 627.868 197.019 626.356 197.019 623.368V612.172H201.375V631H197.019V628.048C196.083 629.884 194.103 631.36 191.043 631.36ZM210.392 631.36C206.936 631.36 204.092 629.704 204.092 625.78C204.092 621.388 208.34 619.804 213.74 619.804H216.08V618.832C216.08 616.312 215.216 615.052 212.66 615.052C210.392 615.052 209.276 616.132 209.06 618.004H204.848C205.208 613.612 208.7 611.776 212.912 611.776C217.124 611.776 220.436 613.504 220.436 618.652V631H216.152V628.696C214.928 630.316 213.272 631.36 210.392 631.36ZM211.436 628.228C214.1 628.228 216.08 626.824 216.08 624.412V622.54H213.848C210.536 622.54 208.412 623.296 208.412 625.6C208.412 627.184 209.276 628.228 211.436 628.228ZM26.952 671V645.26H35.592C41.244 645.26 45.204 647.564 45.204 652.82V652.964C45.204 656.996 42.684 659.048 39.48 659.876L46.716 671H41.532L34.8 660.596H31.74V671H26.952ZM31.74 657.176H35.592C38.796 657.176 40.488 655.808 40.488 653.072V652.928C40.488 649.976 38.652 648.968 35.592 648.968H31.74V657.176ZM56.8219 671.36C51.2779 671.36 47.1739 667.508 47.1739 661.784V661.496C47.1739 655.664 51.3139 651.776 56.8579 651.776C62.3659 651.776 66.5059 655.628 66.5059 661.388V661.676C66.5059 667.544 62.3659 671.36 56.8219 671.36ZM56.8579 667.976C60.0979 667.976 62.0419 665.564 62.0419 661.712V661.46C62.0419 657.572 60.0979 655.196 56.8579 655.196C53.6179 655.196 51.6379 657.536 51.6379 661.424V661.712C51.6379 665.564 53.5459 667.976 56.8579 667.976ZM66.3304 671L72.8824 661.352L66.7624 652.172H71.8024L75.7264 658.256L79.6144 652.172H84.1864L78.1024 661.028L84.8344 671H79.7584L75.3664 664.196L70.8664 671H66.3304ZM89.3223 649.076C87.8823 649.076 86.7303 647.996 86.7303 646.592C86.7303 645.152 87.8823 644.072 89.3223 644.072C90.7623 644.072 91.9143 645.152 91.9143 646.592C91.9143 647.996 90.7623 649.076 89.3223 649.076ZM87.1983 671V652.172H91.5543V671H87.1983ZM95.7837 671V652.172H100.14V655.16C101.04 653.324 103.128 651.776 106.224 651.776C110.004 651.776 112.668 653.972 112.668 659.156V671H108.312V659.552C108.312 656.708 107.16 655.412 104.568 655.412C102.12 655.412 100.14 656.924 100.14 659.912V671H95.7837ZM116.606 671V643.46H120.962V655.16C121.862 653.324 123.95 651.776 127.046 651.776C130.826 651.776 133.49 653.972 133.49 659.156V671H129.134V659.552C129.134 656.708 127.982 655.412 125.39 655.412C122.942 655.412 120.962 656.924 120.962 659.912V671H116.606ZM142.36 671.36C138.904 671.36 136.06 669.704 136.06 665.78C136.06 661.388 140.308 659.804 145.708 659.804H148.048V658.832C148.048 656.312 147.184 655.052 144.628 655.052C142.36 655.052 141.244 656.132 141.028 658.004H136.816C137.176 653.612 140.668 651.776 144.88 651.776C149.092 651.776 152.404 653.504 152.404 658.652V671H148.12V668.696C146.896 670.316 145.24 671.36 142.36 671.36ZM143.404 668.228C146.068 668.228 148.048 666.824 148.048 664.412V662.54H145.816C142.504 662.54 140.38 663.296 140.38 665.6C140.38 667.184 141.244 668.228 143.404 668.228ZM158.909 671.252C157.325 671.252 156.065 670.028 156.065 668.444C156.065 666.86 157.325 665.6 158.909 665.6C160.529 665.6 161.789 666.86 161.789 668.444C161.789 670.028 160.529 671.252 158.909 671.252ZM168.235 671.252C166.651 671.252 165.391 670.028 165.391 668.444C165.391 666.86 166.651 665.6 168.235 665.6C169.855 665.6 171.115 666.86 171.115 668.444C171.115 670.028 169.855 671.252 168.235 671.252ZM177.562 671.252C175.978 671.252 174.718 670.028 174.718 668.444C174.718 666.86 175.978 665.6 177.562 665.6C179.182 665.6 180.442 666.86 180.442 668.444C180.442 670.028 179.182 671.252 177.562 671.252Z" fill="black" fill-opacity="0.96"/>
</g>
<g clip-path="url(#clip3_17453_7510)">
<path d="M24 730C24 728.895 24.8954 728 26 728H349C350.105 728 351 728.895 351 730C351 731.105 350.105 732 349 732H26C24.8954 732 24 731.105 24 730Z" fill="#EFEFEF"/>
<path d="M24 730C24 728.895 24.8954 728 26 728H185.5C186.605 728 187.5 728.895 187.5 730C187.5 731.105 186.605 732 185.5 732H26C24.8954 732 24 731.105 24 730Z" fill="#714F8F"/>
</g>
</g>
</g>
<defs>
<clipPath id="clip0_17453_7510">
<rect width="375" height="812" fill="white"/>
</clipPath>
<clipPath id="clip1_17453_7510">
<rect width="375" height="667" fill="white" transform="translate(0 145)"/>
</clipPath>
<clipPath id="clip2_17453_7510">
<rect width="375" height="128" fill="white" transform="translate(0 576)"/>
</clipPath>
<clipPath id="clip3_17453_7510">
<path d="M24 730C24 728.895 24.8954 728 26 728H349C350.105 728 351 728.895 351 730C351 731.105 350.105 732 349 732H26C24.8954 732 24 731.105 24 730Z" fill="white"/>
</clipPath>
</defs>
</svg>
