<svg width="375" height="812" viewBox="0 0 375 812" fill="none" xmlns="http://www.w3.org/2000/svg">
<g clip-path="url(#clip0_17453_7507)">
<rect width="375" height="812" fill="white"/>
<g clip-path="url(#clip1_17453_7507)">
<rect width="375" height="667" transform="translate(0 145)" fill="white"/>
<rect width="375" height="667" transform="translate(0 145)" fill="white"/>
<g clip-path="url(#clip2_17453_7507)">
<path d="M26.952 503V477.26H35.232C40.992 477.26 44.772 479.816 44.772 485.216V485.36C44.772 490.796 40.848 493.208 35.34 493.208H31.74V503H26.952ZM31.74 489.752H35.232C38.4 489.752 40.092 488.204 40.092 485.36V485.216C40.092 482.156 38.292 480.968 35.232 480.968H31.74V489.752ZM55.167 503.36C49.623 503.36 45.627 499.724 45.627 493.784V493.496C45.627 487.664 49.623 483.776 54.987 483.776C59.667 483.776 63.879 486.548 63.879 493.28V494.54H50.091C50.235 498.104 52.035 500.12 55.275 500.12C57.903 500.12 59.271 499.076 59.595 497.24H63.807C63.195 501.2 59.991 503.36 55.167 503.36ZM50.163 491.624H59.559C59.343 488.384 57.687 486.944 54.987 486.944C52.359 486.944 50.595 488.708 50.163 491.624ZM73.7458 503.36C69.0298 503.36 65.4658 500.012 65.4658 493.892V493.604C65.4658 487.592 69.0298 483.776 73.9258 483.776C76.9858 483.776 78.8938 485.18 79.9378 487.052V475.46H84.2938V503H79.9378V499.832C78.9298 501.704 76.5178 503.36 73.7458 503.36ZM74.8258 499.904C77.8498 499.904 80.0818 497.888 80.0818 493.676V493.388C80.0818 489.248 78.1738 487.196 75.0058 487.196C71.8018 487.196 69.9298 489.428 69.9298 493.496V493.784C69.9298 497.924 72.0178 499.904 74.8258 499.904ZM90.6231 481.076C89.1831 481.076 88.0311 479.996 88.0311 478.592C88.0311 477.152 89.1831 476.072 90.6231 476.072C92.0631 476.072 93.2151 477.152 93.2151 478.592C93.2151 479.996 92.0631 481.076 90.6231 481.076ZM88.4991 503V484.172H92.8551V503H88.4991ZM97.0845 503V484.172H101.441V487.16C102.341 485.324 104.429 483.776 107.525 483.776C111.305 483.776 113.969 485.972 113.969 491.156V503H109.613V491.552C109.613 488.708 108.461 487.412 105.869 487.412C103.421 487.412 101.441 488.924 101.441 491.912V503H97.0845ZM124.963 503.36C120.247 503.36 116.683 500.012 116.683 493.892V493.604C116.683 487.592 120.247 483.776 125.143 483.776C128.203 483.776 130.111 485.18 131.155 487.052V475.46H135.511V503H131.155V499.832C130.147 501.704 127.735 503.36 124.963 503.36ZM126.043 499.904C129.067 499.904 131.299 497.888 131.299 493.676V493.388C131.299 489.248 129.391 487.196 126.223 487.196C123.019 487.196 121.147 489.428 121.147 493.496V493.784C121.147 497.924 123.235 499.904 126.043 499.904ZM147.996 503.36C142.452 503.36 138.348 499.508 138.348 493.784V493.496C138.348 487.664 142.488 483.776 148.032 483.776C153.54 483.776 157.68 487.628 157.68 493.388V493.676C157.68 499.544 153.54 503.36 147.996 503.36ZM148.032 499.976C151.272 499.976 153.216 497.564 153.216 493.712V493.46C153.216 489.572 151.272 487.196 148.032 487.196C144.792 487.196 142.812 489.536 142.812 493.424V493.712C142.812 497.564 144.72 499.976 148.032 499.976ZM174.478 503.36C169.618 503.36 166.774 501.128 166.594 497.132H170.698C170.914 499.04 171.886 500.156 174.442 500.156C176.782 500.156 177.826 499.328 177.826 497.744C177.826 496.196 176.566 495.62 173.794 495.152C168.826 494.36 166.99 492.956 166.99 489.428C166.99 485.648 170.518 483.776 174.046 483.776C177.898 483.776 180.958 485.216 181.426 489.464H177.394C177.034 487.736 176.062 486.944 174.046 486.944C172.174 486.944 171.058 487.844 171.058 489.176C171.058 490.544 171.958 491.084 174.946 491.588C179.374 492.272 182.002 493.352 182.002 497.348C182.002 501.164 179.302 503.36 174.478 503.36ZM191.043 503.36C187.335 503.36 184.563 501.236 184.563 496.232V484.172H188.919V495.728C188.919 498.572 190.107 499.868 192.627 499.868C194.967 499.868 197.019 498.356 197.019 495.368V484.172H201.375V503H197.019V500.048C196.083 501.884 194.103 503.36 191.043 503.36ZM210.392 503.36C206.936 503.36 204.092 501.704 204.092 497.78C204.092 493.388 208.34 491.804 213.74 491.804H216.08V490.832C216.08 488.312 215.216 487.052 212.66 487.052C210.392 487.052 209.276 488.132 209.06 490.004H204.848C205.208 485.612 208.7 483.776 212.912 483.776C217.124 483.776 220.436 485.504 220.436 490.652V503H216.152V500.696C214.928 502.316 213.272 503.36 210.392 503.36ZM211.436 500.228C214.1 500.228 216.08 498.824 216.08 496.412V494.54H213.848C210.536 494.54 208.412 495.296 208.412 497.6C208.412 499.184 209.276 500.228 211.436 500.228ZM26.952 543V517.26H35.592C41.244 517.26 45.204 519.564 45.204 524.82V524.964C45.204 528.996 42.684 531.048 39.48 531.876L46.716 543H41.532L34.8 532.596H31.74V543H26.952ZM31.74 529.176H35.592C38.796 529.176 40.488 527.808 40.488 525.072V524.928C40.488 521.976 38.652 520.968 35.592 520.968H31.74V529.176ZM56.8219 543.36C51.2779 543.36 47.1739 539.508 47.1739 533.784V533.496C47.1739 527.664 51.3139 523.776 56.8579 523.776C62.3659 523.776 66.5059 527.628 66.5059 533.388V533.676C66.5059 539.544 62.3659 543.36 56.8219 543.36ZM56.8579 539.976C60.0979 539.976 62.0419 537.564 62.0419 533.712V533.46C62.0419 529.572 60.0979 527.196 56.8579 527.196C53.6179 527.196 51.6379 529.536 51.6379 533.424V533.712C51.6379 537.564 53.5459 539.976 56.8579 539.976ZM66.3304 543L72.8824 533.352L66.7624 524.172H71.8024L75.7264 530.256L79.6144 524.172H84.1864L78.1024 533.028L84.8344 543H79.7584L75.3664 536.196L70.8664 543H66.3304ZM89.3223 521.076C87.8823 521.076 86.7303 519.996 86.7303 518.592C86.7303 517.152 87.8823 516.072 89.3223 516.072C90.7623 516.072 91.9143 517.152 91.9143 518.592C91.9143 519.996 90.7623 521.076 89.3223 521.076ZM87.1983 543V524.172H91.5543V543H87.1983ZM95.7837 543V524.172H100.14V527.16C101.04 525.324 103.128 523.776 106.224 523.776C110.004 523.776 112.668 525.972 112.668 531.156V543H108.312V531.552C108.312 528.708 107.16 527.412 104.568 527.412C102.12 527.412 100.14 528.924 100.14 531.912V543H95.7837ZM116.606 543V515.46H120.962V527.16C121.862 525.324 123.95 523.776 127.046 523.776C130.826 523.776 133.49 525.972 133.49 531.156V543H129.134V531.552C129.134 528.708 127.982 527.412 125.39 527.412C122.942 527.412 120.962 528.924 120.962 531.912V543H116.606ZM142.36 543.36C138.904 543.36 136.06 541.704 136.06 537.78C136.06 533.388 140.308 531.804 145.708 531.804H148.048V530.832C148.048 528.312 147.184 527.052 144.628 527.052C142.36 527.052 141.244 528.132 141.028 530.004H136.816C137.176 525.612 140.668 523.776 144.88 523.776C149.092 523.776 152.404 525.504 152.404 530.652V543H148.12V540.696C146.896 542.316 145.24 543.36 142.36 543.36ZM143.404 540.228C146.068 540.228 148.048 538.824 148.048 536.412V534.54H145.816C142.504 534.54 140.38 535.296 140.38 537.6C140.38 539.184 141.244 540.228 143.404 540.228ZM158.909 543.252C157.325 543.252 156.065 542.028 156.065 540.444C156.065 538.86 157.325 537.6 158.909 537.6C160.529 537.6 161.789 538.86 161.789 540.444C161.789 542.028 160.529 543.252 158.909 543.252ZM168.235 543.252C166.651 543.252 165.391 542.028 165.391 540.444C165.391 538.86 166.651 537.6 168.235 537.6C169.855 537.6 171.115 538.86 171.115 540.444C171.115 542.028 169.855 543.252 168.235 543.252ZM177.562 543.252C175.978 543.252 174.718 542.028 174.718 540.444C174.718 538.86 175.978 537.6 177.562 537.6C179.182 537.6 180.442 538.86 180.442 540.444C180.442 542.028 179.182 543.252 177.562 543.252Z" fill="black" fill-opacity="0.32"/>
<path d="M38.22 631.36C30.156 631.36 25.656 626.212 25.656 618.292V618.004C25.656 610.264 30.984 604.864 38.148 604.864C44.052 604.864 48.624 607.816 49.2 613.864H44.34C43.8 610.444 41.892 608.68 38.184 608.68C33.648 608.68 30.696 612.208 30.696 617.968V618.256C30.696 624.052 33.468 627.472 38.22 627.472C41.784 627.472 44.304 625.672 44.808 622.036H49.488C48.732 628.228 44.34 631.36 38.22 631.36ZM60.6188 631.36C55.0748 631.36 50.9708 627.508 50.9708 621.784V621.496C50.9708 615.664 55.1108 611.776 60.6548 611.776C66.1628 611.776 70.3028 615.628 70.3028 621.388V621.676C70.3028 627.544 66.1628 631.36 60.6188 631.36ZM60.6548 627.976C63.8948 627.976 65.8388 625.564 65.8388 621.712V621.46C65.8388 617.572 63.8948 615.196 60.6548 615.196C57.4148 615.196 55.4348 617.536 55.4348 621.424V621.712C55.4348 625.564 57.3428 627.976 60.6548 627.976ZM73.1586 631V612.172H77.5146V615.16C78.4146 613.324 80.5026 611.776 83.5986 611.776C87.3786 611.776 90.0426 613.972 90.0426 619.156V631H85.6866V619.552C85.6866 616.708 84.5346 615.412 81.9426 615.412C79.4946 615.412 77.5146 616.924 77.5146 619.912V631H73.1586ZM94.7369 631V615.448H92.1809V612.172H94.7369V609.652C94.7369 605.512 97.0409 603.28 101.073 603.28C102.117 603.28 102.765 603.388 103.557 603.64V607.024C103.053 606.844 102.369 606.7 101.577 606.7C99.8129 606.7 99.0929 607.852 99.0929 609.472V612.172H103.377V615.448H99.0929V631H94.7369ZM113.415 631.36C107.871 631.36 103.875 627.724 103.875 621.784V621.496C103.875 615.664 107.871 611.776 113.235 611.776C117.915 611.776 122.127 614.548 122.127 621.28V622.54H108.339C108.483 626.104 110.283 628.12 113.523 628.12C116.151 628.12 117.519 627.076 117.843 625.24H122.055C121.443 629.2 118.239 631.36 113.415 631.36ZM108.411 619.624H117.807C117.591 616.384 115.935 614.944 113.235 614.944C110.607 614.944 108.843 616.708 108.411 619.624ZM124.938 631V612.172H129.294V615.7C130.482 613.324 132.246 611.92 135.414 611.884V615.952C131.598 615.988 129.294 617.212 129.294 621.208V631H124.938ZM140.399 609.076C138.959 609.076 137.807 607.996 137.807 606.592C137.807 605.152 138.959 604.072 140.399 604.072C141.839 604.072 142.991 605.152 142.991 606.592C142.991 607.996 141.839 609.076 140.399 609.076ZM138.275 631V612.172H142.631V631H138.275ZM146.86 631V612.172H151.216V615.16C152.116 613.324 154.204 611.776 157.3 611.776C161.08 611.776 163.744 613.972 163.744 619.156V631H159.388V619.552C159.388 616.708 158.236 615.412 155.644 615.412C153.196 615.412 151.216 616.924 151.216 619.912V631H146.86ZM174.738 631.36C170.022 631.36 166.458 628.012 166.458 621.892V621.604C166.458 615.592 170.022 611.776 174.918 611.776C177.978 611.776 179.886 613.18 180.93 615.052V603.46H185.286V631H180.93V627.832C179.922 629.704 177.51 631.36 174.738 631.36ZM175.818 627.904C178.842 627.904 181.074 625.888 181.074 621.676V621.388C181.074 617.248 179.166 615.196 175.998 615.196C172.794 615.196 170.922 617.428 170.922 621.496V621.784C170.922 625.924 173.01 627.904 175.818 627.904ZM197.772 631.36C192.228 631.36 188.124 627.508 188.124 621.784V621.496C188.124 615.664 192.264 611.776 197.808 611.776C203.316 611.776 207.456 615.628 207.456 621.388V621.676C207.456 627.544 203.316 631.36 197.772 631.36ZM197.808 627.976C201.048 627.976 202.992 625.564 202.992 621.712V621.46C202.992 617.572 201.048 615.196 197.808 615.196C194.568 615.196 192.588 617.536 192.588 621.424V621.712C192.588 625.564 194.496 627.976 197.808 627.976ZM226.198 631.36C220.654 631.36 216.55 627.508 216.55 621.784V621.496C216.55 615.664 220.69 611.776 226.234 611.776C231.742 611.776 235.882 615.628 235.882 621.388V621.676C235.882 627.544 231.742 631.36 226.198 631.36ZM226.234 627.976C229.474 627.976 231.418 625.564 231.418 621.712V621.46C231.418 617.572 229.474 615.196 226.234 615.196C222.994 615.196 221.014 617.536 221.014 621.424V621.712C221.014 625.564 222.922 627.976 226.234 627.976ZM34.872 671.36C29.328 671.36 25.332 667.724 25.332 661.784V661.496C25.332 655.664 29.328 651.776 34.692 651.776C39.372 651.776 43.584 654.548 43.584 661.28V662.54H29.796C29.94 666.104 31.74 668.12 34.98 668.12C37.608 668.12 38.976 667.076 39.3 665.24H43.512C42.9 669.2 39.696 671.36 34.872 671.36ZM29.868 659.624H39.264C39.048 656.384 37.392 654.944 34.692 654.944C32.064 654.944 30.3 656.708 29.868 659.624ZM46.3948 671V652.172H50.7508V655.16C51.6508 653.324 53.7388 651.776 56.8348 651.776C60.6148 651.776 63.2788 653.972 63.2788 659.156V671H58.9228V659.552C58.9228 656.708 57.7708 655.412 55.1788 655.412C52.7308 655.412 50.7508 656.924 50.7508 659.912V671H46.3948ZM74.2732 671.36C69.5572 671.36 65.9932 668.012 65.9932 661.892V661.604C65.9932 655.592 69.5572 651.776 74.4532 651.776C77.5132 651.776 79.4212 653.18 80.4652 655.052V643.46H84.8212V671H80.4652V667.832C79.4572 669.704 77.0452 671.36 74.2732 671.36ZM75.3532 667.904C78.3772 667.904 80.6092 665.888 80.6092 661.676V661.388C80.6092 657.248 78.7012 655.196 75.5332 655.196C72.3292 655.196 70.4572 657.428 70.4572 661.496V661.784C70.4572 665.924 72.5452 667.904 75.3532 667.904ZM97.1984 671.36C91.6544 671.36 87.6584 667.724 87.6584 661.784V661.496C87.6584 655.664 91.6544 651.776 97.0184 651.776C101.698 651.776 105.91 654.548 105.91 661.28V662.54H92.1224C92.2664 666.104 94.0664 668.12 97.3064 668.12C99.9344 668.12 101.302 667.076 101.626 665.24H105.838C105.226 669.2 102.022 671.36 97.1984 671.36ZM92.1944 659.624H101.59C101.374 656.384 99.7184 654.944 97.0184 654.944C94.3904 654.944 92.6264 656.708 92.1944 659.624ZM108.721 671V652.172H113.077V655.7C114.265 653.324 116.029 651.92 119.197 651.884V655.952C115.381 655.988 113.077 657.212 113.077 661.208V671H108.721ZM129.843 671.36C124.299 671.36 120.303 667.724 120.303 661.784V661.496C120.303 655.664 124.299 651.776 129.663 651.776C134.343 651.776 138.555 654.548 138.555 661.28V662.54H124.767C124.911 666.104 126.711 668.12 129.951 668.12C132.579 668.12 133.947 667.076 134.271 665.24H138.483C137.871 669.2 134.667 671.36 129.843 671.36ZM124.839 659.624H134.235C134.019 656.384 132.363 654.944 129.663 654.944C127.035 654.944 125.271 656.708 124.839 659.624ZM148.962 678.884C146.694 678.884 145.218 677.66 145.002 675.716H147.378C147.486 676.328 147.954 676.904 148.818 676.904C149.646 676.904 150.15 676.4 150.15 675.68C150.15 674.996 149.646 674.528 148.89 674.528C148.386 674.528 148.026 674.708 147.81 674.852L146.586 673.7L148.026 671.252C143.418 670.64 140.106 667.256 140.106 661.82V661.532C140.106 655.556 144.354 651.776 149.61 651.776C153.786 651.776 157.71 653.648 158.214 658.832H154.002C153.642 656.312 151.986 655.268 149.682 655.268C146.694 655.268 144.57 657.572 144.57 661.46V661.748C144.57 665.852 146.586 668.012 149.79 668.012C152.094 668.012 154.074 666.644 154.326 663.98H158.322C157.998 668.156 154.938 671.144 150.114 671.36L149.286 672.8C151.086 672.584 152.886 673.52 152.886 675.788C152.886 677.804 151.194 678.884 148.962 678.884ZM169.381 671.36C163.837 671.36 159.733 667.508 159.733 661.784V661.496C159.733 655.664 163.873 651.776 169.417 651.776C174.925 651.776 179.065 655.628 179.065 661.388V661.676C179.065 667.544 174.925 671.36 169.381 671.36ZM169.417 667.976C172.657 667.976 174.601 665.564 174.601 661.712V661.46C174.601 657.572 172.657 655.196 169.417 655.196C166.177 655.196 164.197 657.536 164.197 661.424V661.712C164.197 665.564 166.105 667.976 169.417 667.976ZM183.634 671.252C182.05 671.252 180.79 670.028 180.79 668.444C180.79 666.86 182.05 665.6 183.634 665.6C185.254 665.6 186.514 666.86 186.514 668.444C186.514 670.028 185.254 671.252 183.634 671.252ZM192.96 671.252C191.376 671.252 190.116 670.028 190.116 668.444C190.116 666.86 191.376 665.6 192.96 665.6C194.58 665.6 195.84 666.86 195.84 668.444C195.84 670.028 194.58 671.252 192.96 671.252ZM202.286 671.252C200.702 671.252 199.442 670.028 199.442 668.444C199.442 666.86 200.702 665.6 202.286 665.6C203.906 665.6 205.166 666.86 205.166 668.444C205.166 670.028 203.906 671.252 202.286 671.252Z" fill="black" fill-opacity="0.96"/>
</g>
<g clip-path="url(#clip3_17453_7507)">
<path d="M24 730C24 728.895 24.8954 728 26 728H349C350.105 728 351 728.895 351 730C351 731.105 350.105 732 349 732H26C24.8954 732 24 731.105 24 730Z" fill="#EFEFEF"/>
<path d="M24 730C24 728.895 24.8954 728 26 728H294C295.105 728 296 728.895 296 730C296 731.105 295.105 732 294 732H26C24.8954 732 24 731.105 24 730Z" fill="#714F8F"/>
</g>
</g>
</g>
<defs>
<clipPath id="clip0_17453_7507">
<rect width="375" height="812" fill="white"/>
</clipPath>
<clipPath id="clip1_17453_7507">
<rect width="375" height="667" fill="white" transform="translate(0 145)"/>
</clipPath>
<clipPath id="clip2_17453_7507">
<rect width="375" height="256" fill="white" transform="translate(0 448)"/>
</clipPath>
<clipPath id="clip3_17453_7507">
<path d="M24 730C24 728.895 24.8954 728 26 728H349C350.105 728 351 728.895 351 730C351 731.105 350.105 732 349 732H26C24.8954 732 24 731.105 24 730Z" fill="white"/>
</clipPath>
</defs>
</svg>
