<svg width="375" height="812" viewBox="0 0 375 812" fill="none" xmlns="http://www.w3.org/2000/svg">
<g clip-path="url(#clip0_17453_7504)">
<rect width="375" height="812" fill="white"/>
<g clip-path="url(#clip1_17453_7504)">
<rect width="375" height="667" transform="translate(0 145)" fill="white"/>
<rect width="375" height="667" transform="translate(0 145)" fill="white"/>
<g clip-path="url(#clip2_17453_7504)">
<path d="M26.952 671V645.26H35.232C40.992 645.26 44.772 647.816 44.772 653.216V653.36C44.772 658.796 40.848 661.208 35.34 661.208H31.74V671H26.952ZM31.74 657.752H35.232C38.4 657.752 40.092 656.204 40.092 653.36V653.216C40.092 650.156 38.292 648.968 35.232 648.968H31.74V657.752ZM47.4495 671V652.172H51.8055V655.7C52.9935 653.324 54.7575 651.92 57.9255 651.884V655.952C54.1095 655.988 51.8055 657.212 51.8055 661.208V671H47.4495ZM68.6794 671.36C63.1354 671.36 59.0314 667.508 59.0314 661.784V661.496C59.0314 655.664 63.1714 651.776 68.7154 651.776C74.2234 651.776 78.3634 655.628 78.3634 661.388V661.676C78.3634 667.544 74.2234 671.36 68.6794 671.36ZM68.7154 667.976C71.9554 667.976 73.8994 665.564 73.8994 661.712V661.46C73.8994 657.572 71.9554 655.196 68.7154 655.196C65.4754 655.196 63.4954 657.536 63.4954 661.424V661.712C63.4954 665.564 65.4034 667.976 68.7154 667.976ZM81.2192 671V652.172H85.5752V655.16C86.4752 653.324 88.5632 651.776 91.6592 651.776C95.4392 651.776 98.1032 653.972 98.1032 659.156V671H93.7472V659.552C93.7472 656.708 92.5952 655.412 90.0032 655.412C87.5552 655.412 85.5752 656.924 85.5752 659.912V671H81.2192ZM108.45 671.324C104.706 671.324 102.762 669.308 102.762 665.744V655.448H100.242V652.172H102.762V648.032H107.118V652.172H111.258V655.448H107.118V665.348C107.118 667.004 107.91 667.76 109.278 667.76C110.142 667.76 110.79 667.652 111.402 667.4V670.856C110.718 671.108 109.782 671.324 108.45 671.324ZM122.639 671.36C117.095 671.36 112.991 667.508 112.991 661.784V661.496C112.991 655.664 117.131 651.776 122.675 651.776C128.183 651.776 132.323 655.628 132.323 661.388V661.676C132.323 667.544 128.183 671.36 122.639 671.36ZM122.675 667.976C125.915 667.976 127.859 665.564 127.859 661.712V661.46C127.859 657.572 125.915 655.196 122.675 655.196C119.435 655.196 117.455 657.536 117.455 661.424V661.712C117.455 665.564 119.363 667.976 122.675 667.976ZM136.155 663.26L135.507 645.26H140.367L139.683 663.26H136.155ZM137.883 671.252C136.299 671.252 135.003 670.028 135.003 668.48C135.003 666.896 136.299 665.672 137.883 665.672C139.503 665.672 140.799 666.896 140.799 668.48C140.799 670.028 139.503 671.252 137.883 671.252Z" fill="black" fill-opacity="0.96"/>
</g>
<g clip-path="url(#clip3_17453_7504)">
<path d="M24 730C24 728.895 24.8954 728 26 728H349C350.105 728 351 728.895 351 730C351 731.105 350.105 732 349 732H26C24.8954 732 24 731.105 24 730Z" fill="#EFEFEF"/>
<path d="M24 730C24 728.895 24.8954 728 26 728H349C350.105 728 351 728.895 351 730C351 731.105 350.105 732 349 732H26C24.8954 732 24 731.105 24 730Z" fill="#714F8F"/>
</g>
</g>
</g>
<defs>
<clipPath id="clip0_17453_7504">
<rect width="375" height="812" fill="white"/>
</clipPath>
<clipPath id="clip1_17453_7504">
<rect width="375" height="667" fill="white" transform="translate(0 145)"/>
</clipPath>
<clipPath id="clip2_17453_7504">
<rect width="375" height="304" fill="white" transform="translate(0 400)"/>
</clipPath>
<clipPath id="clip3_17453_7504">
<path d="M24 730C24 728.895 24.8954 728 26 728H349C350.105 728 351 728.895 351 730C351 731.105 350.105 732 349 732H26C24.8954 732 24 731.105 24 730Z" fill="white"/>
</clipPath>
</defs>
</svg>
