<svg width="375" height="812" viewBox="0 0 375 812" fill="none" xmlns="http://www.w3.org/2000/svg">
<g clip-path="url(#clip0_17453_7604)">
<rect width="375" height="812" fill="white"/>
<path d="M24 772C24 758.745 34.7452 748 48 748H327C340.255 748 351 758.745 351 772C351 785.255 340.255 796 327 796H48C34.7452 796 24 785.255 24 772Z" fill="#714F8F"/>
<path d="M156.312 776.66C152.728 776.66 150.728 774.372 150.728 770.852V770.724C150.728 767.284 153.096 764.884 156.28 764.884C158.904 764.884 160.936 766.196 161.192 768.884H159.032C158.792 767.364 157.944 766.58 156.296 766.58C154.28 766.58 152.968 768.148 152.968 770.708V770.836C152.968 773.412 154.2 774.932 156.312 774.932C157.896 774.932 159.016 774.132 159.24 772.516H161.32C160.984 775.268 159.032 776.66 156.312 776.66ZM166.587 776.66C164.123 776.66 162.299 774.948 162.299 772.404V772.276C162.299 769.684 164.139 767.956 166.603 767.956C169.051 767.956 170.891 769.668 170.891 772.228V772.356C170.891 774.964 169.051 776.66 166.587 776.66ZM166.603 775.156C168.043 775.156 168.907 774.084 168.907 772.372V772.26C168.907 770.532 168.043 769.476 166.603 769.476C165.163 769.476 164.283 770.516 164.283 772.244V772.372C164.283 774.084 165.131 775.156 166.603 775.156ZM172.48 776.5V768.132H174.416V769.46C174.816 768.644 175.744 767.956 177.12 767.956C178.8 767.956 179.984 768.932 179.984 771.236V776.5H178.048V771.412C178.048 770.148 177.536 769.572 176.384 769.572C175.296 769.572 174.416 770.244 174.416 771.572V776.5H172.48ZM184.902 776.644C183.238 776.644 182.374 775.748 182.374 774.164V769.588H181.254V768.132H182.374V766.292H184.31V768.132H186.15V769.588H184.31V773.988C184.31 774.724 184.662 775.06 185.27 775.06C185.654 775.06 185.942 775.012 186.214 774.9V776.436C185.91 776.548 185.494 776.644 184.902 776.644ZM188.792 766.756C188.152 766.756 187.64 766.276 187.64 765.652C187.64 765.012 188.152 764.532 188.792 764.532C189.432 764.532 189.944 765.012 189.944 765.652C189.944 766.276 189.432 766.756 188.792 766.756ZM187.848 776.5V768.132H189.784V776.5H187.848ZM191.984 776.5V768.132H193.92V769.46C194.32 768.644 195.248 767.956 196.624 767.956C198.304 767.956 199.488 768.932 199.488 771.236V776.5H197.552V771.412C197.552 770.148 197.04 769.572 195.888 769.572C194.8 769.572 193.92 770.244 193.92 771.572V776.5H191.984ZM204.359 776.66C202.711 776.66 201.479 775.716 201.479 773.492V768.132H203.415V773.268C203.415 774.532 203.943 775.108 205.063 775.108C206.103 775.108 207.015 774.436 207.015 773.108V768.132H208.951V776.5H207.015V775.188C206.599 776.004 205.719 776.66 204.359 776.66ZM213.278 776.66C211.742 776.66 210.478 775.924 210.478 774.18C210.478 772.228 212.366 771.524 214.766 771.524H215.806V771.092C215.806 769.972 215.422 769.412 214.286 769.412C213.278 769.412 212.782 769.892 212.686 770.724H210.814C210.974 768.772 212.526 767.956 214.398 767.956C216.27 767.956 217.742 768.724 217.742 771.012V776.5H215.838V775.476C215.294 776.196 214.558 776.66 213.278 776.66ZM213.742 775.268C214.926 775.268 215.806 774.644 215.806 773.572V772.74H214.814C213.342 772.74 212.398 773.076 212.398 774.1C212.398 774.804 212.782 775.268 213.742 775.268ZM219.801 776.5V768.132H221.737V769.7C222.265 768.644 223.049 768.02 224.457 768.004V769.812C222.761 769.828 221.737 770.372 221.737 772.148V776.5H219.801Z" fill="white"/>
<rect width="375" height="104" fill="white"/>
<path d="M35.7202 33V24.3354H35.5957L32.9663 26.1812V24.3647L35.7276 22.4312H37.6099V33H35.7202ZM42.9216 33V24.3354H42.7971L40.1677 26.1812V24.3647L42.929 22.4312H44.8113V33H42.9216ZM48.9365 31.5425C48.248 31.5425 47.7646 31.0444 47.7646 30.3853C47.7646 29.7188 48.248 29.228 48.9365 29.228C49.6323 29.228 50.1084 29.7188 50.1084 30.3853C50.1084 31.0444 49.6323 31.5425 48.9365 31.5425ZM48.9365 26.1958C48.248 26.1958 47.7646 25.7051 47.7646 25.0459C47.7646 24.3794 48.248 23.8887 48.9365 23.8887C49.6323 23.8887 50.1084 24.3794 50.1084 25.0459C50.1084 25.7051 49.6323 26.1958 48.9365 26.1958ZM56.0793 33.2637C53.5452 33.2637 52.0437 31.2129 52.0437 27.7046C52.0437 24.2109 53.5671 22.1675 56.0793 22.1675C58.5842 22.1675 60.1077 24.2109 60.1077 27.7192C60.1077 31.2129 58.6062 33.2637 56.0793 33.2637ZM56.0793 31.6963C57.4197 31.6963 58.196 30.3267 58.196 27.7046C58.196 25.0972 57.405 23.7422 56.0793 23.7422C54.7537 23.7422 53.9553 25.1045 53.9553 27.7046C53.9553 30.3267 54.739 31.6963 56.0793 31.6963ZM65.8735 33.2637C63.4492 33.2637 61.7793 32.0039 61.7793 30.1729C61.7793 28.8325 62.6802 27.7705 64.0644 27.4775V27.353C62.9365 27.0747 62.2041 26.1592 62.2041 25.0312C62.2041 23.3613 63.7348 22.1675 65.8808 22.1675C68.0268 22.1675 69.5503 23.3613 69.5503 25.0312C69.5503 26.1665 68.8325 27.0674 67.6972 27.353V27.4775C69.0742 27.7339 69.9824 28.8032 69.9824 30.1655C69.9824 32.0039 68.3125 33.2637 65.8735 33.2637ZM65.8808 31.7915C67.1553 31.7915 68.0268 31.0664 68.0268 30.0117C68.0268 28.957 67.1479 28.2319 65.8808 28.2319C64.6064 28.2319 63.7275 28.957 63.7275 30.0117C63.7275 31.0664 64.6064 31.7915 65.8808 31.7915ZM65.8808 26.7817C66.9502 26.7817 67.6899 26.1445 67.6899 25.2144C67.6899 24.2695 66.9575 23.6177 65.8808 23.6177C64.7969 23.6177 64.0644 24.2695 64.0644 25.2144C64.0644 26.1445 64.8042 26.7817 65.8808 26.7817Z" fill="black" fill-opacity="0.96"/>
<path d="M285.339 29.3336C285.891 29.3336 286.339 29.7813 286.339 30.3336V32.3336C286.339 32.8858 285.891 33.3336 285.339 33.3336H284.339C283.787 33.3336 283.339 32.8858 283.339 32.3336V30.3336C283.339 29.7813 283.787 29.3336 284.339 29.3336H285.339ZM290.006 27.3336C290.558 27.3338 291.006 27.7814 291.006 28.3336V32.3336C291.006 32.8856 290.558 33.3334 290.006 33.3336H289.006C288.454 33.3336 288.006 32.8858 288.006 32.3336V28.3336C288.006 27.7813 288.454 27.3336 289.006 27.3336H290.006ZM294.672 24.9996C295.224 24.9996 295.672 25.4475 295.672 25.9996V32.3336C295.672 32.8858 295.224 33.3336 294.672 33.3336H293.672C293.12 33.3334 292.672 32.8856 292.672 32.3336V25.9996C292.672 25.4476 293.12 24.9998 293.672 24.9996H294.672ZM299.339 22.6666C299.891 22.6666 300.339 23.1143 300.339 23.6666V32.3336C300.339 32.8858 299.891 33.3336 299.339 33.3336H298.339C297.787 33.3336 297.339 32.8858 297.339 32.3336V23.6666C297.339 23.1143 297.787 22.6666 298.339 22.6666H299.339Z" fill="black" fill-opacity="0.96"/>
<path fill-rule="evenodd" clip-rule="evenodd" d="M311.287 30.9267C312.568 29.8444 314.444 29.8444 315.725 30.9267C315.789 30.9849 315.826 31.0675 315.828 31.1542C315.83 31.2409 315.795 31.324 315.733 31.3847L313.729 33.4072C313.67 33.4666 313.589 33.4999 313.506 33.4999C313.422 33.4999 313.342 33.4666 313.283 33.4072L311.277 31.3847C311.216 31.324 311.182 31.2407 311.184 31.1542C311.185 31.0675 311.223 30.9848 311.287 30.9267ZM308.611 28.2294C311.37 25.665 315.643 25.6651 318.402 28.2294C318.465 28.2896 318.5 28.3724 318.501 28.4589C318.502 28.5453 318.468 28.6281 318.407 28.6894L317.248 29.8603C317.129 29.9796 316.936 29.9814 316.813 29.8652C315.907 29.0454 314.728 28.5917 313.506 28.5917C312.284 28.5923 311.107 29.0461 310.201 29.8652C310.079 29.9815 309.885 29.9798 309.766 29.8603L308.607 28.6894C308.546 28.6282 308.512 28.5453 308.513 28.4589C308.514 28.3724 308.549 28.2895 308.611 28.2294ZM305.936 25.539C310.167 21.4869 316.843 21.4871 321.075 25.539C321.136 25.5992 321.171 25.6817 321.172 25.7675C321.172 25.8533 321.139 25.9361 321.078 25.997L319.918 27.1669C319.798 27.287 319.604 27.2881 319.482 27.1699C317.87 25.6384 315.73 24.7842 313.506 24.7841C311.281 24.7841 309.141 25.6382 307.528 27.1699C307.407 27.2882 307.213 27.287 307.094 27.1669L305.933 25.997C305.872 25.9361 305.838 25.8532 305.839 25.7675C305.839 25.6817 305.874 25.5991 305.936 25.539Z" fill="black" fill-opacity="0.96"/>
<rect opacity="0.35" x="327.172" y="22.8334" width="21" height="10.3333" rx="3.5" stroke="black" stroke-opacity="0.96"/>
<path opacity="0.4" d="M349.672 26V30C350.477 29.6612 351 28.8731 351 28C351 27.1269 350.477 26.3388 349.672 26Z" fill="black" fill-opacity="0.96"/>
<rect x="328.672" y="24.3334" width="18" height="7.33333" rx="2.3" fill="black" fill-opacity="0.96"/>
<g clip-path="url(#clip1_17453_7604)">
<path d="M30.2934 75.2928L38.2942 67.292L39.7086 68.7063L32.4149 76L39.7086 83.2936L38.2942 84.708L30.2934 76.7072C29.9028 76.3166 29.9028 75.6834 30.2934 75.2928Z" fill="black" fill-opacity="0.64"/>
</g>
<g clip-path="url(#clip2_17453_7604)">
<path d="M124 76C124 75.4477 124.448 75 125 75H251C251.552 75 252 75.4477 252 76C252 76.5523 251.552 77 251 77H125C124.448 77 124 76.5523 124 76Z" fill="#EFEFEF"/>
<path d="M124 76C124 75.4477 124.448 75 125 75H187C187.552 75 188 75.4477 188 76C188 76.5523 187.552 77 187 77H125C124.448 77 124 76.5523 124 76Z" fill="#714F8F"/>
</g>
<path d="M42.032 140.548L39.288 137.608C38.14 138.028 36.824 138.28 35.424 138.28C29.292 138.28 25.288 133.884 25.288 128.116V127.892C25.288 122.04 29.488 117.728 35.424 117.728C41.388 117.728 45.532 121.956 45.532 127.808V128.032C45.532 131.336 44.244 134.136 42.06 135.984L44.272 138.364L42.032 140.548ZM35.452 135.34C36.012 135.34 36.544 135.284 37.02 135.172L35.06 133.044L37.328 130.916L39.792 133.576C40.968 132.288 41.64 130.384 41.64 128.032V127.808C41.64 123.692 39.344 120.668 35.424 120.668C31.476 120.668 29.152 123.552 29.152 127.864V128.088C29.152 132.568 31.84 135.34 35.452 135.34ZM52.8807 138.28C49.9967 138.28 47.8407 136.628 47.8407 132.736V123.356H51.2287V132.344C51.2287 134.556 52.1527 135.564 54.1127 135.564C55.9327 135.564 57.5287 134.388 57.5287 132.064V123.356H60.9167V138H57.5287V135.704C56.8007 137.132 55.2607 138.28 52.8807 138.28ZM67.9298 138.28C65.2418 138.28 63.0298 136.992 63.0298 133.94C63.0298 130.524 66.3338 129.292 70.5338 129.292H72.3538V128.536C72.3538 126.576 71.6818 125.596 69.6938 125.596C67.9298 125.596 67.0618 126.436 66.8938 127.892H63.6178C63.8978 124.476 66.6138 123.048 69.8898 123.048C73.1658 123.048 75.7418 124.392 75.7418 128.396V138H72.4098V136.208C71.4578 137.468 70.1698 138.28 67.9298 138.28ZM68.7418 135.844C70.8138 135.844 72.3538 134.752 72.3538 132.876V131.42H70.6178C68.0418 131.42 66.3898 132.008 66.3898 133.8C66.3898 135.032 67.0618 135.844 68.7418 135.844ZM78.7851 138V123.356H82.1731V125.68C82.8731 124.252 84.4971 123.048 86.9051 123.048C89.8451 123.048 91.9171 124.756 91.9171 128.788V138H88.5291V129.096C88.5291 126.884 87.6331 125.876 85.6171 125.876C83.7131 125.876 82.1731 127.052 82.1731 129.376V138H78.7851ZM99.9642 138.252C97.0522 138.252 95.5402 136.684 95.5402 133.912V125.904H93.5802V123.356H95.5402V120.136H98.9282V123.356H102.148V125.904H98.9282V133.604C98.9282 134.892 99.5442 135.48 100.608 135.48C101.28 135.48 101.784 135.396 102.26 135.2V137.888C101.728 138.084 101 138.252 99.9642 138.252ZM108.422 138.28C105.734 138.28 103.522 136.992 103.522 133.94C103.522 130.524 106.826 129.292 111.026 129.292H112.846V128.536C112.846 126.576 112.174 125.596 110.186 125.596C108.422 125.596 107.554 126.436 107.386 127.892H104.11C104.39 124.476 107.106 123.048 110.382 123.048C113.658 123.048 116.234 124.392 116.234 128.396V138H112.902V136.208C111.95 137.468 110.662 138.28 108.422 138.28ZM109.234 135.844C111.306 135.844 112.846 134.752 112.846 132.876V131.42H111.11C108.534 131.42 106.882 132.008 106.882 133.8C106.882 135.032 107.554 135.844 109.234 135.844ZM124.289 138.28C120.509 138.28 118.297 136.544 118.157 133.436H121.349C121.517 134.92 122.273 135.788 124.261 135.788C126.081 135.788 126.893 135.144 126.893 133.912C126.893 132.708 125.913 132.26 123.757 131.896C119.893 131.28 118.465 130.188 118.465 127.444C118.465 124.504 121.209 123.048 123.953 123.048C126.949 123.048 129.329 124.168 129.693 127.472H126.557C126.277 126.128 125.521 125.512 123.953 125.512C122.497 125.512 121.629 126.212 121.629 127.248C121.629 128.312 122.329 128.732 124.653 129.124C128.097 129.656 130.141 130.496 130.141 133.604C130.141 136.572 128.041 138.28 124.289 138.28ZM138.105 138V123.356H141.493V125.596C142.193 124.224 143.789 123.048 145.945 123.048C147.849 123.048 149.361 123.86 150.089 125.68C151.209 123.86 153.225 123.048 155.045 123.048C157.733 123.048 159.917 124.7 159.917 128.732V138H156.529V128.956C156.529 126.8 155.605 125.876 153.925 125.876C152.245 125.876 150.705 126.996 150.705 129.236V138H147.317V128.956C147.317 126.8 146.365 125.876 144.713 125.876C143.033 125.876 141.493 126.996 141.493 129.236V138H138.105ZM166.804 138.28C164.116 138.28 161.904 136.992 161.904 133.94C161.904 130.524 165.208 129.292 169.408 129.292H171.228V128.536C171.228 126.576 170.556 125.596 168.568 125.596C166.804 125.596 165.936 126.436 165.768 127.892H162.492C162.772 124.476 165.488 123.048 168.764 123.048C172.04 123.048 174.616 124.392 174.616 128.396V138H171.284V136.208C170.332 137.468 169.044 138.28 166.804 138.28ZM167.616 135.844C169.688 135.844 171.228 134.752 171.228 132.876V131.42H169.492C166.916 131.42 165.264 132.008 165.264 133.8C165.264 135.032 165.936 135.844 167.616 135.844ZM187.963 143.012V135.592C187.179 136.992 185.303 138.28 183.147 138.28C179.479 138.28 176.707 135.676 176.707 130.916V130.692C176.707 126.016 179.479 123.048 183.287 123.048C185.667 123.048 187.151 124.14 187.963 125.596V123.356H191.351V143.012H187.963ZM183.987 135.592C186.339 135.592 188.075 134.024 188.075 130.748V130.524C188.075 127.304 186.591 125.708 184.127 125.708C181.635 125.708 180.179 127.444 180.179 130.608V130.832C180.179 134.052 181.803 135.592 183.987 135.592ZM199.438 138.28C196.554 138.28 194.398 136.628 194.398 132.736V123.356H197.786V132.344C197.786 134.556 198.71 135.564 200.67 135.564C202.49 135.564 204.086 134.388 204.086 132.064V123.356H207.474V138H204.086V135.704C203.358 137.132 201.818 138.28 199.438 138.28ZM212.387 120.948C211.267 120.948 210.371 120.108 210.371 119.016C210.371 117.896 211.267 117.056 212.387 117.056C213.507 117.056 214.403 117.896 214.403 119.016C214.403 120.108 213.507 120.948 212.387 120.948ZM210.735 138V123.356H214.123V138H210.735ZM217.412 138V123.356H220.8V125.68C221.5 124.252 223.124 123.048 225.532 123.048C228.472 123.048 230.544 124.756 230.544 128.788V138H227.156V129.096C227.156 126.884 226.26 125.876 224.244 125.876C222.34 125.876 220.8 127.052 220.8 129.376V138H217.412ZM235.344 120.948C234.224 120.948 233.328 120.108 233.328 119.016C233.328 117.896 234.224 117.056 235.344 117.056C236.464 117.056 237.36 117.896 237.36 119.016C237.36 120.108 236.464 120.948 235.344 120.948ZM233.692 138V123.356H237.08V138H233.692ZM240.369 138V123.356H243.757V125.68C244.457 124.252 246.081 123.048 248.489 123.048C251.429 123.048 253.501 124.756 253.501 128.788V138H250.113V129.096C250.113 126.884 249.217 125.876 247.201 125.876C245.297 125.876 243.757 127.052 243.757 129.376V138H240.369ZM256.564 138V116.58H259.952V125.68C260.652 124.252 262.276 123.048 264.684 123.048C267.624 123.048 269.696 124.756 269.696 128.788V138H266.308V129.096C266.308 126.884 265.412 125.876 263.396 125.876C261.492 125.876 259.952 127.052 259.952 129.376V138H256.564ZM276.595 138.28C273.907 138.28 271.695 136.992 271.695 133.94C271.695 130.524 274.999 129.292 279.199 129.292H281.019V128.536C281.019 126.576 280.347 125.596 278.359 125.596C276.595 125.596 275.727 126.436 275.559 127.892H272.283C272.563 124.476 275.279 123.048 278.555 123.048C281.831 123.048 284.407 124.392 284.407 128.396V138H281.075V136.208C280.123 137.468 278.835 138.28 276.595 138.28ZM277.407 135.844C279.479 135.844 281.019 134.752 281.019 132.876V131.42H279.283C276.707 131.42 275.055 132.008 275.055 133.8C275.055 135.032 275.727 135.844 277.407 135.844ZM292.463 138.28C288.683 138.28 286.471 136.544 286.331 133.436H289.523C289.691 134.92 290.447 135.788 292.435 135.788C294.255 135.788 295.067 135.144 295.067 133.912C295.067 132.708 294.087 132.26 291.931 131.896C288.067 131.28 286.639 130.188 286.639 127.444C286.639 124.504 289.383 123.048 292.127 123.048C295.123 123.048 297.503 124.168 297.867 127.472H294.731C294.451 126.128 293.695 125.512 292.127 125.512C290.671 125.512 289.803 126.212 289.803 127.248C289.803 128.312 290.503 128.732 292.827 129.124C296.271 129.656 298.315 130.496 298.315 133.604C298.315 136.572 296.215 138.28 292.463 138.28ZM29.852 172L24.504 157.356H28.144L31.98 168.528L35.76 157.356H39.092L33.8 172H29.852ZM46.7391 172.28C42.4271 172.28 39.2351 169.284 39.2351 164.832V164.608C39.2351 160.072 42.4551 157.048 46.7671 157.048C51.0511 157.048 54.2711 160.044 54.2711 164.524V164.748C54.2711 169.312 51.0511 172.28 46.7391 172.28ZM46.7671 169.648C49.2871 169.648 50.7991 167.772 50.7991 164.776V164.58C50.7991 161.556 49.2871 159.708 46.7671 159.708C44.2471 159.708 42.7071 161.528 42.7071 164.552V164.776C42.7071 167.772 44.1911 169.648 46.7671 169.648ZM62.9043 172.28C58.7042 172.28 55.5122 169.536 55.5122 164.86V164.636C55.5122 159.988 58.8162 157.048 62.9043 157.048C66.1523 157.048 69.2043 158.504 69.5963 162.536H66.3202C66.0403 160.576 64.7523 159.764 62.9602 159.764C60.6363 159.764 58.9843 161.556 58.9843 164.58V164.804C58.9843 167.996 60.5522 169.676 63.0443 169.676C64.8362 169.676 66.3763 168.612 66.5723 166.54H69.6803C69.4283 169.9 66.8803 172.28 62.9043 172.28ZM73.4937 155.144L76.6857 150.916H79.3737L82.4817 155.144H80.0737L77.9737 153.24L75.8457 155.144H73.4937ZM78.1977 172.28C73.8857 172.28 70.7777 169.452 70.7777 164.832V164.608C70.7777 160.072 73.8857 157.048 78.0577 157.048C81.6977 157.048 84.9737 159.204 84.9737 164.44V165.42H74.2497C74.3617 168.192 75.7617 169.76 78.2817 169.76C80.3257 169.76 81.3897 168.948 81.6417 167.52H84.9177C84.4417 170.6 81.9497 172.28 78.1977 172.28ZM74.3057 163.152H81.6137C81.4457 160.632 80.1577 159.512 78.0577 159.512C76.0137 159.512 74.6417 160.884 74.3057 163.152ZM103.296 177.012V169.592C102.512 170.992 100.636 172.28 98.4798 172.28C94.8118 172.28 92.0398 169.676 92.0398 164.916V164.692C92.0398 160.016 94.8118 157.048 98.6198 157.048C101 157.048 102.484 158.14 103.296 159.596V157.356H106.684V177.012H103.296ZM99.3198 169.592C101.672 169.592 103.408 168.024 103.408 164.748V164.524C103.408 161.304 101.924 159.708 99.4598 159.708C96.9678 159.708 95.5118 161.444 95.5118 164.608V164.832C95.5118 168.052 97.1358 169.592 99.3198 169.592ZM114.771 172.28C111.887 172.28 109.731 170.628 109.731 166.736V157.356H113.119V166.344C113.119 168.556 114.043 169.564 116.003 169.564C117.823 169.564 119.419 168.388 119.419 166.064V157.356H122.807V172H119.419V169.704C118.691 171.132 117.151 172.28 114.771 172.28ZM132.424 172.28C128.112 172.28 125.004 169.452 125.004 164.832V164.608C125.004 160.072 128.112 157.048 132.284 157.048C135.924 157.048 139.2 159.204 139.2 164.44V165.42H128.476C128.588 168.192 129.988 169.76 132.508 169.76C134.552 169.76 135.616 168.948 135.868 167.52H139.144C138.668 170.6 136.176 172.28 132.424 172.28ZM128.532 163.152H135.84C135.672 160.632 134.384 159.512 132.284 159.512C130.24 159.512 128.868 160.884 128.532 163.152ZM141.386 172V157.356H144.774V160.1C145.698 158.252 147.07 157.16 149.534 157.132V160.296C146.566 160.324 144.774 161.276 144.774 164.384V172H141.386ZM157.507 177.012V157.356H160.895V159.708C161.707 158.308 163.527 157.048 165.683 157.048C169.351 157.048 172.179 159.764 172.179 164.496V164.72C172.179 169.424 169.463 172.28 165.683 172.28C163.359 172.28 161.679 171.132 160.895 169.704V177.012H157.507ZM164.843 169.592C167.335 169.592 168.707 167.912 168.707 164.776V164.552C168.707 161.304 167.027 159.708 164.815 159.708C162.463 159.708 160.783 161.304 160.783 164.552V164.776C160.783 168.052 162.379 169.592 164.843 169.592ZM180.825 172.28C176.513 172.28 173.405 169.452 173.405 164.832V164.608C173.405 160.072 176.513 157.048 180.685 157.048C184.325 157.048 187.601 159.204 187.601 164.44V165.42H176.877C176.989 168.192 178.389 169.76 180.909 169.76C182.953 169.76 184.017 168.948 184.269 167.52H187.545C187.069 170.6 184.577 172.28 180.825 172.28ZM176.933 163.152H184.241C184.073 160.632 182.785 159.512 180.685 159.512C178.641 159.512 177.269 160.884 176.933 163.152ZM195.276 172.28C191.608 172.28 188.836 169.676 188.836 164.916V164.692C188.836 160.016 191.608 157.048 195.416 157.048C197.796 157.048 199.28 158.14 200.092 159.596V150.58H203.48V172H200.092V169.536C199.308 170.992 197.432 172.28 195.276 172.28ZM196.116 169.592C198.468 169.592 200.204 168.024 200.204 164.748V164.524C200.204 161.304 198.72 159.708 196.256 159.708C193.764 159.708 192.308 161.444 192.308 164.608V164.832C192.308 168.052 193.932 169.592 196.116 169.592ZM208.402 154.948C207.282 154.948 206.386 154.108 206.386 153.016C206.386 151.896 207.282 151.056 208.402 151.056C209.522 151.056 210.418 151.896 210.418 153.016C210.418 154.108 209.522 154.948 208.402 154.948ZM206.75 172V157.356H210.138V172H206.75ZM213.428 172V157.356H216.816V160.1C217.74 158.252 219.112 157.16 221.576 157.132V160.296C218.608 160.324 216.816 161.276 216.816 164.384V172H213.428ZM226.874 165.98V164.916C226.874 162.704 228.358 161.332 229.702 160.016C230.738 158.98 231.662 158.056 231.662 156.852C231.662 155.424 230.878 154.5 229.17 154.5C227.434 154.5 226.23 155.732 226.034 157.664H222.786C222.982 153.996 225.586 151.7 229.338 151.7C233.342 151.7 235.218 153.884 235.218 156.6C235.218 158.588 234.014 159.876 232.754 161.108C231.438 162.368 230.094 163.516 230.01 165.084V165.98H226.874ZM228.414 172.196C227.154 172.196 226.118 171.244 226.118 170.04C226.118 168.808 227.154 167.856 228.414 167.856C229.646 167.856 230.654 168.808 230.654 170.04C230.654 171.244 229.646 172.196 228.414 172.196Z" fill="black" fill-opacity="0.96"/>
<path d="M28.914 205L24.54 192.13H26.088L29.922 203.488L33.756 192.13H35.232L30.786 205H28.914ZM39.9431 205.162C37.2611 205.162 35.3351 203.128 35.3351 200.374V200.23C35.3351 197.404 37.2971 195.424 39.9611 195.424C42.6251 195.424 44.5871 197.386 44.5871 200.212V200.356C44.5871 203.2 42.6251 205.162 39.9431 205.162ZM39.9611 203.92C41.8511 203.92 43.0391 202.498 43.0391 200.374V200.248C43.0391 198.07 41.8331 196.666 39.9611 196.666C38.0711 196.666 36.8831 198.07 36.8831 200.23V200.374C36.8831 202.516 38.0531 203.92 39.9611 203.92ZM50.6264 205.162C47.9984 205.162 46.0184 203.308 46.0184 200.392V200.248C46.0184 197.368 48.0704 195.424 50.5904 195.424C52.5524 195.424 54.3884 196.324 54.6764 198.718H53.2004C52.9664 197.224 51.8864 196.666 50.5904 196.666C48.8804 196.666 47.5664 198.034 47.5664 200.248V200.392C47.5664 202.696 48.8264 203.92 50.6444 203.92C51.9764 203.92 53.1824 203.146 53.3444 201.616H54.7304C54.5324 203.65 52.8944 205.162 50.6264 205.162ZM57.904 193.966L59.848 191.374H61.198L63.124 193.966H62.026L60.496 192.616L58.966 193.966H57.904ZM60.658 205.162C57.994 205.162 56.104 203.29 56.104 200.392V200.248C56.104 197.404 57.922 195.424 60.514 195.424C62.692 195.424 64.744 196.738 64.744 200.104V200.59H57.652C57.724 202.732 58.75 203.92 60.676 203.92C62.134 203.92 62.98 203.38 63.178 202.282H64.672C64.348 204.172 62.782 205.162 60.658 205.162ZM57.706 199.384H63.214C63.07 197.44 62.062 196.666 60.514 196.666C58.984 196.666 57.958 197.71 57.706 199.384ZM71.4401 208.276V195.586H72.9341V197.17C73.4741 196.252 74.7521 195.424 76.1201 195.424C78.5861 195.424 80.4041 197.224 80.4041 200.158V200.302C80.4041 203.182 78.7121 205.162 76.1201 205.162C74.5721 205.162 73.4741 204.388 72.9341 203.452V208.276H71.4401ZM75.9761 203.92C77.8481 203.92 78.8561 202.66 78.8561 200.374V200.23C78.8561 197.854 77.5421 196.666 75.9581 196.666C74.2121 196.666 72.8801 197.818 72.8801 200.23V200.374C72.8801 202.786 74.1401 203.92 75.9761 203.92ZM84.9033 205.162C83.1573 205.162 81.7713 204.316 81.7713 202.39C81.7713 200.212 84.0753 199.474 86.4873 199.474H87.8373V198.79C87.8373 197.296 87.2613 196.666 85.8213 196.666C84.5253 196.666 83.8053 197.206 83.6613 198.358H82.1673C82.3653 196.216 84.0753 195.424 85.8933 195.424C87.6933 195.424 89.3313 196.162 89.3313 198.79V205H87.8373V203.812C87.1353 204.694 86.2893 205.162 84.9033 205.162ZM85.0473 203.974C86.6313 203.974 87.8373 203.164 87.8373 201.706V200.536H86.5413C84.6513 200.536 83.2653 201.004 83.2653 202.39C83.2653 203.362 83.7333 203.974 85.0473 203.974ZM95.848 208.438C93.058 208.438 91.834 207.124 91.582 205.54H93.112C93.328 206.62 94.228 207.178 95.83 207.178C97.684 207.178 98.854 206.296 98.854 204.28V202.912C98.314 203.83 97.036 204.694 95.668 204.694C93.202 204.694 91.384 202.822 91.384 200.23V200.104C91.384 197.548 93.184 195.424 95.776 195.424C97.342 195.424 98.314 196.18 98.854 197.098V195.586H100.348V204.37C100.33 207.106 98.476 208.438 95.848 208.438ZM95.83 203.452C97.576 203.452 98.908 202.228 98.908 200.122V199.996C98.908 197.89 97.756 196.666 95.92 196.666C94.048 196.666 92.932 198.052 92.932 200.032V200.176C92.932 202.228 94.246 203.452 95.83 203.452ZM105.549 205.162C103.803 205.162 102.417 204.316 102.417 202.39C102.417 200.212 104.721 199.474 107.133 199.474H108.483V198.79C108.483 197.296 107.907 196.666 106.467 196.666C105.171 196.666 104.451 197.206 104.307 198.358H102.813C103.011 196.216 104.721 195.424 106.539 195.424C108.339 195.424 109.977 196.162 109.977 198.79V205H108.483V203.812C107.781 204.694 106.935 205.162 105.549 205.162ZM105.693 203.974C107.277 203.974 108.483 203.164 108.483 201.706V200.536H107.187C105.297 200.536 103.911 201.004 103.911 202.39C103.911 203.362 104.379 203.974 105.693 203.974ZM120.502 205.162C118.63 205.162 117.226 204.136 117.226 201.544V195.586H118.72V201.472C118.72 203.128 119.422 203.866 120.898 203.866C122.23 203.866 123.49 202.984 123.49 201.292V195.586H124.984V205H123.49V203.506C123.058 204.388 122.014 205.162 120.502 205.162ZM127.823 205V195.586H129.317V197.026C129.749 196.144 130.775 195.424 132.125 195.424C133.331 195.424 134.393 195.928 134.879 197.188C135.527 195.964 136.931 195.424 138.101 195.424C139.793 195.424 141.269 196.432 141.269 199.168V205H139.775V199.06C139.775 197.404 139.073 196.72 137.777 196.72C136.553 196.72 135.293 197.548 135.293 199.24V205H133.799V199.06C133.799 197.404 133.097 196.72 131.801 196.72C130.577 196.72 129.317 197.548 129.317 199.24V205H127.823ZM146.384 205.162C144.638 205.162 143.252 204.316 143.252 202.39C143.252 200.212 145.556 199.474 147.968 199.474H149.318V198.79C149.318 197.296 148.742 196.666 147.302 196.666C146.006 196.666 145.286 197.206 145.142 198.358H143.648C143.846 196.216 145.556 195.424 147.374 195.424C149.174 195.424 150.812 196.162 150.812 198.79V205H149.318V203.812C148.616 204.694 147.77 205.162 146.384 205.162ZM146.528 203.974C148.112 203.974 149.318 203.164 149.318 201.706V200.536H148.022C146.132 200.536 144.746 201.004 144.746 202.39C144.746 203.362 145.214 203.974 146.528 203.974ZM158.15 205V195.586H159.644V197.026C160.076 196.144 161.102 195.424 162.452 195.424C163.658 195.424 164.72 195.928 165.206 197.188C165.854 195.964 167.258 195.424 168.428 195.424C170.12 195.424 171.596 196.432 171.596 199.168V205H170.102V199.06C170.102 197.404 169.4 196.72 168.104 196.72C166.88 196.72 165.62 197.548 165.62 199.24V205H164.126V199.06C164.126 197.404 163.424 196.72 162.128 196.72C160.904 196.72 159.644 197.548 159.644 199.24V205H158.15ZM178.205 205.162C175.541 205.162 173.651 203.29 173.651 200.392V200.248C173.651 197.404 175.469 195.424 178.061 195.424C180.239 195.424 182.291 196.738 182.291 200.104V200.59H175.199C175.271 202.732 176.297 203.92 178.223 203.92C179.681 203.92 180.527 203.38 180.725 202.282H182.219C181.895 204.172 180.329 205.162 178.205 205.162ZM175.253 199.384H180.761C180.617 197.44 179.609 196.666 178.061 196.666C176.531 196.666 175.505 197.71 175.253 199.384ZM184.403 205V195.586H185.897V197.08C186.329 196.198 187.373 195.424 188.921 195.424C190.865 195.424 192.233 196.486 192.233 199.222V205H190.739V199.114C190.739 197.458 190.037 196.72 188.525 196.72C187.139 196.72 185.897 197.602 185.897 199.294V205H184.403ZM197.897 205.162C195.647 205.162 194.297 204.028 194.207 202.102H195.665C195.773 203.218 196.367 203.92 197.879 203.92C199.301 203.92 199.931 203.434 199.931 202.426C199.931 201.436 199.193 201.112 197.735 200.842C195.287 200.392 194.459 199.708 194.459 198.07C194.459 196.324 196.169 195.424 197.645 195.424C199.337 195.424 200.795 196.108 201.047 198.142H199.607C199.391 197.116 198.815 196.666 197.627 196.666C196.547 196.666 195.845 197.206 195.845 198.016C195.845 198.862 196.313 199.204 198.041 199.51C199.985 199.87 201.353 200.302 201.353 202.3C201.353 204.01 200.183 205.162 197.897 205.162ZM205.808 205.162C204.062 205.162 202.676 204.316 202.676 202.39C202.676 200.212 204.98 199.474 207.392 199.474H208.742V198.79C208.742 197.296 208.166 196.666 206.726 196.666C205.43 196.666 204.71 197.206 204.566 198.358H203.072C203.27 196.216 204.98 195.424 206.798 195.424C208.598 195.424 210.236 196.162 210.236 198.79V205H208.742V203.812C208.04 204.694 207.194 205.162 205.808 205.162ZM205.952 203.974C207.536 203.974 208.742 203.164 208.742 201.706V200.536H207.446C205.556 200.536 204.17 201.004 204.17 202.39C204.17 203.362 204.638 203.974 205.952 203.974ZM213.026 205V191.086H214.538V205H213.026ZM218.172 193.624C217.632 193.624 217.182 193.174 217.182 192.634C217.182 192.094 217.632 191.644 218.172 191.644C218.712 191.644 219.162 192.094 219.162 192.634C219.162 193.174 218.712 193.624 218.172 193.624ZM217.452 205V195.586H218.946V205H217.452ZM225.37 205.162C222.904 205.162 221.122 203.416 221.122 200.482V200.338C221.122 197.458 222.922 195.424 225.514 195.424C227.08 195.424 228.052 196.18 228.592 197.098V191.086H230.086V205H228.592V203.38C228.052 204.298 226.738 205.162 225.37 205.162ZM225.532 203.92C227.278 203.92 228.646 202.768 228.646 200.356V200.212C228.646 197.8 227.494 196.666 225.658 196.666C223.786 196.666 222.67 197.98 222.67 200.266V200.41C222.67 202.786 223.948 203.92 225.532 203.92ZM235.287 205.162C233.541 205.162 232.155 204.316 232.155 202.39C232.155 200.212 234.459 199.474 236.871 199.474H238.221V198.79C238.221 197.296 237.645 196.666 236.205 196.666C234.909 196.666 234.189 197.206 234.045 198.358H232.551C232.749 196.216 234.459 195.424 236.277 195.424C238.077 195.424 239.715 196.162 239.715 198.79V205H238.221V203.812C237.519 204.694 236.673 205.162 235.287 205.162ZM235.431 203.974C237.015 203.974 238.221 203.164 238.221 201.706V200.536H236.925C235.035 200.536 233.649 201.004 233.649 202.39C233.649 203.362 234.117 203.974 235.431 203.974ZM246.016 205.162C243.55 205.162 241.768 203.416 241.768 200.482V200.338C241.768 197.458 243.568 195.424 246.16 195.424C247.726 195.424 248.698 196.18 249.238 197.098V191.086H250.732V205H249.238V203.38C248.698 204.298 247.384 205.162 246.016 205.162ZM246.178 203.92C247.924 203.92 249.292 202.768 249.292 200.356V200.212C249.292 197.8 248.14 196.666 246.304 196.666C244.432 196.666 243.316 197.98 243.316 200.266V200.41C243.316 202.786 244.594 203.92 246.178 203.92ZM257.427 205.162C254.763 205.162 252.873 203.29 252.873 200.392V200.248C252.873 197.404 254.691 195.424 257.283 195.424C259.461 195.424 261.513 196.738 261.513 200.104V200.59H254.421C254.493 202.732 255.519 203.92 257.445 203.92C258.903 203.92 259.749 203.38 259.947 202.282H261.441C261.117 204.172 259.551 205.162 257.427 205.162ZM254.475 199.384H259.983C259.839 197.44 258.831 196.666 257.283 196.666C255.753 196.666 254.727 197.71 254.475 199.384ZM268.209 208.276V195.586H269.703V197.17C270.243 196.252 271.521 195.424 272.889 195.424C275.355 195.424 277.173 197.224 277.173 200.158V200.302C277.173 203.182 275.481 205.162 272.889 205.162C271.341 205.162 270.243 204.388 269.703 203.452V208.276H268.209ZM272.745 203.92C274.617 203.92 275.625 202.66 275.625 200.374V200.23C275.625 197.854 274.311 196.666 272.727 196.666C270.981 196.666 269.649 197.818 269.649 200.23V200.374C269.649 202.786 270.909 203.92 272.745 203.92ZM283.22 205.162C280.538 205.162 278.612 203.128 278.612 200.374V200.23C278.612 197.404 280.574 195.424 283.238 195.424C285.902 195.424 287.864 197.386 287.864 200.212V200.356C287.864 203.2 285.902 205.162 283.22 205.162ZM283.238 203.92C285.128 203.92 286.316 202.498 286.316 200.374V200.248C286.316 198.07 285.11 196.666 283.238 196.666C281.348 196.666 280.16 198.07 280.16 200.23V200.374C280.16 202.516 281.33 203.92 283.238 203.92ZM289.997 205V195.586H291.491V197.278C292.085 196.216 292.895 195.478 294.587 195.424V196.828C292.697 196.918 291.491 197.512 291.491 199.834V205H289.997ZM25.512 228V218.586H27.006V220.026C27.438 219.144 28.464 218.424 29.814 218.424C31.02 218.424 32.082 218.928 32.568 220.188C33.216 218.964 34.62 218.424 35.79 218.424C37.482 218.424 38.958 219.432 38.958 222.168V228H37.464V222.06C37.464 220.404 36.762 219.72 35.466 219.72C34.242 219.72 32.982 220.548 32.982 222.24V228H31.488V222.06C31.488 220.404 30.786 219.72 29.49 219.72C28.266 219.72 27.006 220.548 27.006 222.24V228H25.512ZM44.4148 216.966L45.5308 214.32H47.4028L45.5308 216.966H44.4148ZM44.0728 228.162C42.3268 228.162 40.9408 227.316 40.9408 225.39C40.9408 223.212 43.2448 222.474 45.6568 222.474H47.0068V221.79C47.0068 220.296 46.4308 219.666 44.9908 219.666C43.6948 219.666 42.9748 220.206 42.8308 221.358H41.3368C41.5348 219.216 43.2448 218.424 45.0628 218.424C46.8628 218.424 48.5008 219.162 48.5008 221.79V228H47.0068V226.812C46.3048 227.694 45.4588 228.162 44.0728 228.162ZM44.2168 226.974C45.8008 226.974 47.0068 226.164 47.0068 224.706V223.536H45.7108C43.8208 223.536 42.4348 224.004 42.4348 225.39C42.4348 226.362 42.9028 226.974 44.2168 226.974ZM58.0235 231.276V226.38C57.4835 227.298 56.1695 228.162 54.8015 228.162C52.3355 228.162 50.5535 226.416 50.5535 223.482V223.338C50.5535 220.458 52.3535 218.424 54.9455 218.424C56.5115 218.424 57.4835 219.18 58.0235 220.098V218.586H59.5175V231.276H58.0235ZM54.9635 226.92C56.7095 226.92 58.0775 225.768 58.0775 223.356V223.212C58.0775 220.8 56.9255 219.666 55.0895 219.666C53.2175 219.666 52.1015 220.98 52.1015 223.266V223.41C52.1015 225.786 53.3795 226.92 54.9635 226.92ZM65.5467 228.162C63.6747 228.162 62.2707 227.136 62.2707 224.544V218.586H63.7647V224.472C63.7647 226.128 64.4667 226.866 65.9427 226.866C67.2747 226.866 68.5347 225.984 68.5347 224.292V218.586H70.0287V228H68.5347V226.506C68.1027 227.388 67.0587 228.162 65.5467 228.162ZM73.6242 216.624C73.0842 216.624 72.6342 216.174 72.6342 215.634C72.6342 215.094 73.0842 214.644 73.6242 214.644C74.1642 214.644 74.6142 215.094 74.6142 215.634C74.6142 216.174 74.1642 216.624 73.6242 216.624ZM72.9042 228V218.586H74.3982V228H72.9042ZM77.2761 228V218.586H78.7701V220.08C79.2021 219.198 80.2461 218.424 81.7941 218.424C83.7381 218.424 85.1061 219.486 85.1061 222.222V228H83.6121V222.114C83.6121 220.458 82.9101 219.72 81.3981 219.72C80.0121 219.72 78.7701 220.602 78.7701 222.294V228H77.2761ZM90.2119 228.162C88.4659 228.162 87.0799 227.316 87.0799 225.39C87.0799 223.212 89.3839 222.474 91.7959 222.474H93.1459V221.79C93.1459 220.296 92.5699 219.666 91.1299 219.666C89.8339 219.666 89.1139 220.206 88.9699 221.358H87.4759C87.6739 219.216 89.3839 218.424 91.2019 218.424C93.0019 218.424 94.6399 219.162 94.6399 221.79V228H93.1459V226.812C92.4439 227.694 91.5979 228.162 90.2119 228.162ZM90.3559 226.974C91.9399 226.974 93.1459 226.164 93.1459 224.706V223.536H91.8499C89.9599 223.536 88.5739 224.004 88.5739 225.39C88.5739 226.362 89.0419 226.974 90.3559 226.974ZM98.4206 228.09C97.7906 228.09 97.2686 227.586 97.2686 226.938C97.2686 226.29 97.7906 225.786 98.4206 225.786C99.0506 225.786 99.5726 226.29 99.5726 226.938C99.5726 227.586 99.0506 228.09 98.4206 228.09ZM112.728 228.162C108.93 228.162 106.356 225.246 106.356 221.646V221.502C106.356 217.848 108.912 214.968 112.692 214.968C116.472 214.968 118.974 217.848 118.974 221.466V221.61C118.974 225.246 116.472 228.162 112.728 228.162ZM112.728 226.866C115.59 226.866 117.354 224.706 117.354 221.592V221.448C117.354 218.568 115.662 216.228 112.692 216.228C109.704 216.228 107.976 218.424 107.976 221.484V221.628C107.976 224.742 110.046 226.866 112.728 226.866ZM128.734 228.126C127.024 228.126 126.196 227.118 126.196 225.642V219.846H124.846V218.586H126.196V216.444H127.69V218.586H129.886V219.846H127.69V225.498C127.69 226.416 128.104 226.866 128.86 226.866C129.328 226.866 129.688 226.794 130.012 226.668V227.928C129.706 228.036 129.346 228.126 128.734 228.126ZM135.996 228.162C133.314 228.162 131.388 226.128 131.388 223.374V223.23C131.388 220.404 133.35 218.424 136.014 218.424C138.678 218.424 140.64 220.386 140.64 223.212V223.356C140.64 226.2 138.678 228.162 135.996 228.162ZM136.014 226.92C137.904 226.92 139.092 225.498 139.092 223.374V223.248C139.092 221.07 137.886 219.666 136.014 219.666C134.124 219.666 132.936 221.07 132.936 223.23V223.374C132.936 225.516 134.106 226.92 136.014 226.92ZM145.636 228.126C143.926 228.126 143.098 227.118 143.098 225.642V219.846H141.748V218.586H143.098V216.444H144.592V218.586H146.788V219.846H144.592V225.498C144.592 226.416 145.006 226.866 145.762 226.866C146.23 226.866 146.59 226.794 146.914 226.668V227.928C146.608 228.036 146.248 228.126 145.636 228.126ZM151.438 228.162C149.692 228.162 148.306 227.316 148.306 225.39C148.306 223.212 150.61 222.474 153.022 222.474H154.372V221.79C154.372 220.296 153.796 219.666 152.356 219.666C151.06 219.666 150.34 220.206 150.196 221.358H148.702C148.9 219.216 150.61 218.424 152.428 218.424C154.228 218.424 155.866 219.162 155.866 221.79V228H154.372V226.812C153.67 227.694 152.824 228.162 151.438 228.162ZM151.582 226.974C153.166 226.974 154.372 226.164 154.372 224.706V223.536H153.076C151.186 223.536 149.8 224.004 149.8 225.39C149.8 226.362 150.268 226.974 151.582 226.974ZM158.657 228V214.086H160.169V228H158.657ZM171.176 228.162C168.71 228.162 166.928 226.416 166.928 223.482V223.338C166.928 220.458 168.728 218.424 171.32 218.424C172.886 218.424 173.858 219.18 174.398 220.098V214.086H175.892V228H174.398V226.38C173.858 227.298 172.544 228.162 171.176 228.162ZM171.338 226.92C173.084 226.92 174.452 225.768 174.452 223.356V223.212C174.452 220.8 173.3 219.666 171.464 219.666C169.592 219.666 168.476 220.98 168.476 223.266V223.41C168.476 225.786 169.754 226.92 171.338 226.92ZM181.093 228.162C179.347 228.162 177.961 227.316 177.961 225.39C177.961 223.212 180.265 222.474 182.677 222.474H184.027V221.79C184.027 220.296 183.451 219.666 182.011 219.666C180.715 219.666 179.995 220.206 179.851 221.358H178.357C178.555 219.216 180.265 218.424 182.083 218.424C183.883 218.424 185.521 219.162 185.521 221.79V228H184.027V226.812C183.325 227.694 182.479 228.162 181.093 228.162ZM181.237 226.974C182.821 226.974 184.027 226.164 184.027 224.706V223.536H182.731C180.841 223.536 179.455 224.004 179.455 225.39C179.455 226.362 179.923 226.974 181.237 226.974ZM191.192 228.162C188.942 228.162 187.592 227.028 187.502 225.102H188.96C189.068 226.218 189.662 226.92 191.174 226.92C192.596 226.92 193.226 226.434 193.226 225.426C193.226 224.436 192.488 224.112 191.03 223.842C188.582 223.392 187.754 222.708 187.754 221.07C187.754 219.324 189.464 218.424 190.94 218.424C192.632 218.424 194.09 219.108 194.342 221.142H192.902C192.686 220.116 192.11 219.666 190.922 219.666C189.842 219.666 189.14 220.206 189.14 221.016C189.14 221.862 189.608 222.204 191.336 222.51C193.28 222.87 194.648 223.302 194.648 225.3C194.648 227.01 193.478 228.162 191.192 228.162ZM204.244 228.162C201.994 228.162 200.644 227.028 200.554 225.102H202.012C202.12 226.218 202.714 226.92 204.226 226.92C205.648 226.92 206.278 226.434 206.278 225.426C206.278 224.436 205.54 224.112 204.082 223.842C201.634 223.392 200.806 222.708 200.806 221.07C200.806 219.324 202.516 218.424 203.992 218.424C205.684 218.424 207.142 219.108 207.394 221.142H205.954C205.738 220.116 205.162 219.666 203.974 219.666C202.894 219.666 202.192 220.206 202.192 221.016C202.192 221.862 202.66 222.204 204.388 222.51C206.332 222.87 207.7 223.302 207.7 225.3C207.7 227.01 206.53 228.162 204.244 228.162ZM212.982 228.162C211.11 228.162 209.706 227.136 209.706 224.544V218.586H211.2V224.472C211.2 226.128 211.902 226.866 213.378 226.866C214.71 226.866 215.97 225.984 215.97 224.292V218.586H217.464V228H215.97V226.506C215.538 227.388 214.494 228.162 212.982 228.162ZM222.662 228.162C220.916 228.162 219.53 227.316 219.53 225.39C219.53 223.212 221.834 222.474 224.246 222.474H225.596V221.79C225.596 220.296 225.02 219.666 223.58 219.666C222.284 219.666 221.564 220.206 221.42 221.358H219.926C220.124 219.216 221.834 218.424 223.652 218.424C225.452 218.424 227.09 219.162 227.09 221.79V228H225.596V226.812C224.894 227.694 224.048 228.162 222.662 228.162ZM222.806 226.974C224.39 226.974 225.596 226.164 225.596 224.706V223.536H224.3C222.41 223.536 221.024 224.004 221.024 225.39C221.024 226.362 221.492 226.974 222.806 226.974ZM232.76 228.162C230.51 228.162 229.16 227.028 229.07 225.102H230.528C230.636 226.218 231.23 226.92 232.742 226.92C234.164 226.92 234.794 226.434 234.794 225.426C234.794 224.436 234.056 224.112 232.598 223.842C230.15 223.392 229.322 222.708 229.322 221.07C229.322 219.324 231.032 218.424 232.508 218.424C234.2 218.424 235.658 219.108 235.91 221.142H234.47C234.254 220.116 233.678 219.666 232.49 219.666C231.41 219.666 230.708 220.206 230.708 221.016C230.708 221.862 231.176 222.204 232.904 222.51C234.848 222.87 236.216 223.302 236.216 225.3C236.216 227.01 235.046 228.162 232.76 228.162ZM245.254 228L241.834 218.586H243.454L246.244 226.488L248.998 218.586H250.546L247.162 228H245.254ZM255.92 228.162C253.256 228.162 251.366 226.29 251.366 223.392V223.248C251.366 220.404 253.184 218.424 255.776 218.424C257.954 218.424 260.006 219.738 260.006 223.104V223.59H252.914C252.986 225.732 254.012 226.92 255.938 226.92C257.396 226.92 258.242 226.38 258.44 225.282H259.934C259.61 227.172 258.044 228.162 255.92 228.162ZM252.968 222.384H258.476C258.332 220.44 257.324 219.666 255.776 219.666C254.246 219.666 253.22 220.71 252.968 222.384ZM262.118 228V218.586H263.612V220.08C264.044 219.198 265.088 218.424 266.636 218.424C268.58 218.424 269.948 219.486 269.948 222.222V228H268.454V222.114C268.454 220.458 267.752 219.72 266.24 219.72C264.854 219.72 263.612 220.602 263.612 222.294V228H262.118ZM276.242 228.162C273.776 228.162 271.994 226.416 271.994 223.482V223.338C271.994 220.458 273.794 218.424 276.386 218.424C277.952 218.424 278.924 219.18 279.464 220.098V214.086H280.958V228H279.464V226.38C278.924 227.298 277.61 228.162 276.242 228.162ZM276.404 226.92C278.15 226.92 279.518 225.768 279.518 223.356V223.212C279.518 220.8 278.366 219.666 276.53 219.666C274.658 219.666 273.542 220.98 273.542 223.266V223.41C273.542 225.786 274.82 226.92 276.404 226.92ZM286.159 228.162C284.413 228.162 283.027 227.316 283.027 225.39C283.027 223.212 285.331 222.474 287.743 222.474H289.093V221.79C289.093 220.296 288.517 219.666 287.077 219.666C285.781 219.666 285.061 220.206 284.917 221.358H283.423C283.621 219.216 285.331 218.424 287.149 218.424C288.949 218.424 290.587 219.162 290.587 221.79V228H289.093V226.812C288.391 227.694 287.545 228.162 286.159 228.162ZM286.303 226.974C287.887 226.974 289.093 226.164 289.093 224.706V223.536H287.797C285.907 223.536 284.521 224.004 284.521 225.39C284.521 226.362 284.989 226.974 286.303 226.974ZM296.258 228.162C294.008 228.162 292.658 227.028 292.568 225.102H294.026C294.134 226.218 294.728 226.92 296.24 226.92C297.662 226.92 298.292 226.434 298.292 225.426C298.292 224.436 297.554 224.112 296.096 223.842C293.648 223.392 292.82 222.708 292.82 221.07C292.82 219.324 294.53 218.424 296.006 218.424C297.698 218.424 299.156 219.108 299.408 221.142H297.968C297.752 220.116 297.176 219.666 295.988 219.666C294.908 219.666 294.206 220.206 294.206 221.016C294.206 221.862 294.674 222.204 296.402 222.51C298.346 222.87 299.714 223.302 299.714 225.3C299.714 227.01 298.544 228.162 296.258 228.162ZM306.394 228V218.586H307.888V220.08C308.32 219.198 309.364 218.424 310.912 218.424C312.856 218.424 314.224 219.486 314.224 222.222V228H312.73V222.114C312.73 220.458 312.028 219.72 310.516 219.72C309.13 219.72 307.888 220.602 307.888 222.294V228H306.394ZM320.878 228.162C318.196 228.162 316.27 226.128 316.27 223.374V223.23C316.27 220.404 318.232 218.424 320.896 218.424C323.56 218.424 325.522 220.386 325.522 223.212V223.356C325.522 226.2 323.56 228.162 320.878 228.162ZM320.896 226.92C322.786 226.92 323.974 225.498 323.974 223.374V223.248C323.974 221.07 322.768 219.666 320.896 219.666C319.006 219.666 317.818 221.07 317.818 223.23V223.374C317.818 225.516 318.988 226.92 320.896 226.92ZM25.512 251V241.586H27.006V243.026C27.438 242.144 28.464 241.424 29.814 241.424C31.02 241.424 32.082 241.928 32.568 243.188C33.216 241.964 34.62 241.424 35.79 241.424C37.482 241.424 38.958 242.432 38.958 245.168V251H37.464V245.06C37.464 243.404 36.762 242.72 35.466 242.72C34.242 242.72 32.982 243.548 32.982 245.24V251H31.488V245.06C31.488 243.404 30.786 242.72 29.49 242.72C28.266 242.72 27.006 243.548 27.006 245.24V251H25.512ZM42.8128 239.966L44.7568 237.374H46.1068L48.0328 239.966H46.9348L45.4048 238.616L43.8748 239.966H42.8128ZM45.5668 251.162C42.9028 251.162 41.0128 249.29 41.0128 246.392V246.248C41.0128 243.404 42.8308 241.424 45.4228 241.424C47.6008 241.424 49.6528 242.738 49.6528 246.104V246.59H42.5608C42.6328 248.732 43.6588 249.92 45.5848 249.92C47.0428 249.92 47.8888 249.38 48.0868 248.282H49.5808C49.2568 250.172 47.6908 251.162 45.5668 251.162ZM42.6148 245.384H48.1228C47.9788 243.44 46.9708 242.666 45.4228 242.666C43.8928 242.666 42.8668 243.71 42.6148 245.384ZM54.7692 251.162C52.5192 251.162 51.1692 250.028 51.0792 248.102H52.5372C52.6452 249.218 53.2392 249.92 54.7512 249.92C56.1732 249.92 56.8032 249.434 56.8032 248.426C56.8032 247.436 56.0652 247.112 54.6072 246.842C52.1592 246.392 51.3312 245.708 51.3312 244.07C51.3312 242.324 53.0412 241.424 54.5172 241.424C56.2092 241.424 57.6672 242.108 57.9192 244.142H56.4792C56.2632 243.116 55.6872 242.666 54.4992 242.666C53.4192 242.666 52.7172 243.206 52.7172 244.016C52.7172 244.862 53.1852 245.204 54.9132 245.51C56.8572 245.87 58.2252 246.302 58.2252 248.3C58.2252 250.01 57.0552 251.162 54.7692 251.162ZM68.4513 251.162C65.9853 251.162 64.2033 249.416 64.2033 246.482V246.338C64.2033 243.458 66.0033 241.424 68.5953 241.424C70.1613 241.424 71.1333 242.18 71.6733 243.098V237.086H73.1673V251H71.6733V249.38C71.1333 250.298 69.8193 251.162 68.4513 251.162ZM68.6133 249.92C70.3593 249.92 71.7273 248.768 71.7273 246.356V246.212C71.7273 243.8 70.5753 242.666 68.7393 242.666C66.8673 242.666 65.7513 243.98 65.7513 246.266V246.41C65.7513 248.786 67.0293 249.92 68.6133 249.92ZM79.8624 251.162C77.1984 251.162 75.3084 249.29 75.3084 246.392V246.248C75.3084 243.404 77.1264 241.424 79.7184 241.424C81.8964 241.424 83.9484 242.738 83.9484 246.104V246.59H76.8564C76.9284 248.732 77.9544 249.92 79.8804 249.92C81.3384 249.92 82.1844 249.38 82.3824 248.282H83.8764C83.5524 250.172 81.9864 251.162 79.8624 251.162ZM76.9104 245.384H82.4184C82.2744 243.44 81.2664 242.666 79.7184 242.666C78.1884 242.666 77.1624 243.71 76.9104 245.384ZM86.3849 251V242.846H85.0349V241.586H86.3849V240.056C86.3849 238.148 87.3029 237.032 89.1569 237.032C89.6429 237.032 89.8949 237.068 90.1829 237.176V238.436C89.9129 238.328 89.6249 238.274 89.2109 238.274C88.2569 238.274 87.8789 238.94 87.8789 239.894V241.586H90.1829V242.846H87.8789V251H86.3849ZM92.5959 239.624C92.0559 239.624 91.6059 239.174 91.6059 238.634C91.6059 238.094 92.0559 237.644 92.5959 237.644C93.1359 237.644 93.5859 238.094 93.5859 238.634C93.5859 239.174 93.1359 239.624 92.5959 239.624ZM91.8759 251V241.586H93.3699V251H91.8759ZM96.2478 251V241.586H97.7418V243.08C98.1738 242.198 99.2178 241.424 100.766 241.424C102.71 241.424 104.078 242.486 104.078 245.222V251H102.584V245.114C102.584 243.458 101.882 242.72 100.37 242.72C98.9838 242.72 97.7418 243.602 97.7418 245.294V251H96.2478ZM110.678 251.162C108.014 251.162 106.124 249.29 106.124 246.392V246.248C106.124 243.404 107.942 241.424 110.534 241.424C112.712 241.424 114.764 242.738 114.764 246.104V246.59H107.672C107.744 248.732 108.77 249.92 110.696 249.92C112.154 249.92 113 249.38 113.198 248.282H114.692C114.368 250.172 112.802 251.162 110.678 251.162ZM107.726 245.384H113.234C113.09 243.44 112.082 242.666 110.534 242.666C109.004 242.666 107.978 243.71 107.726 245.384ZM125.366 251.162C122.684 251.162 120.758 249.128 120.758 246.374V246.23C120.758 243.404 122.72 241.424 125.384 241.424C128.048 241.424 130.01 243.386 130.01 246.212V246.356C130.01 249.2 128.048 251.162 125.366 251.162ZM125.384 249.92C127.274 249.92 128.462 248.498 128.462 246.374V246.248C128.462 244.07 127.256 242.666 125.384 242.666C123.494 242.666 122.306 244.07 122.306 246.23V246.374C122.306 248.516 123.476 249.92 125.384 249.92ZM139.085 251L135.665 241.586H137.285L140.075 249.488L142.829 241.586H144.377L140.993 251H139.085ZM148.432 251.162C146.686 251.162 145.3 250.316 145.3 248.39C145.3 246.212 147.604 245.474 150.016 245.474H151.366V244.79C151.366 243.296 150.79 242.666 149.35 242.666C148.054 242.666 147.334 243.206 147.19 244.358H145.696C145.894 242.216 147.604 241.424 149.422 241.424C151.222 241.424 152.86 242.162 152.86 244.79V251H151.366V249.812C150.664 250.694 149.818 251.162 148.432 251.162ZM148.576 249.974C150.16 249.974 151.366 249.164 151.366 247.706V246.536H150.07C148.18 246.536 146.794 247.004 146.794 248.39C146.794 249.362 147.262 249.974 148.576 249.974ZM155.651 251V237.086H157.163V251H155.651ZM163.946 251.162C161.264 251.162 159.338 249.128 159.338 246.374V246.23C159.338 243.404 161.3 241.424 163.964 241.424C166.628 241.424 168.59 243.386 168.59 246.212V246.356C168.59 249.2 166.628 251.162 163.946 251.162ZM163.964 249.92C165.854 249.92 167.042 248.498 167.042 246.374V246.248C167.042 244.07 165.836 242.666 163.964 242.666C162.074 242.666 160.886 244.07 160.886 246.23V246.374C160.886 248.516 162.056 249.92 163.964 249.92ZM170.723 251V241.586H172.217V243.278C172.811 242.216 173.621 241.478 175.313 241.424V242.828C173.423 242.918 172.217 243.512 172.217 245.834V251H170.723ZM177.265 251.09C176.635 251.09 176.113 250.586 176.113 249.938C176.113 249.29 176.635 248.786 177.265 248.786C177.895 248.786 178.417 249.29 178.417 249.938C178.417 250.586 177.895 251.09 177.265 251.09Z" fill="black" fill-opacity="0.64"/>
<path d="M25.5 328.5C25.5 315.245 36.2452 304.5 49.5 304.5C62.7548 304.5 73.5 315.245 73.5 328.5C73.5 341.755 62.7548 352.5 49.5 352.5C36.2452 352.5 25.5 341.755 25.5 328.5Z" fill="#714F8F"/>
<path d="M40.6538 327.5L58.654 327.5V329.5L40.6538 329.5V327.5Z" fill="white"/>
<g clip-path="url(#clip3_17453_7604)">
<g clip-path="url(#clip4_17453_7604)">
<g clip-path="url(#clip5_17453_7604)">
<path d="M179.826 333.5V332.828L187.386 324.848C189.29 322.832 190.438 321.068 190.438 319.164C190.438 317.288 189.374 316.112 187.442 316.112C185.454 316.112 184.194 317.26 183.858 320.088H180.442C180.694 315.72 183.326 313.2 187.554 313.2C191.698 313.2 194.162 315.58 194.162 319.108C194.162 321.712 192.622 323.98 190.242 326.276L185.79 330.616H194.302V333.5H179.826Z" fill="black" fill-opacity="0.96"/>
</g>
</g>
</g>
<g clip-path="url(#clip6_17453_7604)">
<rect width="212" height="2" transform="translate(81.5 347.5)" fill="#EFEFEF"/>
</g>
<path d="M301.5 328.5C301.5 315.245 312.245 304.5 325.5 304.5C338.755 304.5 349.5 315.245 349.5 328.5C349.5 341.755 338.755 352.5 325.5 352.5C312.245 352.5 301.5 341.755 301.5 328.5Z" fill="#714F8F"/>
<path d="M324.654 329.5V336.5H326.654V329.5L333.654 329.5L333.654 327.5L326.654 327.5L326.654 320.5L324.654 320.5L324.654 327.5H317.654V329.5H324.654Z" fill="white"/>
<rect width="375" height="64" transform="translate(0 376)" fill="white"/>
<path d="M29.53 419.14C26.394 419.14 24.644 417.138 24.644 414.058V413.946C24.644 410.936 26.716 408.836 29.502 408.836C31.798 408.836 33.576 409.984 33.8 412.336H31.91C31.7 411.006 30.958 410.32 29.516 410.32C27.752 410.32 26.604 411.692 26.604 413.932V414.044C26.604 416.298 27.682 417.628 29.53 417.628C30.916 417.628 31.896 416.928 32.092 415.514H33.912C33.618 417.922 31.91 419.14 29.53 419.14ZM38.5206 419.14C36.3646 419.14 34.7686 417.642 34.7686 415.416V415.304C34.7686 413.036 36.3786 411.524 38.5346 411.524C40.6766 411.524 42.2866 413.022 42.2866 415.262V415.374C42.2866 417.656 40.6766 419.14 38.5206 419.14ZM38.5346 417.824C39.7946 417.824 40.5506 416.886 40.5506 415.388V415.29C40.5506 413.778 39.7946 412.854 38.5346 412.854C37.2746 412.854 36.5046 413.764 36.5046 415.276V415.388C36.5046 416.886 37.2466 417.824 38.5346 417.824ZM43.6772 419V411.678H45.3712V412.798C45.7212 412.112 46.5192 411.524 47.5972 411.524C48.5492 411.524 49.3052 411.93 49.6692 412.84C50.2292 411.93 51.2372 411.524 52.1472 411.524C53.4912 411.524 54.5832 412.35 54.5832 414.366V419H52.8892V414.478C52.8892 413.4 52.4272 412.938 51.5872 412.938C50.7472 412.938 49.9772 413.498 49.9772 414.618V419H48.2832V414.478C48.2832 413.4 47.8072 412.938 46.9812 412.938C46.1412 412.938 45.3712 413.498 45.3712 414.618V419H43.6772ZM59.6508 419.14C57.4948 419.14 55.8988 417.642 55.8988 415.416V415.304C55.8988 413.036 57.5088 411.524 59.6648 411.524C61.8068 411.524 63.4168 413.022 63.4168 415.262V415.374C63.4168 417.656 61.8068 419.14 59.6508 419.14ZM59.6648 417.824C60.9248 417.824 61.6808 416.886 61.6808 415.388V415.29C61.6808 413.778 60.9248 412.854 59.6648 412.854C58.4048 412.854 57.6348 413.764 57.6348 415.276V415.388C57.6348 416.886 58.3768 417.824 59.6648 417.824ZM69.9213 419L67.2473 411.678H69.0673L70.9853 417.264L72.8753 411.678H74.5413L71.8953 419H69.9213ZM77.4102 419.14C76.0662 419.14 74.9602 418.496 74.9602 416.97C74.9602 415.262 76.6122 414.646 78.7122 414.646H79.6222V414.268C79.6222 413.288 79.2862 412.798 78.2922 412.798C77.4102 412.798 76.9762 413.218 76.8922 413.946H75.2542C75.3942 412.238 76.7522 411.524 78.3902 411.524C80.0282 411.524 81.3162 412.196 81.3162 414.198V419H79.6502V418.104C79.1742 418.734 78.5302 419.14 77.4102 419.14ZM77.8162 417.922C78.8522 417.922 79.6222 417.376 79.6222 416.438V415.71H78.7542C77.4662 415.71 76.6402 416.004 76.6402 416.9C76.6402 417.516 76.9762 417.922 77.8162 417.922ZM83.9858 410.474C83.4258 410.474 82.9778 410.054 82.9778 409.508C82.9778 408.948 83.4258 408.528 83.9858 408.528C84.5458 408.528 84.9938 408.948 84.9938 409.508C84.9938 410.054 84.5458 410.474 83.9858 410.474ZM83.1598 419V411.678H84.8538V419H83.1598ZM90.2686 419V412.952H89.2746V411.678H90.2686V410.698C90.2686 409.088 91.1506 408.22 92.7046 408.22C93.1246 408.22 93.3626 408.262 93.6286 408.346V409.662C93.4326 409.578 93.2226 409.55 92.9146 409.55C92.2426 409.55 91.9626 409.998 91.9626 410.628V411.678H93.6286V412.952H91.9626V419H90.2686ZM95.5834 410.474C95.0234 410.474 94.5754 410.054 94.5754 409.508C94.5754 408.948 95.0234 408.528 95.5834 408.528C96.1434 408.528 96.5914 408.948 96.5914 409.508C96.5914 410.054 96.1434 410.474 95.5834 410.474ZM94.7574 419V411.678H96.4514V419H94.7574ZM101.582 419.14C99.4822 419.14 97.8862 417.768 97.8862 415.43V415.318C97.8862 412.994 99.5382 411.524 101.582 411.524C103.206 411.524 104.732 412.252 104.928 414.268H103.29C103.15 413.288 102.506 412.882 101.61 412.882C100.448 412.882 99.6222 413.778 99.6222 415.29V415.402C99.6222 416.998 100.406 417.838 101.652 417.838C102.548 417.838 103.318 417.306 103.416 416.27H104.97C104.844 417.95 103.57 419.14 101.582 419.14ZM108.221 419.14C106.877 419.14 105.771 418.496 105.771 416.97C105.771 415.262 107.423 414.646 109.523 414.646H110.433V414.268C110.433 413.288 110.097 412.798 109.103 412.798C108.221 412.798 107.787 413.218 107.703 413.946H106.065C106.205 412.238 107.563 411.524 109.201 411.524C110.839 411.524 112.127 412.196 112.127 414.198V419H110.461V418.104C109.985 418.734 109.341 419.14 108.221 419.14ZM108.627 417.922C109.663 417.922 110.433 417.376 110.433 416.438V415.71H109.565C108.277 415.71 107.451 416.004 107.451 416.9C107.451 417.516 107.787 417.922 108.627 417.922ZM113.928 419V411.678H115.622V413.05C116.084 412.126 116.77 411.58 118.002 411.566V413.148C116.518 413.162 115.622 413.638 115.622 415.192V419H113.928ZM124.467 419.14C123.123 419.14 122.017 418.496 122.017 416.97C122.017 415.262 123.669 414.646 125.769 414.646H126.679V414.268C126.679 413.288 126.343 412.798 125.349 412.798C124.467 412.798 124.033 413.218 123.949 413.946H122.311C122.451 412.238 123.809 411.524 125.447 411.524C127.085 411.524 128.373 412.196 128.373 414.198V419H126.707V418.104C126.231 418.734 125.587 419.14 124.467 419.14ZM124.873 417.922C125.909 417.922 126.679 417.376 126.679 416.438V415.71H125.811C124.523 415.71 123.697 416.004 123.697 416.9C123.697 417.516 124.033 417.922 124.873 417.922ZM135.876 419.14C133.986 419.14 132.88 418.272 132.81 416.718H134.406C134.49 417.46 134.868 417.894 135.862 417.894C136.772 417.894 137.178 417.572 137.178 416.956C137.178 416.354 136.688 416.13 135.61 415.948C133.678 415.64 132.964 415.094 132.964 413.722C132.964 412.252 134.336 411.524 135.708 411.524C137.206 411.524 138.396 412.084 138.578 413.736H137.01C136.87 413.064 136.492 412.756 135.708 412.756C134.98 412.756 134.546 413.106 134.546 413.624C134.546 414.156 134.896 414.366 136.058 414.562C137.78 414.828 138.802 415.248 138.802 416.802C138.802 418.286 137.752 419.14 135.876 419.14ZM142.598 419.14C141.156 419.14 140.078 418.314 140.078 416.368V411.678H141.772V416.172C141.772 417.278 142.234 417.782 143.214 417.782C144.124 417.782 144.922 417.194 144.922 416.032V411.678H146.616V419H144.922V417.852C144.558 418.566 143.788 419.14 142.598 419.14ZM150.403 419.14C149.059 419.14 147.953 418.496 147.953 416.97C147.953 415.262 149.605 414.646 151.705 414.646H152.615V414.268C152.615 413.288 152.279 412.798 151.285 412.798C150.403 412.798 149.969 413.218 149.885 413.946H148.247C148.387 412.238 149.745 411.524 151.383 411.524C153.021 411.524 154.309 412.196 154.309 414.198V419H152.643V418.104C152.167 418.734 151.523 419.14 150.403 419.14ZM150.809 417.922C151.845 417.922 152.615 417.376 152.615 416.438V415.71H151.747C150.459 415.71 149.633 416.004 149.633 416.9C149.633 417.516 149.969 417.922 150.809 417.922ZM159.306 419V411.678H161V412.798C161.35 412.112 162.148 411.524 163.226 411.524C164.178 411.524 164.934 411.93 165.298 412.84C165.858 411.93 166.866 411.524 167.776 411.524C169.12 411.524 170.212 412.35 170.212 414.366V419H168.518V414.478C168.518 413.4 168.056 412.938 167.216 412.938C166.376 412.938 165.606 413.498 165.606 414.618V419H163.912V414.478C163.912 413.4 163.436 412.938 162.61 412.938C161.77 412.938 161 413.498 161 414.618V419H159.306ZM175.238 419.14C173.082 419.14 171.528 417.726 171.528 415.416V415.304C171.528 413.036 173.082 411.524 175.168 411.524C176.988 411.524 178.626 412.602 178.626 415.22V415.71H173.264C173.32 417.096 174.02 417.88 175.28 417.88C176.302 417.88 176.834 417.474 176.96 416.76H178.598C178.36 418.3 177.114 419.14 175.238 419.14ZM173.292 414.576H176.946C176.862 413.316 176.218 412.756 175.168 412.756C174.146 412.756 173.46 413.442 173.292 414.576ZM179.999 419V411.678H181.693V412.84C182.043 412.126 182.855 411.524 184.059 411.524C185.529 411.524 186.565 412.378 186.565 414.394V419H184.871V414.548C184.871 413.442 184.423 412.938 183.415 412.938C182.463 412.938 181.693 413.526 181.693 414.688V419H179.999ZM190.883 419.14C188.993 419.14 187.887 418.272 187.817 416.718H189.413C189.497 417.46 189.875 417.894 190.869 417.894C191.779 417.894 192.185 417.572 192.185 416.956C192.185 416.354 191.695 416.13 190.617 415.948C188.685 415.64 187.971 415.094 187.971 413.722C187.971 412.252 189.343 411.524 190.715 411.524C192.213 411.524 193.403 412.084 193.585 413.736H192.017C191.877 413.064 191.499 412.756 190.715 412.756C189.987 412.756 189.553 413.106 189.553 413.624C189.553 414.156 189.903 414.366 191.065 414.562C192.787 414.828 193.809 415.248 193.809 416.802C193.809 418.286 192.759 419.14 190.883 419.14ZM197.072 419.14C195.728 419.14 194.622 418.496 194.622 416.97C194.622 415.262 196.274 414.646 198.374 414.646H199.284V414.268C199.284 413.288 198.948 412.798 197.954 412.798C197.072 412.798 196.638 413.218 196.554 413.946H194.916C195.056 412.238 196.414 411.524 198.052 411.524C199.69 411.524 200.978 412.196 200.978 414.198V419H199.312V418.104C198.836 418.734 198.192 419.14 197.072 419.14ZM197.478 417.922C198.514 417.922 199.284 417.376 199.284 416.438V415.71H198.416C197.128 415.71 196.302 416.004 196.302 416.9C196.302 417.516 196.638 417.922 197.478 417.922ZM202.822 419V408.29H204.516V419H202.822ZM207.309 410.474C206.749 410.474 206.301 410.054 206.301 409.508C206.301 408.948 206.749 408.528 207.309 408.528C207.869 408.528 208.317 408.948 208.317 409.508C208.317 410.054 207.869 410.474 207.309 410.474ZM206.483 419V411.678H208.177V419H206.483ZM212.846 419.14C211.012 419.14 209.626 417.838 209.626 415.458V415.346C209.626 413.008 211.012 411.524 212.916 411.524C214.106 411.524 214.848 412.07 215.254 412.798V408.29H216.948V419H215.254V417.768C214.862 418.496 213.924 419.14 212.846 419.14ZM213.266 417.796C214.442 417.796 215.31 417.012 215.31 415.374V415.262C215.31 413.652 214.568 412.854 213.336 412.854C212.09 412.854 211.362 413.722 211.362 415.304V415.416C211.362 417.026 212.174 417.796 213.266 417.796ZM220.739 419.14C219.395 419.14 218.289 418.496 218.289 416.97C218.289 415.262 219.941 414.646 222.041 414.646H222.951V414.268C222.951 413.288 222.615 412.798 221.621 412.798C220.739 412.798 220.305 413.218 220.221 413.946H218.583C218.723 412.238 220.081 411.524 221.719 411.524C223.357 411.524 224.645 412.196 224.645 414.198V419H222.979V418.104C222.503 418.734 221.859 419.14 220.739 419.14ZM221.145 417.922C222.181 417.922 222.951 417.376 222.951 416.438V415.71H222.083C220.795 415.71 219.969 416.004 219.969 416.9C219.969 417.516 220.305 417.922 221.145 417.922ZM229.191 419.14C227.357 419.14 225.971 417.838 225.971 415.458V415.346C225.971 413.008 227.357 411.524 229.261 411.524C230.451 411.524 231.193 412.07 231.599 412.798V408.29H233.293V419H231.599V417.768C231.207 418.496 230.269 419.14 229.191 419.14ZM229.611 417.796C230.787 417.796 231.655 417.012 231.655 415.374V415.262C231.655 413.652 230.913 412.854 229.681 412.854C228.435 412.854 227.707 413.722 227.707 415.304V415.416C227.707 417.026 228.519 417.796 229.611 417.796ZM238.386 419.14C236.23 419.14 234.676 417.726 234.676 415.416V415.304C234.676 413.036 236.23 411.524 238.316 411.524C240.136 411.524 241.774 412.602 241.774 415.22V415.71H236.412C236.468 417.096 237.168 417.88 238.428 417.88C239.45 417.88 239.982 417.474 240.108 416.76H241.746C241.508 418.3 240.262 419.14 238.386 419.14ZM236.44 414.576H240.094C240.01 413.316 239.366 412.756 238.316 412.756C237.294 412.756 236.608 413.442 236.44 414.576ZM244.211 415.01C243.595 415.01 243.105 414.52 243.105 413.904C243.105 413.288 243.595 412.812 244.211 412.812C244.841 412.812 245.331 413.288 245.331 413.904C245.331 414.52 244.841 415.01 244.211 415.01ZM244.211 419.098C243.595 419.098 243.105 418.622 243.105 418.006C243.105 417.39 243.595 416.9 244.211 416.9C244.841 416.9 245.331 417.39 245.331 418.006C245.331 418.622 244.841 419.098 244.211 419.098Z" fill="black" fill-opacity="0.64"/>
<g clip-path="url(#clip7_17453_7604)">
<rect width="375" height="87" transform="translate(0 440)" fill="white"/>
<path d="M40 441H111.667C119.951 441 126.667 447.716 126.667 456V511C126.667 519.284 119.951 526 111.667 526H40C31.7157 526 25 519.284 25 511V456C25 447.716 31.7157 441 40 441Z" fill="white"/>
<path d="M40 441H111.667C119.951 441 126.667 447.716 126.667 456V511C126.667 519.284 119.951 526 111.667 526H40C31.7157 526 25 519.284 25 511V456C25 447.716 31.7157 441 40 441Z" stroke="#EFEFEF" stroke-width="2"/>
<path d="M41.312 471V459.56H45.152C47.664 459.56 49.424 460.584 49.424 462.92V462.984C49.424 464.776 48.304 465.688 46.88 466.056L50.096 471H47.792L44.8 466.376H43.44V471H41.312ZM43.44 464.856H45.152C46.576 464.856 47.328 464.248 47.328 463.032V462.968C47.328 461.656 46.512 461.208 45.152 461.208H43.44V464.856ZM54.6284 473.16V471.144C51.9564 470.968 50.8844 469.416 50.7244 467.464H52.6444C52.7724 468.52 53.1244 469.416 54.6284 469.592V465.976C52.3084 465.576 51.0924 464.696 51.0924 462.664C51.0924 460.904 52.5004 459.592 54.6284 459.432V457.992H55.6844V459.448C57.7164 459.624 58.9484 460.744 59.1404 462.696H57.3004C57.1244 461.72 56.6444 461.144 55.6844 460.984V464.28C58.0044 464.68 59.3484 465.464 59.3484 467.64C59.3484 469.48 58.0204 470.968 55.6844 471.144V473.16H54.6284ZM52.9484 462.504C52.9484 463.336 53.2524 463.816 54.6284 464.104V460.952C53.5244 461.08 52.9484 461.704 52.9484 462.504ZM57.4284 467.816C57.4284 466.904 57.0444 466.44 55.6844 466.152V469.592C56.7564 469.432 57.4284 468.76 57.4284 467.816ZM69.035 471V461.688L65.963 464.008V462.152L69.147 459.56H71.163V471H69.035ZM74.3888 471V470.616L78.5328 466.056C79.6048 464.84 80.2448 463.848 80.2448 462.744C80.2448 461.688 79.6528 461.048 78.6128 461.048C77.5248 461.048 76.8528 461.688 76.6928 463.336H74.7248C74.8688 460.936 76.1648 459.416 78.6608 459.416C81.0288 459.416 82.3728 460.696 82.3728 462.696C82.3728 464.184 81.4288 465.512 80.0688 466.888L77.6208 469.32H82.4048V471H74.3888ZM88.0785 471.16C85.5825 471.16 83.9665 469.544 83.9665 466.408V464.232C83.9665 461.048 85.6145 459.416 88.0785 459.416C90.5585 459.416 92.1585 460.984 92.1585 464.12V466.36C92.1585 469.496 90.6385 471.16 88.0785 471.16ZM88.1265 469.48C89.5665 469.48 90.1105 468.6 90.1105 466.376V464.136C90.1105 462.056 89.4865 461.064 88.0945 461.064C86.6705 461.064 86.0145 462.024 86.0145 464.216V466.392C86.0145 468.632 86.7345 469.48 88.1265 469.48Z" fill="black" fill-opacity="0.96"/>
<path d="M40.432 491L43.384 482.42H44.752L47.656 491H46.624L45.784 488.528H42.244L41.416 491H40.432ZM44.02 483.284L42.532 487.7H45.508L44.02 483.284ZM50.8848 491.084C49.7448 491.084 49.1928 490.412 49.1928 489.428V485.564H48.2928V484.724H49.1928V483.296H50.1888V484.724H51.6528V485.564H50.1888V489.332C50.1888 489.944 50.4648 490.244 50.9688 490.244C51.2808 490.244 51.5208 490.196 51.7368 490.112V490.952C51.5328 491.024 51.2928 491.084 50.8848 491.084ZM55.2704 483.644L56.0144 481.88H57.2624L56.0144 483.644H55.2704ZM55.8104 491.108C54.0344 491.108 52.7744 489.86 52.7744 487.928V487.832C52.7744 485.936 53.9864 484.616 55.7144 484.616C57.1664 484.616 58.5344 485.492 58.5344 487.736V488.06H53.8064C53.8544 489.488 54.5384 490.28 55.8224 490.28C56.7944 490.28 57.3584 489.92 57.4904 489.188H58.4864C58.2704 490.448 57.2264 491.108 55.8104 491.108ZM53.8424 487.256H57.5144C57.4184 485.96 56.7464 485.444 55.7144 485.444C54.6944 485.444 54.0104 486.14 53.8424 487.256ZM63.3105 491V482.42H65.8905C67.5345 482.42 68.8905 483.092 68.8905 484.808V484.856C68.8905 486.272 67.9425 486.968 66.7665 487.196L69.3945 491H68.2305L65.6745 487.268H64.3545V491H63.3105ZM64.3545 486.44H65.9625C67.1865 486.44 67.8465 485.912 67.8465 484.856V484.808C67.8465 483.644 67.1265 483.26 65.9625 483.26H64.3545V486.44ZM73.0296 492.62V491.096C70.9896 490.964 70.2936 489.764 70.1496 488.384H71.1576C71.2776 489.332 71.5776 490.172 73.0296 490.292V486.944C71.4576 486.644 70.4976 486.068 70.4976 484.628C70.4976 483.392 71.5416 482.432 73.0296 482.324V481.244H73.7376V482.336C75.2016 482.468 76.0776 483.32 76.2336 484.676H75.2976C75.1176 483.764 74.6376 483.272 73.7376 483.152V486.152C75.5016 486.452 76.4136 487.04 76.4136 488.588C76.4136 489.944 75.3336 490.976 73.7376 491.096V492.62H73.0296ZM71.4456 484.544C71.4456 485.3 71.7096 485.756 73.0296 486.032V483.14C71.9976 483.224 71.4456 483.812 71.4456 484.544ZM75.4176 488.648C75.4176 487.76 75.0456 487.328 73.7376 487.064V490.292C74.7456 490.172 75.4176 489.536 75.4176 488.648ZM84.0146 491.108C82.1666 491.108 81.2786 490.088 81.1586 488.684H82.1546C82.3226 489.62 82.6946 490.268 84.0026 490.268C85.1666 490.268 85.8866 489.488 85.8866 488.192C85.8866 486.98 85.1786 486.188 84.0866 486.188C83.0906 486.188 82.5146 486.5 82.0586 487.016H81.6746V482.42H86.4986V483.32H82.5386V485.936C82.8866 485.612 83.4746 485.348 84.2906 485.348C85.8266 485.348 86.9546 486.44 86.9546 488.192C86.9546 490.004 85.6466 491.108 84.0146 491.108ZM91.9377 491V484.724H92.9337V485.684C93.2217 485.096 93.9057 484.616 94.8057 484.616C95.6097 484.616 96.3177 484.952 96.6417 485.792C97.0737 484.976 98.0097 484.616 98.7897 484.616C99.9177 484.616 100.902 485.288 100.902 487.112V491H99.9057V487.04C99.9057 485.936 99.4377 485.48 98.5737 485.48C97.7577 485.48 96.9177 486.032 96.9177 487.16V491H95.9217V487.04C95.9217 485.936 95.4537 485.48 94.5897 485.48C93.7737 485.48 92.9337 486.032 92.9337 487.16V491H91.9377ZM103.364 483.416C103.004 483.416 102.704 483.116 102.704 482.756C102.704 482.396 103.004 482.096 103.364 482.096C103.724 482.096 104.024 482.396 104.024 482.756C104.024 483.116 103.724 483.416 103.364 483.416ZM102.884 491V484.724H103.88V491H102.884ZM105.942 491V481.724H106.95V491H105.942ZM43.576 507.108C41.8 507.108 40.54 505.86 40.54 503.928V503.832C40.54 501.936 41.752 500.616 43.48 500.616C44.932 500.616 46.3 501.492 46.3 503.736V504.06H41.572C41.62 505.488 42.304 506.28 43.588 506.28C44.56 506.28 45.124 505.92 45.256 505.188H46.252C46.036 506.448 44.992 507.108 43.576 507.108ZM41.608 503.256H45.28C45.184 501.96 44.512 501.444 43.48 501.444C42.46 501.444 41.776 502.14 41.608 503.256ZM47.8283 507V500.724H48.8243V501.684C49.1123 501.096 49.7963 500.616 50.6963 500.616C51.5003 500.616 52.2083 500.952 52.5323 501.792C52.9643 500.976 53.9003 500.616 54.6803 500.616C55.8083 500.616 56.7923 501.288 56.7923 503.112V507H55.7963V503.04C55.7963 501.936 55.3283 501.48 54.4643 501.48C53.6483 501.48 52.8083 502.032 52.8083 503.16V507H51.8123V503.04C51.8123 501.936 51.3443 501.48 50.4803 501.48C49.6643 501.48 48.8243 502.032 48.8243 503.16V507H47.8283ZM63.498 507L61.218 500.724H62.298L64.158 505.992L65.994 500.724H67.026L64.77 507H63.498ZM70.7283 507.108C68.9523 507.108 67.6923 505.86 67.6923 503.928V503.832C67.6923 501.936 68.9043 500.616 70.6323 500.616C72.0843 500.616 73.4523 501.492 73.4523 503.736V504.06H68.7243C68.7723 505.488 69.4563 506.28 70.7403 506.28C71.7123 506.28 72.2763 505.92 72.4083 505.188H73.4043C73.1883 506.448 72.1443 507.108 70.7283 507.108ZM68.7603 503.256H72.4323C72.3363 501.96 71.6643 501.444 70.6323 501.444C69.6123 501.444 68.9283 502.14 68.7603 503.256ZM74.9807 507V500.724H75.9767V501.72C76.2647 501.132 76.9607 500.616 77.9927 500.616C79.2887 500.616 80.2007 501.324 80.2007 503.148V507H79.2047V503.076C79.2047 501.972 78.7367 501.48 77.7287 501.48C76.8047 501.48 75.9767 502.068 75.9767 503.196V507H74.9807ZM84.5165 507.108C82.8725 507.108 81.6845 505.944 81.6845 503.988V503.892C81.6845 501.972 82.8845 500.616 84.6125 500.616C85.6565 500.616 86.3045 501.12 86.6645 501.732V497.724H87.6605V507H86.6645V505.92C86.3045 506.532 85.4285 507.108 84.5165 507.108ZM84.6245 506.28C85.7885 506.28 86.7005 505.512 86.7005 503.904V503.808C86.7005 502.2 85.9325 501.444 84.7085 501.444C83.4605 501.444 82.7165 502.32 82.7165 503.844V503.94C82.7165 505.524 83.5685 506.28 84.6245 506.28ZM91.248 507.108C90.084 507.108 89.16 506.544 89.16 505.26C89.16 503.808 90.696 503.316 92.304 503.316H93.204V502.86C93.204 501.864 92.82 501.444 91.86 501.444C90.996 501.444 90.516 501.804 90.42 502.572H89.424C89.556 501.144 90.696 500.616 91.908 500.616C93.108 500.616 94.2 501.108 94.2 502.86V507H93.204V506.208C92.736 506.796 92.172 507.108 91.248 507.108ZM91.344 506.316C92.4 506.316 93.204 505.776 93.204 504.804V504.024H92.34C91.08 504.024 90.156 504.336 90.156 505.26C90.156 505.908 90.468 506.316 91.344 506.316ZM98.1004 507.108C96.6004 507.108 95.7004 506.352 95.6404 505.068H96.6124C96.6844 505.812 97.0804 506.28 98.0884 506.28C99.0364 506.28 99.4564 505.956 99.4564 505.284C99.4564 504.624 98.9644 504.408 97.9924 504.228C96.3604 503.928 95.8084 503.472 95.8084 502.38C95.8084 501.216 96.9484 500.616 97.9324 500.616C99.0604 500.616 100.032 501.072 100.2 502.428H99.2404C99.0964 501.744 98.7124 501.444 97.9204 501.444C97.2004 501.444 96.7324 501.804 96.7324 502.344C96.7324 502.908 97.0444 503.136 98.1964 503.34C99.4924 503.58 100.404 503.868 100.404 505.2C100.404 506.34 99.6244 507.108 98.1004 507.108Z" fill="black" fill-opacity="0.64"/>
<path d="M151.667 441H223.333C231.618 441 238.333 447.716 238.333 456V511C238.333 519.284 231.618 526 223.333 526H151.667C143.382 526 136.667 519.284 136.667 511V456C136.667 447.716 143.382 441 151.667 441Z" fill="white"/>
<path d="M151.667 441H223.333C231.618 441 238.333 447.716 238.333 456V511C238.333 519.284 231.618 526 223.333 526H151.667C143.382 526 136.667 519.284 136.667 511V456C136.667 447.716 143.382 441 151.667 441Z" stroke="#EFEFEF" stroke-width="2"/>
<path d="M152.979 471V459.56H156.819C159.331 459.56 161.091 460.584 161.091 462.92V462.984C161.091 464.776 159.971 465.688 158.547 466.056L161.763 471H159.459L156.467 466.376H155.107V471H152.979ZM155.107 464.856H156.819C158.243 464.856 158.995 464.248 158.995 463.032V462.968C158.995 461.656 158.179 461.208 156.819 461.208H155.107V464.856ZM166.295 473.16V471.144C163.623 470.968 162.551 469.416 162.391 467.464H164.311C164.439 468.52 164.791 469.416 166.295 469.592V465.976C163.975 465.576 162.759 464.696 162.759 462.664C162.759 460.904 164.167 459.592 166.295 459.432V457.992H167.351V459.448C169.383 459.624 170.615 460.744 170.807 462.696H168.967C168.791 461.72 168.311 461.144 167.351 460.984V464.28C169.671 464.68 171.015 465.464 171.015 467.64C171.015 469.48 169.687 470.968 167.351 471.144V473.16H166.295ZM164.615 462.504C164.615 463.336 164.919 463.816 166.295 464.104V460.952C165.191 461.08 164.615 461.704 164.615 462.504ZM169.095 467.816C169.095 466.904 168.711 466.44 167.351 466.152V469.592C168.423 469.432 169.095 468.76 169.095 467.816ZM181.022 471.16C177.886 471.16 176.75 468.952 176.75 465.976V465.4C176.75 461.48 178.638 459.416 181.326 459.416C183.294 459.416 184.638 460.376 184.862 462.424H182.974C182.782 461.528 182.334 461.016 181.262 461.016C179.774 461.016 178.798 462.344 178.75 465.032C179.246 464.2 180.174 463.576 181.47 463.576C183.582 463.576 185.054 465.032 185.054 467.256C185.054 469.608 183.518 471.16 181.022 471.16ZM180.99 469.56C182.238 469.56 183.086 468.664 183.086 467.32C183.086 465.944 182.254 465.064 180.974 465.064C179.71 465.064 178.814 465.912 178.814 467.192C178.814 468.712 179.726 469.56 180.99 469.56ZM190.311 471.16C187.815 471.16 186.199 469.544 186.199 466.408V464.232C186.199 461.048 187.847 459.416 190.311 459.416C192.791 459.416 194.391 460.984 194.391 464.12V466.36C194.391 469.496 192.871 471.16 190.311 471.16ZM190.359 469.48C191.799 469.48 192.343 468.6 192.343 466.376V464.136C192.343 462.056 191.719 461.064 190.327 461.064C188.903 461.064 188.247 462.024 188.247 464.216V466.392C188.247 468.632 188.967 469.48 190.359 469.48Z" fill="black" fill-opacity="0.96"/>
<path d="M152.747 491V482.42H155.015C157.967 482.42 159.359 484.244 159.359 486.632V486.74C159.359 489.116 157.991 491 154.991 491H152.747ZM153.791 490.148H154.967C157.175 490.148 158.279 488.828 158.279 486.728V486.632C158.279 484.652 157.319 483.26 154.955 483.26H153.791V490.148ZM163.598 491.108C161.822 491.108 160.562 489.86 160.562 487.928V487.832C160.562 485.936 161.774 484.616 163.502 484.616C164.954 484.616 166.322 485.492 166.322 487.736V488.06H161.594C161.642 489.488 162.326 490.28 163.61 490.28C164.582 490.28 165.146 489.92 165.278 489.188H166.274C166.058 490.448 165.014 491.108 163.598 491.108ZM161.63 487.256H165.302C165.206 485.96 164.534 485.444 163.502 485.444C162.482 485.444 161.798 486.14 161.63 487.256ZM171.098 491V482.42H173.678C175.322 482.42 176.678 483.092 176.678 484.808V484.856C176.678 486.272 175.73 486.968 174.554 487.196L177.182 491H176.018L173.462 487.268H172.142V491H171.098ZM172.142 486.44H173.75C174.974 486.44 175.634 485.912 175.634 484.856V484.808C175.634 483.644 174.914 483.26 173.75 483.26H172.142V486.44ZM180.817 492.62V491.096C178.777 490.964 178.081 489.764 177.937 488.384H178.945C179.065 489.332 179.365 490.172 180.817 490.292V486.944C179.245 486.644 178.285 486.068 178.285 484.628C178.285 483.392 179.329 482.432 180.817 482.324V481.244H181.525V482.336C182.989 482.468 183.865 483.32 184.021 484.676H183.085C182.905 483.764 182.425 483.272 181.525 483.152V486.152C183.289 486.452 184.201 487.04 184.201 488.588C184.201 489.944 183.121 490.976 181.525 491.096V492.62H180.817ZM179.233 484.544C179.233 485.3 179.497 485.756 180.817 486.032V483.14C179.785 483.224 179.233 483.812 179.233 484.544ZM183.205 488.648C183.205 487.76 182.833 487.328 181.525 487.064V490.292C182.533 490.172 183.205 489.536 183.205 488.648ZM191.802 491.108C189.954 491.108 189.066 490.088 188.946 488.684H189.942C190.11 489.62 190.482 490.268 191.79 490.268C192.954 490.268 193.674 489.488 193.674 488.192C193.674 486.98 192.966 486.188 191.874 486.188C190.878 486.188 190.302 486.5 189.846 487.016H189.462V482.42H194.286V483.32H190.326V485.936C190.674 485.612 191.262 485.348 192.078 485.348C193.614 485.348 194.742 486.44 194.742 488.192C194.742 490.004 193.434 491.108 191.802 491.108ZM199.725 491V484.724H200.721V485.684C201.009 485.096 201.693 484.616 202.593 484.616C203.397 484.616 204.105 484.952 204.429 485.792C204.861 484.976 205.797 484.616 206.577 484.616C207.705 484.616 208.689 485.288 208.689 487.112V491H207.693V487.04C207.693 485.936 207.225 485.48 206.361 485.48C205.545 485.48 204.705 486.032 204.705 487.16V491H203.709V487.04C203.709 485.936 203.241 485.48 202.377 485.48C201.561 485.48 200.721 486.032 200.721 487.16V491H199.725ZM211.151 483.416C210.791 483.416 210.491 483.116 210.491 482.756C210.491 482.396 210.791 482.096 211.151 482.096C211.511 482.096 211.811 482.396 211.811 482.756C211.811 483.116 211.511 483.416 211.151 483.416ZM210.671 491V484.724H211.667V491H210.671ZM213.73 491V481.724H214.738V491H213.73ZM154.247 507.108C153.083 507.108 152.159 506.544 152.159 505.26C152.159 503.808 153.695 503.316 155.303 503.316H156.203V502.86C156.203 501.864 155.819 501.444 154.859 501.444C153.995 501.444 153.515 501.804 153.419 502.572H152.423C152.555 501.144 153.695 500.616 154.907 500.616C156.107 500.616 157.199 501.108 157.199 502.86V507H156.203V506.208C155.735 506.796 155.171 507.108 154.247 507.108ZM154.343 506.316C155.399 506.316 156.203 505.776 156.203 504.804V504.024H155.339C154.079 504.024 153.155 504.336 153.155 505.26C153.155 505.908 153.467 506.316 154.343 506.316ZM162.403 507V498.42H164.983C166.627 498.42 167.983 499.092 167.983 500.808V500.856C167.983 502.272 167.035 502.968 165.859 503.196L168.487 507H167.323L164.767 503.268H163.447V507H162.403ZM163.447 502.44H165.055C166.279 502.44 166.939 501.912 166.939 500.856V500.808C166.939 499.644 166.219 499.26 165.055 499.26H163.447V502.44ZM172.122 508.62V507.096C170.082 506.964 169.386 505.764 169.242 504.384H170.25C170.37 505.332 170.67 506.172 172.122 506.292V502.944C170.55 502.644 169.59 502.068 169.59 500.628C169.59 499.392 170.634 498.432 172.122 498.324V497.244H172.83V498.336C174.294 498.468 175.17 499.32 175.326 500.676H174.39C174.21 499.764 173.73 499.272 172.83 499.152V502.152C174.594 502.452 175.506 503.04 175.506 504.588C175.506 505.944 174.426 506.976 172.83 507.096V508.62H172.122ZM170.538 500.544C170.538 501.3 170.802 501.756 172.122 502.032V499.14C171.09 499.224 170.538 499.812 170.538 500.544ZM174.51 504.648C174.51 503.76 174.138 503.328 172.83 503.064V506.292C173.838 506.172 174.51 505.536 174.51 504.648ZM183.419 507V499.476L180.959 501.444V500.472L183.371 498.42H184.463V507H183.419ZM190.494 507.108C188.694 507.108 187.458 505.896 187.458 503.496V501.996C187.458 499.56 188.634 498.312 190.47 498.312C192.33 498.312 193.434 499.56 193.434 501.912V503.472C193.434 505.872 192.342 507.108 190.494 507.108ZM190.494 506.244C191.838 506.244 192.378 505.464 192.378 503.46V501.9C192.378 500.064 191.754 499.152 190.47 499.152C189.174 499.152 188.526 500.04 188.526 501.984V503.484C188.526 505.488 189.234 506.244 190.494 506.244ZM198.225 507V500.724H199.221V501.684C199.509 501.096 200.193 500.616 201.093 500.616C201.897 500.616 202.605 500.952 202.929 501.792C203.361 500.976 204.297 500.616 205.077 500.616C206.205 500.616 207.189 501.288 207.189 503.112V507H206.193V503.04C206.193 501.936 205.725 501.48 204.861 501.48C204.045 501.48 203.205 502.032 203.205 503.16V507H202.209V503.04C202.209 501.936 201.741 501.48 200.877 501.48C200.061 501.48 199.221 502.032 199.221 503.16V507H198.225ZM209.651 499.416C209.291 499.416 208.991 499.116 208.991 498.756C208.991 498.396 209.291 498.096 209.651 498.096C210.011 498.096 210.311 498.396 210.311 498.756C210.311 499.116 210.011 499.416 209.651 499.416ZM209.171 507V500.724H210.167V507H209.171ZM212.23 507V497.724H213.238V507H212.23Z" fill="black" fill-opacity="0.64"/>
<path d="M263.333 441H335C343.285 441 350 447.716 350 456V511C350 519.284 343.285 526 335 526H263.333C255.049 526 248.333 519.284 248.333 511V456C248.333 447.716 255.049 441 263.333 441Z" fill="white"/>
<path d="M263.333 441H335C343.285 441 350 447.716 350 456V511C350 519.284 343.285 526 335 526H263.333C255.049 526 248.333 519.284 248.333 511V456C248.333 447.716 255.049 441 263.333 441Z" stroke="#EFEFEF" stroke-width="2"/>
<path d="M269.781 471.16C266.117 471.16 264.069 468.728 264.069 465.352V465.224C264.069 461.816 266.437 459.384 269.781 459.384C272.229 459.384 274.405 460.504 274.709 463.24H272.581C272.325 461.72 271.301 461.064 269.813 461.064C267.573 461.064 266.277 462.728 266.277 465.24V465.368C266.277 467.816 267.413 469.496 269.813 469.496C271.957 469.496 272.837 468.2 272.901 466.616H270.021V465.016H274.997V466.072C274.997 469.24 273.013 471.16 269.781 471.16ZM276.732 471V462.632H278.668V464.2C279.196 463.144 279.98 462.52 281.388 462.504V464.312C279.692 464.328 278.668 464.872 278.668 466.648V471H276.732ZM285.318 461.384L286.262 458.904H288.406L286.742 461.384H285.318ZM284.998 471.16C283.462 471.16 282.198 470.424 282.198 468.68C282.198 466.728 284.086 466.024 286.486 466.024H287.526V465.592C287.526 464.472 287.142 463.912 286.006 463.912C284.998 463.912 284.502 464.392 284.406 465.224H282.534C282.694 463.272 284.246 462.456 286.118 462.456C287.99 462.456 289.462 463.224 289.462 465.512V471H287.558V469.976C287.014 470.696 286.278 471.16 284.998 471.16ZM285.462 469.768C286.646 469.768 287.526 469.144 287.526 468.072V467.24H286.534C285.062 467.24 284.118 467.576 284.118 468.6C284.118 469.304 284.502 469.768 285.462 469.768ZM294.353 471.144C292.689 471.144 291.825 470.248 291.825 468.664V464.088H290.705V462.632H291.825V460.792H293.761V462.632H295.601V464.088H293.761V468.488C293.761 469.224 294.113 469.56 294.721 469.56C295.105 469.56 295.393 469.512 295.665 469.4V470.936C295.361 471.048 294.945 471.144 294.353 471.144ZM298.244 461.256C297.604 461.256 297.092 460.776 297.092 460.152C297.092 459.512 297.604 459.032 298.244 459.032C298.884 459.032 299.396 459.512 299.396 460.152C299.396 460.776 298.884 461.256 298.244 461.256ZM297.3 471V462.632H299.236V471H297.3ZM304.299 471.16C302.139 471.16 300.875 470.168 300.795 468.392H302.619C302.715 469.24 303.147 469.736 304.283 469.736C305.323 469.736 305.787 469.368 305.787 468.664C305.787 467.976 305.227 467.72 303.995 467.512C301.787 467.16 300.971 466.536 300.971 464.968C300.971 463.288 302.539 462.456 304.107 462.456C305.819 462.456 307.179 463.096 307.387 464.984H305.595C305.435 464.216 305.003 463.864 304.107 463.864C303.275 463.864 302.779 464.264 302.779 464.856C302.779 465.464 303.179 465.704 304.507 465.928C306.475 466.232 307.643 466.712 307.643 468.488C307.643 470.184 306.443 471.16 304.299 471.16Z" fill="#652590"/>
<path d="M266.609 491L263.693 482.42H264.725L267.281 489.992L269.837 482.42H270.821L267.857 491H266.609ZM274.046 491.108C272.27 491.108 271.01 489.86 271.01 487.928V487.832C271.01 485.936 272.222 484.616 273.95 484.616C275.402 484.616 276.77 485.492 276.77 487.736V488.06H272.042C272.09 489.488 272.774 490.28 274.058 490.28C275.03 490.28 275.594 489.92 275.726 489.188H276.722C276.506 490.448 275.462 491.108 274.046 491.108ZM272.078 487.256H275.75C275.654 485.96 274.982 485.444 273.95 485.444C272.93 485.444 272.246 486.14 272.078 487.256ZM278.299 491V484.724H279.295V485.72C279.583 485.132 280.279 484.616 281.311 484.616C282.607 484.616 283.519 485.324 283.519 487.148V491H282.523V487.076C282.523 485.972 282.055 485.48 281.047 485.48C280.123 485.48 279.295 486.068 279.295 487.196V491H278.299ZM287.834 491.108C286.19 491.108 285.002 489.944 285.002 487.988V487.892C285.002 485.972 286.202 484.616 287.93 484.616C288.974 484.616 289.622 485.12 289.982 485.732V481.724H290.978V491H289.982V489.92C289.622 490.532 288.746 491.108 287.834 491.108ZM287.942 490.28C289.106 490.28 290.018 489.512 290.018 487.904V487.808C290.018 486.2 289.25 485.444 288.026 485.444C286.778 485.444 286.034 486.32 286.034 487.844V487.94C286.034 489.524 286.886 490.28 287.942 490.28ZM294.566 491.108C293.402 491.108 292.478 490.544 292.478 489.26C292.478 487.808 294.014 487.316 295.622 487.316H296.522V486.86C296.522 485.864 296.138 485.444 295.178 485.444C294.314 485.444 293.834 485.804 293.738 486.572H292.742C292.874 485.144 294.014 484.616 295.226 484.616C296.426 484.616 297.518 485.108 297.518 486.86V491H296.522V490.208C296.054 490.796 295.49 491.108 294.566 491.108ZM294.662 490.316C295.718 490.316 296.522 489.776 296.522 488.804V488.024H295.658C294.398 488.024 293.474 488.336 293.474 489.26C293.474 489.908 293.786 490.316 294.662 490.316ZM302.65 491V484.724H303.646V485.684C303.934 485.096 304.618 484.616 305.518 484.616C306.322 484.616 307.03 484.952 307.354 485.792C307.786 484.976 308.722 484.616 309.502 484.616C310.63 484.616 311.614 485.288 311.614 487.112V491H310.618V487.04C310.618 485.936 310.15 485.48 309.286 485.48C308.47 485.48 307.63 486.032 307.63 487.16V491H306.634V487.04C306.634 485.936 306.166 485.48 305.302 485.48C304.486 485.48 303.646 486.032 303.646 487.16V491H302.65ZM315.144 491.108C313.98 491.108 313.056 490.544 313.056 489.26C313.056 487.808 314.592 487.316 316.2 487.316H317.1V486.86C317.1 485.864 316.716 485.444 315.756 485.444C314.892 485.444 314.412 485.804 314.316 486.572H313.32C313.452 485.144 314.592 484.616 315.804 484.616C317.004 484.616 318.096 485.108 318.096 486.86V491H317.1V490.208C316.632 490.796 316.068 491.108 315.144 491.108ZM315.24 490.316C316.296 490.316 317.1 489.776 317.1 488.804V488.024H316.236C314.976 488.024 314.052 488.336 314.052 489.26C314.052 489.908 314.364 490.316 315.24 490.316ZM320.556 483.416C320.196 483.416 319.896 483.116 319.896 482.756C319.896 482.396 320.196 482.096 320.556 482.096C320.916 482.096 321.216 482.396 321.216 482.756C321.216 483.116 320.916 483.416 320.556 483.416ZM320.076 491V484.724H321.072V491H320.076ZM325.055 491.108C323.555 491.108 322.655 490.352 322.595 489.068H323.567C323.639 489.812 324.035 490.28 325.043 490.28C325.991 490.28 326.411 489.956 326.411 489.284C326.411 488.624 325.919 488.408 324.947 488.228C323.315 487.928 322.763 487.472 322.763 486.38C322.763 485.216 323.903 484.616 324.887 484.616C326.015 484.616 326.987 485.072 327.155 486.428H326.195C326.051 485.744 325.667 485.444 324.875 485.444C324.155 485.444 323.687 485.804 323.687 486.344C323.687 486.908 323.999 487.136 325.151 487.34C326.447 487.58 327.359 487.868 327.359 489.2C327.359 490.34 326.579 491.108 325.055 491.108ZM266.705 507.108C265.061 507.108 263.873 505.944 263.873 503.988V503.892C263.873 501.972 265.073 500.616 266.801 500.616C267.845 500.616 268.493 501.12 268.853 501.732V497.724H269.849V507H268.853V505.92C268.493 506.532 267.617 507.108 266.705 507.108ZM266.813 506.28C267.977 506.28 268.889 505.512 268.889 503.904V503.808C268.889 502.2 268.121 501.444 266.897 501.444C265.649 501.444 264.905 502.32 264.905 503.844V503.94C264.905 505.524 265.757 506.28 266.813 506.28ZM274.433 507.108C272.657 507.108 271.397 505.86 271.397 503.928V503.832C271.397 501.936 272.609 500.616 274.337 500.616C275.789 500.616 277.157 501.492 277.157 503.736V504.06H272.429C272.477 505.488 273.161 506.28 274.445 506.28C275.417 506.28 275.981 505.92 276.113 505.188H277.109C276.893 506.448 275.849 507.108 274.433 507.108ZM272.465 503.256H276.137C276.041 501.96 275.369 501.444 274.337 501.444C273.317 501.444 272.633 502.14 272.465 503.256ZM281.933 507V498.42H284.513C286.157 498.42 287.513 499.092 287.513 500.808V500.856C287.513 502.272 286.565 502.968 285.389 503.196L288.017 507H286.853L284.297 503.268H282.977V507H281.933ZM282.977 502.44H284.585C285.809 502.44 286.469 501.912 286.469 500.856V500.808C286.469 499.644 285.749 499.26 284.585 499.26H282.977V502.44ZM291.652 508.62V507.096C289.612 506.964 288.916 505.764 288.772 504.384H289.78C289.9 505.332 290.2 506.172 291.652 506.292V502.944C290.08 502.644 289.12 502.068 289.12 500.628C289.12 499.392 290.164 498.432 291.652 498.324V497.244H292.36V498.336C293.824 498.468 294.7 499.32 294.856 500.676H293.92C293.74 499.764 293.26 499.272 292.36 499.152V502.152C294.124 502.452 295.036 503.04 295.036 504.588C295.036 505.944 293.956 506.976 292.36 507.096V508.62H291.652ZM290.068 500.544C290.068 501.3 290.332 501.756 291.652 502.032V499.14C290.62 499.224 290.068 499.812 290.068 500.544ZM294.04 504.648C294.04 503.76 293.668 503.328 292.36 503.064V506.292C293.368 506.172 294.04 505.536 294.04 504.648ZM302.949 507V499.476L300.489 501.444V500.472L302.901 498.42H303.993V507H302.949ZM310.024 507.108C308.224 507.108 306.988 505.896 306.988 503.496V501.996C306.988 499.56 308.164 498.312 310 498.312C311.86 498.312 312.964 499.56 312.964 501.912V503.472C312.964 505.872 311.872 507.108 310.024 507.108ZM310.024 506.244C311.368 506.244 311.908 505.464 311.908 503.46V501.9C311.908 500.064 311.284 499.152 310 499.152C308.704 499.152 308.056 500.04 308.056 501.984V503.484C308.056 505.488 308.764 506.244 310.024 506.244ZM317.756 507V500.724H318.752V501.684C319.04 501.096 319.724 500.616 320.624 500.616C321.428 500.616 322.136 500.952 322.46 501.792C322.892 500.976 323.828 500.616 324.608 500.616C325.736 500.616 326.72 501.288 326.72 503.112V507H325.724V503.04C325.724 501.936 325.256 501.48 324.392 501.48C323.576 501.48 322.736 502.032 322.736 503.16V507H321.74V503.04C321.74 501.936 321.272 501.48 320.408 501.48C319.592 501.48 318.752 502.032 318.752 503.16V507H317.756ZM329.181 499.416C328.821 499.416 328.521 499.116 328.521 498.756C328.521 498.396 328.821 498.096 329.181 498.096C329.541 498.096 329.841 498.396 329.841 498.756C329.841 499.116 329.541 499.416 329.181 499.416ZM328.701 507V500.724H329.697V507H328.701ZM331.76 507V497.724H332.768V507H331.76Z" fill="black" fill-opacity="0.64"/>
</g>
</g>
<defs>
<clipPath id="clip0_17453_7604">
<rect width="375" height="812" fill="white"/>
</clipPath>
<clipPath id="clip1_17453_7604">
<rect width="48" height="48" fill="white" transform="translate(12 52)"/>
</clipPath>
<clipPath id="clip2_17453_7604">
<path d="M124 76C124 75.4477 124.448 75 125 75H251C251.552 75 252 75.4477 252 76C252 76.5523 251.552 77 251 77H125C124.448 77 124 76.5523 124 76Z" fill="white"/>
</clipPath>
<clipPath id="clip3_17453_7604">
<rect width="212" height="34" fill="white" transform="translate(81.5 307.5)"/>
</clipPath>
<clipPath id="clip4_17453_7604">
<rect width="212" height="34" fill="white" transform="translate(81.5 307.5)"/>
</clipPath>
<clipPath id="clip5_17453_7604">
<rect width="212" height="34" fill="white" transform="translate(81.5 307.5)"/>
</clipPath>
<clipPath id="clip6_17453_7604">
<rect width="212" height="2" fill="white" transform="translate(81.5 347.5)"/>
</clipPath>
<clipPath id="clip7_17453_7604">
<rect width="375" height="87" fill="white" transform="translate(0 440)"/>
</clipPath>
</defs>
</svg>
