<svg width="375" height="812" viewBox="0 0 375 812" fill="none" xmlns="http://www.w3.org/2000/svg">
<g clip-path="url(#clip0_17453_7620)">
<rect width="375" height="812" fill="white"/>
<rect width="375" height="104" fill="white"/>
<path d="M35.7202 33V24.3354H35.5957L32.9663 26.1812V24.3647L35.7276 22.4312H37.6099V33H35.7202ZM42.9216 33V24.3354H42.7971L40.1677 26.1812V24.3647L42.929 22.4312H44.8113V33H42.9216ZM48.9365 31.5425C48.248 31.5425 47.7646 31.0444 47.7646 30.3853C47.7646 29.7188 48.248 29.228 48.9365 29.228C49.6323 29.228 50.1084 29.7188 50.1084 30.3853C50.1084 31.0444 49.6323 31.5425 48.9365 31.5425ZM48.9365 26.1958C48.248 26.1958 47.7646 25.7051 47.7646 25.0459C47.7646 24.3794 48.248 23.8887 48.9365 23.8887C49.6323 23.8887 50.1084 24.3794 50.1084 25.0459C50.1084 25.7051 49.6323 26.1958 48.9365 26.1958ZM56.0793 33.2637C53.5452 33.2637 52.0437 31.2129 52.0437 27.7046C52.0437 24.2109 53.5671 22.1675 56.0793 22.1675C58.5842 22.1675 60.1077 24.2109 60.1077 27.7192C60.1077 31.2129 58.6062 33.2637 56.0793 33.2637ZM56.0793 31.6963C57.4197 31.6963 58.196 30.3267 58.196 27.7046C58.196 25.0972 57.405 23.7422 56.0793 23.7422C54.7537 23.7422 53.9553 25.1045 53.9553 27.7046C53.9553 30.3267 54.739 31.6963 56.0793 31.6963ZM65.8735 33.2637C63.4492 33.2637 61.7793 32.0039 61.7793 30.1729C61.7793 28.8325 62.6802 27.7705 64.0644 27.4775V27.353C62.9365 27.0747 62.2041 26.1592 62.2041 25.0312C62.2041 23.3613 63.7348 22.1675 65.8808 22.1675C68.0268 22.1675 69.5503 23.3613 69.5503 25.0312C69.5503 26.1665 68.8325 27.0674 67.6972 27.353V27.4775C69.0742 27.7339 69.9824 28.8032 69.9824 30.1655C69.9824 32.0039 68.3125 33.2637 65.8735 33.2637ZM65.8808 31.7915C67.1553 31.7915 68.0268 31.0664 68.0268 30.0117C68.0268 28.957 67.1479 28.2319 65.8808 28.2319C64.6064 28.2319 63.7275 28.957 63.7275 30.0117C63.7275 31.0664 64.6064 31.7915 65.8808 31.7915ZM65.8808 26.7817C66.9502 26.7817 67.6899 26.1445 67.6899 25.2144C67.6899 24.2695 66.9575 23.6177 65.8808 23.6177C64.7969 23.6177 64.0644 24.2695 64.0644 25.2144C64.0644 26.1445 64.8042 26.7817 65.8808 26.7817Z" fill="black" fill-opacity="0.96"/>
<path d="M285.339 29.3336C285.891 29.3336 286.339 29.7814 286.339 30.3336V32.3336C286.339 32.8858 285.891 33.3336 285.339 33.3336H284.339C283.787 33.3336 283.339 32.8858 283.339 32.3336V30.3336C283.339 29.7814 283.787 29.3336 284.339 29.3336H285.339ZM290.006 27.3336C290.558 27.3338 291.006 27.7815 291.006 28.3336V32.3336C291.006 32.8857 290.558 33.3335 290.006 33.3336H289.006C288.454 33.3336 288.006 32.8858 288.006 32.3336V28.3336C288.006 27.7814 288.454 27.3336 289.006 27.3336H290.006ZM294.672 24.9997C295.224 24.9997 295.672 25.4475 295.672 25.9997V32.3336C295.672 32.8858 295.224 33.3336 294.672 33.3336H293.672C293.12 33.3335 292.672 32.8857 292.672 32.3336V25.9997C292.672 25.4476 293.12 24.9998 293.672 24.9997H294.672ZM299.339 22.6667C299.891 22.6667 300.339 23.1144 300.339 23.6667V32.3336C300.339 32.8858 299.891 33.3336 299.339 33.3336H298.339C297.787 33.3336 297.339 32.8858 297.339 32.3336V23.6667C297.339 23.1144 297.787 22.6667 298.339 22.6667H299.339Z" fill="black" fill-opacity="0.96"/>
<path fill-rule="evenodd" clip-rule="evenodd" d="M311.287 30.9267C312.568 29.8444 314.444 29.8444 315.725 30.9267C315.789 30.9849 315.826 31.0675 315.828 31.1542C315.83 31.2409 315.795 31.324 315.733 31.3847L313.729 33.4072C313.67 33.4666 313.589 33.4999 313.506 33.4999C313.422 33.4999 313.342 33.4666 313.283 33.4072L311.277 31.3847C311.216 31.324 311.182 31.2407 311.184 31.1542C311.185 31.0675 311.223 30.9848 311.287 30.9267ZM308.611 28.2294C311.37 25.665 315.643 25.6651 318.402 28.2294C318.465 28.2896 318.5 28.3724 318.501 28.4589C318.502 28.5453 318.468 28.6281 318.407 28.6894L317.248 29.8603C317.129 29.9796 316.936 29.9814 316.813 29.8652C315.907 29.0454 314.728 28.5917 313.506 28.5917C312.284 28.5923 311.107 29.0461 310.201 29.8652C310.079 29.9815 309.885 29.9798 309.766 29.8603L308.607 28.6894C308.546 28.6282 308.512 28.5453 308.513 28.4589C308.514 28.3724 308.549 28.2895 308.611 28.2294ZM305.936 25.539C310.167 21.4869 316.843 21.4871 321.075 25.539C321.136 25.5992 321.171 25.6817 321.172 25.7675C321.172 25.8533 321.139 25.9361 321.078 25.997L319.918 27.1669C319.798 27.287 319.604 27.2881 319.482 27.1699C317.87 25.6384 315.73 24.7842 313.506 24.7841C311.281 24.7841 309.141 25.6382 307.528 27.1699C307.407 27.2882 307.213 27.287 307.094 27.1669L305.933 25.997C305.872 25.9361 305.838 25.8532 305.839 25.7675C305.839 25.6817 305.874 25.5991 305.936 25.539Z" fill="black" fill-opacity="0.96"/>
<rect opacity="0.35" x="327.172" y="22.8333" width="21" height="10.3333" rx="3.5" stroke="black" stroke-opacity="0.96"/>
<path opacity="0.4" d="M349.672 26V30C350.477 29.6612 351 28.8731 351 28C351 27.1269 350.477 26.3388 349.672 26Z" fill="black" fill-opacity="0.96"/>
<rect x="328.672" y="24.3333" width="18" height="7.33333" rx="2.3" fill="black" fill-opacity="0.96"/>
<g clip-path="url(#clip1_17453_7620)">
<path d="M30.2934 75.2928L38.2942 67.292L39.7086 68.7063L32.4149 76L39.7086 83.2936L38.2942 84.708L30.2934 76.7072C29.9028 76.3166 29.9028 75.6834 30.2934 75.2928Z" fill="black" fill-opacity="0.64"/>
</g>
<g clip-path="url(#clip2_17453_7620)">
<path d="M124 76C124 75.4477 124.448 75 125 75H251C251.552 75 252 75.4477 252 76C252 76.5523 251.552 77 251 77H125C124.448 77 124 76.5523 124 76Z" fill="#EFEFEF"/>
<path d="M124 76C124 75.4477 124.448 75 125 75H218C218.552 75 219 75.4477 219 76C219 76.5523 218.552 77 218 77H125C124.448 77 124 76.5523 124 76Z" fill="#714F8F"/>
</g>
<path d="M35.06 138.28C28.788 138.28 25.288 134.276 25.288 128.116V127.892C25.288 121.872 29.432 117.672 35.004 117.672C39.596 117.672 43.152 119.968 43.6 124.672H39.82C39.4 122.012 37.916 120.64 35.032 120.64C31.504 120.64 29.208 123.384 29.208 127.864V128.088C29.208 132.596 31.364 135.256 35.06 135.256C37.832 135.256 39.792 133.856 40.184 131.028H43.824C43.236 135.844 39.82 138.28 35.06 138.28ZM52.4813 138.28C48.1693 138.28 44.9772 135.284 44.9772 130.832V130.608C44.9772 126.072 48.1973 123.048 52.5093 123.048C56.7933 123.048 60.0132 126.044 60.0132 130.524V130.748C60.0132 135.312 56.7933 138.28 52.4813 138.28ZM52.5093 135.648C55.0293 135.648 56.5413 133.772 56.5413 130.776V130.58C56.5413 127.556 55.0293 125.708 52.5093 125.708C49.9893 125.708 48.4493 127.528 48.4493 130.552V130.776C48.4493 133.772 49.9333 135.648 52.5093 135.648ZM62.2344 138V123.356H65.6224V125.596C66.3224 124.224 67.9184 123.048 70.0744 123.048C71.9784 123.048 73.4904 123.86 74.2184 125.68C75.3384 123.86 77.3544 123.048 79.1744 123.048C81.8624 123.048 84.0464 124.7 84.0464 128.732V138H80.6584V128.956C80.6584 126.8 79.7344 125.876 78.0544 125.876C76.3744 125.876 74.8344 126.996 74.8344 129.236V138H71.4464V128.956C71.4464 126.8 70.4944 125.876 68.8424 125.876C67.1624 125.876 65.6224 126.996 65.6224 129.236V138H62.2344ZM93.6216 138.28C89.3096 138.28 86.1176 135.284 86.1176 130.832V130.608C86.1176 126.072 89.3376 123.048 93.6496 123.048C97.9336 123.048 101.154 126.044 101.154 130.524V130.748C101.154 135.312 97.9336 138.28 93.6216 138.28ZM93.6496 135.648C96.1696 135.648 97.6816 133.772 97.6816 130.776V130.58C97.6816 127.556 96.1696 125.708 93.6496 125.708C91.1296 125.708 89.5896 127.528 89.5896 130.552V130.776C89.5896 133.772 91.0736 135.648 93.6496 135.648ZM109.207 143.012V123.356H112.595V125.708C113.407 124.308 115.227 123.048 117.383 123.048C121.051 123.048 123.879 125.764 123.879 130.496V130.72C123.879 135.424 121.163 138.28 117.383 138.28C115.059 138.28 113.379 137.132 112.595 135.704V143.012H109.207ZM116.543 135.592C119.035 135.592 120.407 133.912 120.407 130.776V130.552C120.407 127.304 118.727 125.708 116.515 125.708C114.163 125.708 112.483 127.304 112.483 130.552V130.776C112.483 134.052 114.079 135.592 116.543 135.592ZM126.085 138V123.356H129.473V126.1C130.397 124.252 131.769 123.16 134.233 123.132V126.296C131.265 126.324 129.473 127.276 129.473 130.384V138H126.085ZM142.514 138.28C138.202 138.28 135.094 135.452 135.094 130.832V130.608C135.094 126.072 138.202 123.048 142.374 123.048C146.014 123.048 149.29 125.204 149.29 130.44V131.42H138.566C138.678 134.192 140.078 135.76 142.598 135.76C144.642 135.76 145.706 134.948 145.958 133.52H149.234C148.758 136.6 146.266 138.28 142.514 138.28ZM138.622 129.152H145.93C145.762 126.632 144.474 125.512 142.374 125.512C140.33 125.512 138.958 126.884 138.622 129.152ZM152.064 138V125.904H150.076V123.356H152.064V121.396C152.064 118.176 153.856 116.44 156.992 116.44C157.804 116.44 158.308 116.524 158.924 116.72V119.352C158.532 119.212 158 119.1 157.384 119.1C156.012 119.1 155.452 119.996 155.452 121.256V123.356H158.784V125.904H155.452V138H152.064ZM166.591 138.28C162.279 138.28 159.171 135.452 159.171 130.832V130.608C159.171 126.072 162.279 123.048 166.451 123.048C170.091 123.048 173.367 125.204 173.367 130.44V131.42H162.643C162.755 134.192 164.155 135.76 166.675 135.76C168.719 135.76 169.783 134.948 170.035 133.52H173.311C172.835 136.6 170.343 138.28 166.591 138.28ZM162.699 129.152H170.007C169.839 126.632 168.551 125.512 166.451 125.512C164.407 125.512 163.035 126.884 162.699 129.152ZM175.554 138V123.356H178.942V126.1C179.866 124.252 181.238 123.16 183.702 123.132V126.296C180.734 126.324 178.942 127.276 178.942 130.384V138H175.554ZM191.982 138.28C187.67 138.28 184.562 135.452 184.562 130.832V130.608C184.562 126.072 187.67 123.048 191.842 123.048C195.482 123.048 198.758 125.204 198.758 130.44V131.42H188.034C188.146 134.192 189.546 135.76 192.066 135.76C194.11 135.76 195.174 134.948 195.426 133.52H198.702C198.226 136.6 195.734 138.28 191.982 138.28ZM188.09 129.152H195.398C195.23 126.632 193.942 125.512 191.842 125.512C189.798 125.512 188.426 126.884 188.09 129.152ZM206.776 143.012V123.356H210.164V125.708C210.976 124.308 212.796 123.048 214.952 123.048C218.62 123.048 221.448 125.764 221.448 130.496V130.72C221.448 135.424 218.732 138.28 214.952 138.28C212.628 138.28 210.948 137.132 210.164 135.704V143.012H206.776ZM214.112 135.592C216.604 135.592 217.976 133.912 217.976 130.776V130.552C217.976 127.304 216.296 125.708 214.084 125.708C211.732 125.708 210.052 127.304 210.052 130.552V130.776C210.052 134.052 211.648 135.592 214.112 135.592ZM227.49 138.28C224.802 138.28 222.59 136.992 222.59 133.94C222.59 130.524 225.894 129.292 230.094 129.292H231.914V128.536C231.914 126.576 231.242 125.596 229.254 125.596C227.49 125.596 226.622 126.436 226.454 127.892H223.178C223.458 124.476 226.174 123.048 229.45 123.048C232.726 123.048 235.302 124.392 235.302 128.396V138H231.97V136.208C231.018 137.468 229.73 138.28 227.49 138.28ZM228.302 135.844C230.374 135.844 231.914 134.752 231.914 132.876V131.42H230.178C227.602 131.42 225.95 132.008 225.95 133.8C225.95 135.032 226.622 135.844 228.302 135.844ZM244.59 143.376C239.998 143.376 237.926 141.304 237.534 138.504H240.95C241.23 139.96 242.35 140.8 244.562 140.8C247.194 140.8 248.65 139.484 248.65 136.852V134.696C247.838 136.096 246.018 137.412 243.862 137.412C240.194 137.412 237.366 134.668 237.366 130.44V130.244C237.366 126.128 240.166 123.048 243.946 123.048C246.354 123.048 247.81 124.14 248.65 125.596V123.356H252.038V136.908C252.01 141.22 249.126 143.376 244.59 143.376ZM244.702 134.808C247.054 134.808 248.762 133.128 248.762 130.328V130.132C248.762 127.36 247.25 125.708 244.814 125.708C242.294 125.708 240.838 127.528 240.838 130.188V130.412C240.838 133.128 242.518 134.808 244.702 134.808ZM259.06 138.28C256.372 138.28 254.16 136.992 254.16 133.94C254.16 130.524 257.464 129.292 261.664 129.292H263.484V128.536C263.484 126.576 262.812 125.596 260.824 125.596C259.06 125.596 258.192 126.436 258.024 127.892H254.748C255.028 124.476 257.744 123.048 261.02 123.048C264.296 123.048 266.872 124.392 266.872 128.396V138H263.54V136.208C262.588 137.468 261.3 138.28 259.06 138.28ZM259.872 135.844C261.944 135.844 263.484 134.752 263.484 132.876V131.42H261.748C259.172 131.42 257.52 132.008 257.52 133.8C257.52 135.032 258.192 135.844 259.872 135.844ZM269.916 138V123.356H273.304V126.1C274.228 124.252 275.6 123.16 278.064 123.132V126.296C275.096 126.324 273.304 127.276 273.304 130.384V138H269.916ZM289.872 138.28C287.184 138.28 284.972 136.992 284.972 133.94C284.972 130.524 288.276 129.292 292.476 129.292H294.296V128.536C294.296 126.576 293.624 125.596 291.636 125.596C289.872 125.596 289.004 126.436 288.836 127.892H285.56C285.84 124.476 288.556 123.048 291.832 123.048C295.108 123.048 297.684 124.392 297.684 128.396V138H294.352V136.208C293.4 137.468 292.112 138.28 289.872 138.28ZM290.684 135.844C292.756 135.844 294.296 134.752 294.296 132.876V131.42H292.56C289.984 131.42 288.332 132.008 288.332 133.8C288.332 135.032 289.004 135.844 290.684 135.844ZM26.016 172V157.356H29.404V159.596C30.104 158.224 31.7 157.048 33.856 157.048C35.76 157.048 37.272 157.86 38 159.68C39.12 157.86 41.136 157.048 42.956 157.048C45.644 157.048 47.828 158.7 47.828 162.732V172H44.44V162.956C44.44 160.8 43.516 159.876 41.836 159.876C40.156 159.876 38.616 160.996 38.616 163.236V172H35.228V162.956C35.228 160.8 34.276 159.876 32.624 159.876C30.944 159.876 29.404 160.996 29.404 163.236V172H26.016ZM57.3191 172.28C53.0071 172.28 49.8991 169.452 49.8991 164.832V164.608C49.8991 160.072 53.0071 157.048 57.1791 157.048C60.8191 157.048 64.0951 159.204 64.0951 164.44V165.42H53.3711C53.4831 168.192 54.8831 169.76 57.4031 169.76C59.4471 169.76 60.5111 168.948 60.7631 167.52H64.0391C63.5631 170.6 61.0711 172.28 57.3191 172.28ZM53.4271 163.152H60.7351C60.5671 160.632 59.2791 159.512 57.1791 159.512C55.1351 159.512 53.7631 160.884 53.4271 163.152ZM66.2813 172V157.356H69.6693V159.68C70.3693 158.252 71.9933 157.048 74.4013 157.048C77.3413 157.048 79.4133 158.756 79.4133 162.788V172H76.0253V163.096C76.0253 160.884 75.1293 159.876 73.1133 159.876C71.2093 159.876 69.6693 161.052 69.6693 163.376V172H66.2813ZM87.4885 172.28C83.7085 172.28 81.4965 170.544 81.3565 167.436H84.5485C84.7165 168.92 85.4725 169.788 87.4605 169.788C89.2805 169.788 90.0925 169.144 90.0925 167.912C90.0925 166.708 89.1125 166.26 86.9565 165.896C83.0925 165.28 81.6645 164.188 81.6645 161.444C81.6645 158.504 84.4085 157.048 87.1525 157.048C90.1485 157.048 92.5285 158.168 92.8925 161.472H89.7565C89.4765 160.128 88.7205 159.512 87.1525 159.512C85.6965 159.512 84.8285 160.212 84.8285 161.248C84.8285 162.312 85.5285 162.732 87.8525 163.124C91.2965 163.656 93.3405 164.496 93.3405 167.604C93.3405 170.572 91.2405 172.28 87.4885 172.28ZM99.3084 172.28C96.6204 172.28 94.4084 170.992 94.4084 167.94C94.4084 164.524 97.7124 163.292 101.912 163.292H103.732V162.536C103.732 160.576 103.06 159.596 101.072 159.596C99.3084 159.596 98.4404 160.436 98.2724 161.892H94.9964C95.2764 158.476 97.9924 157.048 101.268 157.048C104.544 157.048 107.12 158.392 107.12 162.396V172H103.788V170.208C102.836 171.468 101.548 172.28 99.3084 172.28ZM100.12 169.844C102.192 169.844 103.732 168.752 103.732 166.876V165.42H101.996C99.4204 165.42 97.7684 166.008 97.7684 167.8C97.7684 169.032 98.4404 169.844 100.12 169.844ZM110.248 172V150.58H113.636V172H110.248ZM118.661 154.948C117.541 154.948 116.645 154.108 116.645 153.016C116.645 151.896 117.541 151.056 118.661 151.056C119.781 151.056 120.677 151.896 120.677 153.016C120.677 154.108 119.781 154.948 118.661 154.948ZM117.009 172V157.356H120.397V172H117.009ZM129.175 172.28C125.507 172.28 122.735 169.676 122.735 164.916V164.692C122.735 160.016 125.507 157.048 129.315 157.048C131.695 157.048 133.179 158.14 133.991 159.596V150.58H137.379V172H133.991V169.536C133.207 170.992 131.331 172.28 129.175 172.28ZM130.015 169.592C132.367 169.592 134.103 168.024 134.103 164.748V164.524C134.103 161.304 132.619 159.708 130.155 159.708C127.663 159.708 126.207 161.444 126.207 164.608V164.832C126.207 168.052 127.831 169.592 130.015 169.592ZM144.402 172.28C141.714 172.28 139.502 170.992 139.502 167.94C139.502 164.524 142.806 163.292 147.006 163.292H148.826V162.536C148.826 160.576 148.154 159.596 146.166 159.596C144.402 159.596 143.534 160.436 143.366 161.892H140.09C140.37 158.476 143.086 157.048 146.362 157.048C149.638 157.048 152.214 158.392 152.214 162.396V172H148.882V170.208C147.93 171.468 146.642 172.28 144.402 172.28ZM145.214 169.844C147.286 169.844 148.826 168.752 148.826 166.876V165.42H147.09C144.514 165.42 142.862 166.008 142.862 167.8C142.862 169.032 143.534 169.844 145.214 169.844ZM160.745 172.28C157.077 172.28 154.305 169.676 154.305 164.916V164.692C154.305 160.016 157.077 157.048 160.885 157.048C163.265 157.048 164.749 158.14 165.561 159.596V150.58H168.949V172H165.561V169.536C164.777 170.992 162.901 172.28 160.745 172.28ZM161.585 169.592C163.937 169.592 165.673 168.024 165.673 164.748V164.524C165.673 161.304 164.189 159.708 161.725 159.708C159.233 159.708 157.777 161.444 157.777 164.608V164.832C157.777 168.052 159.401 169.592 161.585 169.592ZM178.576 172.28C174.264 172.28 171.156 169.452 171.156 164.832V164.608C171.156 160.072 174.264 157.048 178.436 157.048C182.076 157.048 185.352 159.204 185.352 164.44V165.42H174.628C174.74 168.192 176.14 169.76 178.66 169.76C180.704 169.76 181.768 168.948 182.02 167.52H185.296C184.82 170.6 182.328 172.28 178.576 172.28ZM174.684 163.152H181.992C181.824 160.632 180.536 159.512 178.436 159.512C176.392 159.512 175.02 160.884 174.684 163.152ZM190.066 165.98V164.916C190.066 162.704 191.55 161.332 192.894 160.016C193.93 158.98 194.854 158.056 194.854 156.852C194.854 155.424 194.07 154.5 192.362 154.5C190.626 154.5 189.422 155.732 189.226 157.664H185.978C186.174 153.996 188.778 151.7 192.53 151.7C196.534 151.7 198.41 153.884 198.41 156.6C198.41 158.588 197.206 159.876 195.946 161.108C194.63 162.368 193.286 163.516 193.202 165.084V165.98H190.066ZM191.606 172.196C190.346 172.196 189.31 171.244 189.31 170.04C189.31 168.808 190.346 167.856 191.606 167.856C192.838 167.856 193.846 168.808 193.846 170.04C193.846 171.244 192.838 172.196 191.606 172.196Z" fill="black" fill-opacity="0.96"/>
<path d="M24.648 205L29.076 192.13H31.128L35.484 205H33.936L32.676 201.292H27.366L26.124 205H24.648ZM30.03 193.426L27.798 200.05H32.262L30.03 193.426ZM37.4969 205V191.086H39.0089V205H37.4969ZM44.7484 205.126C43.0384 205.126 42.2104 204.118 42.2104 202.642V196.846H40.8604V195.586H42.2104V193.444H43.7044V195.586H45.9004V196.846H43.7044V202.498C43.7044 203.416 44.1184 203.866 44.8744 203.866C45.3424 203.866 45.7024 203.794 46.0264 203.668V204.928C45.7204 205.036 45.3604 205.126 44.7484 205.126ZM51.9568 205.162C49.2928 205.162 47.4028 203.29 47.4028 200.392V200.248C47.4028 197.404 49.2208 195.424 51.8128 195.424C53.9908 195.424 56.0428 196.738 56.0428 200.104V200.59H48.9508C49.0228 202.732 50.0488 203.92 51.9748 203.92C53.4328 203.92 54.2788 203.38 54.4768 202.282H55.9708C55.6468 204.172 54.0808 205.162 51.9568 205.162ZM49.0048 199.384H54.5128C54.3688 197.44 53.3608 196.666 51.8128 196.666C50.2828 196.666 49.2568 197.71 49.0048 199.384ZM58.1553 205V195.586H59.6493V197.278C60.2433 196.216 61.0533 195.478 62.7453 195.424V196.828C60.8553 196.918 59.6493 197.512 59.6493 199.834V205H58.1553ZM68.3312 205.162C65.6672 205.162 63.7772 203.29 63.7772 200.392V200.248C63.7772 197.404 65.5952 195.424 68.1872 195.424C70.3652 195.424 72.4172 196.738 72.4172 200.104V200.59H65.3252C65.3972 202.732 66.4232 203.92 68.3492 203.92C69.8072 203.92 70.6532 203.38 70.8512 202.282H72.3452C72.0212 204.172 70.4552 205.162 68.3312 205.162ZM65.3792 199.384H70.8872C70.7432 197.44 69.7352 196.666 68.1872 196.666C66.6572 196.666 65.6312 197.71 65.3792 199.384ZM81.4713 205.162C79.7253 205.162 78.3393 204.316 78.3393 202.39C78.3393 200.212 80.6433 199.474 83.0553 199.474H84.4053V198.79C84.4053 197.296 83.8293 196.666 82.3893 196.666C81.0933 196.666 80.3733 197.206 80.2293 198.358H78.7353C78.9333 196.216 80.6433 195.424 82.4613 195.424C84.2613 195.424 85.8993 196.162 85.8993 198.79V205H84.4053V203.812C83.7033 204.694 82.8573 205.162 81.4713 205.162ZM81.6153 203.974C83.1993 203.974 84.4053 203.164 84.4053 201.706V200.536H83.1093C81.2193 200.536 79.8333 201.004 79.8333 202.39C79.8333 203.362 80.3013 203.974 81.6153 203.974ZM93.5617 205V196.846H92.2117V195.586H93.5617V194.056C93.5617 192.148 94.4977 191.032 96.3697 191.032C96.8557 191.032 97.1077 191.086 97.4857 191.212V192.472C97.2157 192.364 96.8377 192.274 96.4237 192.274C95.4517 192.274 95.0557 192.94 95.0557 193.894V195.586H97.3597V196.846H95.0557V205H93.5617ZM102.729 205.162C100.047 205.162 98.1213 203.128 98.1213 200.374V200.23C98.1213 197.404 100.083 195.424 102.747 195.424C105.411 195.424 107.373 197.386 107.373 200.212V200.356C107.373 203.2 105.411 205.162 102.729 205.162ZM102.747 203.92C104.637 203.92 105.825 202.498 105.825 200.374V200.248C105.825 198.07 104.619 196.666 102.747 196.666C100.857 196.666 99.6693 198.07 99.6693 200.23V200.374C99.6693 202.516 100.839 203.92 102.747 203.92ZM109.507 205V195.586H111.001V197.278C111.595 196.216 112.405 195.478 114.097 195.424V196.828C112.207 196.918 111.001 197.512 111.001 199.834V205H109.507ZM116.094 205V195.586H117.588V197.026C118.02 196.144 119.046 195.424 120.396 195.424C121.602 195.424 122.664 195.928 123.15 197.188C123.798 195.964 125.202 195.424 126.372 195.424C128.064 195.424 129.54 196.432 129.54 199.168V205H128.046V199.06C128.046 197.404 127.344 196.72 126.048 196.72C124.824 196.72 123.564 197.548 123.564 199.24V205H122.07V199.06C122.07 197.404 121.368 196.72 120.072 196.72C118.848 196.72 117.588 197.548 117.588 199.24V205H116.094ZM134.655 205.162C132.909 205.162 131.523 204.316 131.523 202.39C131.523 200.212 133.827 199.474 136.239 199.474H137.589V198.79C137.589 197.296 137.013 196.666 135.573 196.666C134.277 196.666 133.557 197.206 133.413 198.358H131.919C132.117 196.216 133.827 195.424 135.645 195.424C137.445 195.424 139.083 196.162 139.083 198.79V205H137.589V203.812C136.887 204.694 136.041 205.162 134.655 205.162ZM134.799 203.974C136.383 203.974 137.589 203.164 137.589 201.706V200.536H136.293C134.403 200.536 133.017 201.004 133.017 202.39C133.017 203.362 133.485 203.974 134.799 203.974ZM149.967 205.162C147.501 205.162 145.719 203.416 145.719 200.482V200.338C145.719 197.458 147.519 195.424 150.111 195.424C151.677 195.424 152.649 196.18 153.189 197.098V191.086H154.683V205H153.189V203.38C152.649 204.298 151.335 205.162 149.967 205.162ZM150.129 203.92C151.875 203.92 153.243 202.768 153.243 200.356V200.212C153.243 197.8 152.091 196.666 150.255 196.666C148.383 196.666 147.267 197.98 147.267 200.266V200.41C147.267 202.786 148.545 203.92 150.129 203.92ZM161.379 205.162C158.715 205.162 156.825 203.29 156.825 200.392V200.248C156.825 197.404 158.643 195.424 161.235 195.424C163.413 195.424 165.465 196.738 165.465 200.104V200.59H158.373C158.445 202.732 159.471 203.92 161.397 203.92C162.855 203.92 163.701 203.38 163.899 202.282H165.393C165.069 204.172 163.503 205.162 161.379 205.162ZM158.427 199.384H163.935C163.791 197.44 162.783 196.666 161.235 196.666C159.705 196.666 158.679 197.71 158.427 199.384ZM172.161 208.276V195.586H173.655V197.17C174.195 196.252 175.473 195.424 176.841 195.424C179.307 195.424 181.125 197.224 181.125 200.158V200.302C181.125 203.182 179.433 205.162 176.841 205.162C175.293 205.162 174.195 204.388 173.655 203.452V208.276H172.161ZM176.697 203.92C178.569 203.92 179.577 202.66 179.577 200.374V200.23C179.577 197.854 178.263 196.666 176.679 196.666C174.933 196.666 173.601 197.818 173.601 200.23V200.374C173.601 202.786 174.861 203.92 176.697 203.92ZM185.624 205.162C183.878 205.162 182.492 204.316 182.492 202.39C182.492 200.212 184.796 199.474 187.208 199.474H188.558V198.79C188.558 197.296 187.982 196.666 186.542 196.666C185.246 196.666 184.526 197.206 184.382 198.358H182.888C183.086 196.216 184.796 195.424 186.614 195.424C188.414 195.424 190.052 196.162 190.052 198.79V205H188.558V203.812C187.856 204.694 187.01 205.162 185.624 205.162ZM185.768 203.974C187.352 203.974 188.558 203.164 188.558 201.706V200.536H187.262C185.372 200.536 183.986 201.004 183.986 202.39C183.986 203.362 184.454 203.974 185.768 203.974ZM196.569 208.438C193.779 208.438 192.555 207.124 192.303 205.54H193.833C194.049 206.62 194.949 207.178 196.551 207.178C198.405 207.178 199.575 206.296 199.575 204.28V202.912C199.035 203.83 197.757 204.694 196.389 204.694C193.923 204.694 192.105 202.822 192.105 200.23V200.104C192.105 197.548 193.905 195.424 196.497 195.424C198.063 195.424 199.035 196.18 199.575 197.098V195.586H201.069V204.37C201.051 207.106 199.197 208.438 196.569 208.438ZM196.551 203.452C198.297 203.452 199.629 202.228 199.629 200.122V199.996C199.629 197.89 198.477 196.666 196.641 196.666C194.769 196.666 193.653 198.052 193.653 200.032V200.176C193.653 202.228 194.967 203.452 196.551 203.452ZM206.27 205.162C204.524 205.162 203.138 204.316 203.138 202.39C203.138 200.212 205.442 199.474 207.854 199.474H209.204V198.79C209.204 197.296 208.628 196.666 207.188 196.666C205.892 196.666 205.172 197.206 205.028 198.358H203.534C203.732 196.216 205.442 195.424 207.26 195.424C209.06 195.424 210.698 196.162 210.698 198.79V205H209.204V203.812C208.502 204.694 207.656 205.162 206.27 205.162ZM206.414 203.974C207.998 203.974 209.204 203.164 209.204 201.706V200.536H207.908C206.018 200.536 204.632 201.004 204.632 202.39C204.632 203.362 205.1 203.974 206.414 203.974ZM213.452 205V195.586H214.946V197.026C215.378 196.144 216.404 195.424 217.754 195.424C218.96 195.424 220.022 195.928 220.508 197.188C221.156 195.964 222.56 195.424 223.73 195.424C225.422 195.424 226.898 196.432 226.898 199.168V205H225.404V199.06C225.404 197.404 224.702 196.72 223.406 196.72C222.182 196.72 220.922 197.548 220.922 199.24V205H219.428V199.06C219.428 197.404 218.726 196.72 217.43 196.72C216.206 196.72 214.946 197.548 214.946 199.24V205H213.452ZM233.507 205.162C230.843 205.162 228.953 203.29 228.953 200.392V200.248C228.953 197.404 230.771 195.424 233.363 195.424C235.541 195.424 237.593 196.738 237.593 200.104V200.59H230.501C230.573 202.732 231.599 203.92 233.525 203.92C234.983 203.92 235.829 203.38 236.027 202.282H237.521C237.197 204.172 235.631 205.162 233.507 205.162ZM230.555 199.384H236.063C235.919 197.44 234.911 196.666 233.363 196.666C231.833 196.666 230.807 197.71 230.555 199.384ZM239.706 205V195.586H241.2V197.08C241.632 196.198 242.676 195.424 244.224 195.424C246.168 195.424 247.536 196.486 247.536 199.222V205H246.042V199.114C246.042 197.458 245.34 196.72 243.828 196.72C242.442 196.72 241.2 197.602 241.2 199.294V205H239.706ZM253.145 205.126C251.435 205.126 250.607 204.118 250.607 202.642V196.846H249.257V195.586H250.607V193.444H252.101V195.586H254.297V196.846H252.101V202.498C252.101 203.416 252.515 203.866 253.271 203.866C253.739 203.866 254.099 203.794 254.423 203.668V204.928C254.117 205.036 253.757 205.126 253.145 205.126ZM260.408 205.162C257.726 205.162 255.8 203.128 255.8 200.374V200.23C255.8 197.404 257.762 195.424 260.426 195.424C263.09 195.424 265.052 197.386 265.052 200.212V200.356C265.052 203.2 263.09 205.162 260.408 205.162ZM260.426 203.92C262.316 203.92 263.504 202.498 263.504 200.374V200.248C263.504 198.07 262.298 196.666 260.426 196.666C258.536 196.666 257.348 198.07 257.348 200.23V200.374C257.348 202.516 258.518 203.92 260.426 203.92ZM278.537 208.276V203.38C277.997 204.298 276.683 205.162 275.315 205.162C272.849 205.162 271.067 203.416 271.067 200.482V200.338C271.067 197.458 272.867 195.424 275.459 195.424C277.025 195.424 277.997 196.18 278.537 197.098V195.586H280.031V208.276H278.537ZM275.477 203.92C277.223 203.92 278.591 202.768 278.591 200.356V200.212C278.591 197.8 277.439 196.666 275.603 196.666C273.731 196.666 272.615 197.98 272.615 200.266V200.41C272.615 202.786 273.893 203.92 275.477 203.92ZM286.06 205.162C284.188 205.162 282.784 204.136 282.784 201.544V195.586H284.278V201.472C284.278 203.128 284.98 203.866 286.456 203.866C287.788 203.866 289.048 202.984 289.048 201.292V195.586H290.542V205H289.048V203.506C288.616 204.388 287.572 205.162 286.06 205.162ZM295.74 205.162C293.994 205.162 292.608 204.316 292.608 202.39C292.608 200.212 294.912 199.474 297.324 199.474H298.674V198.79C298.674 197.296 298.098 196.666 296.658 196.666C295.362 196.666 294.642 197.206 294.498 198.358H293.004C293.202 196.216 294.912 195.424 296.73 195.424C298.53 195.424 300.168 196.162 300.168 198.79V205H298.674V203.812C297.972 204.694 297.126 205.162 295.74 205.162ZM295.884 203.974C297.468 203.974 298.674 203.164 298.674 201.706V200.536H297.378C295.488 200.536 294.102 201.004 294.102 202.39C294.102 203.362 294.57 203.974 295.884 203.974ZM302.922 205V195.586H304.416V197.08C304.848 196.198 305.892 195.424 307.44 195.424C309.384 195.424 310.752 196.486 310.752 199.222V205H309.258V199.114C309.258 197.458 308.556 196.72 307.044 196.72C305.658 196.72 304.416 197.602 304.416 199.294V205H302.922ZM317.046 205.162C314.58 205.162 312.798 203.416 312.798 200.482V200.338C312.798 197.458 314.598 195.424 317.19 195.424C318.756 195.424 319.728 196.18 320.268 197.098V191.086H321.762V205H320.268V203.38C319.728 204.298 318.414 205.162 317.046 205.162ZM317.208 203.92C318.954 203.92 320.322 202.768 320.322 200.356V200.212C320.322 197.8 319.17 196.666 317.334 196.666C315.462 196.666 314.346 197.98 314.346 200.266V200.41C314.346 202.786 315.624 203.92 317.208 203.92ZM328.511 205.162C325.829 205.162 323.903 203.128 323.903 200.374V200.23C323.903 197.404 325.865 195.424 328.529 195.424C331.193 195.424 333.155 197.386 333.155 200.212V200.356C333.155 203.2 331.193 205.162 328.511 205.162ZM328.529 203.92C330.419 203.92 331.607 202.498 331.607 200.374V200.248C331.607 198.07 330.401 196.666 328.529 196.666C326.639 196.666 325.451 198.07 325.451 200.23V200.374C325.451 202.516 326.621 203.92 328.529 203.92ZM32.28 231.276V226.38C31.74 227.298 30.426 228.162 29.058 228.162C26.592 228.162 24.81 226.416 24.81 223.482V223.338C24.81 220.458 26.61 218.424 29.202 218.424C30.768 218.424 31.74 219.18 32.28 220.098V218.586H33.774V231.276H32.28ZM29.22 226.92C30.966 226.92 32.334 225.768 32.334 223.356V223.212C32.334 220.8 31.182 219.666 29.346 219.666C27.474 219.666 26.358 220.98 26.358 223.266V223.41C26.358 225.786 27.636 226.92 29.22 226.92ZM39.8032 228.162C37.9312 228.162 36.5272 227.136 36.5272 224.544V218.586H38.0212V224.472C38.0212 226.128 38.7232 226.866 40.1992 226.866C41.5312 226.866 42.7912 225.984 42.7912 224.292V218.586H44.2852V228H42.7912V226.506C42.3592 227.388 41.3152 228.162 39.8032 228.162ZM47.8807 216.624C47.3407 216.624 46.8907 216.174 46.8907 215.634C46.8907 215.094 47.3407 214.644 47.8807 214.644C48.4207 214.644 48.8707 215.094 48.8707 215.634C48.8707 216.174 48.4207 216.624 47.8807 216.624ZM47.1607 228V218.586H48.6547V228H47.1607ZM54.4485 228.162C52.1985 228.162 50.8485 227.028 50.7585 225.102H52.2165C52.3245 226.218 52.9185 226.92 54.4305 226.92C55.8525 226.92 56.4825 226.434 56.4825 225.426C56.4825 224.436 55.7445 224.112 54.2865 223.842C51.8385 223.392 51.0105 222.708 51.0105 221.07C51.0105 219.324 52.7205 218.424 54.1965 218.424C55.8885 218.424 57.3465 219.108 57.5985 221.142H56.1585C55.9425 220.116 55.3665 219.666 54.1785 219.666C53.0985 219.666 52.3965 220.206 52.3965 221.016C52.3965 221.862 52.8645 222.204 54.5925 222.51C56.5365 222.87 57.9045 223.302 57.9045 225.3C57.9045 227.01 56.7345 228.162 54.4485 228.162ZM63.853 228.162C61.189 228.162 59.299 226.29 59.299 223.392V223.248C59.299 220.404 61.117 218.424 63.709 218.424C65.887 218.424 67.939 219.738 67.939 223.104V223.59H60.847C60.919 225.732 61.945 226.92 63.871 226.92C65.329 226.92 66.175 226.38 66.373 225.282H67.867C67.543 227.172 65.977 228.162 63.853 228.162ZM60.901 222.384H66.409C66.265 220.44 65.257 219.666 63.709 219.666C62.179 219.666 61.153 220.71 60.901 222.384ZM70.0515 228V218.586H71.5455V220.278C72.1395 219.216 72.9495 218.478 74.6415 218.424V219.828C72.7515 219.918 71.5455 220.512 71.5455 222.834V228H70.0515ZM75.4768 229.782V228.918C76.2508 228.81 76.5928 228.504 76.5928 227.946C75.9088 227.946 75.4408 227.568 75.4408 226.866C75.4408 226.254 75.9628 225.786 76.5568 225.786C77.2408 225.786 77.7448 226.272 77.7448 227.1V227.442C77.7448 229.026 76.7368 229.71 75.4768 229.782ZM88.5965 228.162C86.1305 228.162 84.3485 226.416 84.3485 223.482V223.338C84.3485 220.458 86.1485 218.424 88.7405 218.424C90.3065 218.424 91.2785 219.18 91.8185 220.098V214.086H93.3125V228H91.8185V226.38C91.2785 227.298 89.9645 228.162 88.5965 228.162ZM88.7585 226.92C90.5045 226.92 91.8725 225.768 91.8725 223.356V223.212C91.8725 220.8 90.7205 219.666 88.8845 219.666C87.0125 219.666 85.8965 220.98 85.8965 223.266V223.41C85.8965 225.786 87.1745 226.92 88.7585 226.92ZM96.9117 216.624C96.3717 216.624 95.9217 216.174 95.9217 215.634C95.9217 215.094 96.3717 214.644 96.9117 214.644C97.4517 214.644 97.9017 215.094 97.9017 215.634C97.9017 216.174 97.4517 216.624 96.9117 216.624ZM96.1917 228V218.586H97.6857V228H96.1917ZM100.564 228V218.586H102.058V220.278C102.652 219.216 103.462 218.478 105.154 218.424V219.828C103.264 219.918 102.058 220.512 102.058 222.834V228H100.564ZM110.739 228.162C108.075 228.162 106.185 226.29 106.185 223.392V223.248C106.185 220.404 108.003 218.424 110.595 218.424C112.773 218.424 114.825 219.738 114.825 223.104V223.59H107.733C107.805 225.732 108.831 226.92 110.757 226.92C112.215 226.92 113.061 226.38 113.259 225.282H114.753C114.429 227.172 112.863 228.162 110.739 228.162ZM107.787 222.384H113.295C113.151 220.44 112.143 219.666 110.595 219.666C109.065 219.666 108.039 220.71 107.787 222.384ZM119.8 228.126C118.09 228.126 117.262 227.118 117.262 225.642V219.846H115.912V218.586H117.262V216.444H118.756V218.586H120.952V219.846H118.756V225.498C118.756 226.416 119.17 226.866 119.926 226.866C120.394 226.866 120.754 226.794 121.078 226.668V227.928C120.772 228.036 120.412 228.126 119.8 228.126ZM127.062 228.162C124.38 228.162 122.454 226.128 122.454 223.374V223.23C122.454 220.404 124.416 218.424 127.08 218.424C129.744 218.424 131.706 220.386 131.706 223.212V223.356C131.706 226.2 129.744 228.162 127.062 228.162ZM127.08 226.92C128.97 226.92 130.158 225.498 130.158 223.374V223.248C130.158 221.07 128.952 219.666 127.08 219.666C125.19 219.666 124.002 221.07 124.002 223.23V223.374C124.002 225.516 125.172 226.92 127.08 226.92ZM138.423 228V218.586H139.917V220.08C140.349 219.198 141.393 218.424 142.941 218.424C144.885 218.424 146.253 219.486 146.253 222.222V228H144.759V222.114C144.759 220.458 144.057 219.72 142.545 219.72C141.159 219.72 139.917 220.602 139.917 222.294V228H138.423ZM152.907 228.162C150.225 228.162 148.299 226.128 148.299 223.374V223.23C148.299 220.404 150.261 218.424 152.925 218.424C155.589 218.424 157.551 220.386 157.551 223.212V223.356C157.551 226.2 155.589 228.162 152.907 228.162ZM152.925 226.92C154.815 226.92 156.003 225.498 156.003 223.374V223.248C156.003 221.07 154.797 219.666 152.925 219.666C151.035 219.666 149.847 221.07 149.847 223.23V223.374C149.847 225.516 151.017 226.92 152.925 226.92ZM166.626 228.162C164.88 228.162 163.494 227.316 163.494 225.39C163.494 223.212 165.798 222.474 168.21 222.474H169.56V221.79C169.56 220.296 168.984 219.666 167.544 219.666C166.248 219.666 165.528 220.206 165.384 221.358H163.89C164.088 219.216 165.798 218.424 167.616 218.424C169.416 218.424 171.054 219.162 171.054 221.79V228H169.56V226.812C168.858 227.694 168.012 228.162 166.626 228.162ZM166.77 226.974C168.354 226.974 169.56 226.164 169.56 224.706V223.536H168.264C166.374 223.536 164.988 224.004 164.988 225.39C164.988 226.362 165.456 226.974 166.77 226.974ZM173.809 231.276V218.586H175.303V220.17C175.843 219.252 177.121 218.424 178.489 218.424C180.955 218.424 182.773 220.224 182.773 223.158V223.302C182.773 226.182 181.081 228.162 178.489 228.162C176.941 228.162 175.843 227.388 175.303 226.452V231.276H173.809ZM178.345 226.92C180.217 226.92 181.225 225.66 181.225 223.374V223.23C181.225 220.854 179.911 219.666 178.327 219.666C176.581 219.666 175.249 220.818 175.249 223.23V223.374C175.249 225.786 176.509 226.92 178.345 226.92ZM184.914 231.276V218.586H186.408V220.17C186.948 219.252 188.226 218.424 189.594 218.424C192.06 218.424 193.878 220.224 193.878 223.158V223.302C193.878 226.182 192.186 228.162 189.594 228.162C188.046 228.162 186.948 227.388 186.408 226.452V231.276H184.914ZM189.45 226.92C191.322 226.92 192.33 225.66 192.33 223.374V223.23C192.33 220.854 191.016 219.666 189.432 219.666C187.686 219.666 186.354 220.818 186.354 223.23V223.374C186.354 225.786 187.614 226.92 189.45 226.92ZM196.694 228.09C196.064 228.09 195.542 227.586 195.542 226.938C195.542 226.29 196.064 225.786 196.694 225.786C197.324 225.786 197.846 226.29 197.846 226.938C197.846 227.586 197.324 228.09 196.694 228.09Z" fill="black" fill-opacity="0.64"/>
<rect width="375" height="56" transform="translate(0 258)" fill="white"/>
<rect width="375" height="1" transform="translate(0 313)" fill="#EFEFEF"/>
<path d="M38 284L38 281L36 281L36 284H38Z" fill="black" fill-opacity="0.96"/>
<path d="M40 276L32 276C29.7909 276 28 277.791 28 280L28 292C28 294.209 29.7909 296 32 296H40C42.2091 296 44 294.209 44 292V280C44 277.791 42.2091 276 40 276ZM42 280L42 292C42 293.105 41.1046 294 40 294H32C30.8954 294 30 293.105 30 292L30 280C30 278.895 30.8954 278 32 278L40 278C41.1046 278 42 278.895 42 280Z" fill="black" fill-opacity="0.96"/>
<path d="M70.224 290.644C66.912 290.644 64.88 288.372 64.88 284.852V284.724C64.88 281.332 67.152 278.884 70.256 278.884C72.64 278.884 74.656 280.148 74.896 282.628H73.52C73.232 280.884 72.224 279.988 70.272 279.988C67.904 279.988 66.32 281.828 66.32 284.708V284.836C66.32 287.748 67.792 289.508 70.256 289.508C72.128 289.508 73.424 288.564 73.712 286.708H75.008C74.608 289.348 72.784 290.644 70.224 290.644ZM79.1238 290.644C77.5718 290.644 76.3398 289.892 76.3398 288.18C76.3398 286.244 78.3878 285.588 80.5318 285.588H81.7318V284.98C81.7318 283.652 81.2198 283.092 79.9398 283.092C78.7878 283.092 78.1478 283.572 78.0198 284.596H76.6918C76.8678 282.692 78.3878 281.988 80.0038 281.988C81.6038 281.988 83.0598 282.644 83.0598 284.98V290.5H81.7318V289.444C81.1078 290.228 80.3558 290.644 79.1238 290.644ZM79.2518 289.588C80.6598 289.588 81.7318 288.868 81.7318 287.572V286.532H80.5798C78.8998 286.532 77.6678 286.948 77.6678 288.18C77.6678 289.044 78.0838 289.588 79.2518 289.588ZM85.5084 290.5V282.132H86.8364V283.636C87.3644 282.692 88.0844 282.036 89.5884 281.988V283.236C87.9084 283.316 86.8364 283.844 86.8364 285.908V290.5H85.5084ZM93.9861 290.612C92.4661 290.612 91.7301 289.716 91.7301 288.404V283.252H90.5301V282.132H91.7301V280.228H93.0581V282.132H95.0101V283.252H93.0581V288.276C93.0581 289.092 93.4261 289.492 94.0981 289.492C94.5141 289.492 94.8341 289.428 95.1221 289.316V290.436C94.8501 290.532 94.5301 290.612 93.9861 290.612ZM100.904 280.596C100.216 280.596 99.6398 279.908 99.1758 279.908C98.8718 279.908 98.6158 280.212 98.5358 280.628H97.5758C97.7038 279.492 98.3598 278.772 99.1918 278.772C99.8638 278.772 100.44 279.46 100.904 279.46C101.208 279.46 101.464 279.156 101.544 278.74H102.504C102.376 279.876 101.72 280.596 100.904 280.596ZM99.1438 290.644C97.5918 290.644 96.3598 289.892 96.3598 288.18C96.3598 286.244 98.4078 285.588 100.552 285.588H101.752V284.98C101.752 283.652 101.24 283.092 99.9598 283.092C98.8078 283.092 98.1678 283.572 98.0398 284.596H96.7118C96.8878 282.692 98.4078 281.988 100.024 281.988C101.624 281.988 103.08 282.644 103.08 284.98V290.5H101.752V289.444C101.128 290.228 100.376 290.644 99.1438 290.644ZM99.2718 289.588C100.68 289.588 101.752 288.868 101.752 287.572V286.532H100.6C98.9198 286.532 97.6878 286.948 97.6878 288.18C97.6878 289.044 98.1038 289.588 99.2718 289.588ZM109 290.644C106.616 290.644 104.904 288.836 104.904 286.388V286.26C104.904 283.748 106.648 281.988 109.016 281.988C111.384 281.988 113.128 283.732 113.128 286.244V286.372C113.128 288.9 111.384 290.644 109 290.644ZM109.016 289.54C110.696 289.54 111.752 288.276 111.752 286.388V286.276C111.752 284.34 110.68 283.092 109.016 283.092C107.336 283.092 106.28 284.34 106.28 286.26V286.388C106.28 288.292 107.32 289.54 109.016 289.54ZM122.251 290.644C120.059 290.644 118.475 289.092 118.475 286.484V286.356C118.475 283.796 120.075 281.988 122.379 281.988C123.771 281.988 124.635 282.66 125.115 283.476V278.132H126.443V290.5H125.115V289.06C124.635 289.876 123.467 290.644 122.251 290.644ZM122.395 289.54C123.947 289.54 125.163 288.516 125.163 286.372V286.244C125.163 284.1 124.139 283.092 122.507 283.092C120.843 283.092 119.851 284.26 119.851 286.292V286.42C119.851 288.532 120.987 289.54 122.395 289.54ZM132.394 290.644C130.026 290.644 128.346 288.98 128.346 286.404V286.276C128.346 283.748 129.962 281.988 132.266 281.988C134.202 281.988 136.026 283.156 136.026 286.148V286.58H129.722C129.786 288.484 130.698 289.54 132.41 289.54C133.706 289.54 134.458 289.06 134.634 288.084H135.962C135.674 289.764 134.282 290.644 132.394 290.644ZM129.77 285.508H134.666C134.538 283.78 133.642 283.092 132.266 283.092C130.906 283.092 129.994 284.02 129.77 285.508ZM145.45 290.644C143.114 290.644 141.354 288.996 141.354 286.404V286.276C141.354 283.716 143.178 281.988 145.418 281.988C147.162 281.988 148.794 282.788 149.05 284.916H147.738C147.53 283.588 146.57 283.092 145.418 283.092C143.898 283.092 142.73 284.308 142.73 286.276V286.404C142.73 288.452 143.85 289.54 145.466 289.54C146.65 289.54 147.722 288.852 147.866 287.492H149.098C148.922 289.3 147.466 290.644 145.45 290.644ZM150.943 290.5V282.132H152.271V283.636C152.799 282.692 153.519 282.036 155.023 281.988V283.236C153.343 283.316 152.271 283.844 152.271 285.908V290.5H150.943ZM159.269 280.692L160.261 278.34H161.925L160.261 280.692H159.269ZM159.989 290.644C157.621 290.644 155.941 288.98 155.941 286.404V286.276C155.941 283.748 157.557 281.988 159.861 281.988C161.797 281.988 163.621 283.156 163.621 286.148V286.58H157.317C157.381 288.484 158.293 289.54 160.005 289.54C161.301 289.54 162.053 289.06 162.229 288.084H163.557C163.269 289.764 161.877 290.644 159.989 290.644ZM157.365 285.508H162.261C162.133 283.78 161.237 283.092 159.861 283.092C158.501 283.092 157.589 284.02 157.365 285.508ZM168.65 290.644C166.458 290.644 164.874 289.092 164.874 286.484V286.356C164.874 283.796 166.474 281.988 168.778 281.988C170.17 281.988 171.034 282.66 171.514 283.476V278.132H172.842V290.5H171.514V289.06C171.034 289.876 169.866 290.644 168.65 290.644ZM168.794 289.54C170.346 289.54 171.562 288.516 171.562 286.372V286.244C171.562 284.1 170.538 283.092 168.906 283.092C167.242 283.092 166.25 284.26 166.25 286.292V286.42C166.25 288.532 167.386 289.54 168.794 289.54ZM176.042 280.388C175.562 280.388 175.162 279.988 175.162 279.508C175.162 279.028 175.562 278.628 176.042 278.628C176.522 278.628 176.922 279.028 176.922 279.508C176.922 279.988 176.522 280.388 176.042 280.388ZM175.402 290.5V282.132H176.73V290.5H175.402ZM181.832 290.612C180.312 290.612 179.576 289.716 179.576 288.404V283.252H178.376V282.132H179.576V280.228H180.904V282.132H182.856V283.252H180.904V288.276C180.904 289.092 181.272 289.492 181.944 289.492C182.36 289.492 182.68 289.428 182.968 289.316V290.436C182.696 290.532 182.376 290.612 181.832 290.612ZM188.287 290.644C185.903 290.644 184.191 288.836 184.191 286.388V286.26C184.191 283.748 185.935 281.988 188.303 281.988C190.671 281.988 192.415 283.732 192.415 286.244V286.372C192.415 288.9 190.671 290.644 188.287 290.644ZM188.303 289.54C189.983 289.54 191.039 288.276 191.039 286.388V286.276C191.039 284.34 189.967 283.092 188.303 283.092C186.623 283.092 185.567 284.34 185.567 286.26V286.388C185.567 288.292 186.607 289.54 188.303 289.54ZM198.482 290.5V279.06H200.29L205.858 288.516V279.06H207.186V290.5H205.586L199.81 280.692V290.5H198.482ZM212.636 290.644C210.972 290.644 209.724 289.732 209.724 287.428V282.132H211.052V287.364C211.052 288.836 211.676 289.492 212.988 289.492C214.172 289.492 215.292 288.708 215.292 287.204V282.132H216.62V290.5H215.292V289.172C214.908 289.956 213.98 290.644 212.636 290.644ZM223.314 290.5V279.06H229.986V280.196H224.706V284.084H228.962V285.22H224.706V289.364H230.274V290.5H223.314ZM232.121 290.5V282.132H233.449V283.412C233.833 282.628 234.745 281.988 235.945 281.988C237.017 281.988 237.961 282.436 238.393 283.556C238.969 282.468 240.217 281.988 241.257 281.988C242.761 281.988 244.073 282.884 244.073 285.316V290.5H242.745V285.22C242.745 283.748 242.121 283.14 240.969 283.14C239.881 283.14 238.761 283.876 238.761 285.38V290.5H237.433V285.22C237.433 283.748 236.809 283.14 235.657 283.14C234.569 283.14 233.449 283.876 233.449 285.38V290.5H232.121ZM246.523 293.412V282.132H247.851V283.54C248.331 282.724 249.467 281.988 250.683 281.988C252.875 281.988 254.491 283.588 254.491 286.196V286.324C254.491 288.884 252.987 290.644 250.683 290.644C249.307 290.644 248.331 289.956 247.851 289.124V293.412H246.523ZM250.555 289.54C252.219 289.54 253.115 288.42 253.115 286.388V286.26C253.115 284.148 251.947 283.092 250.539 283.092C248.987 283.092 247.803 284.116 247.803 286.26V286.388C247.803 288.532 248.923 289.54 250.555 289.54ZM256.395 290.5V282.132H257.723V283.636C258.251 282.692 258.971 282.036 260.475 281.988V283.236C258.795 283.316 257.723 283.844 257.723 285.908V290.5H256.395ZM265.44 290.644C263.072 290.644 261.392 288.98 261.392 286.404V286.276C261.392 283.748 263.008 281.988 265.312 281.988C267.248 281.988 269.072 283.156 269.072 286.148V286.58H262.768C262.832 288.484 263.744 289.54 265.456 289.54C266.752 289.54 267.504 289.06 267.68 288.084H269.008C268.72 289.764 267.328 290.644 265.44 290.644ZM262.816 285.508H267.712C267.584 283.78 266.688 283.092 265.312 283.092C263.952 283.092 263.04 284.02 262.816 285.508ZM273.62 290.644C271.62 290.644 270.42 289.636 270.34 287.924H271.636C271.732 288.916 272.26 289.54 273.604 289.54C274.868 289.54 275.428 289.108 275.428 288.212C275.428 287.332 274.772 287.044 273.476 286.804C271.3 286.404 270.564 285.796 270.564 284.34C270.564 282.788 272.084 281.988 273.396 281.988C274.9 281.988 276.196 282.596 276.42 284.404H275.14C274.948 283.492 274.436 283.092 273.38 283.092C272.42 283.092 271.796 283.572 271.796 284.292C271.796 285.044 272.212 285.348 273.748 285.62C275.476 285.94 276.692 286.324 276.692 288.1C276.692 289.62 275.652 290.644 273.62 290.644ZM280.651 290.644C279.099 290.644 277.867 289.892 277.867 288.18C277.867 286.244 279.915 285.588 282.059 285.588H283.259V284.98C283.259 283.652 282.747 283.092 281.467 283.092C280.315 283.092 279.675 283.572 279.547 284.596H278.219C278.395 282.692 279.915 281.988 281.531 281.988C283.131 281.988 284.587 282.644 284.587 284.98V290.5H283.259V289.444C282.635 290.228 281.883 290.644 280.651 290.644ZM280.779 289.588C282.187 289.588 283.259 288.868 283.259 287.572V286.532H282.107C280.427 286.532 279.195 286.948 279.195 288.18C279.195 289.044 279.611 289.588 280.779 289.588ZM289.628 290.644C287.628 290.644 286.428 289.636 286.348 287.924H287.644C287.74 288.916 288.268 289.54 289.612 289.54C290.876 289.54 291.436 289.108 291.436 288.212C291.436 287.332 290.78 287.044 289.484 286.804C287.308 286.404 286.572 285.796 286.572 284.34C286.572 282.788 288.092 281.988 289.404 281.988C290.908 281.988 292.204 282.596 292.428 284.404H291.148C290.956 283.492 290.444 283.092 289.388 283.092C288.428 283.092 287.804 283.572 287.804 284.292C287.804 285.044 288.22 285.348 289.756 285.62C291.484 285.94 292.7 286.324 292.7 288.1C292.7 289.62 291.66 290.644 289.628 290.644Z" fill="black" fill-opacity="0.96"/>
<path d="M340.189 285.896L335.396 290.689L336.811 292.104L342.311 286.604C342.701 286.213 342.701 285.58 342.311 285.189L336.811 279.689L335.396 281.104L340.189 285.896Z" fill="black" fill-opacity="0.96"/>
<rect width="375" height="56" transform="translate(0 314)" fill="white"/>
<rect width="375" height="1" transform="translate(0 369)" fill="#EFEFEF"/>
<path d="M45 344V337L27 337L27 347L37 347V349H25V335H47L47 344H45Z" fill="black" fill-opacity="0.96"/>
<path d="M39 342C39 343.657 37.6569 345 36 345C34.3431 345 33 343.657 33 342C33 340.344 34.3431 339 36 339C37.6569 339 39 340.344 39 342ZM36.0273 343H36.9998V342.023L37 342L36.9998 341.978V341H34.9998V343H35.9727C35.9818 343 35.9909 343 36 343C36.0091 343 36.0182 343 36.0273 343Z" fill="black" fill-opacity="0.96"/>
<path d="M47 350.139V347.505L44 350.076V345H42L42 350.076L39 347.505V350.139L42.3493 353.01C42.7237 353.331 43.2764 353.331 43.6508 353.01L47 350.139Z" fill="black" fill-opacity="0.96"/>
<path d="M65.44 346.5V335.06H68.464C72.4 335.06 74.256 337.492 74.256 340.676V340.82C74.256 343.988 72.432 346.5 68.432 346.5H65.44ZM66.832 345.364H68.4C71.344 345.364 72.816 343.604 72.816 340.804V340.676C72.816 338.036 71.536 336.18 68.384 336.18H66.832V345.364ZM79.0286 336.692L80.0206 334.34H81.6846L80.0206 336.692H79.0286ZM79.7486 346.644C77.3806 346.644 75.7006 344.98 75.7006 342.404V342.276C75.7006 339.748 77.3166 337.988 79.6206 337.988C81.5566 337.988 83.3806 339.156 83.3806 342.148V342.58H77.0766C77.1406 344.484 78.0526 345.54 79.7646 345.54C81.0606 345.54 81.8126 345.06 81.9886 344.084H83.3166C83.0286 345.764 81.6366 346.644 79.7486 346.644ZM77.1246 341.508H82.0206C81.8926 339.78 80.9966 339.092 79.6206 339.092C78.2606 339.092 77.3486 340.02 77.1246 341.508ZM89.4184 346.644C88.0584 346.644 87.0664 345.956 86.5864 345.124V346.5H85.2584V334.132H86.5864V339.54C87.0664 338.724 88.2024 337.988 89.4184 337.988C91.6104 337.988 93.2264 339.588 93.2264 342.196V342.324C93.2264 344.884 91.7224 346.644 89.4184 346.644ZM89.2904 345.54C90.9544 345.54 91.8504 344.42 91.8504 342.388V342.26C91.8504 340.148 90.6824 339.092 89.2744 339.092C87.7224 339.092 86.5384 340.116 86.5384 342.26V342.388C86.5384 344.532 87.6584 345.54 89.2904 345.54ZM95.8016 336.388C95.3216 336.388 94.9216 335.988 94.9216 335.508C94.9216 335.028 95.3216 334.628 95.8016 334.628C96.2816 334.628 96.6816 335.028 96.6816 335.508C96.6816 335.988 96.2816 336.388 95.8016 336.388ZM95.1616 346.5V338.132H96.4896V346.5H95.1616ZM101.592 346.612C100.072 346.612 99.3358 345.716 99.3358 344.404V339.252H98.1358V338.132H99.3358V336.228H100.664V338.132H102.616V339.252H100.664V344.276C100.664 345.092 101.032 345.492 101.704 345.492C102.12 345.492 102.44 345.428 102.728 345.316V346.436C102.456 346.532 102.136 346.612 101.592 346.612ZM108.047 346.644C105.663 346.644 103.951 344.836 103.951 342.388V342.26C103.951 339.748 105.695 337.988 108.063 337.988C110.431 337.988 112.175 339.732 112.175 342.244V342.372C112.175 344.9 110.431 346.644 108.047 346.644ZM108.063 345.54C109.743 345.54 110.799 344.276 110.799 342.388V342.276C110.799 340.34 109.727 339.092 108.063 339.092C106.383 339.092 105.327 340.34 105.327 342.26V342.388C105.327 344.292 106.367 345.54 108.063 345.54ZM121.57 346.644C119.202 346.644 117.522 344.98 117.522 342.404V342.276C117.522 339.748 119.138 337.988 121.442 337.988C123.378 337.988 125.202 339.156 125.202 342.148V342.58H118.898C118.962 344.484 119.874 345.54 121.586 345.54C122.882 345.54 123.634 345.06 123.81 344.084H125.138C124.85 345.764 123.458 346.644 121.57 346.644ZM118.946 341.508H123.842C123.714 339.78 122.818 339.092 121.442 339.092C120.082 339.092 119.17 340.02 118.946 341.508ZM127.08 346.5V338.132H128.408V339.412C128.792 338.628 129.704 337.988 130.904 337.988C131.976 337.988 132.92 338.436 133.352 339.556C133.928 338.468 135.176 337.988 136.216 337.988C137.72 337.988 139.032 338.884 139.032 341.316V346.5H137.704V341.22C137.704 339.748 137.08 339.14 135.928 339.14C134.84 339.14 133.72 339.876 133.72 341.38V346.5H132.392V341.22C132.392 339.748 131.768 339.14 130.616 339.14C129.528 339.14 128.408 339.876 128.408 341.38V346.5H127.08ZM149.029 346.644C146.693 346.644 144.933 344.996 144.933 342.404V342.276C144.933 339.716 146.757 337.988 148.997 337.988C150.741 337.988 152.373 338.788 152.629 340.916H151.317C151.109 339.588 150.149 339.092 148.997 339.092C147.477 339.092 146.309 340.308 146.309 342.276V342.404C146.309 344.452 147.429 345.54 149.045 345.54C150.229 345.54 151.301 344.852 151.445 343.492H152.677C152.501 345.3 151.045 346.644 149.029 346.644ZM157.993 346.644C155.609 346.644 153.897 344.836 153.897 342.388V342.26C153.897 339.748 155.641 337.988 158.009 337.988C160.377 337.988 162.121 339.732 162.121 342.244V342.372C162.121 344.9 160.377 346.644 157.993 346.644ZM158.009 345.54C159.689 345.54 160.745 344.276 160.745 342.388V342.276C160.745 340.34 159.673 339.092 158.009 339.092C156.329 339.092 155.273 340.34 155.273 342.26V342.388C155.273 344.292 156.313 345.54 158.009 345.54ZM164.018 346.5V338.132H165.346V339.46C165.73 338.676 166.658 337.988 168.034 337.988C169.762 337.988 170.978 338.932 170.978 341.364V346.5H169.65V341.268C169.65 339.796 169.026 339.14 167.682 339.14C166.45 339.14 165.346 339.924 165.346 341.428V346.5H164.018ZM175.964 346.612C174.444 346.612 173.708 345.716 173.708 344.404V339.252H172.508V338.132H173.708V336.228H175.036V338.132H176.988V339.252H175.036V344.276C175.036 345.092 175.404 345.492 176.076 345.492C176.492 345.492 176.812 345.428 177.1 345.316V346.436C176.828 346.532 176.508 346.612 175.964 346.612ZM181.122 346.644C179.57 346.644 178.338 345.892 178.338 344.18C178.338 342.244 180.386 341.588 182.53 341.588H183.73V340.98C183.73 339.652 183.218 339.092 181.938 339.092C180.786 339.092 180.146 339.572 180.018 340.596H178.69C178.866 338.692 180.386 337.988 182.002 337.988C183.602 337.988 185.058 338.644 185.058 340.98V346.5H183.73V345.444C183.106 346.228 182.354 346.644 181.122 346.644ZM181.25 345.588C182.658 345.588 183.73 344.868 183.73 343.572V342.532H182.578C180.898 342.532 179.666 342.948 179.666 344.18C179.666 345.044 180.082 345.588 181.25 345.588Z" fill="black" fill-opacity="0.96"/>
<path d="M340.189 341.896L335.396 346.689L336.811 348.104L342.311 342.604C342.701 342.213 342.701 341.58 342.311 341.189L336.811 335.689L335.396 337.104L340.189 341.896Z" fill="black" fill-opacity="0.96"/>
<rect width="375" height="56" transform="translate(0 370)" fill="white"/>
<rect width="375" height="1" transform="translate(0 425)" fill="#EFEFEF"/>
<path d="M32 388C29.7909 388 28 389.791 28 392V404C28 406.209 29.7909 408 32 408H38V406H32C30.8954 406 30 405.105 30 404V392C30 390.895 30.8954 390 32 390H37.3431C37.5835 390 37.8194 390.043 38.0404 390.125C38.0142 390.215 38 390.312 38 390.414V393C38 393.552 38.4477 394 39 394H41.5858C41.6882 394 41.7848 393.986 41.8745 393.96C41.9567 394.181 42 394.417 42 394.657V397H44V394.657C44 393.596 43.5786 392.579 42.8284 391.828L40.1716 389.172C39.4214 388.421 38.404 388 37.3431 388H32Z" fill="black" fill-opacity="0.96"/>
<path d="M38 398H32V400H38V398Z" fill="black" fill-opacity="0.96"/>
<path d="M36 402H32V404H36V402Z" fill="black" fill-opacity="0.96"/>
<path d="M41.758 402.311C41.7942 402.13 41.9533 402 42.138 402H45.75V400H44.0003V399H42.0003V400.004C40.9216 400.066 40.011 400.849 39.7968 401.919C39.535 403.228 40.3975 404.498 41.7109 404.736L44.4324 405.231C44.6455 405.27 44.7855 405.476 44.743 405.689C44.7068 405.87 44.5477 406 44.363 406H39.75V408H42.0003V409H44.0003V408H44.363C45.5011 408 46.481 407.197 46.7042 406.081C46.966 404.772 46.1035 403.502 44.7901 403.264L42.0687 402.769C41.8555 402.73 41.7155 402.524 41.758 402.311Z" fill="black" fill-opacity="0.96"/>
<path d="M65.44 402.5V391.06H68.464C72.4 391.06 74.256 393.492 74.256 396.676V396.82C74.256 399.988 72.432 402.5 68.432 402.5H65.44ZM66.832 401.364H68.4C71.344 401.364 72.816 399.604 72.816 396.804V396.676C72.816 394.036 71.536 392.18 68.384 392.18H66.832V401.364ZM79.7486 402.644C77.3806 402.644 75.7006 400.98 75.7006 398.404V398.276C75.7006 395.748 77.3166 393.988 79.6206 393.988C81.5566 393.988 83.3806 395.156 83.3806 398.148V398.58H77.0766C77.1406 400.484 78.0526 401.54 79.7646 401.54C81.0606 401.54 81.8126 401.06 81.9886 400.084H83.3166C83.0286 401.764 81.6366 402.644 79.7486 402.644ZM77.1246 397.508H82.0206C81.8926 395.78 80.9966 395.092 79.6206 395.092C78.2606 395.092 77.3486 396.02 77.1246 397.508ZM87.9285 402.644C85.9285 402.644 84.7285 401.636 84.6485 399.924H85.9445C86.0405 400.916 86.5685 401.54 87.9125 401.54C89.1765 401.54 89.7365 401.108 89.7365 400.212C89.7365 399.332 89.0805 399.044 87.7845 398.804C85.6085 398.404 84.8725 397.796 84.8725 396.34C84.8725 394.788 86.3925 393.988 87.7045 393.988C89.2085 393.988 90.5045 394.596 90.7285 396.404H89.4485C89.2565 395.492 88.7445 395.092 87.6885 395.092C86.7285 395.092 86.1045 395.572 86.1045 396.292C86.1045 397.044 86.5205 397.348 88.0565 397.62C89.7845 397.94 91.0005 398.324 91.0005 400.1C91.0005 401.62 89.9605 402.644 87.9285 402.644ZM96.336 402.644C94 402.644 92.24 400.996 92.24 398.404V398.276C92.24 395.716 94.064 393.988 96.304 393.988C98.048 393.988 99.68 394.788 99.936 396.916H98.624C98.416 395.588 97.456 395.092 96.304 395.092C94.784 395.092 93.616 396.308 93.616 398.276V398.404C93.616 400.452 94.736 401.54 96.352 401.54C97.536 401.54 98.608 400.852 98.752 399.492H99.984C99.808 401.3 98.352 402.644 96.336 402.644ZM105.301 402.644C102.917 402.644 101.205 400.836 101.205 398.388V398.26C101.205 395.748 102.949 393.988 105.317 393.988C107.685 393.988 109.429 395.732 109.429 398.244V398.372C109.429 400.9 107.685 402.644 105.301 402.644ZM105.317 401.54C106.997 401.54 108.053 400.276 108.053 398.388V398.276C108.053 396.34 106.981 395.092 105.317 395.092C103.637 395.092 102.581 396.34 102.581 398.26V398.388C102.581 400.292 103.621 401.54 105.317 401.54ZM111.325 402.5V394.132H112.653V395.46C113.037 394.676 113.965 393.988 115.341 393.988C117.069 393.988 118.285 394.932 118.285 397.364V402.5H116.957V397.268C116.957 395.796 116.333 395.14 114.989 395.14C113.757 395.14 112.653 395.924 112.653 397.428V402.5H111.325ZM123.272 402.612C121.752 402.612 121.016 401.716 121.016 400.404V395.252H119.816V394.132H121.016V392.228H122.344V394.132H124.296V395.252H122.344V400.276C122.344 401.092 122.712 401.492 123.384 401.492C123.8 401.492 124.12 401.428 124.408 401.316V402.436C124.136 402.532 123.816 402.612 123.272 402.612ZM129.727 402.644C127.343 402.644 125.631 400.836 125.631 398.388V398.26C125.631 395.748 127.375 393.988 129.743 393.988C132.111 393.988 133.855 395.732 133.855 398.244V398.372C133.855 400.9 132.111 402.644 129.727 402.644ZM129.743 401.54C131.423 401.54 132.479 400.276 132.479 398.388V398.276C132.479 396.34 131.407 395.092 129.743 395.092C128.063 395.092 127.007 396.34 127.007 398.26V398.388C127.007 400.292 128.047 401.54 129.743 401.54ZM139.826 402.5V394.132H141.154V395.46C141.538 394.676 142.466 393.988 143.842 393.988C145.57 393.988 146.786 394.932 146.786 397.364V402.5H145.458V397.268C145.458 395.796 144.834 395.14 143.49 395.14C142.258 395.14 141.154 395.924 141.154 397.428V402.5H139.826ZM152.7 402.644C150.316 402.644 148.604 400.836 148.604 398.388V398.26C148.604 395.748 150.348 393.988 152.716 393.988C155.084 393.988 156.828 395.732 156.828 398.244V398.372C156.828 400.9 155.084 402.644 152.7 402.644ZM152.716 401.54C154.396 401.54 155.452 400.276 155.452 398.388V398.276C155.452 396.34 154.38 395.092 152.716 395.092C151.036 395.092 149.98 396.34 149.98 398.26V398.388C149.98 400.292 151.02 401.54 152.716 401.54ZM161.317 402.644C159.317 402.644 158.117 401.636 158.037 399.924H159.333C159.429 400.916 159.957 401.54 161.301 401.54C162.565 401.54 163.125 401.108 163.125 400.212C163.125 399.332 162.469 399.044 161.173 398.804C158.997 398.404 158.261 397.796 158.261 396.34C158.261 394.788 159.781 393.988 161.093 393.988C162.597 393.988 163.893 394.596 164.117 396.404H162.837C162.645 395.492 162.133 395.092 161.077 395.092C160.117 395.092 159.493 395.572 159.493 396.292C159.493 397.044 159.909 397.348 161.445 397.62C163.173 397.94 164.389 398.324 164.389 400.1C164.389 401.62 163.349 402.644 161.317 402.644ZM170.326 402.5V394.132H171.654V395.636C172.182 394.692 172.902 394.036 174.406 393.988V395.236C172.726 395.316 171.654 395.844 171.654 397.908V402.5H170.326ZM179.372 402.644C177.004 402.644 175.324 400.98 175.324 398.404V398.276C175.324 395.748 176.94 393.988 179.244 393.988C181.18 393.988 183.004 395.156 183.004 398.148V398.58H176.7C176.764 400.484 177.676 401.54 179.388 401.54C180.684 401.54 181.436 401.06 181.612 400.084H182.94C182.652 401.764 181.26 402.644 179.372 402.644ZM176.748 397.508H181.644C181.516 395.78 180.62 395.092 179.244 395.092C177.884 395.092 176.972 396.02 176.748 397.508ZM188.353 402.644C186.017 402.644 184.257 400.996 184.257 398.404V398.276C184.257 395.716 186.081 393.988 188.321 393.988C190.065 393.988 191.697 394.788 191.953 396.916H190.641C190.433 395.588 189.473 395.092 188.321 395.092C186.801 395.092 185.633 396.308 185.633 398.276V398.404C185.633 400.452 186.753 401.54 188.369 401.54C189.553 401.54 190.625 400.852 190.769 399.492H192.001C191.825 401.3 190.369 402.644 188.353 402.644ZM197.271 402.644C194.903 402.644 193.223 400.98 193.223 398.404V398.276C193.223 395.748 194.839 393.988 197.143 393.988C199.079 393.988 200.903 395.156 200.903 398.148V398.58H194.599C194.663 400.484 195.575 401.54 197.287 401.54C198.583 401.54 199.335 401.06 199.511 400.084H200.839C200.551 401.764 199.159 402.644 197.271 402.644ZM194.647 397.508H199.543C199.415 395.78 198.519 395.092 197.143 395.092C195.783 395.092 194.871 396.02 194.647 397.508ZM206.94 402.644C205.58 402.644 204.588 401.956 204.108 401.124V402.5H202.78V390.132H204.108V395.54C204.588 394.724 205.724 393.988 206.94 393.988C209.132 393.988 210.748 395.588 210.748 398.196V398.324C210.748 400.884 209.244 402.644 206.94 402.644ZM206.812 401.54C208.476 401.54 209.372 400.42 209.372 398.388V398.26C209.372 396.148 208.204 395.092 206.796 395.092C205.244 395.092 204.06 396.116 204.06 398.26V398.388C204.06 400.532 205.18 401.54 206.812 401.54ZM212.747 392.692L213.739 390.34H215.403L213.739 392.692H212.747ZM212.683 402.5V394.132H214.011V402.5H212.683ZM218.666 402.5L215.626 394.132H217.066L219.546 401.156L221.994 394.132H223.37L220.362 402.5H218.666ZM228.146 402.644C225.778 402.644 224.098 400.98 224.098 398.404V398.276C224.098 395.748 225.714 393.988 228.018 393.988C229.954 393.988 231.778 395.156 231.778 398.148V398.58H225.474C225.538 400.484 226.45 401.54 228.162 401.54C229.458 401.54 230.21 401.06 230.386 400.084H231.714C231.426 401.764 230.034 402.644 228.146 402.644ZM225.522 397.508H230.418C230.29 395.78 229.394 395.092 228.018 395.092C226.658 395.092 225.746 396.02 225.522 397.508ZM234.328 392.388C233.848 392.388 233.448 391.988 233.448 391.508C233.448 391.028 233.848 390.628 234.328 390.628C234.808 390.628 235.208 391.028 235.208 391.508C235.208 391.988 234.808 392.388 234.328 392.388ZM233.688 402.5V394.132H235.016V402.5H233.688ZM240.166 402.644C238.166 402.644 236.966 401.636 236.886 399.924H238.182C238.278 400.916 238.806 401.54 240.15 401.54C241.414 401.54 241.974 401.108 241.974 400.212C241.974 399.332 241.318 399.044 240.022 398.804C237.846 398.404 237.11 397.796 237.11 396.34C237.11 394.788 238.63 393.988 239.942 393.988C241.446 393.988 242.742 394.596 242.966 396.404H241.686C241.494 395.492 240.982 395.092 239.926 395.092C238.966 395.092 238.342 395.572 238.342 396.292C238.342 397.044 238.758 397.348 240.294 397.62C242.022 397.94 243.238 398.324 243.238 400.1C243.238 401.62 242.198 402.644 240.166 402.644Z" fill="black" fill-opacity="0.96"/>
<path d="M340.189 397.896L335.396 402.689L336.811 404.104L342.311 398.604C342.701 398.213 342.701 397.58 342.311 397.189L336.811 391.689L335.396 393.104L340.189 397.896Z" fill="black" fill-opacity="0.96"/>
<g clip-path="url(#clip3_17453_7620)">
<path d="M24 482C24 473.163 31.1634 466 40 466H335C343.837 466 351 473.163 351 482V595C351 603.837 343.837 611 335 611H40C31.1635 611 24 603.837 24 595V482Z" fill="#EFEFEF"/>
<g clip-path="url(#clip4_17453_7620)">
<path d="M48.224 501L44.368 489.56H46.592L49.568 498.84L52.56 489.56H54.56L50.688 501H48.224ZM58.5626 501.16C56.0986 501.16 54.3226 499.544 54.3226 496.904V496.776C54.3226 494.184 56.0986 492.456 58.4826 492.456C60.5626 492.456 62.4346 493.688 62.4346 496.68V497.24H56.3066C56.3706 498.824 57.1706 499.72 58.6106 499.72C59.7786 499.72 60.3866 499.256 60.5306 498.44H62.4026C62.1306 500.2 60.7066 501.16 58.5626 501.16ZM56.3386 495.944H60.5146C60.4186 494.504 59.6826 493.864 58.4826 493.864C57.3146 493.864 56.5306 494.648 56.3386 495.944ZM64.0039 501V492.632H65.9399V493.96C66.3399 493.144 67.2679 492.456 68.6439 492.456C70.3239 492.456 71.5079 493.432 71.5079 495.736V501H69.5719V495.912C69.5719 494.648 69.0599 494.072 67.9079 494.072C66.8199 494.072 65.9399 494.744 65.9399 496.072V501H64.0039ZM76.7143 501.16C74.6183 501.16 73.0343 499.672 73.0343 496.952V496.824C73.0343 494.152 74.6183 492.456 76.7943 492.456C78.1543 492.456 79.0023 493.08 79.4663 493.912V488.76H81.4023V501H79.4663V499.592C79.0183 500.424 77.9463 501.16 76.7143 501.16ZM77.1943 499.624C78.5383 499.624 79.5303 498.728 79.5303 496.856V496.728C79.5303 494.888 78.6823 493.976 77.2743 493.976C75.8503 493.976 75.0183 494.968 75.0183 496.776V496.904C75.0183 498.744 75.9463 499.624 77.1943 499.624ZM85.7353 501.16C84.1993 501.16 82.9353 500.424 82.9353 498.68C82.9353 496.728 84.8233 496.024 87.2233 496.024H88.2633V495.592C88.2633 494.472 87.8793 493.912 86.7433 493.912C85.7353 493.912 85.2393 494.392 85.1433 495.224H83.2713C83.4313 493.272 84.9833 492.456 86.8553 492.456C88.7273 492.456 90.1993 493.224 90.1993 495.512V501H88.2953V499.976C87.7513 500.696 87.0153 501.16 85.7353 501.16ZM86.1993 499.768C87.3833 499.768 88.2633 499.144 88.2633 498.072V497.24H87.2713C85.7993 497.24 84.8553 497.576 84.8553 498.6C84.8553 499.304 85.2393 499.768 86.1993 499.768ZM95.9108 501V492.632H97.8468V493.912C98.2468 493.128 99.1588 492.456 100.391 492.456C101.479 492.456 102.343 492.92 102.759 493.96C103.399 492.92 104.551 492.456 105.591 492.456C107.127 492.456 108.375 493.4 108.375 495.704V501H106.439V495.832C106.439 494.6 105.911 494.072 104.951 494.072C103.991 494.072 103.111 494.712 103.111 495.992V501H101.175V495.832C101.175 494.6 100.631 494.072 99.6868 494.072C98.7268 494.072 97.8468 494.712 97.8468 495.992V501H95.9108ZM112.63 501.16C111.094 501.16 109.83 500.424 109.83 498.68C109.83 496.728 111.718 496.024 114.118 496.024H115.158V495.592C115.158 494.472 114.774 493.912 113.638 493.912C112.63 493.912 112.134 494.392 112.038 495.224H110.166C110.326 493.272 111.878 492.456 113.75 492.456C115.622 492.456 117.094 493.224 117.094 495.512V501H115.19V499.976C114.646 500.696 113.91 501.16 112.63 501.16ZM113.094 499.768C114.278 499.768 115.158 499.144 115.158 498.072V497.24H114.166C112.694 497.24 111.75 497.576 111.75 498.6C111.75 499.304 112.134 499.768 113.094 499.768ZM120.145 491.256C119.505 491.256 118.993 490.776 118.993 490.152C118.993 489.512 119.505 489.032 120.145 489.032C120.785 489.032 121.297 489.512 121.297 490.152C121.297 490.776 120.785 491.256 120.145 491.256ZM119.201 501V492.632H121.137V501H119.201ZM126.201 501.16C124.041 501.16 122.777 500.168 122.697 498.392H124.521C124.617 499.24 125.049 499.736 126.185 499.736C127.225 499.736 127.689 499.368 127.689 498.664C127.689 497.976 127.129 497.72 125.897 497.512C123.689 497.16 122.873 496.536 122.873 494.968C122.873 493.288 124.441 492.456 126.009 492.456C127.721 492.456 129.081 493.096 129.289 494.984H127.497C127.337 494.216 126.905 493.864 126.009 493.864C125.177 493.864 124.681 494.264 124.681 494.856C124.681 495.464 125.081 495.704 126.409 495.928C128.377 496.232 129.545 496.712 129.545 498.488C129.545 500.184 128.345 501.16 126.201 501.16ZM131.035 502.632V501.72C131.787 501.64 132.139 501.368 132.155 500.888C131.419 500.856 130.971 500.456 130.971 499.752C130.971 499.08 131.547 498.6 132.203 498.6C132.955 498.6 133.515 499.128 133.515 500.024V500.312C133.515 501.864 132.507 502.584 131.035 502.632ZM139.201 503.864V492.632H141.137V493.976C141.601 493.176 142.641 492.456 143.873 492.456C145.969 492.456 147.585 494.008 147.585 496.712V496.84C147.585 499.528 146.033 501.16 143.873 501.16C142.545 501.16 141.585 500.504 141.137 499.688V503.864H139.201ZM143.393 499.624C144.817 499.624 145.601 498.664 145.601 496.872V496.744C145.601 494.888 144.641 493.976 143.377 493.976C142.033 493.976 141.073 494.888 141.073 496.744V496.872C141.073 498.744 141.985 499.624 143.393 499.624ZM151.358 501.16C149.822 501.16 148.558 500.424 148.558 498.68C148.558 496.728 150.446 496.024 152.846 496.024H153.886V495.592C153.886 494.472 153.502 493.912 152.366 493.912C151.358 493.912 150.862 494.392 150.766 495.224H148.894C149.054 493.272 150.606 492.456 152.478 492.456C154.35 492.456 155.822 493.224 155.822 495.512V501H153.918V499.976C153.374 500.696 152.638 501.16 151.358 501.16ZM151.822 499.768C153.006 499.768 153.886 499.144 153.886 498.072V497.24H152.894C151.422 497.24 150.478 497.576 150.478 498.6C150.478 499.304 150.862 499.768 151.822 499.768ZM161.449 504.072C158.825 504.072 157.641 502.888 157.417 501.288H159.369C159.529 502.12 160.169 502.6 161.433 502.6C162.937 502.6 163.769 501.848 163.769 500.344V499.112C163.305 499.912 162.265 500.664 161.033 500.664C158.937 500.664 157.321 499.096 157.321 496.68V496.568C157.321 494.216 158.921 492.456 161.081 492.456C162.457 492.456 163.289 493.08 163.769 493.912V492.632H165.705V500.376C165.689 502.84 164.041 504.072 161.449 504.072ZM161.513 499.176C162.857 499.176 163.833 498.216 163.833 496.616V496.504C163.833 494.92 162.969 493.976 161.577 493.976C160.137 493.976 159.305 495.016 159.305 496.536V496.664C159.305 498.216 160.265 499.176 161.513 499.176ZM170.646 501.16C168.998 501.16 167.766 500.216 167.766 497.992V492.632H169.702V497.768C169.702 499.032 170.23 499.608 171.35 499.608C172.39 499.608 173.302 498.936 173.302 497.608V492.632H175.238V501H173.302V499.688C172.886 500.504 172.006 501.16 170.646 501.16ZM181.053 501.16C178.589 501.16 176.813 499.544 176.813 496.904V496.776C176.813 494.184 178.589 492.456 180.973 492.456C183.053 492.456 184.925 493.688 184.925 496.68V497.24H178.797C178.861 498.824 179.661 499.72 181.101 499.72C182.269 499.72 182.877 499.256 183.021 498.44H184.893C184.621 500.2 183.197 501.16 181.053 501.16ZM178.829 495.944H183.005C182.909 494.504 182.173 493.864 180.973 493.864C179.805 493.864 179.021 494.648 178.829 495.944ZM190.147 501V492.632H192.083V493.912C192.483 493.128 193.395 492.456 194.627 492.456C195.715 492.456 196.579 492.92 196.995 493.96C197.635 492.92 198.787 492.456 199.827 492.456C201.363 492.456 202.611 493.4 202.611 495.704V501H200.675V495.832C200.675 494.6 200.147 494.072 199.187 494.072C198.227 494.072 197.347 494.712 197.347 495.992V501H195.411V495.832C195.411 494.6 194.867 494.072 193.923 494.072C192.963 494.072 192.083 494.712 192.083 495.992V501H190.147ZM208.355 501.16C205.891 501.16 204.115 499.544 204.115 496.904V496.776C204.115 494.184 205.891 492.456 208.275 492.456C210.355 492.456 212.227 493.688 212.227 496.68V497.24H206.099C206.163 498.824 206.963 499.72 208.403 499.72C209.571 499.72 210.179 499.256 210.323 498.44H212.195C211.923 500.2 210.499 501.16 208.355 501.16ZM206.131 495.944H210.307C210.211 494.504 209.475 493.864 208.275 493.864C207.107 493.864 206.323 494.648 206.131 495.944ZM213.796 501V492.632H215.732V493.96C216.132 493.144 217.06 492.456 218.436 492.456C220.116 492.456 221.3 493.432 221.3 495.736V501H219.364V495.912C219.364 494.648 218.852 494.072 217.7 494.072C216.612 494.072 215.732 494.744 215.732 496.072V501H213.796ZM227.098 501.16C224.634 501.16 222.81 499.448 222.81 496.904V496.776C222.81 494.184 224.65 492.456 227.114 492.456C229.562 492.456 231.402 494.168 231.402 496.728V496.856C231.402 499.464 229.562 501.16 227.098 501.16ZM227.114 499.656C228.554 499.656 229.418 498.584 229.418 496.872V496.76C229.418 495.032 228.554 493.976 227.114 493.976C225.674 493.976 224.794 495.016 224.794 496.744V496.872C224.794 498.584 225.642 499.656 227.114 499.656ZM235.871 501.16C233.711 501.16 232.447 500.168 232.367 498.392H234.191C234.287 499.24 234.719 499.736 235.855 499.736C236.895 499.736 237.359 499.368 237.359 498.664C237.359 497.976 236.799 497.72 235.567 497.512C233.359 497.16 232.543 496.536 232.543 494.968C232.543 493.288 234.111 492.456 235.679 492.456C237.391 492.456 238.751 493.096 238.959 494.984H237.167C237.007 494.216 236.575 493.864 235.679 493.864C234.847 493.864 234.351 494.264 234.351 494.856C234.351 495.464 234.751 495.704 236.079 495.928C238.047 496.232 239.215 496.712 239.215 498.488C239.215 500.184 238.015 501.16 235.871 501.16Z" fill="black" fill-opacity="0.96"/>
<path d="M47.822 526L44.42 515.99H45.624L48.606 524.824L51.588 515.99H52.736L49.278 526H47.822ZM56.3582 526.126C54.2862 526.126 52.8162 524.67 52.8162 522.416V522.304C52.8162 520.092 54.2302 518.552 56.2462 518.552C57.9402 518.552 59.5362 519.574 59.5362 522.192V522.57H54.0202C54.0762 524.236 54.8742 525.16 56.3722 525.16C57.5062 525.16 58.1642 524.74 58.3182 523.886H59.4802C59.2282 525.356 58.0102 526.126 56.3582 526.126ZM54.0622 521.632H58.3462C58.2342 520.12 57.4502 519.518 56.2462 519.518C55.0562 519.518 54.2582 520.33 54.0622 521.632ZM61.1792 526V518.678H62.3412V519.84C62.6772 519.154 63.4892 518.552 64.6932 518.552C66.2052 518.552 67.2692 519.378 67.2692 521.506V526H66.1072V521.422C66.1072 520.134 65.5612 519.56 64.3852 519.56C63.3072 519.56 62.3412 520.246 62.3412 521.562V526H61.1792ZM72.1644 526.126C70.2464 526.126 68.8604 524.768 68.8604 522.486V522.374C68.8604 520.134 70.2604 518.552 72.2764 518.552C73.4944 518.552 74.2504 519.14 74.6704 519.854V515.178H75.8324V526H74.6704V524.74C74.2504 525.454 73.2284 526.126 72.1644 526.126ZM72.2904 525.16C73.6484 525.16 74.7124 524.264 74.7124 522.388V522.276C74.7124 520.4 73.8164 519.518 72.3884 519.518C70.9324 519.518 70.0644 520.54 70.0644 522.318V522.43C70.0644 524.278 71.0584 525.16 72.2904 525.16ZM79.8777 526.126C78.5197 526.126 77.4417 525.468 77.4417 523.97C77.4417 522.276 79.2337 521.702 81.1097 521.702H82.1597V521.17C82.1597 520.008 81.7117 519.518 80.5917 519.518C79.5837 519.518 79.0237 519.938 78.9117 520.834H77.7497C77.9037 519.168 79.2337 518.552 80.6477 518.552C82.0477 518.552 83.3217 519.126 83.3217 521.17V526H82.1597V525.076C81.6137 525.762 80.9557 526.126 79.8777 526.126ZM79.9897 525.202C81.2217 525.202 82.1597 524.572 82.1597 523.438V522.528H81.1517C79.6817 522.528 78.6037 522.892 78.6037 523.97C78.6037 524.726 78.9677 525.202 79.9897 525.202ZM89.1134 526V515.99H92.1234C94.0414 515.99 95.6234 516.774 95.6234 518.776V518.832C95.6234 520.484 94.5174 521.296 93.1454 521.562L96.2114 526H94.8534L91.8714 521.646H90.3314V526H89.1134ZM90.3314 520.68H92.2074C93.6354 520.68 94.4054 520.064 94.4054 518.832V518.776C94.4054 517.418 93.5654 516.97 92.2074 516.97H90.3314V520.68ZM100.494 527.89V526.112C98.1004 525.944 97.3024 524.558 97.1344 522.948H98.3104C98.4504 524.04 98.7864 525.006 100.494 525.16V521.268C98.6464 520.918 97.5404 520.26 97.5404 518.58C97.5404 517.124 98.7444 515.99 100.494 515.878V514.618H101.32V515.892C103 516.046 104.05 516.998 104.232 518.622H103.14C102.93 517.544 102.356 516.984 101.32 516.844V520.344C103.378 520.708 104.442 521.366 104.442 523.172C104.442 524.768 103.14 526 101.32 526.112V527.89H100.494ZM98.6464 518.468C98.6464 519.35 98.9404 519.882 100.494 520.204V516.83C99.3184 516.928 98.6464 517.6 98.6464 518.468ZM103.28 523.256C103.28 522.22 102.846 521.73 101.32 521.408V525.16C102.44 525.048 103.28 524.292 103.28 523.256ZM113.425 528.058C111.353 528.058 110.275 527.26 110.653 525.146L110.919 523.69C111.073 522.864 110.695 522.01 109.267 522.01V521.142C110.695 521.142 111.073 520.288 110.919 519.462L110.653 518.006C110.275 515.892 111.353 515.094 113.425 515.094V515.976C112.053 515.99 111.507 516.438 111.759 518.034L112.025 519.644C112.193 520.694 111.591 521.338 110.653 521.576C111.591 521.814 112.193 522.458 112.025 523.508L111.759 525.118C111.507 526.714 112.053 527.162 113.425 527.176V528.058ZM118.617 528.058C116.545 528.058 115.467 527.26 115.845 525.146L116.111 523.69C116.265 522.864 115.887 522.01 114.459 522.01V521.142C115.887 521.142 116.265 520.288 116.111 519.462L115.845 518.006C115.467 515.892 116.545 515.094 118.617 515.094V515.976C117.245 515.99 116.699 516.438 116.951 518.034L117.217 519.644C117.385 520.694 116.783 521.338 115.845 521.576C116.783 521.814 117.385 522.458 117.217 523.508L116.951 525.118C116.699 526.714 117.245 527.162 118.617 527.176V528.058ZM121.793 526V517.194L119.553 518.804V517.67L121.877 515.99H123.011V526H121.793ZM129.359 526.126C126.965 526.126 125.383 524.194 125.383 521.282V520.722C125.383 517.768 126.881 515.864 129.331 515.864C131.795 515.864 133.237 517.838 133.237 520.694V521.254C133.237 524.166 131.823 526.126 129.359 526.126ZM129.359 525.118C131.109 525.118 132.005 523.774 132.005 521.24V520.68C132.005 518.356 131.025 516.844 129.331 516.844C127.637 516.844 126.629 518.244 126.629 520.708V521.268C126.629 523.802 127.693 525.118 129.359 525.118ZM134.548 528.058V527.176C135.92 527.162 136.466 526.714 136.214 525.118L135.948 523.508C135.78 522.458 136.382 521.814 137.32 521.576C136.382 521.338 135.78 520.694 135.948 519.644L136.214 518.034C136.466 516.438 135.92 515.99 134.548 515.976V515.094C136.62 515.094 137.698 515.892 137.32 518.006L137.054 519.462C136.9 520.288 137.278 521.142 138.706 521.142V522.01C137.278 522.01 136.9 522.864 137.054 523.69L137.32 525.146C137.698 527.26 136.62 528.058 134.548 528.058ZM139.74 528.058V527.176C141.112 527.162 141.658 526.714 141.406 525.118L141.14 523.508C140.972 522.458 141.574 521.814 142.512 521.576C141.574 521.338 140.972 520.694 141.14 519.644L141.406 518.034C141.658 516.438 141.112 515.99 139.74 515.976V515.094C141.812 515.094 142.89 515.892 142.512 518.006L142.246 519.462C142.092 520.288 142.47 521.142 143.898 521.142V522.01C142.47 522.01 142.092 522.864 142.246 523.69L142.512 525.146C142.89 527.26 141.812 528.058 139.74 528.058ZM149.057 526V518.678H150.219V519.798C150.555 519.112 151.353 518.552 152.403 518.552C153.341 518.552 154.167 518.944 154.545 519.924C155.049 518.972 156.141 518.552 157.051 518.552C158.367 518.552 159.515 519.336 159.515 521.464V526H158.353V521.38C158.353 520.092 157.807 519.56 156.799 519.56C155.847 519.56 154.867 520.204 154.867 521.52V526H153.705V521.38C153.705 520.092 153.159 519.56 152.151 519.56C151.199 519.56 150.219 520.204 150.219 521.52V526H149.057ZM162.247 517.152C161.827 517.152 161.477 516.802 161.477 516.382C161.477 515.962 161.827 515.612 162.247 515.612C162.667 515.612 163.017 515.962 163.017 516.382C163.017 516.802 162.667 517.152 162.247 517.152ZM161.687 526V518.678H162.849V526H161.687ZM165.116 526V515.178H166.292V526H165.116ZM172.095 526V518.678H173.257V519.84C173.593 519.154 174.405 518.552 175.609 518.552C177.121 518.552 178.185 519.378 178.185 521.506V526H177.023V521.422C177.023 520.134 176.477 519.56 175.301 519.56C174.223 519.56 173.257 520.246 173.257 521.562V526H172.095ZM183.36 526.126C181.274 526.126 179.776 524.544 179.776 522.402V522.29C179.776 520.092 181.302 518.552 183.374 518.552C185.446 518.552 186.972 520.078 186.972 522.276V522.388C186.972 524.6 185.446 526.126 183.36 526.126ZM183.374 525.16C184.844 525.16 185.768 524.054 185.768 522.402V522.304C185.768 520.61 184.83 519.518 183.374 519.518C181.904 519.518 180.98 520.61 180.98 522.29V522.402C180.98 524.068 181.89 525.16 183.374 525.16ZM192.196 526V518.678H193.358V519.798C193.694 519.112 194.492 518.552 195.542 518.552C196.48 518.552 197.306 518.944 197.684 519.924C198.188 518.972 199.28 518.552 200.19 518.552C201.506 518.552 202.654 519.336 202.654 521.464V526H201.492V521.38C201.492 520.092 200.946 519.56 199.938 519.56C198.986 519.56 198.006 520.204 198.006 521.52V526H196.844V521.38C196.844 520.092 196.298 519.56 195.29 519.56C194.338 519.56 193.358 520.204 193.358 521.52V526H192.196ZM205.652 517.418L207.164 515.402H208.214L209.712 517.418H208.858L207.668 516.368L206.478 517.418H205.652ZM207.794 526.126C205.722 526.126 204.252 524.67 204.252 522.416V522.304C204.252 520.092 205.666 518.552 207.682 518.552C209.376 518.552 210.972 519.574 210.972 522.192V522.57H205.456C205.512 524.236 206.31 525.16 207.808 525.16C208.942 525.16 209.6 524.74 209.754 523.886H210.916C210.664 525.356 209.446 526.126 207.794 526.126ZM205.498 521.632H209.782C209.67 520.12 208.886 519.518 207.682 519.518C206.492 519.518 205.694 520.33 205.498 521.632ZM214.952 526.126C213.202 526.126 212.152 525.244 212.082 523.746H213.216C213.3 524.614 213.762 525.16 214.938 525.16C216.044 525.16 216.534 524.782 216.534 523.998C216.534 523.228 215.96 522.976 214.826 522.766C212.922 522.416 212.278 521.884 212.278 520.61C212.278 519.252 213.608 518.552 214.756 518.552C216.072 518.552 217.206 519.084 217.402 520.666H216.282C216.114 519.868 215.666 519.518 214.742 519.518C213.902 519.518 213.356 519.938 213.356 520.568C213.356 521.226 213.72 521.492 215.064 521.73C216.576 522.01 217.64 522.346 217.64 523.9C217.64 525.23 216.73 526.126 214.952 526.126ZM225.831 526.126C223.759 526.126 222.289 524.67 222.289 522.416V522.304C222.289 520.092 223.703 518.552 225.719 518.552C227.413 518.552 229.009 519.574 229.009 522.192V522.57H223.493C223.549 524.236 224.347 525.16 225.845 525.16C226.979 525.16 227.637 524.74 227.791 523.886H228.953C228.701 525.356 227.483 526.126 225.831 526.126ZM223.535 521.632H227.819C227.707 520.12 226.923 519.518 225.719 519.518C224.529 519.518 223.731 520.33 223.535 521.632ZM236.052 526.126C234.694 526.126 233.616 525.468 233.616 523.97C233.616 522.276 235.408 521.702 237.284 521.702H238.334V521.17C238.334 520.008 237.886 519.518 236.766 519.518C235.758 519.518 235.198 519.938 235.086 520.834H233.924C234.078 519.168 235.408 518.552 236.822 518.552C238.222 518.552 239.496 519.126 239.496 521.17V526H238.334V525.076C237.788 525.762 237.13 526.126 236.052 526.126ZM236.164 525.202C237.396 525.202 238.334 524.572 238.334 523.438V522.528H237.326C235.856 522.528 234.778 522.892 234.778 523.97C234.778 524.726 235.142 525.202 236.164 525.202ZM245.203 526V518.678H246.365V519.798C246.701 519.112 247.499 518.552 248.549 518.552C249.487 518.552 250.313 518.944 250.691 519.924C251.195 518.972 252.287 518.552 253.197 518.552C254.513 518.552 255.661 519.336 255.661 521.464V526H254.499V521.38C254.499 520.092 253.953 519.56 252.945 519.56C251.993 519.56 251.013 520.204 251.013 521.52V526H249.851V521.38C249.851 520.092 249.305 519.56 248.297 519.56C247.345 519.56 246.365 520.204 246.365 521.52V526H245.203ZM260.801 526.126C258.729 526.126 257.259 524.67 257.259 522.416V522.304C257.259 520.092 258.673 518.552 260.689 518.552C262.383 518.552 263.979 519.574 263.979 522.192V522.57H258.463C258.519 524.236 259.317 525.16 260.815 525.16C261.949 525.16 262.607 524.74 262.761 523.886H263.923C263.671 525.356 262.453 526.126 260.801 526.126ZM258.505 521.632H262.789C262.677 520.12 261.893 519.518 260.689 519.518C259.499 519.518 258.701 520.33 258.505 521.632ZM265.622 526V518.678H266.784V519.84C267.12 519.154 267.932 518.552 269.136 518.552C270.648 518.552 271.712 519.378 271.712 521.506V526H270.55V521.422C270.55 520.134 270.004 519.56 268.828 519.56C267.75 519.56 266.784 520.246 266.784 521.562V526H265.622ZM276.118 526.126C274.368 526.126 273.318 525.244 273.248 523.746H274.382C274.466 524.614 274.928 525.16 276.104 525.16C277.21 525.16 277.7 524.782 277.7 523.998C277.7 523.228 277.126 522.976 275.992 522.766C274.088 522.416 273.444 521.884 273.444 520.61C273.444 519.252 274.774 518.552 275.922 518.552C277.238 518.552 278.372 519.084 278.568 520.666H277.448C277.28 519.868 276.832 519.518 275.908 519.518C275.068 519.518 274.522 519.938 274.522 520.568C274.522 521.226 274.886 521.492 276.23 521.73C277.742 522.01 278.806 522.346 278.806 523.9C278.806 525.23 277.896 526.126 276.118 526.126ZM282.27 526.126C280.912 526.126 279.834 525.468 279.834 523.97C279.834 522.276 281.626 521.702 283.502 521.702H284.552V521.17C284.552 520.008 284.104 519.518 282.984 519.518C281.976 519.518 281.416 519.938 281.304 520.834H280.142C280.296 519.168 281.626 518.552 283.04 518.552C284.44 518.552 285.714 519.126 285.714 521.17V526H284.552V525.076C284.006 525.762 283.348 526.126 282.27 526.126ZM282.382 525.202C283.614 525.202 284.552 524.572 284.552 523.438V522.528H283.544C282.074 522.528 280.996 522.892 280.996 523.97C280.996 524.726 281.36 525.202 282.382 525.202ZM287.885 526V515.178H289.061V526H287.885ZM291.887 517.152C291.467 517.152 291.117 516.802 291.117 516.382C291.117 515.962 291.467 515.612 291.887 515.612C292.307 515.612 292.657 515.962 292.657 516.382C292.657 516.802 292.307 517.152 291.887 517.152ZM291.327 526V518.678H292.489V526H291.327ZM297.485 526.126C295.567 526.126 294.181 524.768 294.181 522.486V522.374C294.181 520.134 295.581 518.552 297.597 518.552C298.815 518.552 299.571 519.14 299.991 519.854V515.178H301.153V526H299.991V524.74C299.571 525.454 298.549 526.126 297.485 526.126ZM297.611 525.16C298.969 525.16 300.033 524.264 300.033 522.388V522.276C300.033 520.4 299.137 519.518 297.709 519.518C296.253 519.518 295.385 520.54 295.385 522.318V522.43C295.385 524.278 296.379 525.16 297.611 525.16ZM305.198 526.126C303.84 526.126 302.762 525.468 302.762 523.97C302.762 522.276 304.554 521.702 306.43 521.702H307.48V521.17C307.48 520.008 307.032 519.518 305.912 519.518C304.904 519.518 304.344 519.938 304.232 520.834H303.07C303.224 519.168 304.554 518.552 305.968 518.552C307.368 518.552 308.642 519.126 308.642 521.17V526H307.48V525.076C306.934 525.762 306.276 526.126 305.198 526.126ZM305.31 525.202C306.542 525.202 307.48 524.572 307.48 523.438V522.528H306.472C305.002 522.528 303.924 522.892 303.924 523.97C303.924 524.726 304.288 525.202 305.31 525.202ZM313.543 526.126C311.625 526.126 310.239 524.768 310.239 522.486V522.374C310.239 520.134 311.639 518.552 313.655 518.552C314.873 518.552 315.629 519.14 316.049 519.854V515.178H317.211V526H316.049V524.74C315.629 525.454 314.607 526.126 313.543 526.126ZM313.669 525.16C315.027 525.16 316.091 524.264 316.091 522.388V522.276C316.091 520.4 315.195 519.518 313.767 519.518C312.311 519.518 311.443 520.54 311.443 522.318V522.43C311.443 524.278 312.437 525.16 313.669 525.16ZM322.418 526.126C320.346 526.126 318.876 524.67 318.876 522.416V522.304C318.876 520.092 320.29 518.552 322.306 518.552C324 518.552 325.596 519.574 325.596 522.192V522.57H320.08C320.136 524.236 320.934 525.16 322.432 525.16C323.566 525.16 324.224 524.74 324.378 523.886H325.54C325.288 525.356 324.07 526.126 322.418 526.126ZM320.122 521.632H324.406C324.294 520.12 323.51 519.518 322.306 519.518C321.116 519.518 320.318 520.33 320.122 521.632ZM45.428 547V540.658H44.378V539.678H45.428V538.488C45.428 537.004 46.142 536.136 47.584 536.136C47.962 536.136 48.158 536.164 48.382 536.248V537.228C48.172 537.144 47.948 537.102 47.626 537.102C46.884 537.102 46.59 537.62 46.59 538.362V539.678H48.382V540.658H46.59V547H45.428ZM50.2588 538.152C49.8388 538.152 49.4888 537.802 49.4888 537.382C49.4888 536.962 49.8388 536.612 50.2588 536.612C50.6788 536.612 51.0288 536.962 51.0288 537.382C51.0288 537.802 50.6788 538.152 50.2588 538.152ZM49.6988 547V539.678H50.8608V547H49.6988ZM56.1371 547.126C54.0931 547.126 52.5531 545.684 52.5531 543.416V543.304C52.5531 541.064 54.1491 539.552 56.1091 539.552C57.6351 539.552 59.0631 540.252 59.2871 542.114H58.1391C57.9571 540.952 57.1171 540.518 56.1091 540.518C54.7791 540.518 53.7571 541.582 53.7571 543.304V543.416C53.7571 545.208 54.7371 546.16 56.1511 546.16C57.1871 546.16 58.1251 545.558 58.2511 544.368H59.3291C59.1751 545.95 57.9011 547.126 56.1371 547.126ZM62.7775 547.126C61.4195 547.126 60.3415 546.468 60.3415 544.97C60.3415 543.276 62.1335 542.702 64.0095 542.702H65.0595V542.17C65.0595 541.008 64.6115 540.518 63.4915 540.518C62.4835 540.518 61.9235 540.938 61.8115 541.834H60.6495C60.8035 540.168 62.1335 539.552 63.5475 539.552C64.9475 539.552 66.2215 540.126 66.2215 542.17V547H65.0595V546.076C64.5135 546.762 63.8555 547.126 62.7775 547.126ZM62.8895 546.202C64.1215 546.202 65.0595 545.572 65.0595 544.438V543.528H64.0515C62.5815 543.528 61.5035 543.892 61.5035 544.97C61.5035 545.726 61.8675 546.202 62.8895 546.202ZM71.9291 549.548V539.678H73.0911V540.91C73.5111 540.196 74.5051 539.552 75.5691 539.552C77.4871 539.552 78.9011 540.952 78.9011 543.234V543.346C78.9011 545.586 77.5851 547.126 75.5691 547.126C74.3651 547.126 73.5111 546.524 73.0911 545.796V549.548H71.9291ZM75.4571 546.16C76.9131 546.16 77.6971 545.18 77.6971 543.402V543.29C77.6971 541.442 76.6751 540.518 75.4431 540.518C74.0851 540.518 73.0491 541.414 73.0491 543.29V543.402C73.0491 545.278 74.0291 546.16 75.4571 546.16ZM83.6045 547.126C81.5185 547.126 80.0205 545.544 80.0205 543.402V543.29C80.0205 541.092 81.5465 539.552 83.6185 539.552C85.6905 539.552 87.2165 541.078 87.2165 543.276V543.388C87.2165 545.6 85.6905 547.126 83.6045 547.126ZM83.6185 546.16C85.0885 546.16 86.0125 545.054 86.0125 543.402V543.304C86.0125 541.61 85.0745 540.518 83.6185 540.518C82.1485 540.518 81.2245 541.61 81.2245 543.29V543.402C81.2245 545.068 82.1345 546.16 83.6185 546.16ZM88.8757 547V539.678H90.0377V540.994C90.4997 540.168 91.1297 539.594 92.4457 539.552V540.644C90.9757 540.714 90.0377 541.176 90.0377 542.982V547H88.8757ZM97.5644 547V539.678H98.7264V540.84C99.0624 540.154 99.8744 539.552 101.078 539.552C102.59 539.552 103.654 540.378 103.654 542.506V547H102.492V542.422C102.492 541.134 101.946 540.56 100.77 540.56C99.6924 540.56 98.7264 541.246 98.7264 542.562V547H97.5644ZM108.83 547.126C106.744 547.126 105.246 545.544 105.246 543.402V543.29C105.246 541.092 106.772 539.552 108.844 539.552C110.916 539.552 112.442 541.078 112.442 543.276V543.388C112.442 545.6 110.916 547.126 108.83 547.126ZM108.844 546.16C110.314 546.16 111.238 545.054 111.238 543.402V543.304C111.238 541.61 110.3 540.518 108.844 540.518C107.374 540.518 106.45 541.61 106.45 543.29V543.402C106.45 545.068 107.36 546.16 108.844 546.16ZM116.369 547.126C114.619 547.126 113.569 546.244 113.499 544.746H114.633C114.717 545.614 115.179 546.16 116.355 546.16C117.461 546.16 117.951 545.782 117.951 544.998C117.951 544.228 117.377 543.976 116.243 543.766C114.339 543.416 113.695 542.884 113.695 541.61C113.695 540.252 115.025 539.552 116.173 539.552C117.489 539.552 118.623 540.084 118.819 541.666H117.699C117.531 540.868 117.083 540.518 116.159 540.518C115.319 540.518 114.773 540.938 114.773 541.568C114.773 542.226 115.137 542.492 116.481 542.73C117.993 543.01 119.057 543.346 119.057 544.9C119.057 546.23 118.147 547.126 116.369 547.126ZM122.955 547.126C121.205 547.126 120.155 546.244 120.085 544.746H121.219C121.303 545.614 121.765 546.16 122.941 546.16C124.047 546.16 124.537 545.782 124.537 544.998C124.537 544.228 123.963 543.976 122.829 543.766C120.925 543.416 120.281 542.884 120.281 541.61C120.281 540.252 121.611 539.552 122.759 539.552C124.075 539.552 125.209 540.084 125.405 541.666H124.285C124.117 540.868 123.669 540.518 122.745 540.518C121.905 540.518 121.359 540.938 121.359 541.568C121.359 542.226 121.723 542.492 123.067 542.73C124.579 543.01 125.643 543.346 125.643 544.9C125.643 546.23 124.733 547.126 122.955 547.126ZM129.108 547.126C127.75 547.126 126.672 546.468 126.672 544.97C126.672 543.276 128.464 542.702 130.34 542.702H131.39V542.17C131.39 541.008 130.942 540.518 129.822 540.518C128.814 540.518 128.254 540.938 128.142 541.834H126.98C127.134 540.168 128.464 539.552 129.878 539.552C131.278 539.552 132.552 540.126 132.552 542.17V547H131.39V546.076C130.844 546.762 130.186 547.126 129.108 547.126ZM129.22 546.202C130.452 546.202 131.39 545.572 131.39 544.438V543.528H130.382C128.912 543.528 127.834 543.892 127.834 544.97C127.834 545.726 128.198 546.202 129.22 546.202ZM141.298 547.126C139.254 547.126 137.714 545.684 137.714 543.416V543.304C137.714 541.064 139.31 539.552 141.27 539.552C142.796 539.552 144.224 540.252 144.448 542.114H143.3C143.118 540.952 142.278 540.518 141.27 540.518C139.94 540.518 138.918 541.582 138.918 543.304V543.416C138.918 545.208 139.898 546.16 141.312 546.16C142.348 546.16 143.286 545.558 143.412 544.368H144.49C144.336 545.95 143.062 547.126 141.298 547.126ZM149.142 547.126C147.056 547.126 145.558 545.544 145.558 543.402V543.29C145.558 541.092 147.084 539.552 149.156 539.552C151.228 539.552 152.754 541.078 152.754 543.276V543.388C152.754 545.6 151.228 547.126 149.142 547.126ZM149.156 546.16C150.626 546.16 151.55 545.054 151.55 543.402V543.304C151.55 541.61 150.612 540.518 149.156 540.518C147.686 540.518 146.762 541.61 146.762 543.29V543.402C146.762 545.068 147.672 546.16 149.156 546.16ZM154.413 547V539.678H155.575V540.84C155.911 540.154 156.723 539.552 157.927 539.552C159.439 539.552 160.503 540.378 160.503 542.506V547H159.341V542.422C159.341 541.134 158.795 540.56 157.619 540.56C156.541 540.56 155.575 541.246 155.575 542.562V547H154.413ZM164.866 547.098C163.536 547.098 162.892 546.314 162.892 545.166V540.658H161.842V539.678H162.892V538.012H164.054V539.678H165.762V540.658H164.054V545.054C164.054 545.768 164.376 546.118 164.964 546.118C165.328 546.118 165.608 546.062 165.86 545.964V546.944C165.622 547.028 165.342 547.098 164.866 547.098ZM169.379 547.126C168.021 547.126 166.943 546.468 166.943 544.97C166.943 543.276 168.735 542.702 170.611 542.702H171.661V542.17C171.661 541.008 171.213 540.518 170.093 540.518C169.085 540.518 168.525 540.938 168.413 541.834H167.251C167.405 540.168 168.735 539.552 170.149 539.552C171.549 539.552 172.823 540.126 172.823 542.17V547H171.661V546.076C171.115 546.762 170.457 547.126 169.379 547.126ZM169.491 546.202C170.723 546.202 171.661 545.572 171.661 544.438V543.528H170.653C169.183 543.528 168.105 543.892 168.105 544.97C168.105 545.726 168.469 546.202 169.491 546.202ZM175.764 547.07C175.274 547.07 174.868 546.678 174.868 546.174C174.868 545.67 175.274 545.278 175.764 545.278C176.254 545.278 176.66 545.67 176.66 546.174C176.66 546.678 176.254 547.07 175.764 547.07Z" fill="black" fill-opacity="0.64"/>
<path d="M48.55 584.14C45.82 584.14 44.672 582.782 44.532 580.892H46.324C46.45 581.9 46.856 582.74 48.55 582.74C49.656 582.74 50.44 582.124 50.44 581.2C50.44 580.276 49.978 579.926 48.354 579.66C45.96 579.338 44.826 578.61 44.826 576.734C44.826 575.096 46.226 573.864 48.312 573.864C50.468 573.864 51.756 574.844 51.952 576.762H50.244C50.062 575.712 49.46 575.264 48.312 575.264C47.178 575.264 46.59 575.81 46.59 576.58C46.59 577.392 46.926 577.798 48.662 578.05C51.014 578.372 52.232 579.044 52.232 581.046C52.232 582.782 50.762 584.14 48.55 584.14ZM55.6727 584.14C54.3287 584.14 53.2227 583.496 53.2227 581.97C53.2227 580.262 54.8747 579.646 56.9747 579.646H57.8847V579.268C57.8847 578.288 57.5487 577.798 56.5547 577.798C55.6727 577.798 55.2387 578.218 55.1547 578.946H53.5167C53.6567 577.238 55.0147 576.524 56.6527 576.524C58.2907 576.524 59.5787 577.196 59.5787 579.198V584H57.9127V583.104C57.4367 583.734 56.7927 584.14 55.6727 584.14ZM56.0787 582.922C57.1147 582.922 57.8847 582.376 57.8847 581.438V580.71H57.0167C55.7287 580.71 54.9027 581.004 54.9027 581.9C54.9027 582.516 55.2387 582.922 56.0787 582.922ZM62.2483 575.474C61.6883 575.474 61.2403 575.054 61.2403 574.508C61.2403 573.948 61.6883 573.528 62.2483 573.528C62.8083 573.528 63.2563 573.948 63.2563 574.508C63.2563 575.054 62.8083 575.474 62.2483 575.474ZM61.4223 584V576.678H63.1163V584H61.4223ZM69.1291 584.14C67.9671 584.14 67.1271 583.566 66.7351 582.824V584H65.0411V573.29H66.7351V577.854C67.1411 577.154 68.0511 576.524 69.1291 576.524C70.9631 576.524 72.3771 577.882 72.3771 580.248V580.36C72.3771 582.712 71.0191 584.14 69.1291 584.14ZM68.7091 582.796C69.9551 582.796 70.6411 581.956 70.6411 580.388V580.276C70.6411 578.652 69.8011 577.854 68.6951 577.854C67.5191 577.854 66.6791 578.652 66.6791 580.276V580.388C66.6791 582.026 67.4771 582.796 68.7091 582.796ZM75.6785 584.14C74.3345 584.14 73.2285 583.496 73.2285 581.97C73.2285 580.262 74.8805 579.646 76.9805 579.646H77.8905V579.268C77.8905 578.288 77.5545 577.798 76.5605 577.798C75.6785 577.798 75.2445 578.218 75.1605 578.946H73.5225C73.6625 577.238 75.0205 576.524 76.6585 576.524C78.2965 576.524 79.5845 577.196 79.5845 579.198V584H77.9185V583.104C77.4425 583.734 76.7985 584.14 75.6785 584.14ZM76.0845 582.922C77.1205 582.922 77.8905 582.376 77.8905 581.438V580.71H77.0225C75.7345 580.71 74.9085 581.004 74.9085 581.9C74.9085 582.516 75.2445 582.922 76.0845 582.922ZM84.5821 584V576.678H86.2761V577.798C86.6261 577.112 87.4241 576.524 88.5021 576.524C89.4541 576.524 90.2101 576.93 90.5741 577.84C91.1341 576.93 92.1421 576.524 93.0521 576.524C94.3961 576.524 95.4881 577.35 95.4881 579.366V584H93.7941V579.478C93.7941 578.4 93.3321 577.938 92.4921 577.938C91.6521 577.938 90.8821 578.498 90.8821 579.618V584H89.1881V579.478C89.1881 578.4 88.7121 577.938 87.8861 577.938C87.0461 577.938 86.2761 578.498 86.2761 579.618V584H84.5821ZM99.2116 584.14C97.8676 584.14 96.7616 583.496 96.7616 581.97C96.7616 580.262 98.4136 579.646 100.514 579.646H101.424V579.268C101.424 578.288 101.088 577.798 100.094 577.798C99.2116 577.798 98.7776 578.218 98.6936 578.946H97.0556C97.1956 577.238 98.5536 576.524 100.192 576.524C101.83 576.524 103.118 577.196 103.118 579.198V584H101.452V583.104C100.976 583.734 100.332 584.14 99.2116 584.14ZM99.6176 582.922C100.654 582.922 101.424 582.376 101.424 581.438V580.71H100.556C99.2676 580.71 98.4416 581.004 98.4416 581.9C98.4416 582.516 98.7776 582.922 99.6176 582.922ZM105.787 575.474C105.227 575.474 104.779 575.054 104.779 574.508C104.779 573.948 105.227 573.528 105.787 573.528C106.347 573.528 106.795 573.948 106.795 574.508C106.795 575.054 106.347 575.474 105.787 575.474ZM104.961 584V576.678H106.655V584H104.961ZM111.086 584.14C109.196 584.14 108.09 583.272 108.02 581.718H109.616C109.7 582.46 110.078 582.894 111.072 582.894C111.982 582.894 112.388 582.572 112.388 581.956C112.388 581.354 111.898 581.13 110.82 580.948C108.888 580.64 108.174 580.094 108.174 578.722C108.174 577.252 109.546 576.524 110.918 576.524C112.416 576.524 113.606 577.084 113.788 578.736H112.22C112.08 578.064 111.702 577.756 110.918 577.756C110.19 577.756 109.756 578.106 109.756 578.624C109.756 579.156 110.106 579.366 111.268 579.562C112.99 579.828 114.012 580.248 114.012 581.802C114.012 583.286 112.962 584.14 111.086 584.14Z" fill="#652590"/>
<path d="M127 574.667L126.06 575.607L129.78 579.333H121.667V580.667H129.78L126.06 584.393L127 585.333L131.862 580.471C132.122 580.211 132.122 579.789 131.862 579.529L127 574.667Z" fill="#652590"/>
</g>
</g>
</g>
<defs>
<clipPath id="clip0_17453_7620">
<rect width="375" height="812" fill="white"/>
</clipPath>
<clipPath id="clip1_17453_7620">
<rect width="48" height="48" fill="white" transform="translate(12 52)"/>
</clipPath>
<clipPath id="clip2_17453_7620">
<path d="M124 76C124 75.4477 124.448 75 125 75H251C251.552 75 252 75.4477 252 76C252 76.5523 251.552 77 251 77H125C124.448 77 124 76.5523 124 76Z" fill="white"/>
</clipPath>
<clipPath id="clip3_17453_7620">
<path d="M24 482C24 473.163 31.1634 466 40 466H335C343.837 466 351 473.163 351 482V595C351 603.837 343.837 611 335 611H40C31.1635 611 24 603.837 24 595V482Z" fill="white"/>
</clipPath>
<clipPath id="clip4_17453_7620">
<rect width="287" height="113" fill="white" transform="translate(44 486)"/>
</clipPath>
</defs>
</svg>
