<svg width="375" height="812" viewBox="0 0 375 812" fill="none" xmlns="http://www.w3.org/2000/svg">
<g clip-path="url(#clip0_17453_7661)">
<rect width="375" height="812" fill="white"/>
<rect width="375" height="104" fill="white"/>
<path d="M35.7202 33V24.3354H35.5957L32.9663 26.1812V24.3647L35.7276 22.4312H37.6099V33H35.7202ZM42.9216 33V24.3354H42.7971L40.1677 26.1812V24.3647L42.929 22.4312H44.8113V33H42.9216ZM48.9365 31.5425C48.248 31.5425 47.7646 31.0444 47.7646 30.3853C47.7646 29.7188 48.248 29.228 48.9365 29.228C49.6323 29.228 50.1084 29.7188 50.1084 30.3853C50.1084 31.0444 49.6323 31.5425 48.9365 31.5425ZM48.9365 26.1958C48.248 26.1958 47.7646 25.7051 47.7646 25.0459C47.7646 24.3794 48.248 23.8887 48.9365 23.8887C49.6323 23.8887 50.1084 24.3794 50.1084 25.0459C50.1084 25.7051 49.6323 26.1958 48.9365 26.1958ZM56.0793 33.2637C53.5452 33.2637 52.0437 31.2129 52.0437 27.7046C52.0437 24.2109 53.5671 22.1675 56.0793 22.1675C58.5842 22.1675 60.1077 24.2109 60.1077 27.7192C60.1077 31.2129 58.6062 33.2637 56.0793 33.2637ZM56.0793 31.6963C57.4197 31.6963 58.196 30.3267 58.196 27.7046C58.196 25.0972 57.405 23.7422 56.0793 23.7422C54.7537 23.7422 53.9553 25.1045 53.9553 27.7046C53.9553 30.3267 54.739 31.6963 56.0793 31.6963ZM65.8735 33.2637C63.4492 33.2637 61.7793 32.0039 61.7793 30.1729C61.7793 28.8325 62.6802 27.7705 64.0644 27.4775V27.353C62.9365 27.0747 62.2041 26.1592 62.2041 25.0312C62.2041 23.3613 63.7348 22.1675 65.8808 22.1675C68.0268 22.1675 69.5503 23.3613 69.5503 25.0312C69.5503 26.1665 68.8325 27.0674 67.6972 27.353V27.4775C69.0742 27.7339 69.9824 28.8032 69.9824 30.1655C69.9824 32.0039 68.3125 33.2637 65.8735 33.2637ZM65.8808 31.7915C67.1553 31.7915 68.0268 31.0664 68.0268 30.0117C68.0268 28.957 67.1479 28.2319 65.8808 28.2319C64.6064 28.2319 63.7275 28.957 63.7275 30.0117C63.7275 31.0664 64.6064 31.7915 65.8808 31.7915ZM65.8808 26.7817C66.9502 26.7817 67.6899 26.1445 67.6899 25.2144C67.6899 24.2695 66.9575 23.6177 65.8808 23.6177C64.7969 23.6177 64.0644 24.2695 64.0644 25.2144C64.0644 26.1445 64.8042 26.7817 65.8808 26.7817Z" fill="black" fill-opacity="0.96"/>
<path d="M285.339 29.3337C285.891 29.3337 286.339 29.7815 286.339 30.3337V32.3337C286.339 32.8859 285.891 33.3337 285.339 33.3337H284.339C283.787 33.3337 283.339 32.8859 283.339 32.3337V30.3337C283.339 29.7815 283.787 29.3337 284.339 29.3337H285.339ZM290.006 27.3337C290.558 27.3339 291.006 27.7816 291.006 28.3337V32.3337C291.006 32.8858 290.558 33.3336 290.006 33.3337H289.006C288.454 33.3337 288.006 32.8859 288.006 32.3337V28.3337C288.006 27.7815 288.454 27.3337 289.006 27.3337H290.006ZM294.672 24.9998C295.224 24.9998 295.672 25.4476 295.672 25.9998V32.3337C295.672 32.8859 295.224 33.3337 294.672 33.3337H293.672C293.12 33.3336 292.672 32.8858 292.672 32.3337V25.9998C292.672 25.4477 293.12 24.9999 293.672 24.9998H294.672ZM299.339 22.6667C299.891 22.6667 300.339 23.1145 300.339 23.6667V32.3337C300.339 32.8859 299.891 33.3337 299.339 33.3337H298.339C297.787 33.3337 297.339 32.8859 297.339 32.3337V23.6667C297.339 23.1145 297.787 22.6667 298.339 22.6667H299.339Z" fill="black" fill-opacity="0.96"/>
<path fill-rule="evenodd" clip-rule="evenodd" d="M311.287 30.9267C312.568 29.8444 314.444 29.8444 315.725 30.9267C315.789 30.9849 315.826 31.0675 315.828 31.1542C315.83 31.2409 315.795 31.324 315.733 31.3847L313.729 33.4072C313.67 33.4666 313.589 33.4999 313.506 33.4999C313.422 33.4999 313.342 33.4666 313.283 33.4072L311.277 31.3847C311.216 31.324 311.182 31.2407 311.184 31.1542C311.185 31.0675 311.223 30.9848 311.287 30.9267ZM308.611 28.2294C311.37 25.665 315.643 25.6651 318.402 28.2294C318.465 28.2896 318.5 28.3724 318.501 28.4589C318.502 28.5453 318.468 28.6281 318.407 28.6894L317.248 29.8603C317.129 29.9796 316.936 29.9814 316.813 29.8652C315.907 29.0454 314.728 28.5917 313.506 28.5917C312.284 28.5923 311.107 29.0461 310.201 29.8652C310.079 29.9815 309.885 29.9798 309.766 29.8603L308.607 28.6894C308.546 28.6282 308.512 28.5453 308.513 28.4589C308.514 28.3724 308.549 28.2895 308.611 28.2294ZM305.936 25.539C310.167 21.4869 316.843 21.4871 321.075 25.539C321.136 25.5992 321.171 25.6817 321.172 25.7675C321.172 25.8533 321.139 25.9361 321.078 25.997L319.918 27.1669C319.798 27.287 319.604 27.2881 319.482 27.1699C317.87 25.6384 315.73 24.7842 313.506 24.7841C311.281 24.7841 309.141 25.6382 307.528 27.1699C307.407 27.2882 307.213 27.287 307.094 27.1669L305.933 25.997C305.872 25.9361 305.838 25.8532 305.839 25.7675C305.839 25.6817 305.874 25.5991 305.936 25.539Z" fill="black" fill-opacity="0.96"/>
<rect opacity="0.35" x="327.172" y="22.8333" width="21" height="10.3333" rx="3.5" stroke="black" stroke-opacity="0.96"/>
<path opacity="0.4" d="M349.672 26V30C350.477 29.6612 351 28.8731 351 28C351 27.1269 350.477 26.3388 349.672 26Z" fill="black" fill-opacity="0.96"/>
<rect x="328.672" y="24.3333" width="18" height="7.33333" rx="2.3" fill="black" fill-opacity="0.96"/>
<g clip-path="url(#clip1_17453_7661)">
<path d="M30.2934 75.2928L38.2942 67.292L39.7086 68.7063L32.4149 76L39.7086 83.2936L38.2942 84.708L30.2934 76.7072C29.9028 76.3166 29.9028 75.6834 30.2934 75.2928Z" fill="black" fill-opacity="0.64"/>
</g>
<path d="M124 76C124 75.4477 124.448 75 125 75H251C251.552 75 252 75.4477 252 76C252 76.5523 251.552 77 251 77H125C124.448 77 124 76.5523 124 76Z" fill="#EFEFEF"/>
<path d="M124 76C124 75.4477 124.448 75 125 75H187C187.552 75 188 75.4477 188 76C188 76.5523 187.552 77 187 77H125C124.448 77 124 76.5523 124 76Z" fill="#714F8F"/>
<path d="M35.424 138.28C29.292 138.28 25.288 133.884 25.288 128.116V127.892C25.288 122.04 29.488 117.7 35.424 117.7C41.388 117.7 45.504 121.928 45.504 127.808V128.032C45.504 133.884 41.5 138.28 35.424 138.28ZM35.48 135.284C39.26 135.284 41.64 132.4 41.64 128.06V127.836C41.64 123.72 39.344 120.668 35.424 120.668C31.504 120.668 29.18 123.552 29.18 127.864V128.088C29.18 132.456 31.84 135.284 35.48 135.284ZM47.9807 138V123.356H51.3687V125.68C52.0687 124.252 53.6927 123.048 56.1007 123.048C59.0407 123.048 61.1127 124.756 61.1127 128.788V138H57.7247V129.096C57.7247 126.884 56.8287 125.876 54.8127 125.876C52.9087 125.876 51.3687 127.052 51.3687 129.376V138H47.9807ZM69.6638 138.28C65.9958 138.28 63.2238 135.676 63.2238 130.916V130.692C63.2238 126.016 65.9958 123.048 69.8038 123.048C72.1838 123.048 73.6678 124.14 74.4798 125.596V116.58H77.8678V138H74.4798V135.536C73.6958 136.992 71.8198 138.28 69.6638 138.28ZM70.5038 135.592C72.8558 135.592 74.5918 134.024 74.5918 130.748V130.524C74.5918 127.304 73.1078 125.708 70.6438 125.708C68.1518 125.708 66.6958 127.444 66.6958 130.608V130.832C66.6958 134.052 68.3198 135.592 70.5038 135.592ZM87.4946 138.28C83.1826 138.28 80.0746 135.452 80.0746 130.832V130.608C80.0746 126.072 83.1826 123.048 87.3546 123.048C90.9946 123.048 94.2706 125.204 94.2706 130.44V131.42H83.5466C83.6586 134.192 85.0586 135.76 87.5786 135.76C89.6226 135.76 90.6866 134.948 90.9386 133.52H94.2146C93.7386 136.6 91.2466 138.28 87.4946 138.28ZM83.6026 129.152H90.9106C90.7426 126.632 89.4546 125.512 87.3546 125.512C85.3106 125.512 83.9386 126.884 83.6026 129.152ZM106.125 138L100.777 123.356H104.417L108.253 134.528L112.033 123.356H115.365L110.073 138H106.125ZM123.012 138.28C118.7 138.28 115.508 135.284 115.508 130.832V130.608C115.508 126.072 118.728 123.048 123.04 123.048C127.324 123.048 130.544 126.044 130.544 130.524V130.748C130.544 135.312 127.324 138.28 123.012 138.28ZM123.04 135.648C125.56 135.648 127.072 133.772 127.072 130.776V130.58C127.072 127.556 125.56 125.708 123.04 125.708C120.52 125.708 118.98 127.528 118.98 130.552V130.776C118.98 133.772 120.464 135.648 123.04 135.648ZM139.177 138.28C134.977 138.28 131.785 135.536 131.785 130.86V130.636C131.785 125.988 135.089 123.048 139.177 123.048C142.425 123.048 145.477 124.504 145.869 128.536H142.593C142.313 126.576 141.025 125.764 139.233 125.764C136.909 125.764 135.257 127.556 135.257 130.58V130.804C135.257 133.996 136.825 135.676 139.317 135.676C141.109 135.676 142.649 134.612 142.845 132.54H145.953C145.701 135.9 143.153 138.28 139.177 138.28ZM149.766 121.144L152.958 116.916H155.646L158.754 121.144H156.346L154.246 119.24L152.118 121.144H149.766ZM154.47 138.28C150.158 138.28 147.05 135.452 147.05 130.832V130.608C147.05 126.072 150.158 123.048 154.33 123.048C157.97 123.048 161.246 125.204 161.246 130.44V131.42H150.522C150.634 134.192 152.034 135.76 154.554 135.76C156.598 135.76 157.662 134.948 157.914 133.52H161.19C160.714 136.6 158.222 138.28 154.47 138.28ZM150.578 129.152H157.886C157.718 126.632 156.43 125.512 154.33 125.512C152.286 125.512 150.914 126.884 150.578 129.152ZM179.568 143.012V135.592C178.784 136.992 176.908 138.28 174.752 138.28C171.084 138.28 168.312 135.676 168.312 130.916V130.692C168.312 126.016 171.084 123.048 174.892 123.048C177.272 123.048 178.756 124.14 179.568 125.596V123.356H182.956V143.012H179.568ZM175.592 135.592C177.944 135.592 179.68 134.024 179.68 130.748V130.524C179.68 127.304 178.196 125.708 175.732 125.708C173.24 125.708 171.784 127.444 171.784 130.608V130.832C171.784 134.052 173.408 135.592 175.592 135.592ZM191.043 138.28C188.159 138.28 186.003 136.628 186.003 132.736V123.356H189.391V132.344C189.391 134.556 190.315 135.564 192.275 135.564C194.095 135.564 195.691 134.388 195.691 132.064V123.356H199.079V138H195.691V135.704C194.963 137.132 193.423 138.28 191.043 138.28ZM208.696 138.28C204.384 138.28 201.276 135.452 201.276 130.832V130.608C201.276 126.072 204.384 123.048 208.556 123.048C212.196 123.048 215.472 125.204 215.472 130.44V131.42H204.748C204.86 134.192 206.26 135.76 208.78 135.76C210.824 135.76 211.888 134.948 212.14 133.52H215.416C214.94 136.6 212.448 138.28 208.696 138.28ZM204.804 129.152H212.112C211.944 126.632 210.656 125.512 208.556 125.512C206.512 125.512 205.14 126.884 204.804 129.152ZM217.659 138V123.356H221.047V126.1C221.971 124.252 223.343 123.16 225.807 123.132V126.296C222.839 126.324 221.047 127.276 221.047 130.384V138H217.659ZM233.779 138V123.356H237.167V126.1C238.091 124.252 239.463 123.16 241.927 123.132V126.296C238.959 126.324 237.167 127.276 237.167 130.384V138H233.779ZM250.207 138.28C245.895 138.28 242.787 135.452 242.787 130.832V130.608C242.787 126.072 245.895 123.048 250.067 123.048C253.707 123.048 256.983 125.204 256.983 130.44V131.42H246.259C246.371 134.192 247.771 135.76 250.291 135.76C252.335 135.76 253.399 134.948 253.651 133.52H256.927C256.451 136.6 253.959 138.28 250.207 138.28ZM246.315 129.152H253.623C253.455 126.632 252.167 125.512 250.067 125.512C248.023 125.512 246.651 126.884 246.315 129.152ZM265.582 138.28C261.382 138.28 258.19 135.536 258.19 130.86V130.636C258.19 125.988 261.494 123.048 265.582 123.048C268.83 123.048 271.882 124.504 272.274 128.536H268.998C268.718 126.576 267.43 125.764 265.638 125.764C263.314 125.764 261.662 127.556 261.662 130.58V130.804C261.662 133.996 263.23 135.676 265.722 135.676C267.514 135.676 269.054 134.612 269.25 132.54H272.358C272.106 135.9 269.558 138.28 265.582 138.28ZM280.875 138.28C276.563 138.28 273.455 135.452 273.455 130.832V130.608C273.455 126.072 276.563 123.048 280.735 123.048C284.375 123.048 287.651 125.204 287.651 130.44V131.42H276.927C277.039 134.192 278.439 135.76 280.959 135.76C283.003 135.76 284.067 134.948 284.319 133.52H287.595C287.119 136.6 284.627 138.28 280.875 138.28ZM276.983 129.152H284.291C284.123 126.632 282.835 125.512 280.735 125.512C278.691 125.512 277.319 126.884 276.983 129.152ZM298.013 138.28C295.689 138.28 294.009 137.132 293.225 135.648V138H289.837V116.58H293.225V125.708C294.037 124.308 295.857 123.048 298.013 123.048C301.681 123.048 304.509 125.764 304.509 130.496V130.72C304.509 135.424 301.793 138.28 298.013 138.28ZM297.173 135.592C299.665 135.592 301.037 133.912 301.037 130.776V130.552C301.037 127.304 299.357 125.708 297.145 125.708C294.793 125.708 293.113 127.304 293.113 130.552V130.776C293.113 134.052 294.709 135.592 297.173 135.592ZM313.156 138.28C308.844 138.28 305.736 135.452 305.736 130.832V130.608C305.736 126.072 308.844 123.048 313.016 123.048C316.656 123.048 319.932 125.204 319.932 130.44V131.42H309.208C309.32 134.192 310.72 135.76 313.24 135.76C315.284 135.76 316.348 134.948 316.6 133.52H319.876C319.4 136.6 316.908 138.28 313.156 138.28ZM309.264 129.152H316.572C316.404 126.632 315.116 125.512 313.016 125.512C310.972 125.512 309.6 126.884 309.264 129.152ZM322.118 138V123.356H325.506V126.1C326.43 124.252 327.802 123.16 330.266 123.132V126.296C327.298 126.324 325.506 127.276 325.506 130.384V138H322.118ZM31.028 172.28C27.248 172.28 25.036 170.544 24.896 167.436H28.088C28.256 168.92 29.012 169.788 31 169.788C32.82 169.788 33.632 169.144 33.632 167.912C33.632 166.708 32.652 166.26 30.496 165.896C26.632 165.28 25.204 164.188 25.204 161.444C25.204 158.504 27.948 157.048 30.692 157.048C33.688 157.048 36.068 158.168 36.432 161.472H33.296C33.016 160.128 32.26 159.512 30.692 159.512C29.236 159.512 28.368 160.212 28.368 161.248C28.368 162.312 29.068 162.732 31.392 163.124C34.836 163.656 36.88 164.496 36.88 167.604C36.88 170.572 34.78 172.28 31.028 172.28ZM43.9119 172.28C41.0279 172.28 38.8719 170.628 38.8719 166.736V157.356H42.2599V166.344C42.2599 168.556 43.1839 169.564 45.1439 169.564C46.9639 169.564 48.5599 168.388 48.5599 166.064V157.356H51.9479V172H48.5599V169.704C47.8319 171.132 46.2919 172.28 43.9119 172.28ZM58.9611 172.28C56.2731 172.28 54.0611 170.992 54.0611 167.94C54.0611 164.524 57.3651 163.292 61.5651 163.292H63.3851V162.536C63.3851 160.576 62.7131 159.596 60.7251 159.596C58.9611 159.596 58.0931 160.436 57.9251 161.892H54.6491C54.9291 158.476 57.6451 157.048 60.9211 157.048C64.1971 157.048 66.7731 158.392 66.7731 162.396V172H63.4411V170.208C62.4891 171.468 61.2011 172.28 58.9611 172.28ZM59.7731 169.844C61.8451 169.844 63.3851 168.752 63.3851 166.876V165.42H61.6491C59.0731 165.42 57.4211 166.008 57.4211 167.8C57.4211 169.032 58.0931 169.844 59.7731 169.844ZM75.6482 172V157.356H79.0362V160.1C79.9602 158.252 81.3322 157.16 83.7962 157.132V160.296C80.8282 160.324 79.0362 161.276 79.0362 164.384V172H75.6482ZM92.1603 172.28C87.8483 172.28 84.6563 169.284 84.6563 164.832V164.608C84.6563 160.072 87.8763 157.048 92.1883 157.048C96.4723 157.048 99.6923 160.044 99.6923 164.524V164.748C99.6923 169.312 96.4723 172.28 92.1603 172.28ZM92.1883 169.648C94.7083 169.648 96.2203 167.772 96.2203 164.776V164.58C96.2203 161.556 94.7083 159.708 92.1883 159.708C89.6683 159.708 88.1283 161.528 88.1283 164.552V164.776C88.1283 167.772 89.6123 169.648 92.1883 169.648ZM99.5558 172L104.652 164.496L99.8918 157.356H103.812L106.864 162.088L109.888 157.356H113.444L108.712 164.244L113.948 172H110L106.584 166.708L103.084 172H99.5558ZM117.438 154.948C116.318 154.948 115.422 154.108 115.422 153.016C115.422 151.896 116.318 151.056 117.438 151.056C118.558 151.056 119.454 151.896 119.454 153.016C119.454 154.108 118.558 154.948 117.438 154.948ZM115.786 172V157.356H119.174V172H115.786ZM122.464 172V157.356H125.852V159.68C126.552 158.252 128.176 157.048 130.584 157.048C133.524 157.048 135.596 158.756 135.596 162.788V172H132.208V163.096C132.208 160.884 131.312 159.876 129.296 159.876C127.392 159.876 125.852 161.052 125.852 163.376V172H122.464ZM138.659 172V150.58H142.047V159.68C142.747 158.252 144.371 157.048 146.779 157.048C149.719 157.048 151.791 158.756 151.791 162.788V172H148.403V163.096C148.403 160.884 147.507 159.876 145.491 159.876C143.587 159.876 142.047 161.052 142.047 163.376V172H138.659ZM158.69 172.28C156.002 172.28 153.79 170.992 153.79 167.94C153.79 164.524 157.094 163.292 161.294 163.292H163.114V162.536C163.114 160.576 162.442 159.596 160.454 159.596C158.69 159.596 157.822 160.436 157.654 161.892H154.378C154.658 158.476 157.374 157.048 160.65 157.048C163.926 157.048 166.502 158.392 166.502 162.396V172H163.17V170.208C162.218 171.468 160.93 172.28 158.69 172.28ZM159.502 169.844C161.574 169.844 163.114 168.752 163.114 166.876V165.42H161.378C158.802 165.42 157.15 166.008 157.15 167.8C157.15 169.032 157.822 169.844 159.502 169.844ZM171.883 165.98V164.916C171.883 162.704 173.367 161.332 174.711 160.016C175.747 158.98 176.671 158.056 176.671 156.852C176.671 155.424 175.887 154.5 174.179 154.5C172.443 154.5 171.239 155.732 171.043 157.664H167.795C167.991 153.996 170.595 151.7 174.347 151.7C178.351 151.7 180.227 153.884 180.227 156.6C180.227 158.588 179.023 159.876 177.763 161.108C176.447 162.368 175.103 163.516 175.019 165.084V165.98H171.883ZM173.423 172.196C172.163 172.196 171.127 171.244 171.127 170.04C171.127 168.808 172.163 167.856 173.423 167.856C174.655 167.856 175.663 168.808 175.663 170.04C175.663 171.244 174.655 172.196 173.423 172.196Z" fill="black" fill-opacity="0.96"/>
<rect width="375" height="93" transform="translate(0 204)" fill="white"/>
<circle cx="36" cy="250.5" r="11" stroke="#6A6A6A" stroke-width="2"/>
<circle cx="36" cy="250.5" r="6" fill="#714F8F"/>
<g clip-path="url(#clip2_17453_7661)">
<path d="M65.312 232V220.56H69.152C71.664 220.56 73.424 221.584 73.424 223.92V223.984C73.424 225.776 72.304 226.688 70.88 227.056L74.096 232H71.792L68.8 227.376H67.44V232H65.312ZM67.44 225.856H69.152C70.576 225.856 71.328 225.248 71.328 224.032V223.968C71.328 222.656 70.512 222.208 69.152 222.208H67.44V225.856ZM78.0733 232.16C76.4253 232.16 75.1933 231.216 75.1933 228.992V223.632H77.1293V228.768C77.1293 230.032 77.6573 230.608 78.7773 230.608C79.8173 230.608 80.7293 229.936 80.7293 228.608V223.632H82.6653V232H80.7293V230.688C80.3133 231.504 79.4333 232.16 78.0733 232.16ZM86.9928 232.16C85.4568 232.16 84.1928 231.424 84.1928 229.68C84.1928 227.728 86.0808 227.024 88.4808 227.024H89.5208V226.592C89.5208 225.472 89.1368 224.912 88.0008 224.912C86.9928 224.912 86.4968 225.392 86.4008 226.224H84.5288C84.6888 224.272 86.2408 223.456 88.1128 223.456C89.9848 223.456 91.4568 224.224 91.4568 226.512V232H89.5528V230.976C89.0088 231.696 88.2728 232.16 86.9928 232.16ZM87.4568 230.768C88.6408 230.768 89.5208 230.144 89.5208 229.072V228.24H88.5288C87.0568 228.24 86.1128 228.576 86.1128 229.6C86.1128 230.304 86.4968 230.768 87.4568 230.768ZM102.336 232.16C98.7523 232.16 96.7523 229.872 96.7523 226.352V226.224C96.7523 222.784 99.1203 220.384 102.304 220.384C104.928 220.384 106.96 221.696 107.216 224.384H105.056C104.816 222.864 103.968 222.08 102.32 222.08C100.304 222.08 98.9923 223.648 98.9923 226.208V226.336C98.9923 228.912 100.224 230.432 102.336 230.432C103.92 230.432 105.04 229.632 105.264 228.016H107.344C107.008 230.768 105.056 232.16 102.336 232.16ZM111.169 232.16C109.633 232.16 108.369 231.424 108.369 229.68C108.369 227.728 110.257 227.024 112.657 227.024H113.697V226.592C113.697 225.472 113.313 224.912 112.177 224.912C111.169 224.912 110.673 225.392 110.577 226.224H108.705C108.865 224.272 110.417 223.456 112.289 223.456C114.161 223.456 115.633 224.224 115.633 226.512V232H113.729V230.976C113.185 231.696 112.449 232.16 111.169 232.16ZM111.633 230.768C112.817 230.768 113.697 230.144 113.697 229.072V228.24H112.705C111.233 228.24 110.289 228.576 110.289 229.6C110.289 230.304 110.673 230.768 111.633 230.768ZM117.692 234.864V223.632H119.628V224.976C120.092 224.176 121.132 223.456 122.364 223.456C124.46 223.456 126.076 225.008 126.076 227.712V227.84C126.076 230.528 124.524 232.16 122.364 232.16C121.036 232.16 120.076 231.504 119.628 230.688V234.864H117.692ZM121.884 230.624C123.308 230.624 124.092 229.664 124.092 227.872V227.744C124.092 225.888 123.132 224.976 121.868 224.976C120.524 224.976 119.564 225.888 119.564 227.744V227.872C119.564 229.744 120.476 230.624 121.884 230.624ZM131.385 232.16C128.921 232.16 127.097 230.448 127.097 227.904V227.776C127.097 225.184 128.937 223.456 131.401 223.456C133.849 223.456 135.689 225.168 135.689 227.728V227.856C135.689 230.464 133.849 232.16 131.385 232.16ZM131.401 230.656C132.841 230.656 133.705 229.584 133.705 227.872V227.76C133.705 226.032 132.841 224.976 131.401 224.976C129.961 224.976 129.081 226.016 129.081 227.744V227.872C129.081 229.584 129.929 230.656 131.401 230.656ZM140.126 232.144C138.462 232.144 137.598 231.248 137.598 229.664V225.088H136.478V223.632H137.598V221.792H139.534V223.632H141.374V225.088H139.534V229.488C139.534 230.224 139.886 230.56 140.494 230.56C140.878 230.56 141.166 230.512 141.438 230.4V231.936C141.134 232.048 140.718 232.144 140.126 232.144ZM146.704 232.16C144.24 232.16 142.464 230.544 142.464 227.904V227.776C142.464 225.184 144.24 223.456 146.624 223.456C148.704 223.456 150.576 224.688 150.576 227.68V228.24H144.448C144.512 229.824 145.312 230.72 146.752 230.72C147.92 230.72 148.528 230.256 148.672 229.44H150.544C150.272 231.2 148.848 232.16 146.704 232.16ZM144.48 226.944H148.656C148.56 225.504 147.824 224.864 146.624 224.864C145.456 224.864 144.672 225.648 144.48 226.944ZM158.87 232L155.014 220.56H157.238L160.214 229.84L163.206 220.56H165.206L161.334 232H158.87ZM168.065 232.16C166.529 232.16 165.265 231.424 165.265 229.68C165.265 227.728 167.153 227.024 169.553 227.024H170.593V226.592C170.593 225.472 170.209 224.912 169.073 224.912C168.065 224.912 167.569 225.392 167.473 226.224H165.601C165.761 224.272 167.313 223.456 169.185 223.456C171.057 223.456 172.529 224.224 172.529 226.512V232H170.625V230.976C170.081 231.696 169.345 232.16 168.065 232.16ZM168.529 230.768C169.713 230.768 170.593 230.144 170.593 229.072V228.24H169.601C168.129 228.24 167.185 228.576 167.185 229.6C167.185 230.304 167.569 230.768 168.529 230.768ZM174.636 232V219.76H176.572V232H174.636ZM182.451 232.16C179.987 232.16 178.211 230.544 178.211 227.904V227.776C178.211 225.184 179.987 223.456 182.371 223.456C184.451 223.456 186.323 224.688 186.323 227.68V228.24H180.195C180.259 229.824 181.059 230.72 182.499 230.72C183.667 230.72 184.275 230.256 184.419 229.44H186.291C186.019 231.2 184.595 232.16 182.451 232.16ZM180.227 226.944H184.403C184.307 225.504 183.571 224.864 182.371 224.864C181.203 224.864 180.419 225.648 180.227 226.944ZM187.893 232V223.632H189.829V224.96C190.229 224.144 191.157 223.456 192.533 223.456C194.213 223.456 195.397 224.432 195.397 226.736V232H193.461V226.912C193.461 225.648 192.949 225.072 191.797 225.072C190.709 225.072 189.829 225.744 189.829 227.072V232H187.893ZM200.315 232.144C198.651 232.144 197.787 231.248 197.787 229.664V225.088H196.667V223.632H197.787V221.792H199.723V223.632H201.563V225.088H199.723V229.488C199.723 230.224 200.075 230.56 200.683 230.56C201.067 230.56 201.355 230.512 201.627 230.4V231.936C201.323 232.048 200.907 232.144 200.315 232.144ZM206.893 232.16C204.429 232.16 202.653 230.544 202.653 227.904V227.776C202.653 225.184 204.429 223.456 206.813 223.456C208.893 223.456 210.765 224.688 210.765 227.68V228.24H204.637C204.701 229.824 205.501 230.72 206.941 230.72C208.109 230.72 208.717 230.256 208.861 229.44H210.733C210.461 231.2 209.037 232.16 206.893 232.16ZM204.669 226.944H208.845C208.749 225.504 208.013 224.864 206.813 224.864C205.645 224.864 204.861 225.648 204.669 226.944ZM212.752 233.968L211.552 233.44L213.008 229.648L214.848 230.384L212.752 233.968ZM223.973 232.16C221.349 232.16 219.909 230.688 219.829 228.464H221.733C221.829 229.68 222.421 230.544 223.925 230.544C225.381 230.544 226.005 229.824 226.005 228.704C226.005 227.456 225.365 226.832 224.005 226.832H223.125V225.312H223.957C225.221 225.312 225.829 224.704 225.829 223.648C225.829 222.72 225.285 222.032 224.133 222.032C222.949 222.032 222.181 222.752 222.069 223.92H220.229C220.309 221.904 221.797 220.416 224.149 220.416C226.469 220.416 227.797 221.76 227.797 223.472C227.797 224.768 227.045 225.568 225.957 225.968C227.253 226.288 228.117 227.216 228.117 228.72C228.117 230.848 226.517 232.16 223.973 232.16ZM233.198 232.144C230.958 232.144 229.63 231.04 229.39 229.008H231.278C231.47 229.952 231.998 230.544 233.198 230.544C234.782 230.544 235.614 229.248 235.646 226.544C235.15 227.392 234.19 227.984 232.91 227.984C230.83 227.984 229.31 226.576 229.31 224.304C229.31 221.968 230.846 220.4 233.342 220.4C236.174 220.4 237.615 222.24 237.615 225.52V226.416C237.615 230.096 235.998 232.144 233.198 232.144ZM233.39 226.48C234.654 226.48 235.55 225.664 235.55 224.4C235.55 222.864 234.638 221.984 233.374 221.984C232.126 221.984 231.278 222.864 231.278 224.224C231.278 225.6 232.11 226.48 233.39 226.48Z" fill="black" fill-opacity="0.96"/>
<path d="M64.504 257L67.948 246.99H69.544L72.932 257H71.728L70.748 254.116H66.618L65.652 257H64.504ZM68.69 247.998L66.954 253.15H70.426L68.69 247.998ZM74.4696 259.548V249.678H75.6316V250.91C76.0516 250.196 77.0456 249.552 78.1096 249.552C80.0276 249.552 81.4416 250.952 81.4416 253.234V253.346C81.4416 255.586 80.1256 257.126 78.1096 257.126C76.9056 257.126 76.0516 256.524 75.6316 255.796V259.548H74.4696ZM77.9976 256.16C79.4536 256.16 80.2376 255.18 80.2376 253.402V253.29C80.2376 251.442 79.2156 250.518 77.9836 250.518C76.6256 250.518 75.5896 251.414 75.5896 253.29V253.402C75.5896 255.278 76.5696 256.16 77.9976 256.16ZM85.3329 257.098C84.0029 257.098 83.3589 256.314 83.3589 255.166V250.658H82.3089V249.678H83.3589V248.012H84.5209V249.678H86.2289V250.658H84.5209V255.054C84.5209 255.768 84.8429 256.118 85.4309 256.118C85.7949 256.118 86.0749 256.062 86.3269 255.964V256.944C86.0889 257.028 85.8089 257.098 85.3329 257.098ZM90.9815 257.126C88.8955 257.126 87.3975 255.544 87.3975 253.402V253.29C87.3975 251.092 88.9235 249.552 90.9955 249.552C93.0675 249.552 94.5935 251.078 94.5935 253.276V253.388C94.5935 255.6 93.0675 257.126 90.9815 257.126ZM90.9955 256.16C92.4655 256.16 93.3895 255.054 93.3895 253.402V253.304C93.3895 251.61 92.4515 250.518 90.9955 250.518C89.5255 250.518 88.6015 251.61 88.6015 253.29V253.402C88.6015 255.068 89.5115 256.16 90.9955 256.16ZM96.6953 257.07C96.2053 257.07 95.7993 256.678 95.7993 256.174C95.7993 255.67 96.2053 255.278 96.6953 255.278C97.1853 255.278 97.5913 255.67 97.5913 256.174C97.5913 256.678 97.1853 257.07 96.6953 257.07ZM102.237 257.126C100.109 257.126 98.807 255.796 98.737 254.046H99.857C99.969 255.236 100.683 256.146 102.265 256.146C103.833 256.146 104.547 255.39 104.547 254.214C104.547 252.926 103.847 252.268 102.433 252.268H101.677V251.246H102.377C103.679 251.246 104.253 250.63 104.253 249.538C104.253 248.586 103.651 247.858 102.433 247.858C101.187 247.858 100.347 248.614 100.221 249.748H99.157C99.227 248.166 100.529 246.864 102.433 246.864C104.337 246.864 105.443 248.124 105.443 249.51C105.443 250.644 104.771 251.316 103.861 251.694C105.037 252.002 105.793 252.828 105.793 254.214C105.793 256.034 104.309 257.126 102.237 257.126ZM111.302 257.126C108.908 257.126 107.326 255.194 107.326 252.282V251.722C107.326 248.768 108.824 246.864 111.274 246.864C113.738 246.864 115.18 248.838 115.18 251.694V252.254C115.18 255.166 113.766 257.126 111.302 257.126ZM111.302 256.118C113.052 256.118 113.948 254.774 113.948 252.24V251.68C113.948 249.356 112.968 247.844 111.274 247.844C109.58 247.844 108.572 249.244 108.572 251.708V252.268C108.572 254.802 109.636 256.118 111.302 256.118ZM116.141 257V256.72L120.117 252.534C121.027 251.568 121.559 250.658 121.559 249.636C121.559 248.516 120.901 247.844 119.767 247.844C118.605 247.844 117.849 248.502 117.653 250.07H116.519C116.673 248.11 117.863 246.864 119.767 246.864C121.615 246.864 122.791 247.956 122.791 249.678C122.791 250.91 122.007 252.114 120.775 253.318L118.017 256.006H122.847V257H116.141ZM65.26 278V267.99H68.102C70.02 267.99 71.602 268.83 71.602 270.916V270.972C71.602 273.1 70.006 273.926 68.102 273.926H66.478V278H65.26ZM66.478 272.96H68.186C69.614 272.96 70.384 272.26 70.384 270.972V270.916C70.384 269.502 69.544 268.97 68.186 268.97H66.478V272.96ZM73.7588 269.152C73.3388 269.152 72.9888 268.802 72.9888 268.382C72.9888 267.962 73.3388 267.612 73.7588 267.612C74.1788 267.612 74.5288 267.962 74.5288 268.382C74.5288 268.802 74.1788 269.152 73.7588 269.152ZM73.1988 278V270.678H74.3608V278H73.1988ZM76.5991 278V270.678H77.7611V271.84C78.0971 271.154 78.9091 270.552 80.1131 270.552C81.6251 270.552 82.6891 271.378 82.6891 273.506V278H81.5271V273.422C81.5271 272.134 80.9811 271.56 79.8051 271.56C78.7271 271.56 77.7611 272.246 77.7611 273.562V278H76.5991ZM84.8263 278V267.178H85.9883V271.84C86.3243 271.154 87.1363 270.552 88.3403 270.552C89.8523 270.552 90.9163 271.378 90.9163 273.506V278H89.7543V273.422C89.7543 272.134 89.2083 271.56 88.0323 271.56C86.9543 271.56 85.9883 272.246 85.9883 273.562V278H84.8263ZM96.0495 278.126C93.9775 278.126 92.5075 276.67 92.5075 274.416V274.304C92.5075 272.092 93.9215 270.552 95.9375 270.552C97.6315 270.552 99.2275 271.574 99.2275 274.192V274.57H93.7115C93.7675 276.236 94.5655 277.16 96.0635 277.16C97.1975 277.16 97.8555 276.74 98.0095 275.886H99.1715C98.9195 277.356 97.7015 278.126 96.0495 278.126ZM93.7535 273.632H98.0375C97.9255 272.12 97.1415 271.518 95.9375 271.518C94.7475 271.518 93.9495 272.33 93.7535 273.632ZM101.459 269.152C101.039 269.152 100.689 268.802 100.689 268.382C100.689 267.962 101.039 267.612 101.459 267.612C101.879 267.612 102.229 267.962 102.229 268.382C102.229 268.802 101.879 269.152 101.459 269.152ZM100.899 278V270.678H102.061V278H100.899ZM104.299 278V270.678H105.461V271.994C105.923 271.168 106.553 270.594 107.869 270.552V271.644C106.399 271.714 105.461 272.176 105.461 273.982V278H104.299ZM112.255 278.126C110.169 278.126 108.671 276.544 108.671 274.402V274.29C108.671 272.092 110.197 270.552 112.269 270.552C114.341 270.552 115.867 272.078 115.867 274.276V274.388C115.867 276.6 114.341 278.126 112.255 278.126ZM112.269 277.16C113.739 277.16 114.663 276.054 114.663 274.402V274.304C114.663 272.61 113.725 271.518 112.269 271.518C110.799 271.518 109.875 272.61 109.875 274.29V274.402C109.875 276.068 110.785 277.16 112.269 277.16ZM119.795 278.126C118.045 278.126 116.995 277.244 116.925 275.746H118.059C118.143 276.614 118.605 277.16 119.781 277.16C120.887 277.16 121.377 276.782 121.377 275.998C121.377 275.228 120.803 274.976 119.669 274.766C117.765 274.416 117.121 273.884 117.121 272.61C117.121 271.252 118.451 270.552 119.599 270.552C120.915 270.552 122.049 271.084 122.245 272.666H121.125C120.957 271.868 120.509 271.518 119.585 271.518C118.745 271.518 118.199 271.938 118.199 272.568C118.199 273.226 118.563 273.492 119.907 273.73C121.419 274.01 122.483 274.346 122.483 275.9C122.483 277.23 121.573 278.126 119.795 278.126ZM124.043 279.386V278.714C124.645 278.63 124.911 278.392 124.911 277.958C124.379 277.958 124.015 277.664 124.015 277.118C124.015 276.642 124.421 276.278 124.883 276.278C125.415 276.278 125.807 276.656 125.807 277.3V277.566C125.807 278.798 125.023 279.33 124.043 279.386ZM134.808 278.126C132.134 278.126 131.168 276.656 130.986 274.948H132.162C132.316 276.138 132.792 277.146 134.808 277.146C136.096 277.146 137.09 276.39 137.09 275.256C137.09 274.122 136.572 273.646 134.668 273.338C132.568 273.016 131.322 272.358 131.322 270.58C131.322 269.04 132.652 267.864 134.542 267.864C136.544 267.864 137.79 268.844 137.986 270.622H136.894C136.656 269.362 135.928 268.844 134.542 268.844C133.17 268.844 132.456 269.53 132.456 270.468C132.456 271.448 132.82 271.952 134.864 272.26C137.09 272.61 138.266 273.282 138.266 275.172C138.266 276.852 136.796 278.126 134.808 278.126ZM143.501 269.334C142.899 269.334 142.395 268.732 141.989 268.732C141.723 268.732 141.499 268.998 141.429 269.362H140.589C140.701 268.368 141.275 267.738 142.003 267.738C142.591 267.738 143.095 268.34 143.501 268.34C143.767 268.34 143.991 268.074 144.061 267.71H144.901C144.789 268.704 144.215 269.334 143.501 269.334ZM141.961 278.126C140.603 278.126 139.525 277.468 139.525 275.97C139.525 274.276 141.317 273.702 143.193 273.702H144.243V273.17C144.243 272.008 143.795 271.518 142.675 271.518C141.667 271.518 141.107 271.938 140.995 272.834H139.833C139.987 271.168 141.317 270.552 142.731 270.552C144.131 270.552 145.405 271.126 145.405 273.17V278H144.243V277.076C143.697 277.762 143.039 278.126 141.961 278.126ZM142.073 277.202C143.305 277.202 144.243 276.572 144.243 275.438V274.528H143.235C141.765 274.528 140.687 274.892 140.687 275.97C140.687 276.726 141.051 277.202 142.073 277.202ZM150.585 278.126C148.499 278.126 147.001 276.544 147.001 274.402V274.29C147.001 272.092 148.527 270.552 150.599 270.552C152.671 270.552 154.197 272.078 154.197 274.276V274.388C154.197 276.6 152.671 278.126 150.585 278.126ZM150.599 277.16C152.069 277.16 152.993 276.054 152.993 274.402V274.304C152.993 272.61 152.055 271.518 150.599 271.518C149.129 271.518 148.205 272.61 148.205 274.29V274.402C148.205 276.068 149.115 277.16 150.599 277.16ZM159.506 278V267.99H162.348C164.266 267.99 165.848 268.83 165.848 270.916V270.972C165.848 273.1 164.252 273.926 162.348 273.926H160.724V278H159.506ZM160.724 272.96H162.432C163.86 272.96 164.63 272.26 164.63 270.972V270.916C164.63 269.502 163.79 268.97 162.432 268.97H160.724V272.96ZM169.182 278.126C167.824 278.126 166.746 277.468 166.746 275.97C166.746 274.276 168.538 273.702 170.414 273.702H171.464V273.17C171.464 272.008 171.016 271.518 169.896 271.518C168.888 271.518 168.328 271.938 168.216 272.834H167.054C167.208 271.168 168.538 270.552 169.952 270.552C171.352 270.552 172.626 271.126 172.626 273.17V278H171.464V277.076C170.918 277.762 170.26 278.126 169.182 278.126ZM169.294 277.202C170.526 277.202 171.464 276.572 171.464 275.438V274.528H170.456C168.986 274.528 167.908 274.892 167.908 275.97C167.908 276.726 168.272 277.202 169.294 277.202ZM177.247 278.126C175.791 278.126 174.699 277.328 174.699 275.312V270.678H175.861V275.256C175.861 276.544 176.407 277.118 177.555 277.118C178.591 277.118 179.571 276.432 179.571 275.116V270.678H180.733V278H179.571V276.838C179.235 277.524 178.423 278.126 177.247 278.126ZM182.969 278V267.178H184.145V278H182.969ZM189.421 278.126C187.335 278.126 185.837 276.544 185.837 274.402V274.29C185.837 272.092 187.363 270.552 189.435 270.552C191.507 270.552 193.033 272.078 193.033 274.276V274.388C193.033 276.6 191.507 278.126 189.421 278.126ZM189.435 277.16C190.905 277.16 191.829 276.054 191.829 274.402V274.304C191.829 272.61 190.891 271.518 189.435 271.518C187.965 271.518 187.041 272.61 187.041 274.29V274.402C187.041 276.068 187.951 277.16 189.435 277.16ZM197.921 274.696V273.604H200.917V274.696H197.921ZM209.676 278.126C207.002 278.126 206.036 276.656 205.854 274.948H207.03C207.184 276.138 207.66 277.146 209.676 277.146C210.964 277.146 211.958 276.39 211.958 275.256C211.958 274.122 211.44 273.646 209.536 273.338C207.436 273.016 206.19 272.358 206.19 270.58C206.19 269.04 207.52 267.864 209.41 267.864C211.412 267.864 212.658 268.844 212.854 270.622H211.762C211.524 269.362 210.796 268.844 209.41 268.844C208.038 268.844 207.324 269.53 207.324 270.468C207.324 271.448 207.688 271.952 209.732 272.26C211.958 272.61 213.134 273.282 213.134 275.172C213.134 276.852 211.664 278.126 209.676 278.126ZM215.08 278V267.99H217.922C219.84 267.99 221.422 268.83 221.422 270.916V270.972C221.422 273.1 219.826 273.926 217.922 273.926H216.298V278H215.08ZM216.298 272.96H218.006C219.434 272.96 220.204 272.26 220.204 270.972V270.916C220.204 269.502 219.364 268.97 218.006 268.97H216.298V272.96Z" fill="black" fill-opacity="0.64"/>
</g>
<path d="M344.032 248.793L335.325 257.5H332.154V254.328L340.861 245.621L344.032 248.793ZM345.447 247.379L342.275 244.207L343.24 243.243C344.021 242.461 345.287 242.461 346.068 243.243L346.411 243.586C347.192 244.367 347.192 245.633 346.411 246.414L345.447 247.379ZM347.825 247.828C349.387 246.266 349.387 243.734 347.825 242.171L347.482 241.828C345.92 240.266 343.387 240.266 341.825 241.828L330.154 253.5V259.5H336.154L347.825 247.828Z" fill="#714F8F"/>
<rect width="375" height="40" transform="translate(0 305)" fill="white"/>
<rect width="375" height="1" transform="translate(0 344)" fill="#EFEFEF"/>
<path d="M39 309C39.5523 309 40 309.448 40 310V312H43C45.2091 312 47 313.791 47 316V322H44C44 323.657 42.6569 325 41 325C39.3431 325 38 323.657 38 322H33C33 323.657 31.6569 325 30 325C28.3431 325 27 323.657 27 322H25V310C25 309.448 25.4477 309 26 309H39ZM29 321V323H31V321H29ZM40 321V323H42V321H40ZM27 311V320H27.7637C28.313 319.386 29.1115 319 30 319C30.8885 319 31.687 319.386 32.2363 320H38V311H27ZM40 314V319.171C40.3128 319.06 40.6494 319 41 319C41.8885 319 42.687 319.386 43.2363 320H45V318H43V316H45C45 314.895 44.1046 314 43 314H40Z" fill="black" fill-opacity="0.96"/>
<path d="M65.26 321V310.99H71.098V311.984H66.478V315.386H70.202V316.38H66.478V320.006H71.35V321H65.26ZM72.9657 321V313.678H74.1277V314.798C74.4637 314.112 75.2617 313.552 76.3117 313.552C77.2497 313.552 78.0757 313.944 78.4537 314.924C78.9577 313.972 80.0497 313.552 80.9597 313.552C82.2757 313.552 83.4237 314.336 83.4237 316.464V321H82.2617V316.38C82.2617 315.092 81.7157 314.56 80.7077 314.56C79.7557 314.56 78.7757 315.204 78.7757 316.52V321H77.6137V316.38C77.6137 315.092 77.0677 314.56 76.0597 314.56C75.1077 314.56 74.1277 315.204 74.1277 316.52V321H72.9657ZM90.967 321.126C89.609 321.126 88.531 320.468 88.531 318.97C88.531 317.276 90.323 316.702 92.199 316.702H93.249V316.17C93.249 315.008 92.801 314.518 91.681 314.518C90.673 314.518 90.113 314.938 90.001 315.834H88.839C88.993 314.168 90.323 313.552 91.737 313.552C93.137 313.552 94.411 314.126 94.411 316.17V321H93.249V320.076C92.703 320.762 92.045 321.126 90.967 321.126ZM91.079 320.202C92.311 320.202 93.249 319.572 93.249 318.438V317.528H92.241C90.771 317.528 89.693 317.892 89.693 318.97C89.693 319.726 90.057 320.202 91.079 320.202ZM98.7795 321.098C97.4495 321.098 96.8055 320.314 96.8055 319.166V314.658H95.7555V313.678H96.8055V312.012H97.9675V313.678H99.6755V314.658H97.9675V319.054C97.9675 319.768 98.2895 320.118 98.8775 320.118C99.2415 320.118 99.5215 320.062 99.7735 319.964V320.944C99.5355 321.028 99.2555 321.098 98.7795 321.098ZM103.756 312.418L104.624 310.36H106.08L104.624 312.418H103.756ZM104.386 321.126C102.314 321.126 100.844 319.67 100.844 317.416V317.304C100.844 315.092 102.258 313.552 104.274 313.552C105.968 313.552 107.564 314.574 107.564 317.192V317.57H102.048C102.104 319.236 102.902 320.16 104.4 320.16C105.534 320.16 106.192 319.74 106.346 318.886H107.508C107.256 320.356 106.038 321.126 104.386 321.126ZM102.09 316.632H106.374C106.262 315.12 105.478 314.518 104.274 314.518C103.084 314.518 102.286 315.33 102.09 316.632ZM112.184 321V320.72L116.16 316.534C117.07 315.568 117.602 314.658 117.602 313.636C117.602 312.516 116.944 311.844 115.81 311.844C114.648 311.844 113.892 312.502 113.696 314.07H112.562C112.716 312.11 113.906 310.864 115.81 310.864C117.658 310.864 118.834 311.956 118.834 313.678C118.834 314.91 118.05 316.114 116.818 317.318L114.06 320.006H118.89V321H112.184ZM127.35 321.126C125.432 321.126 124.046 319.768 124.046 317.486V317.374C124.046 315.134 125.446 313.552 127.462 313.552C128.68 313.552 129.436 314.14 129.856 314.854V310.178H131.018V321H129.856V319.74C129.436 320.454 128.414 321.126 127.35 321.126ZM127.476 320.16C128.834 320.16 129.898 319.264 129.898 317.388V317.276C129.898 315.4 129.002 314.518 127.574 314.518C126.118 314.518 125.25 315.54 125.25 317.318V317.43C125.25 319.278 126.244 320.16 127.476 320.16ZM133.817 312.152C133.397 312.152 133.047 311.802 133.047 311.382C133.047 310.962 133.397 310.612 133.817 310.612C134.237 310.612 134.587 310.962 134.587 311.382C134.587 311.802 134.237 312.152 133.817 312.152ZM133.257 321V313.678H134.419V321H133.257ZM138.491 321.126C137.133 321.126 136.055 320.468 136.055 318.97C136.055 317.276 137.847 316.702 139.723 316.702H140.773V316.17C140.773 315.008 140.325 314.518 139.205 314.518C138.197 314.518 137.637 314.938 137.525 315.834H136.363C136.517 314.168 137.847 313.552 139.261 313.552C140.661 313.552 141.935 314.126 141.935 316.17V321H140.773V320.076C140.227 320.762 139.569 321.126 138.491 321.126ZM138.603 320.202C139.835 320.202 140.773 319.572 140.773 318.438V317.528H139.765C138.295 317.528 137.217 317.892 137.217 318.97C137.217 319.726 137.581 320.202 138.603 320.202ZM146.346 321.126C144.596 321.126 143.546 320.244 143.476 318.746H144.61C144.694 319.614 145.156 320.16 146.332 320.16C147.438 320.16 147.928 319.782 147.928 318.998C147.928 318.228 147.354 317.976 146.22 317.766C144.316 317.416 143.672 316.884 143.672 315.61C143.672 314.252 145.002 313.552 146.15 313.552C147.466 313.552 148.6 314.084 148.796 315.666H147.676C147.508 314.868 147.06 314.518 146.136 314.518C145.296 314.518 144.75 314.938 144.75 315.568C144.75 316.226 145.114 316.492 146.458 316.73C147.97 317.01 149.034 317.346 149.034 318.9C149.034 320.23 148.124 321.126 146.346 321.126ZM156.694 312.418L157.562 310.36H159.018L157.562 312.418H156.694ZM156.708 321.126C155.252 321.126 154.16 320.328 154.16 318.312V313.678H155.322V318.256C155.322 319.544 155.868 320.118 157.016 320.118C158.052 320.118 159.032 319.432 159.032 318.116V313.678H160.194V321H159.032V319.838C158.696 320.524 157.884 321.126 156.708 321.126ZM164.628 321.098C163.298 321.098 162.654 320.314 162.654 319.166V314.658H161.604V313.678H162.654V312.012H163.816V313.678H165.524V314.658H163.816V319.054C163.816 319.768 164.138 320.118 164.726 320.118C165.09 320.118 165.37 320.062 165.622 319.964V320.944C165.384 321.028 165.104 321.098 164.628 321.098ZM170.235 321.126C168.163 321.126 166.693 319.67 166.693 317.416V317.304C166.693 315.092 168.107 313.552 170.123 313.552C171.817 313.552 173.413 314.574 173.413 317.192V317.57H167.897C167.953 319.236 168.751 320.16 170.249 320.16C171.383 320.16 172.041 319.74 172.195 318.886H173.357C173.105 320.356 171.887 321.126 170.235 321.126ZM167.939 316.632H172.223C172.111 315.12 171.327 314.518 170.123 314.518C168.933 314.518 168.135 315.33 167.939 316.632ZM175.644 312.152C175.224 312.152 174.874 311.802 174.874 311.382C174.874 310.962 175.224 310.612 175.644 310.612C176.064 310.612 176.414 310.962 176.414 311.382C176.414 311.802 176.064 312.152 175.644 312.152ZM175.084 321V313.678H176.246V321H175.084ZM180.752 321.126C179.002 321.126 177.952 320.244 177.882 318.746H179.016C179.1 319.614 179.562 320.16 180.738 320.16C181.844 320.16 182.334 319.782 182.334 318.998C182.334 318.228 181.76 317.976 180.626 317.766C178.722 317.416 178.078 316.884 178.078 315.61C178.078 314.252 179.408 313.552 180.556 313.552C181.872 313.552 183.006 314.084 183.202 315.666H182.082C181.914 314.868 181.466 314.518 180.542 314.518C179.702 314.518 179.156 314.938 179.156 315.568C179.156 316.226 179.52 316.492 180.864 316.73C182.376 317.01 183.44 317.346 183.44 318.9C183.44 320.23 182.53 321.126 180.752 321.126Z" fill="black" fill-opacity="0.64"/>
<rect width="375" height="93" transform="translate(0 353)" fill="white"/>
<circle cx="36" cy="399.5" r="11" stroke="#6A6A6A" stroke-width="2"/>
<g clip-path="url(#clip3_17453_7661)">
<path d="M65.312 381V369.56H69.152C71.664 369.56 73.424 370.584 73.424 372.92V372.984C73.424 374.776 72.304 375.688 70.88 376.056L74.096 381H71.792L68.8 376.376H67.44V381H65.312ZM67.44 374.856H69.152C70.576 374.856 71.328 374.248 71.328 373.032V372.968C71.328 371.656 70.512 371.208 69.152 371.208H67.44V374.856ZM78.0733 381.16C76.4253 381.16 75.1933 380.216 75.1933 377.992V372.632H77.1293V377.768C77.1293 379.032 77.6573 379.608 78.7773 379.608C79.8173 379.608 80.7293 378.936 80.7293 377.608V372.632H82.6653V381H80.7293V379.688C80.3133 380.504 79.4333 381.16 78.0733 381.16ZM86.9928 381.16C85.4568 381.16 84.1928 380.424 84.1928 378.68C84.1928 376.728 86.0808 376.024 88.4808 376.024H89.5208V375.592C89.5208 374.472 89.1368 373.912 88.0008 373.912C86.9928 373.912 86.4968 374.392 86.4008 375.224H84.5288C84.6888 373.272 86.2408 372.456 88.1128 372.456C89.9848 372.456 91.4568 373.224 91.4568 375.512V381H89.5528V379.976C89.0088 380.696 88.2728 381.16 86.9928 381.16ZM87.4568 379.768C88.6408 379.768 89.5208 379.144 89.5208 378.072V377.24H88.5288C87.0568 377.24 86.1128 377.576 86.1128 378.6C86.1128 379.304 86.4968 379.768 87.4568 379.768ZM97.3923 381V369.56H99.5363V381H97.3923ZM101.915 383.864V372.632H103.851V373.976C104.315 373.176 105.355 372.456 106.587 372.456C108.683 372.456 110.299 374.008 110.299 376.712V376.84C110.299 379.528 108.747 381.16 106.587 381.16C105.259 381.16 104.299 380.504 103.851 379.688V383.864H101.915ZM106.107 379.624C107.531 379.624 108.315 378.664 108.315 376.872V376.744C108.315 374.888 107.355 373.976 106.091 373.976C104.747 373.976 103.787 374.888 103.787 376.744V376.872C103.787 378.744 104.699 379.624 106.107 379.624ZM112.872 371.256C112.232 371.256 111.72 370.776 111.72 370.152C111.72 369.512 112.232 369.032 112.872 369.032C113.512 369.032 114.024 369.512 114.024 370.152C114.024 370.776 113.512 371.256 112.872 371.256ZM111.928 381V372.632H113.864V381H111.928ZM116.063 381V372.632H117.999V374.2C118.527 373.144 119.311 372.52 120.719 372.504V374.312C119.023 374.328 117.999 374.872 117.999 376.648V381H116.063ZM124.33 381.16C122.794 381.16 121.53 380.424 121.53 378.68C121.53 376.728 123.418 376.024 125.818 376.024H126.858V375.592C126.858 374.472 126.474 373.912 125.338 373.912C124.33 373.912 123.834 374.392 123.738 375.224H121.866C122.026 373.272 123.578 372.456 125.45 372.456C127.322 372.456 128.794 373.224 128.794 375.512V381H126.89V379.976C126.346 380.696 125.61 381.16 124.33 381.16ZM124.794 379.768C125.978 379.768 126.858 379.144 126.858 378.072V377.24H125.866C124.394 377.24 123.45 377.576 123.45 378.6C123.45 379.304 123.834 379.768 124.794 379.768ZM130.853 381V372.632H132.789V373.96C133.189 373.144 134.117 372.456 135.493 372.456C137.173 372.456 138.357 373.432 138.357 375.736V381H136.421V375.912C136.421 374.648 135.909 374.072 134.757 374.072C133.669 374.072 132.789 374.744 132.789 376.072V381H130.853ZM143.995 384.072C141.371 384.072 140.187 382.888 139.963 381.288H141.915C142.075 382.12 142.715 382.6 143.979 382.6C145.483 382.6 146.315 381.848 146.315 380.344V379.112C145.851 379.912 144.811 380.664 143.579 380.664C141.483 380.664 139.867 379.096 139.867 376.68V376.568C139.867 374.216 141.467 372.456 143.627 372.456C145.003 372.456 145.835 373.08 146.315 373.912V372.632H148.251V380.376C148.235 382.84 146.587 384.072 143.995 384.072ZM144.059 379.176C145.403 379.176 146.379 378.216 146.379 376.616V376.504C146.379 374.92 145.515 373.976 144.123 373.976C142.683 373.976 141.851 375.016 141.851 376.536V376.664C141.851 378.216 142.811 379.176 144.059 379.176ZM152.584 381.16C151.048 381.16 149.784 380.424 149.784 378.68C149.784 376.728 151.672 376.024 154.072 376.024H155.112V375.592C155.112 374.472 154.728 373.912 153.592 373.912C152.584 373.912 152.088 374.392 151.992 375.224H150.12C150.28 373.272 151.832 372.456 153.704 372.456C155.576 372.456 157.048 373.224 157.048 375.512V381H155.144V379.976C154.6 380.696 153.864 381.16 152.584 381.16ZM153.048 379.768C154.232 379.768 155.112 379.144 155.112 378.072V377.24H154.12C152.648 377.24 151.704 377.576 151.704 378.6C151.704 379.304 152.088 379.768 153.048 379.768ZM159.603 382.968L158.403 382.44L159.859 378.648L161.699 379.384L159.603 382.968ZM171.943 381.16C170.615 381.16 169.655 380.504 169.207 379.656V381H167.271V368.76H169.207V373.976C169.671 373.176 170.711 372.456 171.943 372.456C174.039 372.456 175.655 374.008 175.655 376.712V376.84C175.655 379.528 174.103 381.16 171.943 381.16ZM171.463 379.624C172.887 379.624 173.671 378.664 173.671 376.872V376.744C173.671 374.888 172.711 373.976 171.447 373.976C170.103 373.976 169.143 374.888 169.143 376.744V376.872C169.143 378.744 170.055 379.624 171.463 379.624ZM177.284 381V368.76H179.22V381H177.284ZM185.148 381.16C182.684 381.16 180.86 379.448 180.86 376.904V376.776C180.86 374.184 182.7 372.456 185.164 372.456C187.612 372.456 189.452 374.168 189.452 376.728V376.856C189.452 379.464 187.612 381.16 185.148 381.16ZM185.164 379.656C186.604 379.656 187.468 378.584 187.468 376.872V376.76C187.468 375.032 186.604 373.976 185.164 373.976C183.724 373.976 182.844 375.016 182.844 376.744V376.872C182.844 378.584 183.692 379.656 185.164 379.656ZM194.705 381.16C192.305 381.16 190.481 379.592 190.481 376.92V376.792C190.481 374.136 192.369 372.456 194.705 372.456C196.561 372.456 198.305 373.288 198.529 375.592H196.657C196.497 374.472 195.761 374.008 194.737 374.008C193.409 374.008 192.465 375.032 192.465 376.76V376.888C192.465 378.712 193.361 379.672 194.785 379.672C195.809 379.672 196.689 379.064 196.801 377.88H198.577C198.433 379.8 196.977 381.16 194.705 381.16ZM203.812 381.16C201.348 381.16 199.524 379.448 199.524 376.904V376.776C199.524 374.184 201.364 372.456 203.828 372.456C206.276 372.456 208.116 374.168 208.116 376.728V376.856C208.116 379.464 206.276 381.16 203.812 381.16ZM203.828 379.656C205.268 379.656 206.132 378.584 206.132 376.872V376.76C206.132 375.032 205.268 373.976 203.828 373.976C202.388 373.976 201.508 375.016 201.508 376.744V376.872C201.508 378.584 202.356 379.656 203.828 379.656ZM212.766 381V380.616L216.91 376.056C217.982 374.84 218.622 373.848 218.622 372.744C218.622 371.688 218.03 371.048 216.99 371.048C215.902 371.048 215.23 371.688 215.07 373.336H213.102C213.246 370.936 214.542 369.416 217.038 369.416C219.406 369.416 220.75 370.696 220.75 372.696C220.75 374.184 219.806 375.512 218.446 376.888L215.998 379.32H220.782V381H212.766Z" fill="black" fill-opacity="0.96"/>
<path d="M64.504 406L67.948 395.99H69.544L72.932 406H71.728L70.748 403.116H66.618L65.652 406H64.504ZM68.69 396.998L66.954 402.15H70.426L68.69 396.998ZM74.4696 408.548V398.678H75.6316V399.91C76.0516 399.196 77.0456 398.552 78.1096 398.552C80.0276 398.552 81.4416 399.952 81.4416 402.234V402.346C81.4416 404.586 80.1256 406.126 78.1096 406.126C76.9056 406.126 76.0516 405.524 75.6316 404.796V408.548H74.4696ZM77.9976 405.16C79.4536 405.16 80.2376 404.18 80.2376 402.402V402.29C80.2376 400.442 79.2156 399.518 77.9836 399.518C76.6256 399.518 75.5896 400.414 75.5896 402.29V402.402C75.5896 404.278 76.5696 405.16 77.9976 405.16ZM85.3329 406.098C84.0029 406.098 83.3589 405.314 83.3589 404.166V399.658H82.3089V398.678H83.3589V397.012H84.5209V398.678H86.2289V399.658H84.5209V404.054C84.5209 404.768 84.8429 405.118 85.4309 405.118C85.7949 405.118 86.0749 405.062 86.3269 404.964V405.944C86.0889 406.028 85.8089 406.098 85.3329 406.098ZM90.9815 406.126C88.8955 406.126 87.3975 404.544 87.3975 402.402V402.29C87.3975 400.092 88.9235 398.552 90.9955 398.552C93.0675 398.552 94.5935 400.078 94.5935 402.276V402.388C94.5935 404.6 93.0675 406.126 90.9815 406.126ZM90.9955 405.16C92.4655 405.16 93.3895 404.054 93.3895 402.402V402.304C93.3895 400.61 92.4515 399.518 90.9955 399.518C89.5255 399.518 88.6015 400.61 88.6015 402.29V402.402C88.6015 404.068 89.5115 405.16 90.9955 405.16ZM98.9078 406V405.72L102.884 401.534C103.794 400.568 104.326 399.658 104.326 398.636C104.326 397.516 103.668 396.844 102.534 396.844C101.372 396.844 100.616 397.502 100.42 399.07H99.2858C99.4398 397.11 100.63 395.864 102.534 395.864C104.382 395.864 105.558 396.956 105.558 398.678C105.558 399.91 104.774 401.114 103.542 402.318L100.784 405.006H105.614V406H98.9078ZM111.001 406.126C108.607 406.126 107.025 404.194 107.025 401.282V400.722C107.025 397.768 108.523 395.864 110.973 395.864C113.437 395.864 114.879 397.838 114.879 400.694V401.254C114.879 404.166 113.465 406.126 111.001 406.126ZM111.001 405.118C112.751 405.118 113.647 403.774 113.647 401.24V400.68C113.647 398.356 112.667 396.844 110.973 396.844C109.279 396.844 108.271 398.244 108.271 400.708V401.268C108.271 403.802 109.335 405.118 111.001 405.118ZM119.635 406.126C117.507 406.126 116.205 404.796 116.135 403.046H117.255C117.367 404.236 118.081 405.146 119.663 405.146C121.231 405.146 121.945 404.39 121.945 403.214C121.945 401.926 121.245 401.268 119.831 401.268H119.075V400.246H119.775C121.077 400.246 121.651 399.63 121.651 398.538C121.651 397.586 121.049 396.858 119.831 396.858C118.585 396.858 117.745 397.614 117.619 398.748H116.555C116.625 397.166 117.927 395.864 119.831 395.864C121.735 395.864 122.841 397.124 122.841 398.51C122.841 399.644 122.169 400.316 121.259 400.694C122.435 401.002 123.191 401.828 123.191 403.214C123.191 405.034 121.707 406.126 119.635 406.126ZM65.33 427V416.99H66.548V427H65.33ZM68.9188 429.548V419.678H70.0808V420.91C70.5008 420.196 71.4948 419.552 72.5588 419.552C74.4768 419.552 75.8908 420.952 75.8908 423.234V423.346C75.8908 425.586 74.5748 427.126 72.5588 427.126C71.3548 427.126 70.5008 426.524 70.0808 425.796V429.548H68.9188ZM72.4468 426.16C73.9028 426.16 74.6868 425.18 74.6868 423.402V423.29C74.6868 421.442 73.6648 420.518 72.4328 420.518C71.0748 420.518 70.0388 421.414 70.0388 423.29V423.402C70.0388 425.278 71.0188 426.16 72.4468 426.16ZM78.1442 418.152C77.7242 418.152 77.3742 417.802 77.3742 417.382C77.3742 416.962 77.7242 416.612 78.1442 416.612C78.5642 416.612 78.9142 416.962 78.9142 417.382C78.9142 417.802 78.5642 418.152 78.1442 418.152ZM77.5842 427V419.678H78.7462V427H77.5842ZM80.9845 427V419.678H82.1465V420.994C82.6085 420.168 83.2385 419.594 84.5545 419.552V420.644C83.0845 420.714 82.1465 421.176 82.1465 422.982V427H80.9845ZM87.8738 427.126C86.5158 427.126 85.4378 426.468 85.4378 424.97C85.4378 423.276 87.2298 422.702 89.1058 422.702H90.1558V422.17C90.1558 421.008 89.7078 420.518 88.5878 420.518C87.5798 420.518 87.0198 420.938 86.9078 421.834H85.7458C85.8998 420.168 87.2298 419.552 88.6438 419.552C90.0438 419.552 91.3178 420.126 91.3178 422.17V427H90.1558V426.076C89.6098 426.762 88.9518 427.126 87.8738 427.126ZM87.9858 426.202C89.2178 426.202 90.1558 425.572 90.1558 424.438V423.528H89.1478C87.6778 423.528 86.5998 423.892 86.5998 424.97C86.5998 425.726 86.9638 426.202 87.9858 426.202ZM93.4604 427V419.678H94.6224V420.84C94.9584 420.154 95.7704 419.552 96.9744 419.552C98.4864 419.552 99.5504 420.378 99.5504 422.506V427H98.3884V422.422C98.3884 421.134 97.8424 420.56 96.6664 420.56C95.5884 420.56 94.6224 421.246 94.6224 422.562V427H93.4604ZM104.614 429.674C102.444 429.674 101.492 428.652 101.296 427.42H102.486C102.654 428.26 103.354 428.694 104.6 428.694C106.042 428.694 106.952 428.008 106.952 426.44V425.376C106.532 426.09 105.538 426.762 104.474 426.762C102.556 426.762 101.142 425.306 101.142 423.29V423.192C101.142 421.204 102.542 419.552 104.558 419.552C105.776 419.552 106.532 420.14 106.952 420.854V419.678H108.114V426.51C108.1 428.638 106.658 429.674 104.614 429.674ZM104.6 425.796C105.958 425.796 106.994 424.844 106.994 423.206V423.108C106.994 421.47 106.098 420.518 104.67 420.518C103.214 420.518 102.346 421.596 102.346 423.136V423.248C102.346 424.844 103.368 425.796 104.6 425.796ZM112.159 427.126C110.801 427.126 109.723 426.468 109.723 424.97C109.723 423.276 111.515 422.702 113.391 422.702H114.441V422.17C114.441 421.008 113.993 420.518 112.873 420.518C111.865 420.518 111.305 420.938 111.193 421.834H110.031C110.185 420.168 111.515 419.552 112.929 419.552C114.329 419.552 115.603 420.126 115.603 422.17V427H114.441V426.076C113.895 426.762 113.237 427.126 112.159 427.126ZM112.271 426.202C113.503 426.202 114.441 425.572 114.441 424.438V423.528H113.433C111.963 423.528 110.885 423.892 110.885 424.97C110.885 425.726 111.249 426.202 112.271 426.202ZM117.675 428.386V427.714C118.277 427.63 118.543 427.392 118.543 426.958C118.011 426.958 117.647 426.664 117.647 426.118C117.647 425.642 118.053 425.278 118.515 425.278C119.047 425.278 119.439 425.656 119.439 426.3V426.566C119.439 427.798 118.655 428.33 117.675 428.386ZM128.44 427.126C125.766 427.126 124.8 425.656 124.618 423.948H125.794C125.948 425.138 126.424 426.146 128.44 426.146C129.728 426.146 130.722 425.39 130.722 424.256C130.722 423.122 130.204 422.646 128.3 422.338C126.2 422.016 124.954 421.358 124.954 419.58C124.954 418.04 126.284 416.864 128.174 416.864C130.176 416.864 131.422 417.844 131.618 419.622H130.526C130.288 418.362 129.56 417.844 128.174 417.844C126.802 417.844 126.088 418.53 126.088 419.468C126.088 420.448 126.452 420.952 128.496 421.26C130.722 421.61 131.898 422.282 131.898 424.172C131.898 425.852 130.428 427.126 128.44 427.126ZM137.133 418.334C136.531 418.334 136.027 417.732 135.621 417.732C135.355 417.732 135.131 417.998 135.061 418.362H134.221C134.333 417.368 134.907 416.738 135.635 416.738C136.223 416.738 136.727 417.34 137.133 417.34C137.399 417.34 137.623 417.074 137.693 416.71H138.533C138.421 417.704 137.847 418.334 137.133 418.334ZM135.593 427.126C134.235 427.126 133.157 426.468 133.157 424.97C133.157 423.276 134.949 422.702 136.825 422.702H137.875V422.17C137.875 421.008 137.427 420.518 136.307 420.518C135.299 420.518 134.739 420.938 134.627 421.834H133.465C133.619 420.168 134.949 419.552 136.363 419.552C137.763 419.552 139.037 420.126 139.037 422.17V427H137.875V426.076C137.329 426.762 136.671 427.126 135.593 427.126ZM135.705 426.202C136.937 426.202 137.875 425.572 137.875 424.438V423.528H136.867C135.397 423.528 134.319 423.892 134.319 424.97C134.319 425.726 134.683 426.202 135.705 426.202ZM144.218 427.126C142.132 427.126 140.634 425.544 140.634 423.402V423.29C140.634 421.092 142.16 419.552 144.232 419.552C146.304 419.552 147.83 421.078 147.83 423.276V423.388C147.83 425.6 146.304 427.126 144.218 427.126ZM144.232 426.16C145.702 426.16 146.626 425.054 146.626 423.402V423.304C146.626 421.61 145.688 420.518 144.232 420.518C142.762 420.518 141.838 421.61 141.838 423.29V423.402C141.838 425.068 142.748 426.16 144.232 426.16ZM153.138 427V416.99H155.98C157.898 416.99 159.48 417.83 159.48 419.916V419.972C159.48 422.1 157.884 422.926 155.98 422.926H154.356V427H153.138ZM154.356 421.96H156.064C157.492 421.96 158.262 421.26 158.262 419.972V419.916C158.262 418.502 157.422 417.97 156.064 417.97H154.356V421.96ZM162.814 427.126C161.456 427.126 160.378 426.468 160.378 424.97C160.378 423.276 162.17 422.702 164.046 422.702H165.096V422.17C165.096 421.008 164.648 420.518 163.528 420.518C162.52 420.518 161.96 420.938 161.848 421.834H160.686C160.84 420.168 162.17 419.552 163.584 419.552C164.984 419.552 166.258 420.126 166.258 422.17V427H165.096V426.076C164.55 426.762 163.892 427.126 162.814 427.126ZM162.926 426.202C164.158 426.202 165.096 425.572 165.096 424.438V423.528H164.088C162.618 423.528 161.54 423.892 161.54 424.97C161.54 425.726 161.904 426.202 162.926 426.202ZM170.879 427.126C169.423 427.126 168.331 426.328 168.331 424.312V419.678H169.493V424.256C169.493 425.544 170.039 426.118 171.187 426.118C172.223 426.118 173.203 425.432 173.203 424.116V419.678H174.365V427H173.203V425.838C172.867 426.524 172.055 427.126 170.879 427.126ZM176.601 427V416.178H177.777V427H176.601ZM183.053 427.126C180.967 427.126 179.469 425.544 179.469 423.402V423.29C179.469 421.092 180.995 419.552 183.067 419.552C185.139 419.552 186.665 421.078 186.665 423.276V423.388C186.665 425.6 185.139 427.126 183.053 427.126ZM183.067 426.16C184.537 426.16 185.461 425.054 185.461 423.402V423.304C185.461 421.61 184.523 420.518 183.067 420.518C181.597 420.518 180.673 421.61 180.673 423.29V423.402C180.673 425.068 181.583 426.16 183.067 426.16ZM191.554 423.696V422.604H194.55V423.696H191.554ZM203.309 427.126C200.635 427.126 199.669 425.656 199.487 423.948H200.663C200.817 425.138 201.293 426.146 203.309 426.146C204.597 426.146 205.591 425.39 205.591 424.256C205.591 423.122 205.073 422.646 203.169 422.338C201.069 422.016 199.823 421.358 199.823 419.58C199.823 418.04 201.153 416.864 203.043 416.864C205.045 416.864 206.291 417.844 206.487 419.622H205.395C205.157 418.362 204.429 417.844 203.043 417.844C201.671 417.844 200.957 418.53 200.957 419.468C200.957 420.448 201.321 420.952 203.365 421.26C205.591 421.61 206.767 422.282 206.767 424.172C206.767 425.852 205.297 427.126 203.309 427.126ZM208.712 427V416.99H211.554C213.472 416.99 215.054 417.83 215.054 419.916V419.972C215.054 422.1 213.458 422.926 211.554 422.926H209.93V427H208.712ZM209.93 421.96H211.638C213.066 421.96 213.836 421.26 213.836 419.972V419.916C213.836 418.502 212.996 417.97 211.638 417.97H209.93V421.96Z" fill="black" fill-opacity="0.64"/>
</g>
<path d="M344.032 397.793L335.325 406.5H332.154V403.328L340.861 394.621L344.032 397.793ZM345.447 396.379L342.275 393.207L343.24 392.243C344.021 391.461 345.287 391.461 346.068 392.243L346.411 392.586C347.192 393.367 347.192 394.633 346.411 395.414L345.447 396.379ZM347.825 396.828C349.387 395.266 349.387 392.734 347.825 391.171L347.482 390.828C345.92 389.266 343.387 389.266 341.825 390.828L330.154 402.5V408.5H336.154L347.825 396.828Z" fill="#714F8F"/>
<rect width="375" height="40" transform="translate(0 454)" fill="white"/>
<rect width="375" height="1" transform="translate(0 493)" fill="#EFEFEF"/>
<path d="M39 458C39.5523 458 40 458.448 40 459V461H43C45.2091 461 47 462.791 47 465V471H44C44 472.657 42.6569 474 41 474C39.3431 474 38 472.657 38 471H33C33 472.657 31.6569 474 30 474C28.3431 474 27 472.657 27 471H25V459C25 458.448 25.4477 458 26 458H39ZM29 470V472H31V470H29ZM40 470V472H42V470H40ZM27 460V469H27.7637C28.313 468.386 29.1115 468 30 468C30.8885 468 31.687 468.386 32.2363 469H38V460H27ZM40 463V468.171C40.3128 468.06 40.6494 468 41 468C41.8885 468 42.687 468.386 43.2363 469H45V467H43V465H45C45 463.895 44.1046 463 43 463H40Z" fill="black" fill-opacity="0.96"/>
<path d="M65.26 470V459.99H71.098V460.984H66.478V464.386H70.202V465.38H66.478V469.006H71.35V470H65.26ZM72.9657 470V462.678H74.1277V463.798C74.4637 463.112 75.2617 462.552 76.3117 462.552C77.2497 462.552 78.0757 462.944 78.4537 463.924C78.9577 462.972 80.0497 462.552 80.9597 462.552C82.2757 462.552 83.4237 463.336 83.4237 465.464V470H82.2617V465.38C82.2617 464.092 81.7157 463.56 80.7077 463.56C79.7557 463.56 78.7757 464.204 78.7757 465.52V470H77.6137V465.38C77.6137 464.092 77.0677 463.56 76.0597 463.56C75.1077 463.56 74.1277 464.204 74.1277 465.52V470H72.9657ZM90.967 470.126C89.609 470.126 88.531 469.468 88.531 467.97C88.531 466.276 90.323 465.702 92.199 465.702H93.249V465.17C93.249 464.008 92.801 463.518 91.681 463.518C90.673 463.518 90.113 463.938 90.001 464.834H88.839C88.993 463.168 90.323 462.552 91.737 462.552C93.137 462.552 94.411 463.126 94.411 465.17V470H93.249V469.076C92.703 469.762 92.045 470.126 90.967 470.126ZM91.079 469.202C92.311 469.202 93.249 468.572 93.249 467.438V466.528H92.241C90.771 466.528 89.693 466.892 89.693 467.97C89.693 468.726 90.057 469.202 91.079 469.202ZM98.7795 470.098C97.4495 470.098 96.8055 469.314 96.8055 468.166V463.658H95.7555V462.678H96.8055V461.012H97.9675V462.678H99.6755V463.658H97.9675V468.054C97.9675 468.768 98.2895 469.118 98.8775 469.118C99.2415 469.118 99.5215 469.062 99.7735 468.964V469.944C99.5355 470.028 99.2555 470.098 98.7795 470.098ZM103.756 461.418L104.624 459.36H106.08L104.624 461.418H103.756ZM104.386 470.126C102.314 470.126 100.844 468.67 100.844 466.416V466.304C100.844 464.092 102.258 462.552 104.274 462.552C105.968 462.552 107.564 463.574 107.564 466.192V466.57H102.048C102.104 468.236 102.902 469.16 104.4 469.16C105.534 469.16 106.192 468.74 106.346 467.886H107.508C107.256 469.356 106.038 470.126 104.386 470.126ZM102.09 465.632H106.374C106.262 464.12 105.478 463.518 104.274 463.518C103.084 463.518 102.286 464.33 102.09 465.632ZM112.184 470V469.72L116.16 465.534C117.07 464.568 117.602 463.658 117.602 462.636C117.602 461.516 116.944 460.844 115.81 460.844C114.648 460.844 113.892 461.502 113.696 463.07H112.562C112.716 461.11 113.906 459.864 115.81 459.864C117.658 459.864 118.834 460.956 118.834 462.678C118.834 463.91 118.05 465.114 116.818 466.318L114.06 469.006H118.89V470H112.184ZM127.35 470.126C125.432 470.126 124.046 468.768 124.046 466.486V466.374C124.046 464.134 125.446 462.552 127.462 462.552C128.68 462.552 129.436 463.14 129.856 463.854V459.178H131.018V470H129.856V468.74C129.436 469.454 128.414 470.126 127.35 470.126ZM127.476 469.16C128.834 469.16 129.898 468.264 129.898 466.388V466.276C129.898 464.4 129.002 463.518 127.574 463.518C126.118 463.518 125.25 464.54 125.25 466.318V466.43C125.25 468.278 126.244 469.16 127.476 469.16ZM133.817 461.152C133.397 461.152 133.047 460.802 133.047 460.382C133.047 459.962 133.397 459.612 133.817 459.612C134.237 459.612 134.587 459.962 134.587 460.382C134.587 460.802 134.237 461.152 133.817 461.152ZM133.257 470V462.678H134.419V470H133.257ZM138.491 470.126C137.133 470.126 136.055 469.468 136.055 467.97C136.055 466.276 137.847 465.702 139.723 465.702H140.773V465.17C140.773 464.008 140.325 463.518 139.205 463.518C138.197 463.518 137.637 463.938 137.525 464.834H136.363C136.517 463.168 137.847 462.552 139.261 462.552C140.661 462.552 141.935 463.126 141.935 465.17V470H140.773V469.076C140.227 469.762 139.569 470.126 138.491 470.126ZM138.603 469.202C139.835 469.202 140.773 468.572 140.773 467.438V466.528H139.765C138.295 466.528 137.217 466.892 137.217 467.97C137.217 468.726 137.581 469.202 138.603 469.202ZM146.346 470.126C144.596 470.126 143.546 469.244 143.476 467.746H144.61C144.694 468.614 145.156 469.16 146.332 469.16C147.438 469.16 147.928 468.782 147.928 467.998C147.928 467.228 147.354 466.976 146.22 466.766C144.316 466.416 143.672 465.884 143.672 464.61C143.672 463.252 145.002 462.552 146.15 462.552C147.466 462.552 148.6 463.084 148.796 464.666H147.676C147.508 463.868 147.06 463.518 146.136 463.518C145.296 463.518 144.75 463.938 144.75 464.568C144.75 465.226 145.114 465.492 146.458 465.73C147.97 466.01 149.034 466.346 149.034 467.9C149.034 469.23 148.124 470.126 146.346 470.126ZM156.694 461.418L157.562 459.36H159.018L157.562 461.418H156.694ZM156.708 470.126C155.252 470.126 154.16 469.328 154.16 467.312V462.678H155.322V467.256C155.322 468.544 155.868 469.118 157.016 469.118C158.052 469.118 159.032 468.432 159.032 467.116V462.678H160.194V470H159.032V468.838C158.696 469.524 157.884 470.126 156.708 470.126ZM164.628 470.098C163.298 470.098 162.654 469.314 162.654 468.166V463.658H161.604V462.678H162.654V461.012H163.816V462.678H165.524V463.658H163.816V468.054C163.816 468.768 164.138 469.118 164.726 469.118C165.09 469.118 165.37 469.062 165.622 468.964V469.944C165.384 470.028 165.104 470.098 164.628 470.098ZM170.235 470.126C168.163 470.126 166.693 468.67 166.693 466.416V466.304C166.693 464.092 168.107 462.552 170.123 462.552C171.817 462.552 173.413 463.574 173.413 466.192V466.57H167.897C167.953 468.236 168.751 469.16 170.249 469.16C171.383 469.16 172.041 468.74 172.195 467.886H173.357C173.105 469.356 171.887 470.126 170.235 470.126ZM167.939 465.632H172.223C172.111 464.12 171.327 463.518 170.123 463.518C168.933 463.518 168.135 464.33 167.939 465.632ZM175.644 461.152C175.224 461.152 174.874 460.802 174.874 460.382C174.874 459.962 175.224 459.612 175.644 459.612C176.064 459.612 176.414 459.962 176.414 460.382C176.414 460.802 176.064 461.152 175.644 461.152ZM175.084 470V462.678H176.246V470H175.084ZM180.752 470.126C179.002 470.126 177.952 469.244 177.882 467.746H179.016C179.1 468.614 179.562 469.16 180.738 469.16C181.844 469.16 182.334 468.782 182.334 467.998C182.334 467.228 181.76 466.976 180.626 466.766C178.722 466.416 178.078 465.884 178.078 464.61C178.078 463.252 179.408 462.552 180.556 462.552C181.872 462.552 183.006 463.084 183.202 464.666H182.082C181.914 463.868 181.466 463.518 180.542 463.518C179.702 463.518 179.156 463.938 179.156 464.568C179.156 465.226 179.52 465.492 180.864 465.73C182.376 466.01 183.44 466.346 183.44 467.9C183.44 469.23 182.53 470.126 180.752 470.126Z" fill="black" fill-opacity="0.64"/>
<path d="M24.7233 530.5L28.5473 519.06H31.3313L35.1073 530.5H32.8993L31.9873 527.668H27.6193L26.7233 530.5H24.7233ZM29.8113 520.804L28.1153 526.116H31.4913L29.8113 520.804ZM39.4974 530.66C37.4014 530.66 35.8174 529.172 35.8174 526.452V526.324C35.8174 523.652 37.4014 521.956 39.5774 521.956C40.9374 521.956 41.7854 522.58 42.2494 523.412V518.26H44.1854V530.5H42.2494V529.092C41.8014 529.924 40.7294 530.66 39.4974 530.66ZM39.9774 529.124C41.3214 529.124 42.3134 528.228 42.3134 526.356V526.228C42.3134 524.388 41.4654 523.476 40.0574 523.476C38.6334 523.476 37.8014 524.468 37.8014 526.276V526.404C37.8014 528.244 38.7294 529.124 39.9774 529.124ZM47.3184 520.756C46.6784 520.756 46.1664 520.276 46.1664 519.652C46.1664 519.012 46.6784 518.532 47.3184 518.532C47.9584 518.532 48.4704 519.012 48.4704 519.652C48.4704 520.276 47.9584 520.756 47.3184 520.756ZM46.3744 530.5V522.132H48.3104V530.5H46.3744ZM54.1741 530.66C51.7741 530.66 49.9501 529.092 49.9501 526.42V526.292C49.9501 523.636 51.8381 521.956 54.1741 521.956C56.0301 521.956 57.7741 522.788 57.9981 525.092H56.1261C55.9661 523.972 55.2301 523.508 54.2061 523.508C52.8781 523.508 51.9341 524.532 51.9341 526.26V526.388C51.9341 528.212 52.8301 529.172 54.2541 529.172C55.2781 529.172 56.1581 528.564 56.2701 527.38H58.0461C57.9021 529.3 56.4461 530.66 54.1741 530.66ZM60.5453 520.756C59.9053 520.756 59.3933 520.276 59.3933 519.652C59.3933 519.012 59.9053 518.532 60.5453 518.532C61.1853 518.532 61.6973 519.012 61.6973 519.652C61.6973 520.276 61.1853 520.756 60.5453 520.756ZM59.6013 530.5V522.132H61.5373V530.5H59.6013ZM67.465 530.66C65.001 530.66 63.177 528.948 63.177 526.404V526.276C63.177 523.684 65.017 521.956 67.481 521.956C69.929 521.956 71.769 523.668 71.769 526.228V526.356C71.769 528.964 69.929 530.66 67.465 530.66ZM67.481 529.156C68.921 529.156 69.785 528.084 69.785 526.372V526.26C69.785 524.532 68.921 523.476 67.481 523.476C66.041 523.476 65.161 524.516 65.161 526.244V526.372C65.161 528.084 66.009 529.156 67.481 529.156ZM73.3583 530.5V522.132H75.2943V523.46C75.6943 522.644 76.6223 521.956 77.9983 521.956C79.6783 521.956 80.8623 522.932 80.8623 525.236V530.5H78.9263V525.412C78.9263 524.148 78.4143 523.572 77.2623 523.572C76.1743 523.572 75.2943 524.244 75.2943 525.572V530.5H73.3583ZM85.1246 530.66C83.5886 530.66 82.3246 529.924 82.3246 528.18C82.3246 526.228 84.2126 525.524 86.6126 525.524H87.6526V525.092C87.6526 523.972 87.2686 523.412 86.1326 523.412C85.1246 523.412 84.6286 523.892 84.5326 524.724H82.6606C82.8206 522.772 84.3726 521.956 86.2446 521.956C88.1166 521.956 89.5886 522.724 89.5886 525.012V530.5H87.6846V529.476C87.1406 530.196 86.4046 530.66 85.1246 530.66ZM85.5886 529.268C86.7726 529.268 87.6526 528.644 87.6526 527.572V526.74H86.6606C85.1886 526.74 84.2446 527.076 84.2446 528.1C84.2446 528.804 84.6286 529.268 85.5886 529.268ZM91.6476 530.5V522.132H93.5836V523.7C94.1116 522.644 94.8956 522.02 96.3036 522.004V523.812C94.6076 523.828 93.5836 524.372 93.5836 526.148V530.5H91.6476ZM101.5 530.5V522.132H103.436V523.46C103.836 522.644 104.764 521.956 106.14 521.956C107.82 521.956 109.004 522.932 109.004 525.236V530.5H107.068V525.412C107.068 524.148 106.556 523.572 105.404 523.572C104.316 523.572 103.436 524.244 103.436 525.572V530.5H101.5ZM114.802 530.66C112.338 530.66 110.514 528.948 110.514 526.404V526.276C110.514 523.684 112.354 521.956 114.818 521.956C117.266 521.956 119.106 523.668 119.106 526.228V526.356C119.106 528.964 117.266 530.66 114.802 530.66ZM114.818 529.156C116.258 529.156 117.122 528.084 117.122 526.372V526.26C117.122 524.532 116.258 523.476 114.818 523.476C113.378 523.476 112.498 524.516 112.498 526.244V526.372C112.498 528.084 113.346 529.156 114.818 529.156ZM122.59 530.5L119.534 522.132H121.614L123.806 528.516L125.966 522.132H127.87L124.846 530.5H122.59ZM132.56 530.66C130.096 530.66 128.272 528.948 128.272 526.404V526.276C128.272 523.684 130.112 521.956 132.576 521.956C135.024 521.956 136.864 523.668 136.864 526.228V526.356C136.864 528.964 135.024 530.66 132.56 530.66ZM132.576 529.156C134.016 529.156 134.88 528.084 134.88 526.372V526.26C134.88 524.532 134.016 523.476 132.576 523.476C131.136 523.476 130.256 524.516 130.256 526.244V526.372C130.256 528.084 131.104 529.156 132.576 529.156ZM145.786 530.66C143.322 530.66 141.546 529.044 141.546 526.404V526.276C141.546 523.684 143.322 521.956 145.706 521.956C147.786 521.956 149.658 523.188 149.658 526.18V526.74H143.53C143.594 528.324 144.394 529.22 145.834 529.22C147.002 529.22 147.61 528.756 147.754 527.94H149.626C149.354 529.7 147.93 530.66 145.786 530.66ZM143.562 525.444H147.738C147.642 524.004 146.906 523.364 145.706 523.364C144.538 523.364 143.754 524.148 143.562 525.444ZM151.227 530.5V522.132H153.163V523.46C153.563 522.644 154.491 521.956 155.867 521.956C157.547 521.956 158.731 522.932 158.731 525.236V530.5H156.795V525.412C156.795 524.148 156.283 523.572 155.131 523.572C154.043 523.572 153.163 524.244 153.163 525.572V530.5H151.227ZM163.937 530.66C161.841 530.66 160.257 529.172 160.257 526.452V526.324C160.257 523.652 161.841 521.956 164.017 521.956C165.377 521.956 166.225 522.58 166.689 523.412V518.26H168.625V530.5H166.689V529.092C166.241 529.924 165.169 530.66 163.937 530.66ZM164.417 529.124C165.761 529.124 166.753 528.228 166.753 526.356V526.228C166.753 524.388 165.905 523.476 164.497 523.476C163.073 523.476 162.241 524.468 162.241 526.276V526.404C162.241 528.244 163.169 529.124 164.417 529.124ZM174.446 530.66C171.982 530.66 170.206 529.044 170.206 526.404V526.276C170.206 523.684 171.982 521.956 174.366 521.956C176.446 521.956 178.318 523.188 178.318 526.18V526.74H172.19C172.254 528.324 173.054 529.22 174.494 529.22C175.662 529.22 176.27 528.756 176.414 527.94H178.286C178.014 529.7 176.59 530.66 174.446 530.66ZM172.222 525.444H176.398C176.302 524.004 175.566 523.364 174.366 523.364C173.198 523.364 172.414 524.148 172.222 525.444ZM179.888 530.5V522.132H181.824V523.7C182.352 522.644 183.136 522.02 184.544 522.004V523.812C182.848 523.828 181.824 524.372 181.824 526.148V530.5H179.888ZM189.595 530.66C187.131 530.66 185.355 529.044 185.355 526.404V526.276C185.355 523.684 187.131 521.956 189.515 521.956C191.595 521.956 193.467 523.188 193.467 526.18V526.74H187.339C187.403 528.324 188.203 529.22 189.643 529.22C190.811 529.22 191.419 528.756 191.563 527.94H193.435C193.163 529.7 191.739 530.66 189.595 530.66ZM187.371 525.444H191.547C191.451 524.004 190.715 523.364 189.515 523.364C188.347 523.364 187.563 524.148 187.371 525.444ZM198.412 534.004C197.404 534.004 196.748 533.46 196.652 532.596H197.708C197.756 532.868 197.964 533.124 198.348 533.124C198.716 533.124 198.94 532.9 198.94 532.58C198.94 532.276 198.716 532.068 198.38 532.068C198.156 532.068 197.996 532.148 197.9 532.212L197.356 531.7L197.996 530.612C195.948 530.34 194.476 528.836 194.476 526.42V526.292C194.476 523.636 196.364 521.956 198.7 521.956C200.556 521.956 202.3 522.788 202.524 525.092H200.652C200.492 523.972 199.756 523.508 198.732 523.508C197.404 523.508 196.46 524.532 196.46 526.26V526.388C196.46 528.212 197.356 529.172 198.78 529.172C199.804 529.172 200.684 528.564 200.796 527.38H202.572C202.428 529.236 201.068 530.564 198.924 530.66L198.556 531.3C199.356 531.204 200.156 531.62 200.156 532.628C200.156 533.524 199.404 534.004 198.412 534.004ZM207.807 530.66C205.343 530.66 203.519 528.948 203.519 526.404V526.276C203.519 523.684 205.359 521.956 207.823 521.956C210.271 521.956 212.111 523.668 212.111 526.228V526.356C212.111 528.964 210.271 530.66 207.807 530.66ZM207.823 529.156C209.263 529.156 210.127 528.084 210.127 526.372V526.26C210.127 524.532 209.263 523.476 207.823 523.476C206.383 523.476 205.503 524.516 205.503 526.244V526.372C205.503 528.084 206.351 529.156 207.823 529.156Z" fill="#652590"/>
<rect width="375" height="80" transform="translate(0 732)" fill="white"/>
<path d="M24 772C24 758.745 34.7452 748 48 748H327C340.255 748 351 758.745 351 772C351 785.255 340.255 796 327 796H48C34.7452 796 24 785.255 24 772Z" fill="#714F8F"/>
<path d="M156.312 776.66C152.728 776.66 150.728 774.372 150.728 770.852V770.724C150.728 767.284 153.096 764.884 156.28 764.884C158.904 764.884 160.936 766.196 161.192 768.884H159.032C158.792 767.364 157.944 766.58 156.296 766.58C154.28 766.58 152.968 768.148 152.968 770.708V770.836C152.968 773.412 154.2 774.932 156.312 774.932C157.896 774.932 159.016 774.132 159.24 772.516H161.32C160.984 775.268 159.032 776.66 156.312 776.66ZM166.587 776.66C164.123 776.66 162.299 774.948 162.299 772.404V772.276C162.299 769.684 164.139 767.956 166.603 767.956C169.051 767.956 170.891 769.668 170.891 772.228V772.356C170.891 774.964 169.051 776.66 166.587 776.66ZM166.603 775.156C168.043 775.156 168.907 774.084 168.907 772.372V772.26C168.907 770.532 168.043 769.476 166.603 769.476C165.163 769.476 164.283 770.516 164.283 772.244V772.372C164.283 774.084 165.131 775.156 166.603 775.156ZM172.48 776.5V768.132H174.416V769.46C174.816 768.644 175.744 767.956 177.12 767.956C178.8 767.956 179.984 768.932 179.984 771.236V776.5H178.048V771.412C178.048 770.148 177.536 769.572 176.384 769.572C175.296 769.572 174.416 770.244 174.416 771.572V776.5H172.48ZM184.902 776.644C183.238 776.644 182.374 775.748 182.374 774.164V769.588H181.254V768.132H182.374V766.292H184.31V768.132H186.15V769.588H184.31V773.988C184.31 774.724 184.662 775.06 185.27 775.06C185.654 775.06 185.942 775.012 186.214 774.9V776.436C185.91 776.548 185.494 776.644 184.902 776.644ZM188.792 766.756C188.152 766.756 187.64 766.276 187.64 765.652C187.64 765.012 188.152 764.532 188.792 764.532C189.432 764.532 189.944 765.012 189.944 765.652C189.944 766.276 189.432 766.756 188.792 766.756ZM187.848 776.5V768.132H189.784V776.5H187.848ZM191.984 776.5V768.132H193.92V769.46C194.32 768.644 195.248 767.956 196.624 767.956C198.304 767.956 199.488 768.932 199.488 771.236V776.5H197.552V771.412C197.552 770.148 197.04 769.572 195.888 769.572C194.8 769.572 193.92 770.244 193.92 771.572V776.5H191.984ZM204.359 776.66C202.711 776.66 201.479 775.716 201.479 773.492V768.132H203.415V773.268C203.415 774.532 203.943 775.108 205.063 775.108C206.103 775.108 207.015 774.436 207.015 773.108V768.132H208.951V776.5H207.015V775.188C206.599 776.004 205.719 776.66 204.359 776.66ZM213.278 776.66C211.742 776.66 210.478 775.924 210.478 774.18C210.478 772.228 212.366 771.524 214.766 771.524H215.806V771.092C215.806 769.972 215.422 769.412 214.286 769.412C213.278 769.412 212.782 769.892 212.686 770.724H210.814C210.974 768.772 212.526 767.956 214.398 767.956C216.27 767.956 217.742 768.724 217.742 771.012V776.5H215.838V775.476C215.294 776.196 214.558 776.66 213.278 776.66ZM213.742 775.268C214.926 775.268 215.806 774.644 215.806 773.572V772.74H214.814C213.342 772.74 212.398 773.076 212.398 774.1C212.398 774.804 212.782 775.268 213.742 775.268ZM219.801 776.5V768.132H221.737V769.7C222.265 768.644 223.049 768.02 224.457 768.004V769.812C222.761 769.828 221.737 770.372 221.737 772.148V776.5H219.801Z" fill="white"/>
<path d="M24 688C24 681.373 29.3726 676 36 676H339C345.627 676 351 681.373 351 688V720C351 726.627 345.627 732 339 732H36C29.3726 732 24 726.627 24 720V688Z" fill="#111111"/>
<path d="M41.44 709V697.56H48.112V698.696H42.832V702.584H47.088V703.72H42.832V707.864H48.4V709H41.44ZM50.2465 709V700.632H51.5745V701.96C51.9585 701.176 52.8865 700.488 54.2625 700.488C55.9905 700.488 57.2065 701.432 57.2065 703.864V709H55.8785V703.768C55.8785 702.296 55.2545 701.64 53.9105 701.64C52.6785 701.64 51.5745 702.424 51.5745 703.928V709H50.2465ZM62.801 709.144C60.609 709.144 59.025 707.592 59.025 704.984V704.856C59.025 702.296 60.625 700.488 62.929 700.488C64.321 700.488 65.185 701.16 65.665 701.976V696.632H66.993V709H65.665V707.56C65.185 708.376 64.017 709.144 62.801 709.144ZM62.945 708.04C64.497 708.04 65.713 707.016 65.713 704.872V704.744C65.713 702.6 64.689 701.592 63.057 701.592C61.393 701.592 60.401 702.76 60.401 704.792V704.92C60.401 707.032 61.537 708.04 62.945 708.04ZM72.9443 709.144C70.5763 709.144 68.8963 707.48 68.8963 704.904V704.776C68.8963 702.248 70.5123 700.488 72.8163 700.488C74.7523 700.488 76.5763 701.656 76.5763 704.648V705.08H70.2723C70.3363 706.984 71.2483 708.04 72.9603 708.04C74.2563 708.04 75.0083 707.56 75.1843 706.584H76.5123C76.2243 708.264 74.8323 709.144 72.9443 709.144ZM70.3203 704.008H75.2163C75.0883 702.28 74.1923 701.592 72.8163 701.592C71.4563 701.592 70.5443 702.52 70.3203 704.008ZM78.454 709V700.632H79.782V702.136C80.31 701.192 81.03 700.536 82.534 700.488V701.736C80.854 701.816 79.782 702.344 79.782 704.408V709H78.454ZM87.4993 709.144C85.1313 709.144 83.4513 707.48 83.4513 704.904V704.776C83.4513 702.248 85.0673 700.488 87.3713 700.488C89.3073 700.488 91.1313 701.656 91.1313 704.648V705.08H84.8273C84.8913 706.984 85.8033 708.04 87.5153 708.04C88.8113 708.04 89.5633 707.56 89.7393 706.584H91.0673C90.7793 708.264 89.3873 709.144 87.4993 709.144ZM84.8753 704.008H89.7713C89.6433 702.28 88.7473 701.592 87.3713 701.592C86.0113 701.592 85.0993 702.52 84.8753 704.008ZM96.241 712.424C95.313 712.424 94.705 711.88 94.641 711.08H95.505C95.569 711.384 95.793 711.656 96.193 711.656C96.593 711.656 96.833 711.416 96.833 711.08C96.833 710.744 96.593 710.536 96.257 710.536C96.049 710.536 95.889 710.616 95.809 710.664L95.297 710.216L95.905 709.112C93.857 708.872 92.385 707.288 92.385 704.904V704.776C92.385 702.216 94.209 700.488 96.449 700.488C98.193 700.488 99.825 701.288 100.081 703.416H98.769C98.561 702.088 97.601 701.592 96.449 701.592C94.929 701.592 93.761 702.808 93.761 704.776V704.904C93.761 706.952 94.881 708.04 96.497 708.04C97.681 708.04 98.753 707.352 98.897 705.992H100.129C99.953 707.72 98.625 709.016 96.737 709.128L96.353 709.848C97.089 709.752 97.857 710.168 97.857 711.144C97.857 712.008 97.105 712.424 96.241 712.424ZM105.446 709.144C103.062 709.144 101.35 707.336 101.35 704.888V704.76C101.35 702.248 103.094 700.488 105.462 700.488C107.83 700.488 109.574 702.232 109.574 704.744V704.872C109.574 707.4 107.83 709.144 105.446 709.144ZM105.462 708.04C107.142 708.04 108.198 706.776 108.198 704.888V704.776C108.198 702.84 107.126 701.592 105.462 701.592C103.782 701.592 102.726 702.84 102.726 704.76V704.888C102.726 706.792 103.766 708.04 105.462 708.04ZM118.137 709.144C116.137 709.144 114.937 708.136 114.857 706.424H116.153C116.249 707.416 116.777 708.04 118.121 708.04C119.385 708.04 119.945 707.608 119.945 706.712C119.945 705.832 119.289 705.544 117.993 705.304C115.817 704.904 115.081 704.296 115.081 702.84C115.081 701.288 116.601 700.488 117.913 700.488C119.417 700.488 120.713 701.096 120.937 702.904H119.657C119.465 701.992 118.953 701.592 117.897 701.592C116.937 701.592 116.313 702.072 116.313 702.792C116.313 703.544 116.729 703.848 118.265 704.12C119.993 704.44 121.209 704.824 121.209 706.6C121.209 708.12 120.169 709.144 118.137 709.144ZM125.168 709.144C123.616 709.144 122.384 708.392 122.384 706.68C122.384 704.744 124.432 704.088 126.576 704.088H127.776V703.48C127.776 702.152 127.264 701.592 125.984 701.592C124.832 701.592 124.192 702.072 124.064 703.096H122.736C122.912 701.192 124.432 700.488 126.048 700.488C127.648 700.488 129.104 701.144 129.104 703.48V709H127.776V707.944C127.152 708.728 126.4 709.144 125.168 709.144ZM125.296 708.088C126.704 708.088 127.776 707.368 127.776 706.072V705.032H126.624C124.944 705.032 123.712 705.448 123.712 706.68C123.712 707.544 124.128 708.088 125.296 708.088ZM131.585 709V696.632H132.929V709H131.585ZM137.583 709L134.543 700.632H135.983L138.463 707.656L140.911 700.632H142.287L139.279 709H137.583ZM147.111 709.144C144.727 709.144 143.015 707.336 143.015 704.888V704.76C143.015 702.248 144.759 700.488 147.127 700.488C149.495 700.488 151.239 702.232 151.239 704.744V704.872C151.239 707.4 149.495 709.144 147.111 709.144ZM147.127 708.04C148.807 708.04 149.863 706.776 149.863 704.888V704.776C149.863 702.84 148.791 701.592 147.127 701.592C145.447 701.592 144.391 702.84 144.391 704.76V704.888C144.391 706.792 145.431 708.04 147.127 708.04ZM160.682 709.144C158.346 709.144 156.586 707.496 156.586 704.904V704.776C156.586 702.216 158.41 700.488 160.65 700.488C162.394 700.488 164.026 701.288 164.282 703.416H162.97C162.762 702.088 161.802 701.592 160.65 701.592C159.13 701.592 157.962 702.808 157.962 704.776V704.904C157.962 706.952 159.082 708.04 160.698 708.04C161.882 708.04 162.954 707.352 163.098 705.992H164.33C164.154 707.8 162.698 709.144 160.682 709.144ZM169.647 709.144C167.263 709.144 165.551 707.336 165.551 704.888V704.76C165.551 702.248 167.295 700.488 169.663 700.488C172.031 700.488 173.775 702.232 173.775 704.744V704.872C173.775 707.4 172.031 709.144 169.647 709.144ZM169.663 708.04C171.343 708.04 172.399 706.776 172.399 704.888V704.776C172.399 702.84 171.327 701.592 169.663 701.592C167.983 701.592 166.927 702.84 166.927 704.76V704.888C166.927 706.792 167.967 708.04 169.663 708.04ZM175.671 709V700.632H176.999V701.912C177.383 701.128 178.295 700.488 179.495 700.488C180.567 700.488 181.511 700.936 181.943 702.056C182.519 700.968 183.767 700.488 184.807 700.488C186.311 700.488 187.623 701.384 187.623 703.816V709H186.295V703.72C186.295 702.248 185.671 701.64 184.519 701.64C183.431 701.64 182.311 702.376 182.311 703.88V709H180.983V703.72C180.983 702.248 180.359 701.64 179.207 701.64C178.119 701.64 176.999 702.376 176.999 703.88V709H175.671ZM196.74 709.144C194.74 709.144 193.54 708.136 193.46 706.424H194.756C194.852 707.416 195.38 708.04 196.724 708.04C197.988 708.04 198.548 707.608 198.548 706.712C198.548 705.832 197.892 705.544 196.596 705.304C194.42 704.904 193.684 704.296 193.684 702.84C193.684 701.288 195.204 700.488 196.516 700.488C198.02 700.488 199.316 701.096 199.54 702.904H198.26C198.068 701.992 197.556 701.592 196.5 701.592C195.54 701.592 194.916 702.072 194.916 702.792C194.916 703.544 195.332 703.848 196.868 704.12C198.596 704.44 199.812 704.824 199.812 706.6C199.812 708.12 198.772 709.144 196.74 709.144ZM204.507 709.144C202.843 709.144 201.595 708.232 201.595 705.928V700.632H202.923V705.864C202.923 707.336 203.547 707.992 204.859 707.992C206.043 707.992 207.163 707.208 207.163 705.704V700.632H208.491V709H207.163V707.672C206.779 708.456 205.851 709.144 204.507 709.144ZM214.487 709.144C212.151 709.144 210.391 707.496 210.391 704.904V704.776C210.391 702.216 212.215 700.488 214.455 700.488C216.199 700.488 217.831 701.288 218.087 703.416H216.775C216.567 702.088 215.607 701.592 214.455 701.592C212.935 701.592 211.767 702.808 211.767 704.776V704.904C211.767 706.952 212.887 708.04 214.503 708.04C215.687 708.04 216.759 707.352 216.903 705.992H218.135C217.959 707.8 216.503 709.144 214.487 709.144ZM223.404 709.144C221.036 709.144 219.356 707.48 219.356 704.904V704.776C219.356 702.248 220.972 700.488 223.276 700.488C225.212 700.488 227.036 701.656 227.036 704.648V705.08H220.732C220.796 706.984 221.708 708.04 223.42 708.04C224.716 708.04 225.468 707.56 225.644 706.584H226.972C226.684 708.264 225.292 709.144 223.404 709.144ZM220.78 704.008H225.676C225.548 702.28 224.652 701.592 223.276 701.592C221.916 701.592 221.004 702.52 220.78 704.008ZM231.584 709.144C229.584 709.144 228.384 708.136 228.304 706.424H229.6C229.696 707.416 230.224 708.04 231.568 708.04C232.832 708.04 233.392 707.608 233.392 706.712C233.392 705.832 232.736 705.544 231.44 705.304C229.264 704.904 228.528 704.296 228.528 702.84C228.528 701.288 230.048 700.488 231.36 700.488C232.864 700.488 234.16 701.096 234.384 702.904H233.104C232.912 701.992 232.4 701.592 231.344 701.592C230.384 701.592 229.76 702.072 229.76 702.792C229.76 703.544 230.176 703.848 231.712 704.12C233.44 704.44 234.656 704.824 234.656 706.6C234.656 708.12 233.616 709.144 231.584 709.144ZM239.112 709.144C237.112 709.144 235.912 708.136 235.832 706.424H237.128C237.224 707.416 237.752 708.04 239.096 708.04C240.36 708.04 240.92 707.608 240.92 706.712C240.92 705.832 240.264 705.544 238.968 705.304C236.792 704.904 236.056 704.296 236.056 702.84C236.056 701.288 237.576 700.488 238.888 700.488C240.392 700.488 241.688 701.096 241.912 702.904H240.632C240.44 701.992 239.928 701.592 238.872 701.592C237.912 701.592 237.288 702.072 237.288 702.792C237.288 703.544 237.704 703.848 239.24 704.12C240.968 704.44 242.184 704.824 242.184 706.6C242.184 708.12 241.144 709.144 239.112 709.144ZM247.519 709.144C245.135 709.144 243.423 707.336 243.423 704.888V704.76C243.423 702.248 245.167 700.488 247.535 700.488C249.903 700.488 251.647 702.232 251.647 704.744V704.872C251.647 707.4 249.903 709.144 247.519 709.144ZM247.535 708.04C249.215 708.04 250.271 706.776 250.271 704.888V704.776C250.271 702.84 249.199 701.592 247.535 701.592C245.855 701.592 244.799 702.84 244.799 704.76V704.888C244.799 706.792 245.839 708.04 247.535 708.04Z" fill="white"/>
</g>
<defs>
<clipPath id="clip0_17453_7661">
<rect width="375" height="812" fill="white"/>
</clipPath>
<clipPath id="clip1_17453_7661">
<rect width="48" height="48" fill="white" transform="translate(12 52)"/>
</clipPath>
<clipPath id="clip2_17453_7661">
<rect width="247" height="67" fill="white" transform="translate(64 217)"/>
</clipPath>
<clipPath id="clip3_17453_7661">
<rect width="247" height="67" fill="white" transform="translate(64 366)"/>
</clipPath>
</defs>
</svg>
