<svg width="375" height="814" viewBox="0 0 375 814" fill="none" xmlns="http://www.w3.org/2000/svg">
<g clip-path="url(#clip0_17453_7262)">
<rect width="375" height="814" fill="white"/>
<path d="M24 774C24 760.745 34.7452 750 48 750H327C340.255 750 351 760.745 351 774C351 787.255 340.255 798 327 798H48C34.7452 798 24 787.255 24 774Z" fill="#714F8F"/>
<path d="M156.312 778.66C152.728 778.66 150.728 776.372 150.728 772.852V772.724C150.728 769.284 153.096 766.884 156.28 766.884C158.904 766.884 160.936 768.196 161.192 770.884H159.032C158.792 769.364 157.944 768.58 156.296 768.58C154.28 768.58 152.968 770.148 152.968 772.708V772.836C152.968 775.412 154.2 776.932 156.312 776.932C157.896 776.932 159.016 776.132 159.24 774.516H161.32C160.984 777.268 159.032 778.66 156.312 778.66ZM166.587 778.66C164.123 778.66 162.299 776.948 162.299 774.404V774.276C162.299 771.684 164.139 769.956 166.603 769.956C169.051 769.956 170.891 771.668 170.891 774.228V774.356C170.891 776.964 169.051 778.66 166.587 778.66ZM166.603 777.156C168.043 777.156 168.907 776.084 168.907 774.372V774.26C168.907 772.532 168.043 771.476 166.603 771.476C165.163 771.476 164.283 772.516 164.283 774.244V774.372C164.283 776.084 165.131 777.156 166.603 777.156ZM172.48 778.5V770.132H174.416V771.46C174.816 770.644 175.744 769.956 177.12 769.956C178.8 769.956 179.984 770.932 179.984 773.236V778.5H178.048V773.412C178.048 772.148 177.536 771.572 176.384 771.572C175.296 771.572 174.416 772.244 174.416 773.572V778.5H172.48ZM184.902 778.644C183.238 778.644 182.374 777.748 182.374 776.164V771.588H181.254V770.132H182.374V768.292H184.31V770.132H186.15V771.588H184.31V775.988C184.31 776.724 184.662 777.06 185.27 777.06C185.654 777.06 185.942 777.012 186.214 776.9V778.436C185.91 778.548 185.494 778.644 184.902 778.644ZM188.792 768.756C188.152 768.756 187.64 768.276 187.64 767.652C187.64 767.012 188.152 766.532 188.792 766.532C189.432 766.532 189.944 767.012 189.944 767.652C189.944 768.276 189.432 768.756 188.792 768.756ZM187.848 778.5V770.132H189.784V778.5H187.848ZM191.984 778.5V770.132H193.92V771.46C194.32 770.644 195.248 769.956 196.624 769.956C198.304 769.956 199.488 770.932 199.488 773.236V778.5H197.552V773.412C197.552 772.148 197.04 771.572 195.888 771.572C194.8 771.572 193.92 772.244 193.92 773.572V778.5H191.984ZM204.359 778.66C202.711 778.66 201.479 777.716 201.479 775.492V770.132H203.415V775.268C203.415 776.532 203.943 777.108 205.063 777.108C206.103 777.108 207.015 776.436 207.015 775.108V770.132H208.951V778.5H207.015V777.188C206.599 778.004 205.719 778.66 204.359 778.66ZM213.278 778.66C211.742 778.66 210.478 777.924 210.478 776.18C210.478 774.228 212.366 773.524 214.766 773.524H215.806V773.092C215.806 771.972 215.422 771.412 214.286 771.412C213.278 771.412 212.782 771.892 212.686 772.724H210.814C210.974 770.772 212.526 769.956 214.398 769.956C216.27 769.956 217.742 770.724 217.742 773.012V778.5H215.838V777.476C215.294 778.196 214.558 778.66 213.278 778.66ZM213.742 777.268C214.926 777.268 215.806 776.644 215.806 775.572V774.74H214.814C213.342 774.74 212.398 775.076 212.398 776.1C212.398 776.804 212.782 777.268 213.742 777.268ZM219.801 778.5V770.132H221.737V771.7C222.265 770.644 223.049 770.02 224.457 770.004V771.812C222.761 771.828 221.737 772.372 221.737 774.148V778.5H219.801Z" fill="white"/>
<rect width="375" height="104" fill="white"/>
<path d="M35.7202 33V24.3354H35.5957L32.9663 26.1812V24.3647L35.7276 22.4312H37.6099V33H35.7202ZM42.9216 33V24.3354H42.7971L40.1677 26.1812V24.3647L42.929 22.4312H44.8113V33H42.9216ZM48.9365 31.5425C48.248 31.5425 47.7646 31.0444 47.7646 30.3853C47.7646 29.7188 48.248 29.228 48.9365 29.228C49.6323 29.228 50.1084 29.7188 50.1084 30.3853C50.1084 31.0444 49.6323 31.5425 48.9365 31.5425ZM48.9365 26.1958C48.248 26.1958 47.7646 25.7051 47.7646 25.0459C47.7646 24.3794 48.248 23.8887 48.9365 23.8887C49.6323 23.8887 50.1084 24.3794 50.1084 25.0459C50.1084 25.7051 49.6323 26.1958 48.9365 26.1958ZM56.0793 33.2637C53.5452 33.2637 52.0437 31.2129 52.0437 27.7046C52.0437 24.2109 53.5671 22.1675 56.0793 22.1675C58.5842 22.1675 60.1077 24.2109 60.1077 27.7192C60.1077 31.2129 58.6062 33.2637 56.0793 33.2637ZM56.0793 31.6963C57.4197 31.6963 58.196 30.3267 58.196 27.7046C58.196 25.0972 57.405 23.7422 56.0793 23.7422C54.7537 23.7422 53.9553 25.1045 53.9553 27.7046C53.9553 30.3267 54.739 31.6963 56.0793 31.6963ZM65.8735 33.2637C63.4492 33.2637 61.7793 32.0039 61.7793 30.1729C61.7793 28.8325 62.6802 27.7705 64.0644 27.4775V27.353C62.9365 27.0747 62.2041 26.1592 62.2041 25.0312C62.2041 23.3613 63.7348 22.1675 65.8808 22.1675C68.0268 22.1675 69.5503 23.3613 69.5503 25.0312C69.5503 26.1665 68.8325 27.0674 67.6972 27.353V27.4775C69.0742 27.7339 69.9824 28.8032 69.9824 30.1655C69.9824 32.0039 68.3125 33.2637 65.8735 33.2637ZM65.8808 31.7915C67.1553 31.7915 68.0268 31.0664 68.0268 30.0117C68.0268 28.957 67.1479 28.2319 65.8808 28.2319C64.6064 28.2319 63.7275 28.957 63.7275 30.0117C63.7275 31.0664 64.6064 31.7915 65.8808 31.7915ZM65.8808 26.7817C66.9502 26.7817 67.6899 26.1445 67.6899 25.2144C67.6899 24.2695 66.9575 23.6177 65.8808 23.6177C64.7969 23.6177 64.0644 24.2695 64.0644 25.2144C64.0644 26.1445 64.8042 26.7817 65.8808 26.7817Z" fill="black" fill-opacity="0.96"/>
<path d="M285.339 29.3336C285.891 29.3336 286.339 29.7813 286.339 30.3336V32.3336C286.339 32.8858 285.891 33.3336 285.339 33.3336H284.339C283.787 33.3336 283.339 32.8858 283.339 32.3336V30.3336C283.339 29.7813 283.787 29.3336 284.339 29.3336H285.339ZM290.006 27.3336C290.558 27.3338 291.006 27.7814 291.006 28.3336V32.3336C291.006 32.8856 290.558 33.3334 290.006 33.3336H289.006C288.454 33.3336 288.006 32.8858 288.006 32.3336V28.3336C288.006 27.7813 288.454 27.3336 289.006 27.3336H290.006ZM294.672 24.9996C295.224 24.9996 295.672 25.4475 295.672 25.9996V32.3336C295.672 32.8858 295.224 33.3336 294.672 33.3336H293.672C293.12 33.3334 292.672 32.8856 292.672 32.3336V25.9996C292.672 25.4476 293.12 24.9998 293.672 24.9996H294.672ZM299.339 22.6666C299.891 22.6666 300.339 23.1143 300.339 23.6666V32.3336C300.339 32.8858 299.891 33.3336 299.339 33.3336H298.339C297.787 33.3336 297.339 32.8858 297.339 32.3336V23.6666C297.339 23.1143 297.787 22.6666 298.339 22.6666H299.339Z" fill="black" fill-opacity="0.96"/>
<path fill-rule="evenodd" clip-rule="evenodd" d="M311.287 30.9267C312.568 29.8444 314.444 29.8444 315.725 30.9267C315.789 30.9849 315.826 31.0675 315.828 31.1542C315.83 31.2409 315.795 31.324 315.733 31.3847L313.729 33.4072C313.67 33.4666 313.589 33.4999 313.506 33.4999C313.422 33.4999 313.342 33.4666 313.283 33.4072L311.277 31.3847C311.216 31.324 311.182 31.2407 311.184 31.1542C311.185 31.0675 311.223 30.9848 311.287 30.9267ZM308.611 28.2294C311.37 25.665 315.643 25.6651 318.402 28.2294C318.465 28.2896 318.5 28.3724 318.501 28.4589C318.502 28.5453 318.468 28.6281 318.407 28.6894L317.248 29.8603C317.129 29.9796 316.936 29.9814 316.813 29.8652C315.907 29.0454 314.728 28.5917 313.506 28.5917C312.284 28.5923 311.107 29.0461 310.201 29.8652C310.079 29.9815 309.885 29.9798 309.766 29.8603L308.607 28.6894C308.546 28.6282 308.512 28.5453 308.513 28.4589C308.514 28.3724 308.549 28.2895 308.611 28.2294ZM305.936 25.539C310.167 21.4869 316.843 21.4871 321.075 25.539C321.136 25.5992 321.171 25.6817 321.172 25.7675C321.172 25.8533 321.139 25.9361 321.078 25.997L319.918 27.1669C319.798 27.287 319.604 27.2881 319.482 27.1699C317.87 25.6384 315.73 24.7842 313.506 24.7841C311.281 24.7841 309.141 25.6382 307.528 27.1699C307.407 27.2882 307.213 27.287 307.094 27.1669L305.933 25.997C305.872 25.9361 305.838 25.8532 305.839 25.7675C305.839 25.6817 305.874 25.5991 305.936 25.539Z" fill="black" fill-opacity="0.96"/>
<rect opacity="0.35" x="327.172" y="22.8334" width="21" height="10.3333" rx="3.5" stroke="black" stroke-opacity="0.96"/>
<path opacity="0.4" d="M349.672 26V30C350.477 29.6612 351 28.8731 351 28C351 27.1269 350.477 26.3388 349.672 26Z" fill="black" fill-opacity="0.96"/>
<rect x="328.672" y="24.3334" width="18" height="7.33333" rx="2.3" fill="black" fill-opacity="0.96"/>
<g clip-path="url(#clip1_17453_7262)">
<path d="M30.2934 75.2928L38.2942 67.292L39.7086 68.7063L32.4149 76L39.7086 83.2936L38.2942 84.708L30.2934 76.7072C29.9028 76.3166 29.9028 75.6834 30.2934 75.2928Z" fill="black" fill-opacity="0.64"/>
</g>
<path d="M124 76C124 75.4477 124.448 75 125 75H251C251.552 75 252 75.4477 252 76C252 76.5523 251.552 77 251 77H125C124.448 77 124 76.5523 124 76Z" fill="#EFEFEF"/>
<path d="M124 76C124 75.4477 124.448 75 125 75H187C187.552 75 188 75.4477 188 76C188 76.5523 187.552 77 187 77H125C124.448 77 124 76.5523 124 76Z" fill="#714F8F"/>
<path d="M42.032 140.548L39.288 137.608C38.14 138.028 36.824 138.28 35.424 138.28C29.292 138.28 25.288 133.884 25.288 128.116V127.892C25.288 122.04 29.488 117.728 35.424 117.728C41.388 117.728 45.532 121.956 45.532 127.808V128.032C45.532 131.336 44.244 134.136 42.06 135.984L44.272 138.364L42.032 140.548ZM35.452 135.34C36.012 135.34 36.544 135.284 37.02 135.172L35.06 133.044L37.328 130.916L39.792 133.576C40.968 132.288 41.64 130.384 41.64 128.032V127.808C41.64 123.692 39.344 120.668 35.424 120.668C31.476 120.668 29.152 123.552 29.152 127.864V128.088C29.152 132.568 31.84 135.34 35.452 135.34ZM52.8807 138.28C49.9967 138.28 47.8407 136.628 47.8407 132.736V123.356H51.2287V132.344C51.2287 134.556 52.1527 135.564 54.1127 135.564C55.9327 135.564 57.5287 134.388 57.5287 132.064V123.356H60.9167V138H57.5287V135.704C56.8007 137.132 55.2607 138.28 52.8807 138.28ZM67.9298 138.28C65.2418 138.28 63.0298 136.992 63.0298 133.94C63.0298 130.524 66.3338 129.292 70.5338 129.292H72.3538V128.536C72.3538 126.576 71.6818 125.596 69.6938 125.596C67.9298 125.596 67.0618 126.436 66.8938 127.892H63.6178C63.8978 124.476 66.6138 123.048 69.8898 123.048C73.1658 123.048 75.7418 124.392 75.7418 128.396V138H72.4098V136.208C71.4578 137.468 70.1698 138.28 67.9298 138.28ZM68.7418 135.844C70.8138 135.844 72.3538 134.752 72.3538 132.876V131.42H70.6178C68.0418 131.42 66.3898 132.008 66.3898 133.8C66.3898 135.032 67.0618 135.844 68.7418 135.844ZM78.8691 138V116.58H82.2571V138H78.8691ZM96.2225 121.172L97.8745 116.832H101.627L98.7145 121.172H96.2225ZM97.8185 138.28C93.5065 138.28 90.3985 135.452 90.3985 130.832V130.608C90.3985 126.072 93.5065 123.048 97.6785 123.048C101.319 123.048 104.595 125.204 104.595 130.44V131.42H93.8705C93.9825 134.192 95.3825 135.76 97.9025 135.76C99.9465 135.76 101.011 134.948 101.263 133.52H104.539C104.063 136.6 101.571 138.28 97.8185 138.28ZM93.9265 129.152H101.235C101.067 126.632 99.7785 125.512 97.6785 125.512C95.6345 125.512 94.2625 126.884 93.9265 129.152ZM119.137 138.28C114.825 138.28 111.633 135.284 111.633 130.832V130.608C111.633 126.072 114.853 123.048 119.165 123.048C123.449 123.048 126.669 126.044 126.669 130.524V130.748C126.669 135.312 123.449 138.28 119.137 138.28ZM119.165 135.648C121.685 135.648 123.197 133.772 123.197 130.776V130.58C123.197 127.556 121.685 125.708 119.165 125.708C116.645 125.708 115.105 127.528 115.105 130.552V130.776C115.105 133.772 116.589 135.648 119.165 135.648ZM134.722 138V123.356H138.11V125.596C138.81 124.224 140.406 123.048 142.562 123.048C144.466 123.048 145.978 123.86 146.706 125.68C147.826 123.86 149.842 123.048 151.662 123.048C154.35 123.048 156.534 124.7 156.534 128.732V138H153.146V128.956C153.146 126.8 152.222 125.876 150.542 125.876C148.862 125.876 147.322 126.996 147.322 129.236V138H143.934V128.956C143.934 126.8 142.982 125.876 141.33 125.876C139.65 125.876 138.11 126.996 138.11 129.236V138H134.722ZM166.025 138.28C161.713 138.28 158.605 135.452 158.605 130.832V130.608C158.605 126.072 161.713 123.048 165.885 123.048C169.525 123.048 172.801 125.204 172.801 130.44V131.42H162.077C162.189 134.192 163.589 135.76 166.109 135.76C168.153 135.76 169.217 134.948 169.469 133.52H172.745C172.269 136.6 169.777 138.28 166.025 138.28ZM162.133 129.152H169.441C169.273 126.632 167.985 125.512 165.885 125.512C163.841 125.512 162.469 126.884 162.133 129.152ZM175.071 138V116.58H178.459V138H175.071ZM181.748 138V116.58H185.136V125.68C185.836 124.252 187.46 123.048 189.868 123.048C192.808 123.048 194.88 124.756 194.88 128.788V138H191.492V129.096C191.492 126.884 190.596 125.876 188.58 125.876C186.676 125.876 185.136 127.052 185.136 129.376V138H181.748ZM204.468 138.28C200.156 138.28 196.964 135.284 196.964 130.832V130.608C196.964 126.072 200.184 123.048 204.496 123.048C208.78 123.048 212 126.044 212 130.524V130.748C212 135.312 208.78 138.28 204.468 138.28ZM204.496 135.648C207.016 135.648 208.528 133.772 208.528 130.776V130.58C208.528 127.556 207.016 125.708 204.496 125.708C201.976 125.708 200.436 127.528 200.436 130.552V130.776C200.436 133.772 201.92 135.648 204.496 135.648ZM214.221 138V123.356H217.609V126.1C218.533 124.252 219.905 123.16 222.369 123.132V126.296C219.401 126.324 217.609 127.276 217.609 130.384V138H214.221ZM230.342 138V116.58H233.73V125.68C234.43 124.252 236.054 123.048 238.462 123.048C241.402 123.048 243.474 124.756 243.474 128.788V138H240.086V129.096C240.086 126.884 239.19 125.876 237.174 125.876C235.27 125.876 233.73 127.052 233.73 129.376V138H230.342ZM253.061 138.28C248.749 138.28 245.557 135.284 245.557 130.832V130.608C245.557 126.072 248.777 123.048 253.089 123.048C257.373 123.048 260.593 126.044 260.593 130.524V130.748C260.593 135.312 257.373 138.28 253.061 138.28ZM253.089 135.648C255.609 135.648 257.121 133.772 257.121 130.776V130.58C257.121 127.556 255.609 125.708 253.089 125.708C250.569 125.708 249.029 127.528 249.029 130.552V130.776C249.029 133.772 250.513 135.648 253.089 135.648ZM262.814 138V123.356H266.202V126.1C267.126 124.252 268.498 123.16 270.962 123.132V126.296C267.994 126.324 266.202 127.276 266.202 130.384V138H262.814ZM277.28 121.172L278.932 116.832H282.684L279.772 121.172H277.28ZM276.72 138.28C274.032 138.28 271.82 136.992 271.82 133.94C271.82 130.524 275.124 129.292 279.324 129.292H281.144V128.536C281.144 126.576 280.472 125.596 278.484 125.596C276.72 125.596 275.852 126.436 275.684 127.892H272.408C272.688 124.476 275.404 123.048 278.68 123.048C281.956 123.048 284.532 124.392 284.532 128.396V138H281.2V136.208C280.248 137.468 278.96 138.28 276.72 138.28ZM277.532 135.844C279.604 135.844 281.144 134.752 281.144 132.876V131.42H279.408C276.832 131.42 275.18 132.008 275.18 133.8C275.18 135.032 275.852 135.844 277.532 135.844ZM287.575 138V123.356H290.963V126.1C291.887 124.252 293.259 123.16 295.723 123.132V126.296C292.755 126.324 290.963 127.276 290.963 130.384V138H287.575ZM299.6 120.948C298.48 120.948 297.584 120.108 297.584 119.016C297.584 117.896 298.48 117.056 299.6 117.056C300.72 117.056 301.616 117.896 301.616 119.016C301.616 120.108 300.72 120.948 299.6 120.948ZM297.948 138V123.356H301.336V138H297.948ZM311.15 138.28C306.838 138.28 303.646 135.284 303.646 130.832V130.608C303.646 126.072 306.866 123.048 311.178 123.048C315.462 123.048 318.682 126.044 318.682 130.524V130.748C318.682 135.312 315.462 138.28 311.15 138.28ZM311.178 135.648C313.698 135.648 315.21 133.772 315.21 130.776V130.58C315.21 127.556 313.698 125.708 311.178 125.708C308.658 125.708 307.118 127.528 307.118 130.552V130.776C307.118 133.772 308.602 135.648 311.178 135.648ZM31.504 172.28C27.836 172.28 25.064 169.676 25.064 164.916V164.692C25.064 160.016 27.836 157.048 31.644 157.048C34.024 157.048 35.508 158.14 36.32 159.596V150.58H39.708V172H36.32V169.536C35.536 170.992 33.66 172.28 31.504 172.28ZM32.344 169.592C34.696 169.592 36.432 168.024 36.432 164.748V164.524C36.432 161.304 34.948 159.708 32.484 159.708C29.992 159.708 28.536 161.444 28.536 164.608V164.832C28.536 168.052 30.16 169.592 32.344 169.592ZM49.3348 172.28C45.0227 172.28 41.9147 169.452 41.9147 164.832V164.608C41.9147 160.072 45.0227 157.048 49.1948 157.048C52.8348 157.048 56.1108 159.204 56.1108 164.44V165.42H45.3868C45.4988 168.192 46.8987 169.76 49.4188 169.76C51.4628 169.76 52.5268 168.948 52.7788 167.52H56.0548C55.5788 170.6 53.0868 172.28 49.3348 172.28ZM45.4427 163.152H52.7508C52.5828 160.632 51.2948 159.512 49.1948 159.512C47.1508 159.512 45.7788 160.884 45.4427 163.152ZM70.5688 172.28C66.2568 172.28 63.1488 169.452 63.1488 164.832V164.608C63.1488 160.072 66.2568 157.048 70.4288 157.048C74.0688 157.048 77.3448 159.204 77.3448 164.44V165.42H66.6208C66.7328 168.192 68.1328 169.76 70.6528 169.76C72.6968 169.76 73.7608 168.948 74.0128 167.52H77.2888C76.8128 170.6 74.3208 172.28 70.5688 172.28ZM66.6768 163.152H73.9848C73.8168 160.632 72.5288 159.512 70.4288 159.512C68.3848 159.512 67.0128 160.884 66.6768 163.152ZM79.531 172V157.356H82.919V159.68C83.619 158.252 85.243 157.048 87.651 157.048C90.591 157.048 92.663 158.756 92.663 162.788V172H89.275V163.096C89.275 160.884 88.379 159.876 86.363 159.876C84.459 159.876 82.919 161.052 82.919 163.376V172H79.531ZM100.71 172.252C97.7982 172.252 96.2862 170.684 96.2862 167.912V159.904H94.3262V157.356H96.2862V154.136H99.6742V157.356H102.894V159.904H99.6742V167.604C99.6742 168.892 100.29 169.48 101.354 169.48C102.026 169.48 102.53 169.396 103.006 169.2V171.888C102.474 172.084 101.746 172.252 100.71 172.252ZM105.222 172V157.356H108.61V160.1C109.534 158.252 110.906 157.16 113.37 157.132V160.296C110.402 160.324 108.61 161.276 108.61 164.384V172H105.222ZM121.65 172.28C117.338 172.28 114.23 169.452 114.23 164.832V164.608C114.23 160.072 117.338 157.048 121.51 157.048C125.15 157.048 128.426 159.204 128.426 164.44V165.42H117.702C117.814 168.192 119.214 169.76 121.734 169.76C123.778 169.76 124.842 168.948 125.094 167.52H128.37C127.894 170.6 125.402 172.28 121.65 172.28ZM117.758 163.152H125.066C124.898 160.632 123.61 159.512 121.51 159.512C119.466 159.512 118.094 160.884 117.758 163.152ZM136.856 177.376C132.264 177.376 130.192 175.304 129.8 172.504H133.216C133.496 173.96 134.616 174.8 136.828 174.8C139.46 174.8 140.916 173.484 140.916 170.852V168.696C140.104 170.096 138.284 171.412 136.128 171.412C132.46 171.412 129.632 168.668 129.632 164.44V164.244C129.632 160.128 132.432 157.048 136.212 157.048C138.62 157.048 140.076 158.14 140.916 159.596V157.356H144.304V170.908C144.276 175.22 141.392 177.376 136.856 177.376ZM136.968 168.808C139.32 168.808 141.028 167.128 141.028 164.328V164.132C141.028 161.36 139.516 159.708 137.08 159.708C134.56 159.708 133.104 161.528 133.104 164.188V164.412C133.104 167.128 134.784 168.808 136.968 168.808ZM151.327 172.28C148.639 172.28 146.427 170.992 146.427 167.94C146.427 164.524 149.731 163.292 153.931 163.292H155.751V162.536C155.751 160.576 155.079 159.596 153.091 159.596C151.327 159.596 150.459 160.436 150.291 161.892H147.015C147.295 158.476 150.011 157.048 153.287 157.048C156.563 157.048 159.139 158.392 159.139 162.396V172H155.807V170.208C154.855 171.468 153.567 172.28 151.327 172.28ZM152.139 169.844C154.211 169.844 155.751 168.752 155.751 166.876V165.42H154.015C151.439 165.42 149.787 166.008 149.787 167.8C149.787 169.032 150.459 169.844 152.139 169.844ZM164.52 165.98V164.916C164.52 162.704 166.004 161.332 167.348 160.016C168.384 158.98 169.308 158.056 169.308 156.852C169.308 155.424 168.524 154.5 166.816 154.5C165.08 154.5 163.876 155.732 163.68 157.664H160.432C160.628 153.996 163.232 151.7 166.984 151.7C170.988 151.7 172.864 153.884 172.864 156.6C172.864 158.588 171.66 159.876 170.4 161.108C169.084 162.368 167.74 163.516 167.656 165.084V165.98H164.52ZM166.06 172.196C164.8 172.196 163.764 171.244 163.764 170.04C163.764 168.808 164.8 167.856 166.06 167.856C167.292 167.856 168.3 168.808 168.3 170.04C168.3 171.244 167.292 172.196 166.06 172.196Z" fill="black" fill-opacity="0.96"/>
<path d="M25.62 205V192.13H33.126V193.408H27.186V197.782H31.974V199.06H27.186V203.722H33.45V205H25.62ZM35.5273 205V195.586H37.0213V197.08C37.4533 196.198 38.4973 195.424 40.0453 195.424C41.9893 195.424 43.3573 196.486 43.3573 199.222V205H41.8633V199.114C41.8633 197.458 41.1613 196.72 39.6493 196.72C38.2633 196.72 37.0213 197.602 37.0213 199.294V205H35.5273ZM48.9671 205.126C47.2571 205.126 46.4291 204.118 46.4291 202.642V196.846H45.0791V195.586H46.4291V193.444H47.9231V195.586H50.1191V196.846H47.9231V202.498C47.9231 203.416 48.3371 203.866 49.0931 203.866C49.5611 203.866 49.9211 203.794 50.2451 203.668V204.928C49.9391 205.036 49.5791 205.126 48.9671 205.126ZM52.3236 205V195.586H53.8176V197.278C54.4116 196.216 55.2216 195.478 56.9136 195.424V196.828C55.0236 196.918 53.8176 197.512 53.8176 199.834V205H52.3236ZM62.4995 205.162C59.8355 205.162 57.9455 203.29 57.9455 200.392V200.248C57.9455 197.404 59.7635 195.424 62.3555 195.424C64.5335 195.424 66.5855 196.738 66.5855 200.104V200.59H59.4935C59.5655 202.732 60.5915 203.92 62.5175 203.92C63.9755 203.92 64.8215 203.38 65.0195 202.282H66.5135C66.1895 204.172 64.6235 205.162 62.4995 205.162ZM59.5475 199.384H65.0555C64.9115 197.44 63.9035 196.666 62.3555 196.666C60.8255 196.666 59.7995 197.71 59.5475 199.384ZM72.4599 208.438C69.6699 208.438 68.4459 207.124 68.1939 205.54H69.7239C69.9399 206.62 70.8399 207.178 72.4419 207.178C74.2959 207.178 75.4659 206.296 75.4659 204.28V202.912C74.9259 203.83 73.6479 204.694 72.2799 204.694C69.8139 204.694 67.9959 202.822 67.9959 200.23V200.104C67.9959 197.548 69.7959 195.424 72.3879 195.424C73.9539 195.424 74.9259 196.18 75.4659 197.098V195.586H76.9599V204.37C76.9419 207.106 75.0879 208.438 72.4599 208.438ZM72.4419 203.452C74.1879 203.452 75.5199 202.228 75.5199 200.122V199.996C75.5199 197.89 74.3679 196.666 72.5319 196.666C70.6599 196.666 69.5439 198.052 69.5439 200.032V200.176C69.5439 202.228 70.8579 203.452 72.4419 203.452ZM82.1611 205.162C80.4151 205.162 79.0291 204.316 79.0291 202.39C79.0291 200.212 81.3331 199.474 83.7451 199.474H85.0951V198.79C85.0951 197.296 84.5191 196.666 83.0791 196.666C81.7831 196.666 81.0631 197.206 80.9191 198.358H79.4251C79.6231 196.216 81.3331 195.424 83.1511 195.424C84.9511 195.424 86.5891 196.162 86.5891 198.79V205H85.0951V203.812C84.3931 204.694 83.5471 205.162 82.1611 205.162ZM82.3051 203.974C83.8891 203.974 85.0951 203.164 85.0951 201.706V200.536H83.7991C81.9091 200.536 80.5231 201.004 80.5231 202.39C80.5231 203.362 80.9911 203.974 82.3051 203.974ZM89.3438 205V195.586H90.8378V197.026C91.2698 196.144 92.2958 195.424 93.6458 195.424C94.8518 195.424 95.9138 195.928 96.3998 197.188C97.0478 195.964 98.4518 195.424 99.6218 195.424C101.314 195.424 102.79 196.432 102.79 199.168V205H101.296V199.06C101.296 197.404 100.594 196.72 99.2978 196.72C98.0738 196.72 96.8138 197.548 96.8138 199.24V205H95.3198V199.06C95.3198 197.404 94.6178 196.72 93.3218 196.72C92.0978 196.72 90.8378 197.548 90.8378 199.24V205H89.3438ZM109.453 205.162C106.771 205.162 104.845 203.128 104.845 200.374V200.23C104.845 197.404 106.807 195.424 109.471 195.424C112.135 195.424 114.097 197.386 114.097 200.212V200.356C114.097 203.2 112.135 205.162 109.453 205.162ZM109.471 203.92C111.361 203.92 112.549 202.498 112.549 200.374V200.248C112.549 198.07 111.343 196.666 109.471 196.666C107.581 196.666 106.393 198.07 106.393 200.23V200.374C106.393 202.516 107.563 203.92 109.471 203.92ZM119.146 205.162C116.896 205.162 115.546 204.028 115.456 202.102H116.914C117.022 203.218 117.616 203.92 119.128 203.92C120.55 203.92 121.18 203.434 121.18 202.426C121.18 201.436 120.442 201.112 118.984 200.842C116.536 200.392 115.708 199.708 115.708 198.07C115.708 196.324 117.418 195.424 118.894 195.424C120.586 195.424 122.044 196.108 122.296 198.142H120.856C120.64 197.116 120.064 196.666 118.876 196.666C117.796 196.666 117.094 197.206 117.094 198.016C117.094 198.862 117.562 199.204 119.29 199.51C121.234 199.87 122.602 200.302 122.602 202.3C122.602 204.01 121.432 205.162 119.146 205.162ZM132.828 205.162C130.362 205.162 128.58 203.416 128.58 200.482V200.338C128.58 197.458 130.38 195.424 132.972 195.424C134.538 195.424 135.51 196.18 136.05 197.098V191.086H137.544V205H136.05V203.38C135.51 204.298 134.196 205.162 132.828 205.162ZM132.99 203.92C134.736 203.92 136.104 202.768 136.104 200.356V200.212C136.104 197.8 134.952 196.666 133.116 196.666C131.244 196.666 130.128 197.98 130.128 200.266V200.41C130.128 202.786 131.406 203.92 132.99 203.92ZM144.239 205.162C141.575 205.162 139.685 203.29 139.685 200.392V200.248C139.685 197.404 141.503 195.424 144.095 195.424C146.273 195.424 148.325 196.738 148.325 200.104V200.59H141.233C141.305 202.732 142.331 203.92 144.257 203.92C145.715 203.92 146.561 203.38 146.759 202.282H148.253C147.929 204.172 146.363 205.162 144.239 205.162ZM141.287 199.384H146.795C146.651 197.44 145.643 196.666 144.095 196.666C142.565 196.666 141.539 197.71 141.287 199.384ZM157.937 205.162C155.687 205.162 154.337 204.028 154.247 202.102H155.705C155.813 203.218 156.407 203.92 157.919 203.92C159.341 203.92 159.971 203.434 159.971 202.426C159.971 201.436 159.233 201.112 157.775 200.842C155.327 200.392 154.499 199.708 154.499 198.07C154.499 196.324 156.209 195.424 157.685 195.424C159.377 195.424 160.835 196.108 161.087 198.142H159.647C159.431 197.116 158.855 196.666 157.667 196.666C156.587 196.666 155.885 197.206 155.885 198.016C155.885 198.862 156.353 199.204 158.081 199.51C160.025 199.87 161.393 200.302 161.393 202.3C161.393 204.01 160.223 205.162 157.937 205.162ZM167.342 205.162C164.678 205.162 162.788 203.29 162.788 200.392V200.248C162.788 197.404 164.606 195.424 167.198 195.424C169.376 195.424 171.428 196.738 171.428 200.104V200.59H164.336C164.408 202.732 165.434 203.92 167.36 203.92C168.818 203.92 169.664 203.38 169.862 202.282H171.356C171.032 204.172 169.466 205.162 167.342 205.162ZM164.39 199.384H169.898C169.754 197.44 168.746 196.666 167.198 196.666C165.668 196.666 164.642 197.71 164.39 199.384ZM177.302 208.438C174.512 208.438 173.288 207.124 173.036 205.54H174.566C174.782 206.62 175.682 207.178 177.284 207.178C179.138 207.178 180.308 206.296 180.308 204.28V202.912C179.768 203.83 178.49 204.694 177.122 204.694C174.656 204.694 172.838 202.822 172.838 200.23V200.104C172.838 197.548 174.638 195.424 177.23 195.424C178.796 195.424 179.768 196.18 180.308 197.098V195.586H181.802V204.37C181.784 207.106 179.93 208.438 177.302 208.438ZM177.284 203.452C179.03 203.452 180.362 202.228 180.362 200.122V199.996C180.362 197.89 179.21 196.666 177.374 196.666C175.502 196.666 174.386 198.052 174.386 200.032V200.176C174.386 202.228 175.7 203.452 177.284 203.452ZM187.831 205.162C185.959 205.162 184.555 204.136 184.555 201.544V195.586H186.049V201.472C186.049 203.128 186.751 203.866 188.227 203.866C189.559 203.866 190.819 202.984 190.819 201.292V195.586H192.313V205H190.819V203.506C190.387 204.388 189.343 205.162 187.831 205.162ZM195.153 205V195.586H196.647V197.08C197.079 196.198 198.123 195.424 199.671 195.424C201.615 195.424 202.983 196.486 202.983 199.222V205H201.489V199.114C201.489 197.458 200.787 196.72 199.275 196.72C197.889 196.72 196.647 197.602 196.647 199.294V205H195.153ZM209.277 205.162C206.811 205.162 205.029 203.416 205.029 200.482V200.338C205.029 197.458 206.829 195.424 209.421 195.424C210.987 195.424 211.959 196.18 212.499 197.098V191.086H213.993V205H212.499V203.38C211.959 204.298 210.645 205.162 209.277 205.162ZM209.439 203.92C211.185 203.92 212.553 202.768 212.553 200.356V200.212C212.553 197.8 211.401 196.666 209.565 196.666C207.693 196.666 206.577 197.98 206.577 200.266V200.41C206.577 202.786 207.855 203.92 209.439 203.92ZM219.194 205.162C217.448 205.162 216.062 204.316 216.062 202.39C216.062 200.212 218.366 199.474 220.778 199.474H222.128V198.79C222.128 197.296 221.552 196.666 220.112 196.666C218.816 196.666 218.096 197.206 217.952 198.358H216.458C216.656 196.216 218.366 195.424 220.184 195.424C221.984 195.424 223.622 196.162 223.622 198.79V205H222.128V203.812C221.426 204.694 220.58 205.162 219.194 205.162ZM219.338 203.974C220.922 203.974 222.128 203.164 222.128 201.706V200.536H220.832C218.942 200.536 217.556 201.004 217.556 202.39C217.556 203.362 218.024 203.974 219.338 203.974ZM233.318 205.162C231.572 205.162 230.186 204.316 230.186 202.39C230.186 200.212 232.49 199.474 234.902 199.474H236.252V198.79C236.252 197.296 235.676 196.666 234.236 196.666C232.94 196.666 232.22 197.206 232.076 198.358H230.582C230.78 196.216 232.49 195.424 234.308 195.424C236.108 195.424 237.746 196.162 237.746 198.79V205H236.252V203.812C235.55 204.694 234.704 205.162 233.318 205.162ZM233.462 203.974C235.046 203.974 236.252 203.164 236.252 201.706V200.536H234.956C233.066 200.536 231.68 201.004 231.68 202.39C231.68 203.362 232.148 203.974 233.462 203.974ZM248.001 205.162C245.751 205.162 244.401 204.028 244.311 202.102H245.769C245.877 203.218 246.471 203.92 247.983 203.92C249.405 203.92 250.035 203.434 250.035 202.426C250.035 201.436 249.297 201.112 247.839 200.842C245.391 200.392 244.563 199.708 244.563 198.07C244.563 196.324 246.273 195.424 247.749 195.424C249.441 195.424 250.899 196.108 251.151 198.142H249.711C249.495 197.116 248.919 196.666 247.731 196.666C246.651 196.666 245.949 197.206 245.949 198.016C245.949 198.862 246.417 199.204 248.145 199.51C250.089 199.87 251.457 200.302 251.457 202.3C251.457 204.01 250.287 205.162 248.001 205.162ZM256.253 193.966L257.369 191.32H259.241L257.369 193.966H256.253ZM255.911 205.162C254.165 205.162 252.779 204.316 252.779 202.39C252.779 200.212 255.083 199.474 257.495 199.474H258.845V198.79C258.845 197.296 258.269 196.666 256.829 196.666C255.533 196.666 254.813 197.206 254.669 198.358H253.175C253.373 196.216 255.083 195.424 256.901 195.424C258.701 195.424 260.339 196.162 260.339 198.79V205H258.845V203.812C258.143 204.694 257.297 205.162 255.911 205.162ZM256.055 203.974C257.639 203.974 258.845 203.164 258.845 201.706V200.536H257.549C255.659 200.536 254.273 201.004 254.273 202.39C254.273 203.362 254.741 203.974 256.055 203.974ZM267.774 205.162C266.244 205.162 265.128 204.388 264.588 203.452V205H263.094V191.086H264.588V197.17C265.128 196.252 266.406 195.424 267.774 195.424C270.24 195.424 272.058 197.224 272.058 200.158V200.302C272.058 203.182 270.366 205.162 267.774 205.162ZM267.63 203.92C269.502 203.92 270.51 202.66 270.51 200.374V200.23C270.51 197.854 269.196 196.666 267.612 196.666C265.866 196.666 264.534 197.818 264.534 200.23V200.374C264.534 202.786 265.794 203.92 267.63 203.92ZM276.557 205.162C274.811 205.162 273.425 204.316 273.425 202.39C273.425 200.212 275.729 199.474 278.141 199.474H279.491V198.79C279.491 197.296 278.915 196.666 277.475 196.666C276.179 196.666 275.459 197.206 275.315 198.358H273.821C274.019 196.216 275.729 195.424 277.547 195.424C279.347 195.424 280.985 196.162 280.985 198.79V205H279.491V203.812C278.789 204.694 277.943 205.162 276.557 205.162ZM276.701 203.974C278.285 203.974 279.491 203.164 279.491 201.706V200.536H278.195C276.305 200.536 274.919 201.004 274.919 202.39C274.919 203.362 275.387 203.974 276.701 203.974ZM287.286 205.162C284.82 205.162 283.038 203.416 283.038 200.482V200.338C283.038 197.458 284.838 195.424 287.43 195.424C288.996 195.424 289.968 196.18 290.508 197.098V191.086H292.002V205H290.508V203.38C289.968 204.298 288.654 205.162 287.286 205.162ZM287.448 203.92C289.194 203.92 290.562 202.768 290.562 200.356V200.212C290.562 197.8 289.41 196.666 287.574 196.666C285.702 196.666 284.586 197.98 284.586 200.266V200.41C284.586 202.786 285.864 203.92 287.448 203.92ZM298.751 205.162C296.069 205.162 294.143 203.128 294.143 200.374V200.23C294.143 197.404 296.105 195.424 298.769 195.424C301.433 195.424 303.395 197.386 303.395 200.212V200.356C303.395 203.2 301.433 205.162 298.751 205.162ZM298.769 203.92C300.659 203.92 301.847 202.498 301.847 200.374V200.248C301.847 198.07 300.641 196.666 298.769 196.666C296.879 196.666 295.691 198.07 295.691 200.23V200.374C295.691 202.516 296.861 203.92 298.769 203.92ZM304.981 206.782V205.918C305.755 205.81 306.097 205.504 306.097 204.946C305.413 204.946 304.945 204.568 304.945 203.866C304.945 203.254 305.467 202.786 306.061 202.786C306.745 202.786 307.249 203.272 307.249 204.1V204.442C307.249 206.026 306.241 206.71 304.981 206.782ZM318.407 205.162C315.743 205.162 313.853 203.29 313.853 200.392V200.248C313.853 197.404 315.671 195.424 318.263 195.424C320.441 195.424 322.493 196.738 322.493 200.104V200.59H315.401C315.473 202.732 316.499 203.92 318.425 203.92C319.883 203.92 320.729 203.38 320.927 202.282H322.421C322.097 204.172 320.531 205.162 318.407 205.162ZM315.455 199.384H320.963C320.819 197.44 319.811 196.666 318.263 196.666C316.733 196.666 315.707 197.71 315.455 199.384ZM324.605 205V195.586H326.099V197.026C326.531 196.144 327.557 195.424 328.907 195.424C330.113 195.424 331.175 195.928 331.661 197.188C332.309 195.964 333.713 195.424 334.883 195.424C336.575 195.424 338.051 196.432 338.051 199.168V205H336.557V199.06C336.557 197.404 335.855 196.72 334.559 196.72C333.335 196.72 332.075 197.548 332.075 199.24V205H330.581V199.06C330.581 197.404 329.879 196.72 328.583 196.72C327.359 196.72 326.099 197.548 326.099 199.24V205H324.605ZM25.512 228V214.086H27.006V220.08C27.438 219.198 28.482 218.424 30.03 218.424C31.974 218.424 33.342 219.486 33.342 222.222V228H31.848V222.114C31.848 220.458 31.146 219.72 29.634 219.72C28.248 219.72 27.006 220.602 27.006 222.294V228H25.512ZM39.9958 228.162C37.3138 228.162 35.3878 226.128 35.3878 223.374V223.23C35.3878 220.404 37.3498 218.424 40.0138 218.424C42.6778 218.424 44.6398 220.386 44.6398 223.212V223.356C44.6398 226.2 42.6778 228.162 39.9958 228.162ZM40.0138 226.92C41.9038 226.92 43.0918 225.498 43.0918 223.374V223.248C43.0918 221.07 41.8858 219.666 40.0138 219.666C38.1238 219.666 36.9358 221.07 36.9358 223.23V223.374C36.9358 225.516 38.1058 226.92 40.0138 226.92ZM46.7731 228V218.586H48.2671V220.278C48.8611 219.216 49.6711 218.478 51.3631 218.424V219.828C49.4731 219.918 48.2671 220.512 48.2671 222.834V228H46.7731ZM55.9728 216.966L57.0888 214.32H58.9608L57.0888 216.966H55.9728ZM55.6308 228.162C53.8848 228.162 52.4988 227.316 52.4988 225.39C52.4988 223.212 54.8028 222.474 57.2148 222.474H58.5648V221.79C58.5648 220.296 57.9888 219.666 56.5488 219.666C55.2528 219.666 54.5328 220.206 54.3888 221.358H52.8948C53.0928 219.216 54.8028 218.424 56.6208 218.424C58.4208 218.424 60.0588 219.162 60.0588 221.79V228H58.5648V226.812C57.8628 227.694 57.0168 228.162 55.6308 228.162ZM55.7748 226.974C57.3588 226.974 58.5648 226.164 58.5648 224.706V223.536H57.2688C55.3788 223.536 53.9928 224.004 53.9928 225.39C53.9928 226.362 54.4608 226.974 55.7748 226.974ZM62.8135 228V218.586H64.3075V220.278C64.9015 219.216 65.7115 218.478 67.4035 218.424V219.828C65.5135 219.918 64.3075 220.512 64.3075 222.834V228H62.8135ZM70.1571 216.624C69.6171 216.624 69.1671 216.174 69.1671 215.634C69.1671 215.094 69.6171 214.644 70.1571 214.644C70.6971 214.644 71.1471 215.094 71.1471 215.634C71.1471 216.174 70.6971 216.624 70.1571 216.624ZM69.4371 228V218.586H70.9311V228H69.4371ZM77.715 228.162C75.033 228.162 73.107 226.128 73.107 223.374V223.23C73.107 220.404 75.069 218.424 77.733 218.424C80.397 218.424 82.359 220.386 82.359 223.212V223.356C82.359 226.2 80.397 228.162 77.715 228.162ZM77.733 226.92C79.623 226.92 80.811 225.498 80.811 223.374V223.248C80.811 221.07 79.605 219.666 77.733 219.666C75.843 219.666 74.655 221.07 74.655 223.23V223.374C74.655 225.516 75.825 226.92 77.733 226.92ZM92.9819 228.162C90.3539 228.162 88.3739 226.308 88.3739 223.392V223.248C88.3739 220.368 90.4259 218.424 92.9459 218.424C94.9079 218.424 96.7439 219.324 97.0319 221.718H95.5559C95.3219 220.224 94.2419 219.666 92.9459 219.666C91.2359 219.666 89.9219 221.034 89.9219 223.248V223.392C89.9219 225.696 91.1819 226.92 92.9999 226.92C94.3319 226.92 95.5379 226.146 95.6999 224.616H97.0859C96.8879 226.65 95.2499 228.162 92.9819 228.162ZM103.068 228.162C100.386 228.162 98.4595 226.128 98.4595 223.374V223.23C98.4595 220.404 100.422 218.424 103.086 218.424C105.75 218.424 107.712 220.386 107.712 223.212V223.356C107.712 226.2 105.75 228.162 103.068 228.162ZM103.086 226.92C104.976 226.92 106.164 225.498 106.164 223.374V223.248C106.164 221.07 104.958 219.666 103.086 219.666C101.196 219.666 100.008 221.07 100.008 223.23V223.374C100.008 225.516 101.178 226.92 103.086 226.92ZM109.845 228V218.586H111.339V220.026C111.771 219.144 112.797 218.424 114.147 218.424C115.353 218.424 116.415 218.928 116.901 220.188C117.549 218.964 118.953 218.424 120.123 218.424C121.815 218.424 123.291 219.432 123.291 222.168V228H121.797V222.06C121.797 220.404 121.095 219.72 119.799 219.72C118.575 219.72 117.315 220.548 117.315 222.24V228H115.821V222.06C115.821 220.404 115.119 219.72 113.823 219.72C112.599 219.72 111.339 220.548 111.339 222.24V228H109.845ZM129.9 228.162C127.236 228.162 125.346 226.29 125.346 223.392V223.248C125.346 220.404 127.164 218.424 129.756 218.424C131.934 218.424 133.986 219.738 133.986 223.104V223.59H126.894C126.966 225.732 127.992 226.92 129.918 226.92C131.376 226.92 132.222 226.38 132.42 225.282H133.914C133.59 227.172 132.024 228.162 129.9 228.162ZM126.948 222.384H132.456C132.312 220.44 131.304 219.666 129.756 219.666C128.226 219.666 127.2 220.71 126.948 222.384ZM136.098 228V218.586H137.592V220.278C138.186 219.216 138.996 218.478 140.688 218.424V219.828C138.798 219.918 137.592 220.512 137.592 222.834V228H136.098ZM146.328 228.162C143.7 228.162 141.72 226.308 141.72 223.392V223.248C141.72 220.368 143.772 218.424 146.292 218.424C148.254 218.424 150.09 219.324 150.378 221.718H148.902C148.668 220.224 147.588 219.666 146.292 219.666C144.582 219.666 143.268 221.034 143.268 223.248V223.392C143.268 225.696 144.528 226.92 146.346 226.92C147.678 226.92 148.884 226.146 149.046 224.616H150.432C150.234 226.65 148.596 228.162 146.328 228.162ZM153.264 216.624C152.724 216.624 152.274 216.174 152.274 215.634C152.274 215.094 152.724 214.644 153.264 214.644C153.804 214.644 154.254 215.094 154.254 215.634C154.254 216.174 153.804 216.624 153.264 216.624ZM152.544 228V218.586H154.038V228H152.544ZM159.274 228.162C157.528 228.162 156.142 227.316 156.142 225.39C156.142 223.212 158.446 222.474 160.858 222.474H162.208V221.79C162.208 220.296 161.632 219.666 160.192 219.666C158.896 219.666 158.176 220.206 158.032 221.358H156.538C156.736 219.216 158.446 218.424 160.264 218.424C162.064 218.424 163.702 219.162 163.702 221.79V228H162.208V226.812C161.506 227.694 160.66 228.162 159.274 228.162ZM159.418 226.974C161.002 226.974 162.208 226.164 162.208 224.706V223.536H160.912C159.022 223.536 157.636 224.004 157.636 225.39C157.636 226.362 158.104 226.974 159.418 226.974ZM166.492 228V214.086H168.004V228H166.492ZM171.908 228.09C171.278 228.09 170.756 227.586 170.756 226.938C170.756 226.29 171.278 225.786 171.908 225.786C172.538 225.786 173.06 226.29 173.06 226.938C173.06 227.586 172.538 228.09 171.908 228.09Z" fill="black" fill-opacity="0.64"/>
<g clip-path="url(#clip2_17453_7262)">
<path d="M40 259H167.5C175.784 259 182.5 265.716 182.5 274V350C182.5 358.284 175.784 365 167.5 365H40C31.7157 365 25 358.284 25 350V274C25 265.716 31.7157 259 40 259Z" fill="white"/>
<path d="M40 259H167.5C175.784 259 182.5 265.716 182.5 274V350C182.5 358.284 175.784 365 167.5 365H40C31.7157 365 25 358.284 25 350V274C25 265.716 31.7157 259 40 259Z" stroke="#EFEFEF" stroke-width="2"/>
<path d="M59 281V283C61.2091 283 63 284.791 63 287C63 289.209 61.2091 291 59 291C59 293.209 57.2091 295 55 295H47C44.7909 295 43 293.209 43 291V281H59ZM45 283V291C45 292.105 45.8954 293 47 293H55C56.1046 293 57 292.105 57 291V283H45ZM59 289C60.1046 289 61 288.105 61 287C61 285.895 60.1046 285 59 285V289ZM48.9199 276C49.0123 276.76 48.8365 277.546 48.2676 278.323C47.8653 278.873 47.7459 279.432 47.8457 280H46.0234C45.931 279.24 46.1069 278.454 46.6758 277.677C47.0781 277.127 47.1975 276.568 47.0977 276H48.9199ZM52.9482 276C53.0406 276.76 52.8648 277.546 52.2959 278.323C51.8936 278.873 51.7742 279.432 51.874 280H50.0518C49.9594 279.24 50.1352 278.454 50.7041 277.677C51.1064 277.127 51.2258 276.568 51.126 276H52.9482ZM56.9766 276C57.0689 276.76 56.8931 277.546 56.3242 278.323C55.9219 278.873 55.8025 279.432 55.9023 280H54.0801C53.9877 279.24 54.1635 278.454 54.7324 277.677C55.1347 277.127 55.2541 276.568 55.1543 276H56.9766Z" fill="black" fill-opacity="0.64"/>
<path d="M41.148 327V316.99H43.64L46.272 323.822L48.848 316.99H51.312V327H49.45V319.44L46.468 327H45.866L42.828 319.44V327H41.148ZM55.2001 327.14C53.8561 327.14 52.7501 326.496 52.7501 324.97C52.7501 323.262 54.4021 322.646 56.5021 322.646H57.4121V322.268C57.4121 321.288 57.0761 320.798 56.0821 320.798C55.2001 320.798 54.7661 321.218 54.6821 321.946H53.0441C53.1841 320.238 54.5421 319.524 56.1801 319.524C57.8181 319.524 59.1061 320.196 59.1061 322.198V327H57.4401V326.104C56.9641 326.734 56.3201 327.14 55.2001 327.14ZM55.6061 325.922C56.6421 325.922 57.4121 325.376 57.4121 324.438V323.71H56.5441C55.2561 323.71 54.4301 324.004 54.4301 324.9C54.4301 325.516 54.7661 325.922 55.6061 325.922ZM60.9077 327V319.678H62.6017V320.84C62.9517 320.126 63.7637 319.524 64.9677 319.524C66.4377 319.524 67.4737 320.378 67.4737 322.394V327H65.7797V322.548C65.7797 321.442 65.3317 320.938 64.3237 320.938C63.3717 320.938 62.6017 321.526 62.6017 322.688V327H60.9077ZM69.2853 327V316.29H70.9793V320.84C71.3293 320.126 72.1413 319.524 73.3453 319.524C74.8153 319.524 75.8513 320.378 75.8513 322.394V327H74.1573V322.548C74.1573 321.442 73.7093 320.938 72.7013 320.938C71.7493 320.938 70.9793 321.526 70.9793 322.688V327H69.2853ZM81.3728 318.516C80.7008 318.516 80.2248 317.956 79.8188 317.956C79.5668 317.956 79.3568 318.194 79.3008 318.516H78.2508C78.3628 317.34 78.9648 316.682 79.7488 316.682C80.3928 316.682 80.8828 317.228 81.3168 317.228C81.5688 317.228 81.7648 317.004 81.8208 316.668H82.8708C82.7588 317.844 82.1428 318.516 81.3728 318.516ZM79.5808 327.14C78.2368 327.14 77.1308 326.496 77.1308 324.97C77.1308 323.262 78.7828 322.646 80.8828 322.646H81.7928V322.268C81.7928 321.288 81.4568 320.798 80.4628 320.798C79.5808 320.798 79.1468 321.218 79.0628 321.946H77.4248C77.5648 320.238 78.9228 319.524 80.5608 319.524C82.1988 319.524 83.4868 320.196 83.4868 322.198V327H81.8208V326.104C81.3448 326.734 80.7008 327.14 79.5808 327.14ZM79.9868 325.922C81.0228 325.922 81.7928 325.376 81.7928 324.438V323.71H80.9248C79.6368 323.71 78.8108 324.004 78.8108 324.9C78.8108 325.516 79.1468 325.922 79.9868 325.922Z" fill="black" fill-opacity="0.96"/>
<path d="M43.36 346.096C41.776 346.096 40.828 345.268 40.6 343.888H41.608C41.8 344.728 42.28 345.244 43.384 345.244C44.752 345.244 45.556 344.116 45.58 341.836C45.172 342.532 44.344 342.976 43.36 342.976C41.692 342.976 40.54 341.788 40.54 340.168C40.54 338.452 41.692 337.3 43.504 337.3C45.532 337.3 46.588 338.668 46.588 341.14V341.68C46.588 344.524 45.412 346.096 43.36 346.096ZM43.516 342.16C44.668 342.16 45.484 341.416 45.484 340.3C45.484 338.896 44.656 338.116 43.504 338.116C42.376 338.116 41.608 338.908 41.608 340.12C41.608 341.356 42.352 342.16 43.516 342.16ZM48.2033 346V336.724H49.1993V340.72C49.4873 340.132 50.1833 339.616 51.2153 339.616C52.5113 339.616 53.4233 340.324 53.4233 342.148V346H52.4273V342.076C52.4273 340.972 51.9593 340.48 50.9513 340.48C50.0273 340.48 49.1993 341.068 49.1993 342.196V346H48.2033ZM58.263 343.168V342.232H60.831V343.168H58.263ZM68.4946 346V338.476L66.0346 340.444V339.472L68.4466 337.42H69.5386V346H68.4946ZM72.4259 346V345.76L75.8339 342.172C76.6139 341.344 77.0699 340.564 77.0699 339.688C77.0699 338.728 76.5059 338.152 75.5339 338.152C74.5379 338.152 73.8899 338.716 73.7219 340.06H72.7499C72.8819 338.38 73.9019 337.312 75.5339 337.312C77.1179 337.312 78.1259 338.248 78.1259 339.724C78.1259 340.78 77.4539 341.812 76.3979 342.844L74.0339 345.148H78.1739V346H72.4259ZM80.1252 346V336.724H81.1212V340.72C81.4092 340.132 82.1052 339.616 83.1372 339.616C84.4332 339.616 85.3452 340.324 85.3452 342.148V346H84.3492V342.076C84.3492 340.972 83.8812 340.48 82.8732 340.48C81.9492 340.48 81.1212 341.068 81.1212 342.196V346H80.1252Z" fill="black" fill-opacity="0.64"/>
<path d="M207.5 259H335C343.284 259 350 265.716 350 274V350C350 358.284 343.284 365 335 365H207.5C199.216 365 192.5 358.284 192.5 350V274C192.5 265.716 199.216 259 207.5 259Z" fill="#F8F6F9"/>
<path d="M207.5 259H335C343.284 259 350 265.716 350 274V350C350 358.284 343.284 365 335 365H207.5C199.216 365 192.5 358.284 192.5 350V274C192.5 265.716 199.216 259 207.5 259Z" stroke="#714F8F" stroke-width="2"/>
<path d="M220.654 298H218.654V295H220.654V298ZM213.997 293.071L211.875 295.192L210.461 293.778L212.583 291.657L213.997 293.071ZM228.846 293.778L227.432 295.192L225.311 293.071L226.725 291.657L228.846 293.778ZM219.654 279C223.52 279 226.654 282.134 226.654 286C226.654 289.866 223.52 293 219.654 293C215.788 293 212.654 289.866 212.654 286C212.654 282.134 215.788 279 219.654 279ZM219.654 281C216.892 281 214.654 283.239 214.654 286C214.654 288.761 216.892 291 219.654 291C222.415 291 224.654 288.761 224.654 286C224.654 283.239 222.415 281 219.654 281ZM210.654 287H207.654V285H210.654V287ZM231.654 287H228.654V285H231.654V287ZM213.997 278.929L212.583 280.343L210.461 278.222L211.875 276.808L213.997 278.929ZM228.846 278.222L226.725 280.343L225.311 278.929L227.432 276.808L228.846 278.222ZM220.654 277H218.654V274H220.654V277Z" fill="#652590"/>
<path d="M210.65 327V318.46H207.864V316.99H215.312V318.46H212.526V327H210.65ZM217.532 327.14C216.188 327.14 215.082 326.496 215.082 324.97C215.082 323.262 216.734 322.646 218.834 322.646H219.744V322.268C219.744 321.288 219.408 320.798 218.414 320.798C217.532 320.798 217.098 321.218 217.014 321.946H215.376C215.516 320.238 216.874 319.524 218.512 319.524C220.15 319.524 221.438 320.196 221.438 322.198V327H219.772V326.104C219.296 326.734 218.652 327.14 217.532 327.14ZM217.938 325.922C218.974 325.922 219.744 325.376 219.744 324.438V323.71H218.876C217.588 323.71 216.762 324.004 216.762 324.9C216.762 325.516 217.098 325.922 217.938 325.922ZM223.24 327V319.678H224.934V321.05C225.396 320.126 226.082 319.58 227.314 319.566V321.148C225.83 321.162 224.934 321.638 224.934 323.192V327H223.24ZM231.244 327.14C229.41 327.14 228.024 325.838 228.024 323.458V323.346C228.024 321.008 229.41 319.524 231.314 319.524C232.504 319.524 233.246 320.07 233.652 320.798V316.29H235.346V327H233.652V325.768C233.26 326.496 232.322 327.14 231.244 327.14ZM231.664 325.796C232.84 325.796 233.708 325.012 233.708 323.374V323.262C233.708 321.652 232.966 320.854 231.734 320.854C230.488 320.854 229.76 321.722 229.76 323.304V323.416C229.76 325.026 230.572 325.796 231.664 325.796ZM240.439 327.14C238.283 327.14 236.729 325.726 236.729 323.416V323.304C236.729 321.036 238.283 319.524 240.369 319.524C242.189 319.524 243.827 320.602 243.827 323.22V323.71H238.465C238.521 325.096 239.221 325.88 240.481 325.88C241.503 325.88 242.035 325.474 242.161 324.76H243.799C243.561 326.3 242.315 327.14 240.439 327.14ZM238.493 322.576H242.147C242.063 321.316 241.419 320.756 240.369 320.756C239.347 320.756 238.661 321.442 238.493 322.576Z" fill="#652590"/>
<path d="M211.268 346V338.476L208.808 340.444V339.472L211.22 337.42H212.312V346H211.268ZM215.199 346V345.76L218.607 342.172C219.387 341.344 219.843 340.564 219.843 339.688C219.843 338.728 219.279 338.152 218.307 338.152C217.311 338.152 216.663 338.716 216.495 340.06H215.523C215.655 338.38 216.675 337.312 218.307 337.312C219.891 337.312 220.899 338.248 220.899 339.724C220.899 340.78 220.227 341.812 219.171 342.844L216.807 345.148H220.947V346H215.199ZM222.899 346V336.724H223.895V340.72C224.183 340.132 224.879 339.616 225.911 339.616C227.207 339.616 228.119 340.324 228.119 342.148V346H227.123V342.076C227.123 340.972 226.655 340.48 225.647 340.48C224.723 340.48 223.895 341.068 223.895 342.196V346H222.899ZM232.958 343.168V342.232H235.526V343.168H232.958ZM243.19 346V338.476L240.73 340.444V339.472L243.142 337.42H244.234V346H243.19ZM250.073 346.108C248.225 346.108 247.337 345.088 247.217 343.684H248.213C248.381 344.62 248.753 345.268 250.061 345.268C251.225 345.268 251.945 344.488 251.945 343.192C251.945 341.98 251.237 341.188 250.145 341.188C249.149 341.188 248.573 341.5 248.117 342.016H247.733V337.42H252.557V338.32H248.597V340.936C248.945 340.612 249.533 340.348 250.349 340.348C251.885 340.348 253.013 341.44 253.013 343.192C253.013 345.004 251.705 346.108 250.073 346.108ZM254.821 346V336.724H255.817V340.72C256.105 340.132 256.801 339.616 257.833 339.616C259.129 339.616 260.041 340.324 260.041 342.148V346H259.045V342.076C259.045 340.972 258.577 340.48 257.569 340.48C256.645 340.48 255.817 341.068 255.817 342.196V346H254.821Z" fill="#652590"/>
<path d="M40 375H167.5C175.784 375 182.5 381.716 182.5 390V466C182.5 474.284 175.784 481 167.5 481H40C31.7157 481 25 474.284 25 466V390C25 381.716 31.7157 375 40 375Z" fill="white"/>
<path d="M40 375H167.5C175.784 375 182.5 381.716 182.5 390V466C182.5 474.284 175.784 481 167.5 481H40C31.7157 481 25 474.284 25 466V390C25 381.716 31.7157 375 40 375Z" stroke="#EFEFEF" stroke-width="2"/>
<path d="M64.001 411.993H40.001V409.993H64.001V411.993ZM52 398C55.866 398 59 401.134 59 405C59 406.074 58.7581 407.091 58.3262 408H56C56.6277 407.164 57 406.126 57 405C57 402.239 54.7614 400 52 400C49.2386 400 47 402.239 47 405C47 406.126 47.3723 407.164 48 408H45.6738C45.2419 407.091 45 406.074 45 405C45 401.134 48.134 398 52 398ZM43.001 406H40.001V404H43.001V406ZM64.001 405.993H61.001V403.993H64.001V405.993ZM46.1211 397.621L44.707 399.035L42.5859 396.914L44 395.5L46.1211 397.621ZM61.4141 396.914L59.293 399.035L57.8789 397.621L60 395.5L61.4141 396.914ZM53 396H51V393H53V396Z" fill="black" fill-opacity="0.64"/>
<path d="M41.148 443V432.99H47.35V434.474H43.01V437.456H46.426V438.898H43.01V443H41.148ZM49.4196 434.474C48.8596 434.474 48.4116 434.054 48.4116 433.508C48.4116 432.948 48.8596 432.528 49.4196 432.528C49.9796 432.528 50.4276 432.948 50.4276 433.508C50.4276 434.054 49.9796 434.474 49.4196 434.474ZM48.5936 443V435.678H50.2876V443H48.5936ZM52.2124 443V435.678H53.9064V436.84C54.2564 436.126 55.0684 435.524 56.2724 435.524C57.7424 435.524 58.7784 436.378 58.7784 438.394V443H57.0844V438.548C57.0844 437.442 56.6364 436.938 55.6284 436.938C54.6764 436.938 53.9064 437.526 53.9064 438.688V443H52.2124ZM62.508 443.14C61.164 443.14 60.058 442.496 60.058 440.97C60.058 439.262 61.71 438.646 63.81 438.646H64.72V438.268C64.72 437.288 64.384 436.798 63.39 436.798C62.508 436.798 62.074 437.218 61.99 437.946H60.352C60.492 436.238 61.85 435.524 63.488 435.524C65.126 435.524 66.414 436.196 66.414 438.198V443H64.748V442.104C64.272 442.734 63.628 443.14 62.508 443.14ZM62.914 441.922C63.95 441.922 64.72 441.376 64.72 440.438V439.71H63.852C62.564 439.71 61.738 440.004 61.738 440.9C61.738 441.516 62.074 441.922 62.914 441.922ZM68.2576 443V432.29H69.9516V443H68.2576ZM77.8163 443.14C75.9823 443.14 74.5963 441.838 74.5963 439.458V439.346C74.5963 437.008 75.9823 435.524 77.8863 435.524C79.0763 435.524 79.8183 436.07 80.2243 436.798V432.29H81.9183V443H80.2243V441.768C79.8323 442.496 78.8943 443.14 77.8163 443.14ZM78.2363 441.796C79.4123 441.796 80.2803 441.012 80.2803 439.374V439.262C80.2803 437.652 79.5383 436.854 78.3063 436.854C77.0603 436.854 76.3323 437.722 76.3323 439.304V439.416C76.3323 441.026 77.1443 441.796 78.2363 441.796ZM85.7097 443.14C84.3657 443.14 83.2597 442.496 83.2597 440.97C83.2597 439.262 84.9117 438.646 87.0117 438.646H87.9217V438.268C87.9217 437.288 87.5857 436.798 86.5917 436.798C85.7097 436.798 85.2757 437.218 85.1917 437.946H83.5537C83.6937 436.238 85.0517 435.524 86.6897 435.524C88.3277 435.524 89.6157 436.196 89.6157 438.198V443H87.9497V442.104C87.4737 442.734 86.8297 443.14 85.7097 443.14ZM86.1157 441.922C87.1517 441.922 87.9217 441.376 87.9217 440.438V439.71H87.0537C85.7657 439.71 84.9397 440.004 84.9397 440.9C84.9397 441.516 85.2757 441.922 86.1157 441.922ZM97.1052 443.126C95.6492 443.126 94.8932 442.342 94.8932 440.956V436.952H93.9132V435.678H94.8932V434.068H96.5872V435.678H98.1972V436.952H96.5872V440.802C96.5872 441.446 96.8952 441.74 97.4272 441.74C97.7632 441.74 98.0152 441.698 98.2532 441.6V442.944C97.9872 443.042 97.6232 443.126 97.1052 443.126ZM101.614 443.14C100.27 443.14 99.1639 442.496 99.1639 440.97C99.1639 439.262 100.816 438.646 102.916 438.646H103.826V438.268C103.826 437.288 103.49 436.798 102.496 436.798C101.614 436.798 101.18 437.218 101.096 437.946H99.4579C99.5979 436.238 100.956 435.524 102.594 435.524C104.232 435.524 105.52 436.196 105.52 438.198V443H103.854V442.104C103.378 442.734 102.734 443.14 101.614 443.14ZM102.02 441.922C103.056 441.922 103.826 441.376 103.826 440.438V439.71H102.958C101.67 439.71 100.844 440.004 100.844 440.9C100.844 441.516 101.18 441.922 102.02 441.922ZM107.322 443V435.678H109.016V437.05C109.478 436.126 110.164 435.58 111.396 435.566V437.148C109.912 437.162 109.016 437.638 109.016 439.192V443H107.322ZM115.326 443.14C113.492 443.14 112.106 441.838 112.106 439.458V439.346C112.106 437.008 113.492 435.524 115.396 435.524C116.586 435.524 117.328 436.07 117.734 436.798V432.29H119.428V443H117.734V441.768C117.342 442.496 116.404 443.14 115.326 443.14ZM115.746 441.796C116.922 441.796 117.79 441.012 117.79 439.374V439.262C117.79 437.652 117.048 436.854 115.816 436.854C114.57 436.854 113.842 437.722 113.842 439.304V439.416C113.842 441.026 114.654 441.796 115.746 441.796ZM124.521 443.14C122.365 443.14 120.811 441.726 120.811 439.416V439.304C120.811 437.036 122.365 435.524 124.451 435.524C126.271 435.524 127.909 436.602 127.909 439.22V439.71H122.547C122.603 441.096 123.303 441.88 124.563 441.88C125.585 441.88 126.117 441.474 126.243 440.76H127.881C127.643 442.3 126.397 443.14 124.521 443.14ZM122.575 438.576H126.229C126.145 437.316 125.501 436.756 124.451 436.756C123.429 436.756 122.743 437.442 122.575 438.576Z" fill="black" fill-opacity="0.96"/>
<path d="M43.768 462V454.476L41.308 456.444V455.472L43.72 453.42H44.812V462H43.768ZM50.6513 462.108C48.8033 462.108 47.9153 461.088 47.7953 459.684H48.7913C48.9593 460.62 49.3313 461.268 50.6393 461.268C51.8033 461.268 52.5233 460.488 52.5233 459.192C52.5233 457.98 51.8153 457.188 50.7233 457.188C49.7273 457.188 49.1513 457.5 48.6953 458.016H48.3113V453.42H53.1353V454.32H49.1753V456.936C49.5233 456.612 50.1113 456.348 50.9273 456.348C52.4633 456.348 53.5913 457.44 53.5913 459.192C53.5913 461.004 52.2833 462.108 50.6513 462.108ZM55.3986 462V452.724H56.3946V456.72C56.6826 456.132 57.3786 455.616 58.4106 455.616C59.7066 455.616 60.6186 456.324 60.6186 458.148V462H59.6226V458.076C59.6226 456.972 59.1546 456.48 58.1466 456.48C57.2226 456.48 56.3946 457.068 56.3946 458.196V462H55.3986ZM65.4583 459.168V458.232H68.0263V459.168H65.4583ZM75.6899 462V454.476L73.2299 456.444V455.472L75.6419 453.42H76.7339V462H75.6899ZM82.7292 462.108C81.3252 462.108 79.7652 461.268 79.7652 459.564C79.7652 458.412 80.4732 457.668 81.3852 457.344C80.5692 457.032 80.0892 456.384 80.0892 455.544C80.0892 454.152 81.4092 453.312 82.7292 453.312C84.0612 453.312 85.3572 454.176 85.3572 455.52C85.3572 456.384 84.8292 456.984 84.0372 457.332C85.0332 457.692 85.6812 458.436 85.6812 459.54C85.6812 461.256 84.1812 462.108 82.7292 462.108ZM82.7652 456.972C83.6772 456.972 84.3012 456.444 84.3012 455.532C84.3012 454.704 83.6172 454.128 82.7292 454.128C81.8412 454.128 81.1452 454.668 81.1452 455.556C81.1452 456.456 81.8892 456.972 82.7652 456.972ZM82.7292 461.256C83.7852 461.256 84.6132 460.644 84.6132 459.504C84.6132 458.376 83.7732 457.8 82.7532 457.8C81.7332 457.8 80.8332 458.388 80.8332 459.528C80.8332 460.656 81.7332 461.256 82.7292 461.256ZM87.3205 462V452.724H88.3165V456.72C88.6045 456.132 89.3005 455.616 90.3325 455.616C91.6285 455.616 92.5405 456.324 92.5405 458.148V462H91.5445V458.076C91.5445 456.972 91.0765 456.48 90.0685 456.48C89.1445 456.48 88.3165 457.068 88.3165 458.196V462H87.3205Z" fill="black" fill-opacity="0.64"/>
<path d="M207.5 375H335C343.284 375 350 381.716 350 390V466C350 474.284 343.284 481 335 481H207.5C199.216 481 192.5 474.284 192.5 466V390C192.5 381.716 199.216 375 207.5 375Z" fill="white"/>
<path d="M207.5 375H335C343.284 375 350 381.716 350 390V466C350 474.284 343.284 481 335 481H207.5C199.216 481 192.5 474.284 192.5 466V390C192.5 381.716 199.216 375 207.5 375Z" stroke="#EFEFEF" stroke-width="2"/>
<path fill-rule="evenodd" clip-rule="evenodd" d="M218.383 411.937C220.826 412.212 223.284 411.577 225.289 410.153C227.294 408.73 228.704 406.618 229.25 404.221C229.796 401.823 229.44 399.309 228.249 397.158C227.058 395.007 225.117 393.369 222.796 392.559C220.475 391.748 217.937 391.822 215.666 392.765C214.002 393.455 212.567 394.577 211.5 396V393H209.5V399C209.5 399.552 209.948 400 210.5 400H215.5V398H212.571C213.448 396.482 214.803 395.288 216.433 394.611C218.249 393.857 220.28 393.799 222.137 394.447C223.994 395.096 225.548 396.405 226.5 398.126C227.452 399.847 227.737 401.858 227.3 403.776C226.863 405.694 225.735 407.384 224.132 408.522C222.528 409.661 220.561 410.17 218.606 409.95C216.652 409.73 214.846 408.797 213.535 407.331C212.678 406.371 212.071 405.227 211.754 404H209.702C210.054 405.723 210.856 407.335 212.044 408.664C213.682 410.497 215.94 411.663 218.383 411.937ZM223.361 404.293L220.654 401.586V396H218.654V402.414L221.946 405.707L223.361 404.293Z" fill="black" fill-opacity="0.64"/>
<path d="M208.648 443V432.99H211.686C215.172 432.99 216.866 434.978 216.866 437.89V438.016C216.866 440.928 215.172 443 211.658 443H208.648ZM210.51 441.53H211.602C213.842 441.53 214.92 440.242 214.92 438.03V437.918C214.92 435.762 213.94 434.46 211.588 434.46H210.51V441.53ZM219.23 434.474C218.67 434.474 218.222 434.054 218.222 433.508C218.222 432.948 218.67 432.528 219.23 432.528C219.79 432.528 220.238 432.948 220.238 433.508C220.238 434.054 219.79 434.474 219.23 434.474ZM218.404 443V435.678H220.098V443H218.404ZM223.941 443.14C222.597 443.14 221.491 442.496 221.491 440.97C221.491 439.262 223.143 438.646 225.243 438.646H226.153V438.268C226.153 437.288 225.817 436.798 224.823 436.798C223.941 436.798 223.507 437.218 223.423 437.946H221.785C221.925 436.238 223.283 435.524 224.921 435.524C226.559 435.524 227.847 436.196 227.847 438.198V443H226.181V442.104C225.705 442.734 225.061 443.14 223.941 443.14ZM224.347 441.922C225.383 441.922 226.153 441.376 226.153 440.438V439.71H225.285C223.997 439.71 223.171 440.004 223.171 440.9C223.171 441.516 223.507 441.922 224.347 441.922ZM235.336 443.126C233.88 443.126 233.124 442.342 233.124 440.956V436.952H232.144V435.678H233.124V434.068H234.818V435.678H236.428V436.952H234.818V440.802C234.818 441.446 235.126 441.74 235.658 441.74C235.994 441.74 236.246 441.698 236.484 441.6V442.944C236.218 443.042 235.854 443.126 235.336 443.126ZM241.134 443.14C238.978 443.14 237.382 441.642 237.382 439.416V439.304C237.382 437.036 238.992 435.524 241.148 435.524C243.29 435.524 244.9 437.022 244.9 439.262V439.374C244.9 441.656 243.29 443.14 241.134 443.14ZM241.148 441.824C242.408 441.824 243.164 440.886 243.164 439.388V439.29C243.164 437.778 242.408 436.854 241.148 436.854C239.888 436.854 239.118 437.764 239.118 439.276V439.388C239.118 440.886 239.86 441.824 241.148 441.824ZM249.035 443.14C247.201 443.14 245.815 441.838 245.815 439.458V439.346C245.815 437.008 247.201 435.524 249.105 435.524C250.295 435.524 251.037 436.07 251.443 436.798V432.29H253.137V443H251.443V441.768C251.051 442.496 250.113 443.14 249.035 443.14ZM249.455 441.796C250.631 441.796 251.499 441.012 251.499 439.374V439.262C251.499 437.652 250.757 436.854 249.525 436.854C248.279 436.854 247.551 437.722 247.551 439.304V439.416C247.551 441.026 248.363 441.796 249.455 441.796ZM258.272 443.14C256.116 443.14 254.52 441.642 254.52 439.416V439.304C254.52 437.036 256.13 435.524 258.286 435.524C260.428 435.524 262.038 437.022 262.038 439.262V439.374C262.038 441.656 260.428 443.14 258.272 443.14ZM258.286 441.824C259.546 441.824 260.302 440.886 260.302 439.388V439.29C260.302 437.778 259.546 436.854 258.286 436.854C257.026 436.854 256.256 437.764 256.256 439.276V439.388C256.256 440.886 256.998 441.824 258.286 441.824Z" fill="black" fill-opacity="0.96"/>
<path d="M210.86 462.096C209.276 462.096 208.328 461.268 208.1 459.888H209.108C209.3 460.728 209.78 461.244 210.884 461.244C212.252 461.244 213.056 460.116 213.08 457.836C212.672 458.532 211.844 458.976 210.86 458.976C209.192 458.976 208.04 457.788 208.04 456.168C208.04 454.452 209.192 453.3 211.004 453.3C213.032 453.3 214.088 454.668 214.088 457.14V457.68C214.088 460.524 212.912 462.096 210.86 462.096ZM211.016 458.16C212.168 458.16 212.984 457.416 212.984 456.3C212.984 454.896 212.156 454.116 211.004 454.116C209.876 454.116 209.108 454.908 209.108 456.12C209.108 457.356 209.852 458.16 211.016 458.16ZM215.703 462V452.724H216.699V456.72C216.987 456.132 217.683 455.616 218.715 455.616C220.011 455.616 220.923 456.324 220.923 458.148V462H219.927V458.076C219.927 456.972 219.459 456.48 218.451 456.48C217.527 456.48 216.699 457.068 216.699 458.196V462H215.703ZM225.763 459.168V458.232H228.331V459.168H225.763ZM235.995 462V454.476L233.535 456.444V455.472L235.947 453.42H237.039V462H235.995ZM243.034 462.108C241.63 462.108 240.07 461.268 240.07 459.564C240.07 458.412 240.778 457.668 241.69 457.344C240.874 457.032 240.394 456.384 240.394 455.544C240.394 454.152 241.714 453.312 243.034 453.312C244.366 453.312 245.662 454.176 245.662 455.52C245.662 456.384 245.134 456.984 244.342 457.332C245.338 457.692 245.986 458.436 245.986 459.54C245.986 461.256 244.486 462.108 243.034 462.108ZM243.07 456.972C243.982 456.972 244.606 456.444 244.606 455.532C244.606 454.704 243.922 454.128 243.034 454.128C242.146 454.128 241.45 454.668 241.45 455.556C241.45 456.456 242.194 456.972 243.07 456.972ZM243.034 461.256C244.09 461.256 244.918 460.644 244.918 459.504C244.918 458.376 244.078 457.8 243.058 457.8C242.038 457.8 241.138 458.388 241.138 459.528C241.138 460.656 242.038 461.256 243.034 461.256ZM247.625 462V452.724H248.621V456.72C248.909 456.132 249.605 455.616 250.637 455.616C251.933 455.616 252.845 456.324 252.845 458.148V462H251.849V458.076C251.849 456.972 251.381 456.48 250.373 456.48C249.449 456.48 248.621 457.068 248.621 458.196V462H247.625Z" fill="black" fill-opacity="0.64"/>
</g>
<path d="M24 522C24 513.163 31.1634 506 40 506H335C343.837 506 351 513.163 351 522V618C351 626.837 343.837 634 335 634H40C31.1635 634 24 626.837 24 618V522Z" fill="#EFEFEF"/>
<g clip-path="url(#clip3_17453_7262)">
<path d="M49.53 541.14C46.394 541.14 44.644 539.138 44.644 536.058V535.946C44.644 532.936 46.716 530.836 49.502 530.836C51.798 530.836 53.576 531.984 53.8 534.336H51.91C51.7 533.006 50.958 532.32 49.516 532.32C47.752 532.32 46.604 533.692 46.604 535.932V536.044C46.604 538.298 47.682 539.628 49.53 539.628C50.916 539.628 51.896 538.928 52.092 537.514H53.912C53.618 539.922 51.91 541.14 49.53 541.14ZM57.8206 532.586L58.6466 530.416H60.5226L59.0666 532.586H57.8206ZM58.5206 541.14C56.3646 541.14 54.7686 539.642 54.7686 537.416V537.304C54.7686 535.036 56.3786 533.524 58.5346 533.524C60.6766 533.524 62.2866 535.022 62.2866 537.262V537.374C62.2866 539.656 60.6766 541.14 58.5206 541.14ZM58.5346 539.824C59.7946 539.824 60.5506 538.886 60.5506 537.388V537.29C60.5506 535.778 59.7946 534.854 58.5346 534.854C57.2746 534.854 56.5046 535.764 56.5046 537.276V537.388C56.5046 538.886 57.2466 539.824 58.5346 539.824ZM66.4212 541.14C64.5872 541.14 63.2012 539.838 63.2012 537.458V537.346C63.2012 535.008 64.5872 533.524 66.4912 533.524C67.6812 533.524 68.4232 534.07 68.8292 534.798V530.29H70.5232V541H68.8292V539.768C68.4372 540.496 67.4992 541.14 66.4212 541.14ZM66.8412 539.796C68.0172 539.796 68.8852 539.012 68.8852 537.374V537.262C68.8852 535.652 68.1432 534.854 66.9112 534.854C65.6652 534.854 64.9372 535.722 64.9372 537.304V537.416C64.9372 539.026 65.7492 539.796 66.8412 539.796ZM73.2646 532.474C72.7046 532.474 72.2566 532.054 72.2566 531.508C72.2566 530.948 72.7046 530.528 73.2646 530.528C73.8246 530.528 74.2726 530.948 74.2726 531.508C74.2726 532.054 73.8246 532.474 73.2646 532.474ZM72.4386 541V533.678H74.1326V541H72.4386ZM79.1794 543.688C76.8834 543.688 75.8474 542.652 75.6514 541.252H77.3594C77.4994 541.98 78.0594 542.4 79.1654 542.4C80.4814 542.4 81.2094 541.742 81.2094 540.426V539.348C80.8034 540.048 79.8934 540.706 78.8154 540.706C76.9814 540.706 75.5674 539.334 75.5674 537.22V537.122C75.5674 535.064 76.9674 533.524 78.8574 533.524C80.0614 533.524 80.7894 534.07 81.2094 534.798V533.678H82.9034V540.454C82.8894 542.61 81.4474 543.688 79.1794 543.688ZM79.2354 539.404C80.4114 539.404 81.2654 538.564 81.2654 537.164V537.066C81.2654 535.68 80.5094 534.854 79.2914 534.854C78.0314 534.854 77.3034 535.764 77.3034 537.094V537.206C77.3034 538.564 78.1434 539.404 79.2354 539.404ZM88.0387 541.14C85.8827 541.14 84.2867 539.642 84.2867 537.416V537.304C84.2867 535.036 85.8967 533.524 88.0527 533.524C90.1947 533.524 91.8047 535.022 91.8047 537.262V537.374C91.8047 539.656 90.1947 541.14 88.0387 541.14ZM88.0527 539.824C89.3127 539.824 90.0687 538.886 90.0687 537.388V537.29C90.0687 535.778 89.3127 534.854 88.0527 534.854C86.7927 534.854 86.0227 535.764 86.0227 537.276V537.388C86.0227 538.886 86.7647 539.824 88.0527 539.824ZM99.1353 541.14C97.3013 541.14 95.9153 539.838 95.9153 537.458V537.346C95.9153 535.008 97.3013 533.524 99.2053 533.524C100.395 533.524 101.137 534.07 101.543 534.798V530.29H103.237V541H101.543V539.768C101.151 540.496 100.213 541.14 99.1353 541.14ZM99.5553 539.796C100.731 539.796 101.599 539.012 101.599 537.374V537.262C101.599 535.652 100.857 534.854 99.6253 534.854C98.3793 534.854 97.6513 535.722 97.6513 537.304V537.416C97.6513 539.026 98.4633 539.796 99.5553 539.796ZM108.331 541.14C106.175 541.14 104.621 539.726 104.621 537.416V537.304C104.621 535.036 106.175 533.524 108.261 533.524C110.081 533.524 111.719 534.602 111.719 537.22V537.71H106.357C106.413 539.096 107.113 539.88 108.373 539.88C109.395 539.88 109.927 539.474 110.053 538.76H111.691C111.453 540.3 110.207 541.14 108.331 541.14ZM106.385 536.576H110.039C109.955 535.316 109.311 534.756 108.261 534.756C107.239 534.756 106.553 535.442 106.385 536.576ZM119.508 541.14C117.352 541.14 115.798 539.726 115.798 537.416V537.304C115.798 535.036 117.352 533.524 119.438 533.524C121.258 533.524 122.896 534.602 122.896 537.22V537.71H117.534C117.59 539.096 118.29 539.88 119.55 539.88C120.572 539.88 121.104 539.474 121.23 538.76H122.868C122.63 540.3 121.384 541.14 119.508 541.14ZM117.562 536.576H121.216C121.132 535.316 120.488 534.756 119.438 534.756C118.416 534.756 117.73 535.442 117.562 536.576ZM124.269 541V533.678H125.963V534.84C126.313 534.126 127.125 533.524 128.329 533.524C129.799 533.524 130.835 534.378 130.835 536.394V541H129.141V536.548C129.141 535.442 128.693 534.938 127.685 534.938C126.733 534.938 125.963 535.526 125.963 536.688V541H124.269ZM135.138 541.126C133.682 541.126 132.926 540.342 132.926 538.956V534.952H131.946V533.678H132.926V532.068H134.62V533.678H136.23V534.952H134.62V538.802C134.62 539.446 134.928 539.74 135.46 539.74C135.796 539.74 136.048 539.698 136.286 539.6V540.944C136.02 541.042 135.656 541.126 135.138 541.126ZM137.674 541V533.678H139.368V535.05C139.83 534.126 140.516 533.58 141.748 533.566V535.148C140.264 535.162 139.368 535.638 139.368 537.192V541H137.674ZM146.168 541.14C144.012 541.14 142.458 539.726 142.458 537.416V537.304C142.458 535.036 144.012 533.524 146.098 533.524C147.918 533.524 149.556 534.602 149.556 537.22V537.71H144.194C144.25 539.096 144.95 539.88 146.21 539.88C147.232 539.88 147.764 539.474 147.89 538.76H149.528C149.29 540.3 148.044 541.14 146.168 541.14ZM144.222 536.576H147.876C147.792 535.316 147.148 534.756 146.098 534.756C145.076 534.756 144.39 535.442 144.222 536.576ZM154.051 543.688C151.755 543.688 150.719 542.652 150.523 541.252H152.231C152.371 541.98 152.931 542.4 154.037 542.4C155.353 542.4 156.081 541.742 156.081 540.426V539.348C155.675 540.048 154.765 540.706 153.687 540.706C151.853 540.706 150.439 539.334 150.439 537.22V537.122C150.439 535.064 151.839 533.524 153.729 533.524C154.933 533.524 155.661 534.07 156.081 534.798V533.678H157.775V540.454C157.761 542.61 156.319 543.688 154.051 543.688ZM154.107 539.404C155.283 539.404 156.137 538.564 156.137 537.164V537.066C156.137 535.68 155.381 534.854 154.163 534.854C152.903 534.854 152.175 535.764 152.175 537.094V537.206C152.175 538.564 153.015 539.404 154.107 539.404ZM161.567 541.14C160.223 541.14 159.117 540.496 159.117 538.97C159.117 537.262 160.769 536.646 162.869 536.646H163.779V536.268C163.779 535.288 163.443 534.798 162.449 534.798C161.567 534.798 161.133 535.218 161.049 535.946H159.411C159.551 534.238 160.909 533.524 162.547 533.524C164.185 533.524 165.473 534.196 165.473 536.198V541H163.807V540.104C163.331 540.734 162.687 541.14 161.567 541.14ZM161.973 539.922C163.009 539.922 163.779 539.376 163.779 538.438V537.71H162.911C161.623 537.71 160.797 538.004 160.797 538.9C160.797 539.516 161.133 539.922 161.973 539.922ZM173.732 541.14C171.576 541.14 169.98 539.642 169.98 537.416V537.304C169.98 535.036 171.59 533.524 173.746 533.524C175.888 533.524 177.498 535.022 177.498 537.262V537.374C177.498 539.656 175.888 541.14 173.732 541.14ZM173.746 539.824C175.006 539.824 175.762 538.886 175.762 537.388V537.29C175.762 535.778 175.006 534.854 173.746 534.854C172.486 534.854 171.716 535.764 171.716 537.276V537.388C171.716 538.886 172.458 539.824 173.746 539.824ZM178.889 543.506V533.678H180.583V534.854C180.989 534.154 181.899 533.524 182.977 533.524C184.811 533.524 186.225 534.882 186.225 537.248V537.36C186.225 539.712 184.867 541.14 182.977 541.14C181.815 541.14 180.975 540.566 180.583 539.852V543.506H178.889ZM182.557 539.796C183.803 539.796 184.489 538.956 184.489 537.388V537.276C184.489 535.652 183.649 534.854 182.543 534.854C181.367 534.854 180.527 535.652 180.527 537.276V537.388C180.527 539.026 181.325 539.796 182.557 539.796ZM190.814 541.14C188.714 541.14 187.118 539.768 187.118 537.43V537.318C187.118 534.994 188.77 533.524 190.814 533.524C192.438 533.524 193.964 534.252 194.16 536.268H192.522C192.382 535.288 191.738 534.882 190.842 534.882C189.68 534.882 188.854 535.778 188.854 537.29V537.402C188.854 538.998 189.638 539.838 190.884 539.838C191.78 539.838 192.55 539.306 192.648 538.27H194.202C194.076 539.95 192.802 541.14 190.814 541.14ZM196.389 532.474C195.829 532.474 195.381 532.054 195.381 531.508C195.381 530.948 195.829 530.528 196.389 530.528C196.949 530.528 197.397 530.948 197.397 531.508C197.397 532.054 196.949 532.474 196.389 532.474ZM195.563 541V533.678H197.257V541H195.563ZM202.444 541.14C200.288 541.14 198.692 539.642 198.692 537.416V537.304C198.692 535.036 200.302 533.524 202.458 533.524C204.6 533.524 206.21 535.022 206.21 537.262V537.374C206.21 539.656 204.6 541.14 202.444 541.14ZM202.458 539.824C203.718 539.824 204.474 538.886 204.474 537.388V537.29C204.474 535.778 203.718 534.854 202.458 534.854C201.198 534.854 200.428 535.764 200.428 537.276V537.388C200.428 538.886 201.17 539.824 202.458 539.824ZM207.6 541V533.678H209.294V534.84C209.644 534.126 210.456 533.524 211.66 533.524C213.13 533.524 214.166 534.378 214.166 536.394V541H212.472V536.548C212.472 535.442 212.024 534.938 211.016 534.938C210.064 534.938 209.294 535.526 209.294 536.688V541H207.6ZM217.896 541.14C216.552 541.14 215.446 540.496 215.446 538.97C215.446 537.262 217.098 536.646 219.198 536.646H220.108V536.268C220.108 535.288 219.772 534.798 218.778 534.798C217.896 534.798 217.462 535.218 217.378 535.946H215.74C215.88 534.238 217.238 533.524 218.876 533.524C220.514 533.524 221.802 534.196 221.802 536.198V541H220.136V540.104C219.66 540.734 219.016 541.14 217.896 541.14ZM218.302 539.922C219.338 539.922 220.108 539.376 220.108 538.438V537.71H219.24C217.952 537.71 217.126 538.004 217.126 538.9C217.126 539.516 217.462 539.922 218.302 539.922ZM223.646 541V530.29H225.34V541H223.646Z" fill="black" fill-opacity="0.64"/>
<path d="M45.26 566V555.99H46.842L51.714 564.264V555.99H52.876V566H51.476L46.422 557.418V566H45.26ZM57.0009 566.126C55.6429 566.126 54.5649 565.468 54.5649 563.97C54.5649 562.276 56.3569 561.702 58.2329 561.702H59.2829V561.17C59.2829 560.008 58.8349 559.518 57.7149 559.518C56.7069 559.518 56.1469 559.938 56.0349 560.834H54.8729C55.0269 559.168 56.3569 558.552 57.7709 558.552C59.1709 558.552 60.4449 559.126 60.4449 561.17V566H59.2829V565.076C58.7369 565.762 58.0789 566.126 57.0009 566.126ZM57.1129 565.202C58.3449 565.202 59.2829 564.572 59.2829 563.438V562.528H58.2749C56.8049 562.528 55.7269 562.892 55.7269 563.97C55.7269 564.726 56.0909 565.202 57.1129 565.202ZM64.8554 566.126C63.1054 566.126 62.0554 565.244 61.9854 563.746H63.1194C63.2034 564.614 63.6654 565.16 64.8414 565.16C65.9474 565.16 66.4374 564.782 66.4374 563.998C66.4374 563.228 65.8634 562.976 64.7294 562.766C62.8254 562.416 62.1814 561.884 62.1814 560.61C62.1814 559.252 63.5114 558.552 64.6594 558.552C65.9754 558.552 67.1094 559.084 67.3054 560.666H66.1854C66.0174 559.868 65.5694 559.518 64.6454 559.518C63.8054 559.518 63.2594 559.938 63.2594 560.568C63.2594 561.226 63.6234 561.492 64.9674 561.73C66.4794 562.01 67.5434 562.346 67.5434 563.9C67.5434 565.23 66.6334 566.126 64.8554 566.126ZM72.739 568.548V558.678H73.901V559.91C74.321 559.196 75.315 558.552 76.379 558.552C78.297 558.552 79.711 559.952 79.711 562.234V562.346C79.711 564.586 78.395 566.126 76.379 566.126C75.175 566.126 74.321 565.524 73.901 564.796V568.548H72.739ZM76.267 565.16C77.723 565.16 78.507 564.18 78.507 562.402V562.29C78.507 560.442 77.485 559.518 76.253 559.518C74.895 559.518 73.859 560.414 73.859 562.29V562.402C73.859 564.278 74.839 565.16 76.267 565.16ZM81.3764 566V558.678H82.5384V559.994C83.0004 559.168 83.6304 558.594 84.9464 558.552V559.644C83.4764 559.714 82.5384 560.176 82.5384 561.982V566H81.3764ZM88.829 557.418L89.697 555.36H91.153L89.697 557.418H88.829ZM89.333 566.126C87.247 566.126 85.749 564.544 85.749 562.402V562.29C85.749 560.092 87.275 558.552 89.347 558.552C91.419 558.552 92.945 560.078 92.945 562.276V562.388C92.945 564.6 91.419 566.126 89.333 566.126ZM89.347 565.16C90.817 565.16 91.741 564.054 91.741 562.402V562.304C91.741 560.61 90.803 559.518 89.347 559.518C87.877 559.518 86.953 560.61 86.953 562.29V562.402C86.953 564.068 87.863 565.16 89.347 565.16ZM93.4647 566L96.0827 562.234L93.6327 558.678H94.9907L96.7827 561.338L98.5607 558.678H99.8207L97.3987 562.15L100.073 566H98.7007L96.7267 563.046L94.7107 566H93.4647ZM102.093 557.152C101.673 557.152 101.323 556.802 101.323 556.382C101.323 555.962 101.673 555.612 102.093 555.612C102.513 555.612 102.863 555.962 102.863 556.382C102.863 556.802 102.513 557.152 102.093 557.152ZM101.533 566V558.678H102.695V566H101.533ZM104.934 566V558.678H106.096V559.798C106.432 559.112 107.23 558.552 108.28 558.552C109.218 558.552 110.044 558.944 110.422 559.924C110.926 558.972 112.018 558.552 112.928 558.552C114.244 558.552 115.392 559.336 115.392 561.464V566H114.23V561.38C114.23 560.092 113.684 559.56 112.676 559.56C111.724 559.56 110.744 560.204 110.744 561.52V566H109.582V561.38C109.582 560.092 109.036 559.56 108.028 559.56C107.076 559.56 106.096 560.204 106.096 561.52V566H104.934ZM119.37 566.126C118.012 566.126 116.934 565.468 116.934 563.97C116.934 562.276 118.726 561.702 120.602 561.702H121.652V561.17C121.652 560.008 121.204 559.518 120.084 559.518C119.076 559.518 118.516 559.938 118.404 560.834H117.242C117.396 559.168 118.726 558.552 120.14 558.552C121.54 558.552 122.814 559.126 122.814 561.17V566H121.652V565.076C121.106 565.762 120.448 566.126 119.37 566.126ZM119.482 565.202C120.714 565.202 121.652 564.572 121.652 563.438V562.528H120.644C119.174 562.528 118.096 562.892 118.096 563.97C118.096 564.726 118.46 565.202 119.482 565.202ZM127.224 566.126C125.474 566.126 124.424 565.244 124.354 563.746H125.488C125.572 564.614 126.034 565.16 127.21 565.16C128.316 565.16 128.806 564.782 128.806 563.998C128.806 563.228 128.232 562.976 127.098 562.766C125.194 562.416 124.55 561.884 124.55 560.61C124.55 559.252 125.88 558.552 127.028 558.552C128.344 558.552 129.478 559.084 129.674 560.666H128.554C128.386 559.868 127.938 559.518 127.014 559.518C126.174 559.518 125.628 559.938 125.628 560.568C125.628 561.226 125.992 561.492 127.336 561.73C128.848 562.01 129.912 562.346 129.912 563.9C129.912 565.23 129.002 566.126 127.224 566.126ZM138.104 566.126C136.032 566.126 134.562 564.67 134.562 562.416V562.304C134.562 560.092 135.976 558.552 137.992 558.552C139.686 558.552 141.282 559.574 141.282 562.192V562.57H135.766C135.822 564.236 136.62 565.16 138.118 565.16C139.252 565.16 139.91 564.74 140.064 563.886H141.226C140.974 565.356 139.756 566.126 138.104 566.126ZM135.808 561.632H140.092C139.98 560.12 139.196 559.518 137.992 559.518C136.802 559.518 136.004 560.33 135.808 561.632ZM145.151 566.098C143.821 566.098 143.177 565.314 143.177 564.166V559.658H142.127V558.678H143.177V557.012H144.339V558.678H146.047V559.658H144.339V564.054C144.339 564.768 144.661 565.118 145.249 565.118C145.613 565.118 145.893 565.062 146.145 564.964V565.944C145.907 566.028 145.627 566.098 145.151 566.098ZM149.664 566.126C148.306 566.126 147.228 565.468 147.228 563.97C147.228 562.276 149.02 561.702 150.896 561.702H151.946V561.17C151.946 560.008 151.498 559.518 150.378 559.518C149.37 559.518 148.81 559.938 148.698 560.834H147.536C147.69 559.168 149.02 558.552 150.434 558.552C151.834 558.552 153.108 559.126 153.108 561.17V566H151.946V565.076C151.4 565.762 150.742 566.126 149.664 566.126ZM149.776 565.202C151.008 565.202 151.946 564.572 151.946 563.438V562.528H150.938C149.468 562.528 148.39 562.892 148.39 563.97C148.39 564.726 148.754 565.202 149.776 565.202ZM155.25 568.548V558.678H156.412V559.91C156.832 559.196 157.826 558.552 158.89 558.552C160.808 558.552 162.222 559.952 162.222 562.234V562.346C162.222 564.586 160.906 566.126 158.89 566.126C157.686 566.126 156.832 565.524 156.412 564.796V568.548H155.25ZM158.778 565.16C160.234 565.16 161.018 564.18 161.018 562.402V562.29C161.018 560.442 159.996 559.518 158.764 559.518C157.406 559.518 156.37 560.414 156.37 562.29V562.402C156.37 564.278 157.35 565.16 158.778 565.16ZM165.722 566.126C164.364 566.126 163.286 565.468 163.286 563.97C163.286 562.276 165.078 561.702 166.954 561.702H168.004V561.17C168.004 560.008 167.556 559.518 166.436 559.518C165.428 559.518 164.868 559.938 164.756 560.834H163.594C163.748 559.168 165.078 558.552 166.492 558.552C167.892 558.552 169.166 559.126 169.166 561.17V566H168.004V565.076C167.458 565.762 166.8 566.126 165.722 566.126ZM165.834 565.202C167.066 565.202 168.004 564.572 168.004 563.438V562.528H166.996C165.526 562.528 164.448 562.892 164.448 563.97C164.448 564.726 164.812 565.202 165.834 565.202ZM173.576 566.126C171.826 566.126 170.776 565.244 170.706 563.746H171.84C171.924 564.614 172.386 565.16 173.562 565.16C174.668 565.16 175.158 564.782 175.158 563.998C175.158 563.228 174.584 562.976 173.45 562.766C171.546 562.416 170.902 561.884 170.902 560.61C170.902 559.252 172.232 558.552 173.38 558.552C174.696 558.552 175.83 559.084 176.026 560.666H174.906C174.738 559.868 174.29 559.518 173.366 559.518C172.526 559.518 171.98 559.938 171.98 560.568C171.98 561.226 172.344 561.492 173.688 561.73C175.2 562.01 176.264 562.346 176.264 563.9C176.264 565.23 175.354 566.126 173.576 566.126ZM183.294 566L180.634 558.678H181.894L184.064 564.824L186.206 558.678H187.41L184.778 566H183.294ZM191.631 566.126C189.545 566.126 188.047 564.544 188.047 562.402V562.29C188.047 560.092 189.573 558.552 191.645 558.552C193.717 558.552 195.243 560.078 195.243 562.276V562.388C195.243 564.6 193.717 566.126 191.631 566.126ZM191.645 565.16C193.115 565.16 194.039 564.054 194.039 562.402V562.304C194.039 560.61 193.101 559.518 191.645 559.518C190.175 559.518 189.251 560.61 189.251 562.29V562.402C189.251 564.068 190.161 565.16 191.645 565.16ZM199.941 566.126C197.897 566.126 196.357 564.684 196.357 562.416V562.304C196.357 560.064 197.953 558.552 199.913 558.552C201.439 558.552 202.867 559.252 203.091 561.114H201.943C201.761 559.952 200.921 559.518 199.913 559.518C198.583 559.518 197.561 560.582 197.561 562.304V562.416C197.561 564.208 198.541 565.16 199.955 565.16C200.991 565.16 201.929 564.558 202.055 563.368H203.133C202.979 564.95 201.705 566.126 199.941 566.126ZM205.601 557.418L207.113 555.402H208.163L209.661 557.418H208.807L207.617 556.368L206.427 557.418H205.601ZM207.743 566.126C205.671 566.126 204.201 564.67 204.201 562.416V562.304C204.201 560.092 205.615 558.552 207.631 558.552C209.325 558.552 210.921 559.574 210.921 562.192V562.57H205.405C205.461 564.236 206.259 565.16 207.757 565.16C208.891 565.16 209.549 564.74 209.703 563.886H210.865C210.613 565.356 209.395 566.126 207.743 566.126ZM205.447 561.632H209.731C209.619 560.12 208.835 559.518 207.631 559.518C206.441 559.518 205.643 560.33 205.447 561.632ZM219.125 566.126C217.053 566.126 215.583 564.67 215.583 562.416V562.304C215.583 560.092 216.997 558.552 219.013 558.552C220.707 558.552 222.303 559.574 222.303 562.192V562.57H216.787C216.843 564.236 217.641 565.16 219.139 565.16C220.273 565.16 220.931 564.74 221.085 563.886H222.247C221.995 565.356 220.777 566.126 219.125 566.126ZM216.829 561.632H221.113C221.001 560.12 220.217 559.518 219.013 559.518C217.823 559.518 217.025 560.33 216.829 561.632ZM226.283 566.126C224.533 566.126 223.483 565.244 223.413 563.746H224.547C224.631 564.614 225.093 565.16 226.269 565.16C227.375 565.16 227.865 564.782 227.865 563.998C227.865 563.228 227.291 562.976 226.157 562.766C224.253 562.416 223.609 561.884 223.609 560.61C223.609 559.252 224.939 558.552 226.087 558.552C227.403 558.552 228.537 559.084 228.733 560.666H227.613C227.445 559.868 226.997 559.518 226.073 559.518C225.233 559.518 224.687 559.938 224.687 560.568C224.687 561.226 225.051 561.492 226.395 561.73C227.907 562.01 228.971 562.346 228.971 563.9C228.971 565.23 228.061 566.126 226.283 566.126ZM233.639 566.126C231.595 566.126 230.055 564.684 230.055 562.416V562.304C230.055 560.064 231.651 558.552 233.611 558.552C235.137 558.552 236.565 559.252 236.789 561.114H235.641C235.459 559.952 234.619 559.518 233.611 559.518C232.281 559.518 231.259 560.582 231.259 562.304V562.416C231.259 564.208 232.239 565.16 233.653 565.16C234.689 565.16 235.627 564.558 235.753 563.368H236.831C236.677 564.95 235.403 566.126 233.639 566.126ZM241.483 566.126C239.397 566.126 237.899 564.544 237.899 562.402V562.29C237.899 560.092 239.425 558.552 241.497 558.552C243.569 558.552 245.095 560.078 245.095 562.276V562.388C245.095 564.6 243.569 566.126 241.483 566.126ZM241.497 565.16C242.967 565.16 243.891 564.054 243.891 562.402V562.304C243.891 560.61 242.953 559.518 241.497 559.518C240.027 559.518 239.103 560.61 239.103 562.29V562.402C239.103 564.068 240.013 565.16 241.497 565.16ZM246.783 566V555.178H247.959V566H246.783ZM250.197 566V555.178H251.359V559.84C251.695 559.154 252.507 558.552 253.711 558.552C255.223 558.552 256.287 559.378 256.287 561.506V566H255.125V561.422C255.125 560.134 254.579 559.56 253.403 559.56C252.325 559.56 251.359 560.246 251.359 561.562V566H250.197ZM261.42 566.126C259.348 566.126 257.878 564.67 257.878 562.416V562.304C257.878 560.092 259.292 558.552 261.308 558.552C263.002 558.552 264.598 559.574 264.598 562.192V562.57H259.082C259.138 564.236 259.936 565.16 261.434 565.16C262.568 565.16 263.226 564.74 263.38 563.886H264.542C264.29 565.356 263.072 566.126 261.42 566.126ZM259.124 561.632H263.408C263.296 560.12 262.512 559.518 261.308 559.518C260.118 559.518 259.32 560.33 259.124 561.632ZM272.074 566.126C270.324 566.126 269.274 565.244 269.204 563.746H270.338C270.422 564.614 270.884 565.16 272.06 565.16C273.166 565.16 273.656 564.782 273.656 563.998C273.656 563.228 273.082 562.976 271.948 562.766C270.044 562.416 269.4 561.884 269.4 560.61C269.4 559.252 270.73 558.552 271.878 558.552C273.194 558.552 274.328 559.084 274.524 560.666H273.404C273.236 559.868 272.788 559.518 271.864 559.518C271.024 559.518 270.478 559.938 270.478 560.568C270.478 561.226 270.842 561.492 272.186 561.73C273.698 562.01 274.762 562.346 274.762 563.9C274.762 565.23 273.852 566.126 272.074 566.126ZM279.389 566.126C277.317 566.126 275.847 564.67 275.847 562.416V562.304C275.847 560.092 277.261 558.552 279.277 558.552C280.971 558.552 282.567 559.574 282.567 562.192V562.57H277.051C277.107 564.236 277.905 565.16 279.403 565.16C280.537 565.16 281.195 564.74 281.349 563.886H282.511C282.259 565.356 281.041 566.126 279.389 566.126ZM277.093 561.632H281.377C281.265 560.12 280.481 559.518 279.277 559.518C278.087 559.518 277.289 560.33 277.093 561.632ZM293.039 568.548V564.74C292.619 565.454 291.597 566.126 290.533 566.126C288.615 566.126 287.229 564.768 287.229 562.486V562.374C287.229 560.134 288.629 558.552 290.645 558.552C291.863 558.552 292.619 559.14 293.039 559.854V558.678H294.201V568.548H293.039ZM290.659 565.16C292.017 565.16 293.081 564.264 293.081 562.388V562.276C293.081 560.4 292.185 559.518 290.757 559.518C289.301 559.518 288.433 560.54 288.433 562.318V562.43C288.433 564.278 289.427 565.16 290.659 565.16ZM298.89 566.126C297.434 566.126 296.342 565.328 296.342 563.312V558.678H297.504V563.256C297.504 564.544 298.05 565.118 299.198 565.118C300.234 565.118 301.214 564.432 301.214 563.116V558.678H302.376V566H301.214V564.838C300.878 565.524 300.066 566.126 298.89 566.126ZM307.581 566.126C305.509 566.126 304.039 564.67 304.039 562.416V562.304C304.039 560.092 305.453 558.552 307.469 558.552C309.163 558.552 310.759 559.574 310.759 562.192V562.57H305.243C305.299 564.236 306.097 565.16 307.595 565.16C308.729 565.16 309.387 564.74 309.541 563.886H310.703C310.451 565.356 309.233 566.126 307.581 566.126ZM305.285 561.632H309.569C309.457 560.12 308.673 559.518 307.469 559.518C306.279 559.518 305.481 560.33 305.285 561.632ZM312.402 566V558.678H313.564V559.994C314.026 559.168 314.656 558.594 315.972 558.552V559.644C314.502 559.714 313.564 560.176 313.564 561.982V566H312.402ZM47.654 587.126C46.198 587.126 45.106 586.328 45.106 584.312V579.678H46.268V584.256C46.268 585.544 46.814 586.118 47.962 586.118C48.998 586.118 49.978 585.432 49.978 584.116V579.678H51.14V587H49.978V585.838C49.642 586.524 48.83 587.126 47.654 587.126ZM55.6165 587.126C53.8665 587.126 52.8165 586.244 52.7465 584.746H53.8805C53.9645 585.614 54.4265 586.16 55.6025 586.16C56.7085 586.16 57.1985 585.782 57.1985 584.998C57.1985 584.228 56.6245 583.976 55.4905 583.766C53.5865 583.416 52.9425 582.884 52.9425 581.61C52.9425 580.252 54.2725 579.552 55.4205 579.552C56.7365 579.552 57.8705 580.084 58.0665 581.666H56.9465C56.7785 580.868 56.3305 580.518 55.4065 580.518C54.5665 580.518 54.0205 580.938 54.0205 581.568C54.0205 582.226 54.3845 582.492 55.7285 582.73C57.2405 583.01 58.3045 583.346 58.3045 584.9C58.3045 586.23 57.3945 587.126 55.6165 587.126ZM61.7691 587.126C60.4111 587.126 59.3331 586.468 59.3331 584.97C59.3331 583.276 61.1251 582.702 63.0011 582.702H64.0511V582.17C64.0511 581.008 63.6031 580.518 62.4831 580.518C61.4751 580.518 60.9151 580.938 60.8031 581.834H59.6411C59.7951 580.168 61.1251 579.552 62.5391 579.552C63.9391 579.552 65.2131 580.126 65.2131 582.17V587H64.0511V586.076C63.5051 586.762 62.8471 587.126 61.7691 587.126ZM61.8811 586.202C63.1131 586.202 64.0511 585.572 64.0511 584.438V583.528H63.0431C61.5731 583.528 60.4951 583.892 60.4951 584.97C60.4951 585.726 60.8591 586.202 61.8811 586.202ZM67.3556 587V579.678H68.5176V580.994C68.9796 580.168 69.6096 579.594 70.9256 579.552V580.644C69.4556 580.714 68.5176 581.176 68.5176 582.982V587H67.3556ZM78.5224 587.126C77.0664 587.126 75.9744 586.328 75.9744 584.312V579.678H77.1364V584.256C77.1364 585.544 77.6824 586.118 78.8304 586.118C79.8664 586.118 80.8464 585.432 80.8464 584.116V579.678H82.0084V587H80.8464V585.838C80.5104 586.524 79.6984 587.126 78.5224 587.126ZM84.2169 587V579.678H85.3789V580.798C85.7149 580.112 86.5129 579.552 87.5629 579.552C88.5009 579.552 89.3269 579.944 89.7049 580.924C90.2089 579.972 91.3009 579.552 92.2109 579.552C93.5269 579.552 94.6749 580.336 94.6749 582.464V587H93.5129V582.38C93.5129 581.092 92.9669 580.56 91.9589 580.56C91.0069 580.56 90.0269 581.204 90.0269 582.52V587H88.8649V582.38C88.8649 581.092 88.3189 580.56 87.3109 580.56C86.3589 580.56 85.3789 581.204 85.3789 582.52V587H84.2169ZM103.422 587.126C101.378 587.126 99.8381 585.684 99.8381 583.416V583.304C99.8381 581.064 101.434 579.552 103.394 579.552C104.92 579.552 106.348 580.252 106.572 582.114H105.424C105.242 580.952 104.402 580.518 103.394 580.518C102.064 580.518 101.042 581.582 101.042 583.304V583.416C101.042 585.208 102.022 586.16 103.436 586.16C104.472 586.16 105.41 585.558 105.536 584.368H106.614C106.46 585.95 105.186 587.126 103.422 587.126ZM110.763 578.418L111.631 576.36H113.087L111.631 578.418H110.763ZM111.267 587.126C109.181 587.126 107.683 585.544 107.683 583.402V583.29C107.683 581.092 109.209 579.552 111.281 579.552C113.353 579.552 114.879 581.078 114.879 583.276V583.388C114.879 585.6 113.353 587.126 111.267 587.126ZM111.281 586.16C112.751 586.16 113.675 585.054 113.675 583.402V583.304C113.675 581.61 112.737 580.518 111.281 580.518C109.811 580.518 108.887 581.61 108.887 583.29V583.402C108.887 585.068 109.797 586.16 111.281 586.16ZM119.296 587.126C117.378 587.126 115.992 585.768 115.992 583.486V583.374C115.992 581.134 117.392 579.552 119.408 579.552C120.626 579.552 121.382 580.14 121.802 580.854V576.178H122.964V587H121.802V585.74C121.382 586.454 120.36 587.126 119.296 587.126ZM119.422 586.16C120.78 586.16 121.844 585.264 121.844 583.388V583.276C121.844 581.4 120.948 580.518 119.52 580.518C118.064 580.518 117.196 581.54 117.196 583.318V583.43C117.196 585.278 118.19 586.16 119.422 586.16ZM125.763 578.152C125.343 578.152 124.993 577.802 124.993 577.382C124.993 576.962 125.343 576.612 125.763 576.612C126.183 576.612 126.533 576.962 126.533 577.382C126.533 577.802 126.183 578.152 125.763 578.152ZM125.203 587V579.678H126.365V587H125.203ZM131.529 589.674C129.359 589.674 128.407 588.652 128.211 587.42H129.401C129.569 588.26 130.269 588.694 131.515 588.694C132.957 588.694 133.867 588.008 133.867 586.44V585.376C133.447 586.09 132.453 586.762 131.389 586.762C129.471 586.762 128.057 585.306 128.057 583.29V583.192C128.057 581.204 129.457 579.552 131.473 579.552C132.691 579.552 133.447 580.14 133.867 580.854V579.678H135.029V586.51C135.015 588.638 133.573 589.674 131.529 589.674ZM131.515 585.796C132.873 585.796 133.909 584.844 133.909 583.206V583.108C133.909 581.47 133.013 580.518 131.585 580.518C130.129 580.518 129.261 581.596 129.261 583.136V583.248C129.261 584.844 130.283 585.796 131.515 585.796ZM140.279 587.126C138.193 587.126 136.695 585.544 136.695 583.402V583.29C136.695 581.092 138.221 579.552 140.293 579.552C142.365 579.552 143.891 581.078 143.891 583.276V583.388C143.891 585.6 142.365 587.126 140.279 587.126ZM140.293 586.16C141.763 586.16 142.687 585.054 142.687 583.402V583.304C142.687 581.61 141.749 580.518 140.293 580.518C138.823 580.518 137.899 581.61 137.899 583.29V583.402C137.899 585.068 138.809 586.16 140.293 586.16ZM149.115 589.548V579.678H150.277V580.91C150.697 580.196 151.691 579.552 152.755 579.552C154.673 579.552 156.087 580.952 156.087 583.234V583.346C156.087 585.586 154.771 587.126 152.755 587.126C151.551 587.126 150.697 586.524 150.277 585.796V589.548H149.115ZM152.643 586.16C154.099 586.16 154.883 585.18 154.883 583.402V583.29C154.883 581.442 153.861 580.518 152.629 580.518C151.271 580.518 150.235 581.414 150.235 583.29V583.402C150.235 585.278 151.215 586.16 152.643 586.16ZM159.586 587.126C158.228 587.126 157.15 586.468 157.15 584.97C157.15 583.276 158.942 582.702 160.818 582.702H161.868V582.17C161.868 581.008 161.42 580.518 160.3 580.518C159.292 580.518 158.732 580.938 158.62 581.834H157.458C157.612 580.168 158.942 579.552 160.356 579.552C161.756 579.552 163.03 580.126 163.03 582.17V587H161.868V586.076C161.322 586.762 160.664 587.126 159.586 587.126ZM159.698 586.202C160.93 586.202 161.868 585.572 161.868 584.438V583.528H160.86C159.39 583.528 158.312 583.892 158.312 584.97C158.312 585.726 158.676 586.202 159.698 586.202ZM165.173 587V579.678H166.335V580.994C166.797 580.168 167.427 579.594 168.743 579.552V580.644C167.273 580.714 166.335 581.176 166.335 582.982V587H165.173ZM172.062 587.126C170.704 587.126 169.626 586.468 169.626 584.97C169.626 583.276 171.418 582.702 173.294 582.702H174.344V582.17C174.344 581.008 173.896 580.518 172.776 580.518C171.768 580.518 171.208 580.938 171.096 581.834H169.934C170.088 580.168 171.418 579.552 172.832 579.552C174.232 579.552 175.506 580.126 175.506 582.17V587H174.344V586.076C173.798 586.762 173.14 587.126 172.062 587.126ZM172.174 586.202C173.406 586.202 174.344 585.572 174.344 584.438V583.528H173.336C171.866 583.528 170.788 583.892 170.788 584.97C170.788 585.726 171.152 586.202 172.174 586.202ZM184.252 587.126C182.208 587.126 180.668 585.684 180.668 583.416V583.304C180.668 581.064 182.264 579.552 184.224 579.552C185.75 579.552 187.178 580.252 187.402 582.114H186.254C186.072 580.952 185.232 580.518 184.224 580.518C182.894 580.518 181.872 581.582 181.872 583.304V583.416C181.872 585.208 182.852 586.16 184.266 586.16C185.302 586.16 186.24 585.558 186.366 584.368H187.444C187.29 585.95 186.016 587.126 184.252 587.126ZM192.096 587.126C190.01 587.126 188.512 585.544 188.512 583.402V583.29C188.512 581.092 190.038 579.552 192.11 579.552C194.182 579.552 195.708 581.078 195.708 583.276V583.388C195.708 585.6 194.182 587.126 192.096 587.126ZM192.11 586.16C193.58 586.16 194.504 585.054 194.504 583.402V583.304C194.504 581.61 193.566 580.518 192.11 580.518C190.64 580.518 189.716 581.61 189.716 583.29V583.402C189.716 585.068 190.626 586.16 192.11 586.16ZM197.367 587V579.678H198.529V580.84C198.865 580.154 199.677 579.552 200.881 579.552C202.393 579.552 203.457 580.378 203.457 582.506V587H202.295V582.422C202.295 581.134 201.749 580.56 200.573 580.56C199.495 580.56 198.529 581.246 198.529 582.562V587H197.367ZM205.847 587V580.658H204.797V579.678H205.847V578.488C205.847 577.004 206.561 576.136 208.003 576.136C208.381 576.136 208.577 576.164 208.801 576.248V577.228C208.591 577.144 208.367 577.102 208.045 577.102C207.303 577.102 207.009 577.62 207.009 578.362V579.678H208.801V580.658H207.009V587H205.847ZM210.677 578.152C210.257 578.152 209.907 577.802 209.907 577.382C209.907 576.962 210.257 576.612 210.677 576.612C211.097 576.612 211.447 576.962 211.447 577.382C211.447 577.802 211.097 578.152 210.677 578.152ZM210.117 587V579.678H211.279V587H210.117ZM213.518 587V579.678H214.68V580.994C215.142 580.168 215.772 579.594 217.088 579.552V580.644C215.618 580.714 214.68 581.176 214.68 582.982V587H213.518ZM218.641 587V579.678H219.803V580.798C220.139 580.112 220.937 579.552 221.987 579.552C222.925 579.552 223.751 579.944 224.129 580.924C224.633 579.972 225.725 579.552 226.635 579.552C227.951 579.552 229.099 580.336 229.099 582.464V587H227.937V582.38C227.937 581.092 227.391 580.56 226.383 580.56C225.431 580.56 224.451 581.204 224.451 582.52V587H223.289V582.38C223.289 581.092 222.743 580.56 221.735 580.56C220.783 580.56 219.803 581.204 219.803 582.52V587H218.641ZM233.078 587.126C231.72 587.126 230.642 586.468 230.642 584.97C230.642 583.276 232.434 582.702 234.31 582.702H235.36V582.17C235.36 581.008 234.912 580.518 233.792 580.518C232.784 580.518 232.224 580.938 232.112 581.834H230.95C231.104 580.168 232.434 579.552 233.848 579.552C235.248 579.552 236.522 580.126 236.522 582.17V587H235.36V586.076C234.814 586.762 234.156 587.126 233.078 587.126ZM233.19 586.202C234.422 586.202 235.36 585.572 235.36 584.438V583.528H234.352C232.882 583.528 231.804 583.892 231.804 584.97C231.804 585.726 232.168 586.202 233.19 586.202ZM238.664 587V579.678H239.826V580.994C240.288 580.168 240.918 579.594 242.234 579.552V580.644C240.764 580.714 239.826 581.176 239.826 582.982V587H238.664ZM250.391 587.126C248.305 587.126 246.807 585.544 246.807 583.402V583.29C246.807 581.092 248.333 579.552 250.405 579.552C252.477 579.552 254.003 581.078 254.003 583.276V583.388C254.003 585.6 252.477 587.126 250.391 587.126ZM250.405 586.16C251.875 586.16 252.799 585.054 252.799 583.402V583.304C252.799 581.61 251.861 580.518 250.405 580.518C248.935 580.518 248.011 581.61 248.011 583.29V583.402C248.011 585.068 248.921 586.16 250.405 586.16ZM45.176 608V600.678H46.338V601.994C46.8 601.168 47.43 600.594 48.746 600.552V601.644C47.276 601.714 46.338 602.176 46.338 603.982V608H45.176ZM53.0906 608.126C51.0186 608.126 49.5486 606.67 49.5486 604.416V604.304C49.5486 602.092 50.9626 600.552 52.9786 600.552C54.6726 600.552 56.2686 601.574 56.2686 604.192V604.57H50.7526C50.8086 606.236 51.6066 607.16 53.1046 607.16C54.2386 607.16 54.8966 606.74 55.0506 605.886H56.2126C55.9606 607.356 54.7426 608.126 53.0906 608.126ZM50.7946 603.632H55.0786C54.9666 602.12 54.1826 601.518 52.9786 601.518C51.7886 601.518 50.9906 602.33 50.7946 603.632ZM60.9496 608.126C58.9056 608.126 57.3656 606.684 57.3656 604.416V604.304C57.3656 602.064 58.9616 600.552 60.9216 600.552C62.4476 600.552 63.8756 601.252 64.0996 603.114H62.9516C62.7696 601.952 61.9296 601.518 60.9216 601.518C59.5916 601.518 58.5696 602.582 58.5696 604.304V604.416C58.5696 606.208 59.5496 607.16 60.9636 607.16C61.9996 607.16 62.9376 606.558 63.0636 605.368H64.1416C63.9876 606.95 62.7136 608.126 60.9496 608.126ZM68.752 608.126C66.68 608.126 65.21 606.67 65.21 604.416V604.304C65.21 602.092 66.624 600.552 68.64 600.552C70.334 600.552 71.93 601.574 71.93 604.192V604.57H66.414C66.47 606.236 67.268 607.16 68.766 607.16C69.9 607.16 70.558 606.74 70.712 605.886H71.874C71.622 607.356 70.404 608.126 68.752 608.126ZM66.456 603.632H70.74C70.628 602.12 69.844 601.518 68.64 601.518C67.45 601.518 66.652 602.33 66.456 603.632ZM77.213 608.126C76.023 608.126 75.155 607.524 74.735 606.796V608H73.573V597.178H74.735V601.91C75.155 601.196 76.149 600.552 77.213 600.552C79.131 600.552 80.545 601.952 80.545 604.234V604.346C80.545 606.586 79.229 608.126 77.213 608.126ZM77.101 607.16C78.557 607.16 79.341 606.18 79.341 604.402V604.29C79.341 602.442 78.319 601.518 77.087 601.518C75.729 601.518 74.693 602.414 74.693 604.29V604.402C74.693 606.278 75.673 607.16 77.101 607.16ZM82.7984 599.152C82.3784 599.152 82.0284 598.802 82.0284 598.382C82.0284 597.962 82.3784 597.612 82.7984 597.612C83.2184 597.612 83.5684 597.962 83.5684 598.382C83.5684 598.802 83.2184 599.152 82.7984 599.152ZM82.2384 608V600.678H83.4004V608H82.2384ZM85.6387 608V600.678H86.8007V601.798C87.1367 601.112 87.9347 600.552 88.9847 600.552C89.9227 600.552 90.7487 600.944 91.1267 601.924C91.6307 600.972 92.7227 600.552 93.6327 600.552C94.9487 600.552 96.0967 601.336 96.0967 603.464V608H94.9347V603.38C94.9347 602.092 94.3887 601.56 93.3807 601.56C92.4287 601.56 91.4487 602.204 91.4487 603.52V608H90.2867V603.38C90.2867 602.092 89.7407 601.56 88.7327 601.56C87.7807 601.56 86.8007 602.204 86.8007 603.52V608H85.6387ZM101.237 608.126C99.1649 608.126 97.6949 606.67 97.6949 604.416V604.304C97.6949 602.092 99.1089 600.552 101.125 600.552C102.819 600.552 104.415 601.574 104.415 604.192V604.57H98.8989C98.9549 606.236 99.7529 607.16 101.251 607.16C102.385 607.16 103.043 606.74 103.197 605.886H104.359C104.107 607.356 102.889 608.126 101.237 608.126ZM98.9409 603.632H103.225C103.113 602.12 102.329 601.518 101.125 601.518C99.9349 601.518 99.1369 602.33 98.9409 603.632ZM106.058 608V600.678H107.22V601.84C107.556 601.154 108.368 600.552 109.572 600.552C111.084 600.552 112.148 601.378 112.148 603.506V608H110.986V603.422C110.986 602.134 110.44 601.56 109.264 601.56C108.186 601.56 107.22 602.246 107.22 603.562V608H106.058ZM116.511 608.098C115.181 608.098 114.537 607.314 114.537 606.166V601.658H113.487V600.678H114.537V599.012H115.699V600.678H117.407V601.658H115.699V606.054C115.699 606.768 116.021 607.118 116.609 607.118C116.973 607.118 117.253 607.062 117.505 606.964V607.944C117.267 608.028 116.987 608.098 116.511 608.098ZM122.16 608.126C120.074 608.126 118.576 606.544 118.576 604.402V604.29C118.576 602.092 120.102 600.552 122.174 600.552C124.246 600.552 125.772 602.078 125.772 604.276V604.388C125.772 606.6 124.246 608.126 122.16 608.126ZM122.174 607.16C123.644 607.16 124.568 606.054 124.568 604.402V604.304C124.568 602.61 123.63 601.518 122.174 601.518C120.704 601.518 119.78 602.61 119.78 604.29V604.402C119.78 606.068 120.69 607.16 122.174 607.16ZM127.873 608.07C127.383 608.07 126.977 607.678 126.977 607.174C126.977 606.67 127.383 606.278 127.873 606.278C128.363 606.278 128.769 606.67 128.769 607.174C128.769 607.678 128.363 608.07 127.873 608.07Z" fill="black" fill-opacity="0.64"/>
</g>
</g>
<defs>
<clipPath id="clip0_17453_7262">
<rect width="375" height="814" fill="white"/>
</clipPath>
<clipPath id="clip1_17453_7262">
<rect width="48" height="48" fill="white" transform="translate(12 52)"/>
</clipPath>
<clipPath id="clip2_17453_7262">
<rect width="375" height="224" fill="white" transform="translate(0 258)"/>
</clipPath>
<clipPath id="clip3_17453_7262">
<rect width="287" height="88" fill="white" transform="translate(44 526)"/>
</clipPath>
</defs>
</svg>
