<svg width="375" height="812" viewBox="0 0 375 812" fill="none" xmlns="http://www.w3.org/2000/svg">
<g clip-path="url(#clip0_17453_7529)">
<rect width="375" height="812" rx="10" fill="white"/>
<g clip-path="url(#clip1_17453_7529)">
<g clip-path="url(#clip2_17453_7529)">
<path d="M26.296 242V221.98H32.372C39.344 221.98 42.732 225.956 42.732 231.78V232.032C42.732 237.856 39.344 242 32.316 242H26.296ZM30.02 239.06H32.204C36.684 239.06 38.84 236.484 38.84 232.06V231.836C38.84 227.524 36.88 224.92 32.176 224.92H30.02V239.06ZM46.9003 224.948C45.7803 224.948 44.8843 224.108 44.8843 223.016C44.8843 221.896 45.7803 221.056 46.9003 221.056C48.0203 221.056 48.9163 221.896 48.9163 223.016C48.9163 224.108 48.0203 224.948 46.9003 224.948ZM45.2483 242V227.356H48.6363V242H45.2483ZM58.1698 247.376C53.5778 247.376 51.5058 245.304 51.1138 242.504H54.5298C54.8098 243.96 55.9298 244.8 58.1418 244.8C60.7738 244.8 62.2298 243.484 62.2298 240.852V238.696C61.4178 240.096 59.5978 241.412 57.4418 241.412C53.7738 241.412 50.9458 238.668 50.9458 234.44V234.244C50.9458 230.128 53.7458 227.048 57.5258 227.048C59.9338 227.048 61.3898 228.14 62.2298 229.596V227.356H65.6178V240.908C65.5898 245.22 62.7058 247.376 58.1698 247.376ZM58.2818 238.808C60.6338 238.808 62.3418 237.128 62.3418 234.328V234.132C62.3418 231.36 60.8298 229.708 58.3938 229.708C55.8738 229.708 54.4178 231.528 54.4178 234.188V234.412C54.4178 237.128 56.0978 238.808 58.2818 238.808ZM70.5406 224.948C69.4206 224.948 68.5246 224.108 68.5246 223.016C68.5246 221.896 69.4206 221.056 70.5406 221.056C71.6606 221.056 72.5566 221.896 72.5566 223.016C72.5566 224.108 71.6606 224.948 70.5406 224.948ZM68.8886 242V227.356H72.2766V242H68.8886ZM80.5502 242.252C77.6382 242.252 76.1262 240.684 76.1262 237.912V229.904H74.1662V227.356H76.1262V224.136H79.5142V227.356H82.7342V229.904H79.5142V237.604C79.5142 238.892 80.1302 239.48 81.1942 239.48C81.8662 239.48 82.3702 239.396 82.8462 239.2V241.888C82.3142 242.084 81.5862 242.252 80.5502 242.252ZM91.5021 242.28C87.1901 242.28 84.0821 239.452 84.0821 234.832V234.608C84.0821 230.072 87.1901 227.048 91.3621 227.048C95.0021 227.048 98.2781 229.204 98.2781 234.44V235.42H87.5541C87.6661 238.192 89.0661 239.76 91.5861 239.76C93.6301 239.76 94.6941 238.948 94.9461 237.52H98.2221C97.7461 240.6 95.2541 242.28 91.5021 242.28ZM87.6101 233.152H94.9181C94.7501 230.632 93.4621 229.512 91.3621 229.512C89.3181 229.512 87.9461 230.884 87.6101 233.152ZM111.308 242.28C107.528 242.28 105.316 240.544 105.176 237.436H108.368C108.536 238.92 109.292 239.788 111.28 239.788C113.1 239.788 113.912 239.144 113.912 237.912C113.912 236.708 112.932 236.26 110.776 235.896C106.912 235.28 105.484 234.188 105.484 231.444C105.484 228.504 108.228 227.048 110.972 227.048C113.968 227.048 116.348 228.168 116.712 231.472H113.576C113.296 230.128 112.54 229.512 110.972 229.512C109.516 229.512 108.648 230.212 108.648 231.248C108.648 232.312 109.348 232.732 111.672 233.124C115.116 233.656 117.16 234.496 117.16 237.604C117.16 240.572 115.06 242.28 111.308 242.28ZM125.759 242.28C121.447 242.28 118.339 239.452 118.339 234.832V234.608C118.339 230.072 121.447 227.048 125.619 227.048C129.259 227.048 132.535 229.204 132.535 234.44V235.42H121.811C121.923 238.192 123.323 239.76 125.843 239.76C127.887 239.76 128.951 238.948 129.203 237.52H132.479C132.003 240.6 129.511 242.28 125.759 242.28ZM121.867 233.152H129.175C129.007 230.632 127.719 229.512 125.619 229.512C123.575 229.512 122.203 230.884 121.867 233.152ZM139.622 242.28C136.738 242.28 134.582 240.628 134.582 236.736V227.356H137.97V236.344C137.97 238.556 138.894 239.564 140.854 239.564C142.674 239.564 144.27 238.388 144.27 236.064V227.356H147.658V242H144.27V239.704C143.542 241.132 142.002 242.28 139.622 242.28ZM165.711 242.28C159.439 242.28 155.939 238.276 155.939 232.116V231.892C155.939 225.872 160.083 221.672 165.655 221.672C170.247 221.672 173.803 223.968 174.251 228.672H170.471C170.051 226.012 168.567 224.64 165.683 224.64C162.155 224.64 159.859 227.384 159.859 231.864V232.088C159.859 236.596 162.015 239.256 165.711 239.256C168.483 239.256 170.443 237.856 170.835 235.028H174.475C173.887 239.844 170.471 242.28 165.711 242.28ZM176.861 242V221.98H189.377V224.92H180.585V230.408H187.641V233.208H180.585V239.06H189.853V242H176.861ZM192.372 242V221.98H198.812C203.292 221.98 206.232 223.968 206.232 228.168V228.28C206.232 232.508 203.18 234.384 198.896 234.384H196.096V242H192.372ZM196.096 231.696H198.812C201.276 231.696 202.592 230.492 202.592 228.28V228.168C202.592 225.788 201.192 224.864 198.812 224.864H196.096V231.696Z" fill="black" fill-opacity="0.32"/>
</g>
</g>
<g clip-path="url(#clip3_17453_7529)">
<rect width="327" height="2" transform="translate(24 256)" fill="#EFEFEF"/>
</g>
<rect width="375" height="242" transform="translate(0 570)" fill="#D0D5DB"/>
<g filter="url(#filter0_d_17453_7529)">
<rect x="253" y="579.5" width="114" height="44" rx="4" fill="white"/>
</g>
<g filter="url(#filter1_d_17453_7529)">
<rect x="130" y="579.5" width="115" height="44" rx="4" fill="white"/>
</g>
<g filter="url(#filter2_d_17453_7529)">
<rect x="8" y="579.5" width="114" height="44" rx="4" fill="white"/>
</g>
<g filter="url(#filter3_d_17453_7529)">
<rect x="253" y="631.5" width="114" height="44" rx="4" fill="white"/>
</g>
<g filter="url(#filter4_d_17453_7529)">
<rect x="130" y="631.5" width="115" height="44" rx="4" fill="white"/>
</g>
<g filter="url(#filter5_d_17453_7529)">
<rect x="8" y="631.5" width="114" height="44" rx="4" fill="white"/>
</g>
<g filter="url(#filter6_d_17453_7529)">
<rect x="253" y="683.5" width="114" height="44" rx="4" fill="white"/>
</g>
<g filter="url(#filter7_d_17453_7529)">
<rect x="130" y="683.5" width="115" height="44" rx="4" fill="white"/>
</g>
<g filter="url(#filter8_d_17453_7529)">
<rect x="130" y="735.5" width="115" height="44" rx="4" fill="white"/>
</g>
<g filter="url(#filter9_d_17453_7529)">
<rect x="8" y="683.5" width="114" height="44" rx="4" fill="white"/>
</g>
<path fill-rule="evenodd" clip-rule="evenodd" d="M317.274 748.5C319.331 748.503 320.997 750.169 321 752.226V761.775C320.997 763.832 319.331 765.498 317.274 765.501H307.694C306.531 765.504 305.414 765.042 304.594 764.216L298.439 758.061C297.854 757.475 297.854 756.526 298.439 755.94L304.599 749.785C305.417 748.961 306.532 748.498 307.694 748.5H317.274ZM307.694 750C306.929 749.999 306.195 750.303 305.654 750.845L299.499 757.001L305.659 763.156C306.199 763.696 306.931 764 307.694 764.001H317.274C318.503 764.001 319.5 763.004 319.5 761.775V752.226C319.5 751.635 319.266 751.069 318.849 750.651C318.431 750.234 317.865 750 317.274 750H307.694ZM308.69 753.221C308.921 753.167 309.163 753.248 309.315 753.431L311.999 756.12L314.685 753.431C314.928 753.189 315.321 753.189 315.565 753.431C315.682 753.548 315.748 753.707 315.748 753.873C315.748 754.039 315.682 754.198 315.565 754.315L312.88 757L315.565 759.686C315.77 759.934 315.754 760.298 315.525 760.526C315.297 760.754 314.933 760.771 314.685 760.565L311.999 757.881L309.315 760.565C309.163 760.748 308.921 760.83 308.69 760.775C308.459 760.721 308.279 760.541 308.225 760.31C308.171 760.079 308.252 759.837 308.435 759.686L311.119 757L308.435 754.311C308.252 754.159 308.171 753.917 308.225 753.687C308.279 753.455 308.459 753.275 308.69 753.221Z" fill="#030303"/>
<path d="M187.012 766.898C183.203 766.898 181.012 763.664 181.012 758.039C181.012 752.461 183.227 749.191 187.012 749.191C190.773 749.191 192.988 752.473 192.988 758.074C192.988 763.688 190.809 766.898 187.012 766.898ZM187.012 765.059C189.508 765.059 190.867 762.574 190.867 758.039C190.867 753.551 189.484 751.043 187.012 751.043C184.539 751.043 183.133 753.574 183.133 758.039C183.133 762.562 184.516 765.059 187.012 765.059Z" fill="#030303"/>
<path d="M296.291 714.382L294.507 720.5H293.594L291.483 712.75H292.493L294.035 719.05H294.099L295.834 712.75H296.812L298.546 719.05H298.611L300.152 712.75H301.162L299.051 720.5H298.138L296.355 714.382H296.291ZM303.129 720.5L305.782 716.601L303.161 712.75H304.327L306.368 715.833H306.454L308.527 712.75H309.628L306.942 716.644L309.569 720.5H308.409L306.378 717.444H306.292L304.225 720.5H303.129ZM315.204 720.5H314.237V717.165L311.487 712.75H312.588L314.678 716.192H314.764L316.853 712.75H317.954L315.204 717.165V720.5ZM320.104 720.5V719.812L324.492 713.706V713.62H320.254V712.75H325.743V713.437L321.376 719.544V719.63H325.834V720.5H320.104Z" fill="#030303"/>
<path d="M309.637 706.887C306.766 706.887 304.621 705.223 304.094 702.562H306.262C306.707 704.086 307.996 705.012 309.66 705.012C312.414 705.012 313.973 702.574 314.09 698.074H313.902C313.07 699.715 311.418 700.676 309.402 700.676C306.18 700.676 303.848 698.297 303.848 695.016C303.848 691.617 306.309 689.191 309.777 689.191C313.422 689.191 316.141 691.992 316.141 697.746C316.141 703.559 313.773 706.887 309.637 706.887ZM309.777 698.848C312.016 698.848 313.621 697.254 313.621 695.016C313.621 692.754 311.969 691.043 309.801 691.043C307.633 691.043 305.98 692.73 305.98 694.945C305.98 697.254 307.539 698.848 309.777 698.848Z" fill="#030303"/>
<path d="M177.969 720.5H177.002V713.62H174.505V712.75H180.467V713.62H177.969V720.5ZM183.916 712.75V717.771C183.916 718.942 184.684 719.791 186.027 719.791C187.37 719.791 188.138 718.942 188.138 717.771V712.75H189.104V717.836C189.104 719.49 187.95 720.683 186.027 720.683C184.104 720.683 182.949 719.49 182.949 717.836V712.75H183.916ZM195.266 720.5H194.31L191.453 712.75H192.468L194.745 719.249H194.831L197.108 712.75H198.124L195.266 720.5Z" fill="#030303"/>
<path d="M187 706.898C183.414 706.898 180.906 704.871 180.906 701.977C180.906 699.773 182.301 698.062 184.422 697.664V697.477C182.699 697.008 181.598 695.543 181.598 693.703C181.598 691.066 183.836 689.191 187 689.191C190.164 689.191 192.402 691.066 192.402 693.703C192.402 695.555 191.324 696.996 189.578 697.477V697.664C191.699 698.062 193.094 699.773 193.094 701.977C193.094 704.871 190.586 706.898 187 706.898ZM187 705.094C189.344 705.094 190.961 703.758 190.961 701.824C190.961 699.891 189.344 698.555 187 698.555C184.656 698.555 183.039 699.891 183.039 701.824C183.039 703.758 184.656 705.094 187 705.094ZM187 696.773C188.992 696.773 190.328 695.625 190.328 693.902C190.328 692.156 189.004 690.996 187 690.996C184.996 690.996 183.672 692.156 183.672 693.902C183.672 695.625 185.008 696.773 187 696.773Z" fill="#030303"/>
<path d="M48.9883 712.75H51.9155C53.3818 712.75 54.397 713.781 54.397 715.258C54.397 716.708 53.3604 717.734 51.9048 717.734H49.9551V720.5H48.9883V712.75ZM49.9551 713.609V716.875H51.6631C52.7642 716.875 53.4033 716.284 53.4033 715.258C53.4033 714.194 52.7856 713.609 51.6631 713.609H49.9551ZM60.2417 720.683C58.0342 720.683 56.6807 719.141 56.6807 716.627C56.6807 714.125 58.0503 712.567 60.2417 712.567C62.4224 712.567 63.7866 714.13 63.7866 716.627C63.7866 718.169 63.2925 719.377 62.4116 720.011L63.3945 721.375H62.3096L61.6274 720.446C61.2139 720.602 60.7412 720.683 60.2417 720.683ZM60.2471 719.791C60.5317 719.791 60.8057 719.753 61.0742 719.673L60.0483 718.282H61.144L61.8477 719.216C62.4546 718.733 62.793 717.809 62.793 716.627C62.793 714.683 61.8101 713.458 60.2417 713.458C58.6626 713.458 57.6743 714.678 57.6743 716.627C57.6743 718.583 58.6572 719.791 60.2471 719.791ZM67.4346 713.609V716.574H69.3413C70.335 716.574 70.8989 716.042 70.8989 715.091C70.8989 714.162 70.2974 713.609 69.2983 713.609H67.4346ZM67.4346 717.433V720.5H66.4678V712.75H69.4272C70.9204 712.75 71.8979 713.663 71.8979 715.059C71.8979 716.139 71.3125 716.977 70.3403 717.283L72.1343 720.5H71.001L69.3413 717.433H67.4346ZM74.2837 718.475H75.2612C75.3794 719.286 76.1528 719.802 77.2539 719.802C78.2959 719.802 79.064 719.238 79.064 718.47C79.064 717.809 78.5806 717.39 77.5117 717.122L76.5181 716.864C75.1162 716.509 74.5093 715.875 74.5093 714.774C74.5093 713.458 75.6104 712.567 77.2485 712.567C78.7471 712.567 79.8643 713.458 79.9448 714.71H78.9727C78.8384 713.915 78.1831 713.442 77.2163 713.442C76.1851 713.442 75.5029 713.958 75.5029 714.742C75.5029 715.349 75.9272 715.698 76.9961 715.972L77.8071 716.187C79.4131 716.59 80.0576 717.213 80.0576 718.352C80.0576 719.775 78.9351 720.683 77.1626 720.683C75.519 720.683 74.3857 719.812 74.2837 718.475Z" fill="#030303"/>
<path d="M60.7461 706.5L68.3398 691.641V691.477H59.293V689.59H70.4844V691.547L62.9609 706.5H60.7461Z" fill="#030303"/>
<path d="M304.626 668.5H303.724V662.581H303.659L301.215 668.5H300.399L297.955 662.581H297.891V668.5H296.988V660.75H298.111L300.764 667.216H300.85L303.503 660.75H304.626V668.5ZM308.559 668.5H307.603V660.75H308.542L312.748 666.781H312.834V660.75H313.79V668.5H312.85L308.645 662.49H308.559V668.5ZM320.021 660.567C322.224 660.567 323.577 662.135 323.577 664.622C323.577 667.098 322.234 668.683 320.021 668.683C317.798 668.683 316.466 667.104 316.466 664.622C316.466 662.13 317.83 660.567 320.021 660.567ZM320.021 661.458C318.442 661.458 317.459 662.683 317.459 664.622C317.459 666.545 318.41 667.791 320.021 667.791C321.611 667.791 322.583 666.545 322.583 664.622C322.583 662.683 321.606 661.458 320.021 661.458Z" fill="#030303"/>
<path d="M310.211 654.887C306.531 654.887 303.848 652.027 303.848 646.332C303.848 640.52 306.355 637.191 310.352 637.191C313.434 637.191 315.461 638.891 315.895 641.516H313.727C313.375 639.945 312.133 639.066 310.422 639.066C307.609 639.066 305.969 641.41 305.898 646.004H306.086C306.918 644.363 308.57 643.402 310.586 643.402C313.809 643.402 316.141 645.781 316.141 649.062C316.141 652.461 313.68 654.887 310.211 654.887ZM310.188 653.035C312.355 653.035 314.008 651.348 314.008 649.133C314.008 646.824 312.449 645.23 310.211 645.23C307.973 645.23 306.367 646.824 306.367 649.062C306.367 651.324 308.02 653.035 310.188 653.035Z" fill="#030303"/>
<path d="M176.462 666.69H177.423C177.445 667.34 177.939 667.791 178.669 667.791C179.497 667.791 179.964 667.286 179.964 666.335V660.75H180.931V666.341C180.931 667.818 180.077 668.683 178.675 668.683C177.375 668.683 176.462 667.877 176.462 666.69ZM184.874 668.5H183.907V660.75H184.874V664.515H184.96L188.354 660.75H189.568L186.469 664.096L189.853 668.5H188.602L185.803 664.767L184.874 665.793V668.5ZM196.863 667.63V668.5H192.158V660.75H193.125V667.63H196.863Z" fill="#030303"/>
<path d="M187.082 654.898C183.883 654.898 181.586 652.93 181.398 650.035H183.473C183.66 651.84 185.113 653.047 187.105 653.047C189.32 653.047 190.785 651.453 190.785 649.086C190.785 646.801 189.32 645.266 187.188 645.266C185.582 645.266 184.316 646.004 183.648 647.258H181.668L182.641 637.59H192.027V639.477H184.293L183.766 644.984H183.953C184.773 643.965 186.027 643.449 187.715 643.449C190.551 643.449 192.895 645.676 192.895 649.027C192.895 652.508 190.539 654.898 187.082 654.898Z" fill="#030303"/>
<path d="M60.4927 665.503C60.4927 667.415 59.1821 668.683 57.2002 668.683C55.0571 668.683 53.6875 667.104 53.6875 664.622C53.6875 662.173 55.0786 660.567 57.2002 660.567C58.9189 660.567 60.165 661.523 60.4443 663.059H59.4614C59.1284 662.012 58.3496 661.458 57.2002 661.458C55.6641 661.458 54.6812 662.694 54.6812 664.622C54.6812 666.577 55.6479 667.791 57.2056 667.791C58.5913 667.791 59.5312 666.905 59.5312 665.594V665.406H57.3506V664.558H60.4927V665.503ZM69.3936 668.5H68.4268V664.971H64.1729V668.5H63.2061V660.75H64.1729V664.101H68.4268V660.75H69.3936V668.5ZM73.3369 668.5H72.3701V660.75H73.3369V668.5Z" fill="#030303"/>
<path d="M66.3867 655V651.496H58.1484V649.574C60.4336 645.742 63.0234 641.617 65.3906 638.09H68.4492V649.609H70.8516V651.496H68.4492V655H66.3867ZM60.3047 649.48V649.621H66.3984V640.047H66.2578C64.3594 642.883 62.1445 646.375 60.3047 649.48Z" fill="#030303"/>
<path d="M298.988 608.75H301.647C303.946 608.75 305.305 610.184 305.305 612.622C305.305 615.066 303.951 616.5 301.647 616.5H298.988V608.75ZM299.955 609.62V615.63H301.583C303.312 615.63 304.316 614.523 304.316 612.633C304.316 610.737 303.301 609.62 301.583 609.62H299.955ZM312.782 615.63V616.5H307.98V608.75H312.782V609.62H308.947V612.106H312.583V612.966H308.947V615.63H312.782ZM316.5 616.5H315.533V608.75H320.238V609.62H316.5V612.284H319.932V613.143H316.5V616.5Z" fill="#030303"/>
<path d="M307.914 594.707V592.902H309.918C311.863 592.902 313.246 591.66 313.246 589.902C313.246 588.32 312.039 587.031 310 587.031C307.961 587.031 306.637 588.074 306.461 589.973H304.41C304.621 587.219 306.719 585.191 310.141 585.191C313.48 585.191 315.402 587.301 315.391 589.668C315.379 591.707 314.113 593.055 312.379 593.559V593.746C314.57 594.098 316.023 595.586 316.023 597.941C316.023 600.777 313.434 602.898 310.07 602.898C306.637 602.898 304.27 601.012 304.117 598.141H306.156C306.344 599.922 307.867 601.059 310.047 601.059C312.273 601.059 313.855 599.781 313.855 597.883C313.855 595.926 312.391 594.707 310.012 594.707H307.914Z" fill="#030303"/>
<path d="M181.026 616.5L180.248 614.282H177.165L176.386 616.5H175.371L178.228 608.75H179.184L182.042 616.5H181.026ZM178.663 610.001L177.449 613.46H179.963L178.749 610.001H178.663ZM187.424 616.5H184.4V608.75H187.365C188.789 608.75 189.659 609.496 189.659 610.683C189.659 611.489 189.068 612.219 188.321 612.354V612.439C189.379 612.574 190.051 613.299 190.051 614.325C190.051 615.689 189.073 616.5 187.424 616.5ZM185.367 609.604V612.09H186.914C188.085 612.09 188.681 611.671 188.681 610.85C188.681 610.06 188.123 609.604 187.161 609.604H185.367ZM185.367 615.646H187.279C188.445 615.646 189.057 615.173 189.057 614.276C189.057 613.379 188.423 612.923 187.188 612.923H185.367V615.646ZM195.75 616.683C193.645 616.683 192.329 615.125 192.329 612.627C192.329 610.125 193.64 608.567 195.745 608.567C197.378 608.567 198.651 609.593 198.882 611.086H197.899C197.641 610.087 196.814 609.458 195.745 609.458C194.257 609.458 193.323 610.683 193.323 612.627C193.323 614.572 194.257 615.791 195.75 615.791C196.83 615.791 197.652 615.238 197.899 614.341H198.882C198.624 615.764 197.399 616.683 195.75 616.683Z" fill="#030303"/>
<path d="M182.027 590.359C182.027 587.348 184.348 585.191 187.582 585.191C190.535 585.191 192.797 587.195 192.797 589.938C192.797 591.883 191.953 593.289 188.906 596.441L185.062 600.414V600.602H193.078V602.5H182.133V601.047L187.852 594.859C190.008 592.527 190.641 591.648 190.641 590.16C190.641 588.367 189.434 587.031 187.441 587.031C185.414 587.031 184.066 588.355 184.066 590.359H182.027Z" fill="#030303"/>
<path d="M65.3281 602.5V587.934H65.1406L60.8398 591.051V588.824L65.3398 585.59H67.4375V602.5H65.3281Z" fill="#030303"/>
<path d="M117.5 801.5C117.5 800.119 118.619 799 120 799H255C256.381 799 257.5 800.119 257.5 801.5C257.5 802.881 256.381 804 255 804H120C118.619 804 117.5 802.881 117.5 801.5Z" fill="black" fill-opacity="0.96"/>
<rect width="375" height="104" fill="white"/>
<path d="M35.7202 33V24.3354H35.5957L32.9663 26.1812V24.3647L35.7276 22.4312H37.6099V33H35.7202ZM42.9216 33V24.3354H42.7971L40.1677 26.1812V24.3647L42.929 22.4312H44.8113V33H42.9216ZM48.9365 31.5425C48.248 31.5425 47.7646 31.0444 47.7646 30.3853C47.7646 29.7188 48.248 29.228 48.9365 29.228C49.6323 29.228 50.1084 29.7188 50.1084 30.3853C50.1084 31.0444 49.6323 31.5425 48.9365 31.5425ZM48.9365 26.1958C48.248 26.1958 47.7646 25.7051 47.7646 25.0459C47.7646 24.3794 48.248 23.8887 48.9365 23.8887C49.6323 23.8887 50.1084 24.3794 50.1084 25.0459C50.1084 25.7051 49.6323 26.1958 48.9365 26.1958ZM56.0793 33.2637C53.5452 33.2637 52.0437 31.2129 52.0437 27.7046C52.0437 24.2109 53.5671 22.1675 56.0793 22.1675C58.5842 22.1675 60.1077 24.2109 60.1077 27.7192C60.1077 31.2129 58.6062 33.2637 56.0793 33.2637ZM56.0793 31.6963C57.4197 31.6963 58.196 30.3267 58.196 27.7046C58.196 25.0972 57.405 23.7422 56.0793 23.7422C54.7537 23.7422 53.9553 25.1045 53.9553 27.7046C53.9553 30.3267 54.739 31.6963 56.0793 31.6963ZM65.8735 33.2637C63.4492 33.2637 61.7793 32.0039 61.7793 30.1729C61.7793 28.8325 62.6802 27.7705 64.0644 27.4775V27.353C62.9365 27.0747 62.2041 26.1592 62.2041 25.0312C62.2041 23.3613 63.7348 22.1675 65.8808 22.1675C68.0268 22.1675 69.5503 23.3613 69.5503 25.0312C69.5503 26.1665 68.8325 27.0674 67.6972 27.353V27.4775C69.0742 27.7339 69.9824 28.8032 69.9824 30.1655C69.9824 32.0039 68.3125 33.2637 65.8735 33.2637ZM65.8808 31.7915C67.1553 31.7915 68.0268 31.0664 68.0268 30.0117C68.0268 28.957 67.1479 28.2319 65.8808 28.2319C64.6064 28.2319 63.7275 28.957 63.7275 30.0117C63.7275 31.0664 64.6064 31.7915 65.8808 31.7915ZM65.8808 26.7817C66.9502 26.7817 67.6899 26.1445 67.6899 25.2144C67.6899 24.2695 66.9575 23.6177 65.8808 23.6177C64.7969 23.6177 64.0644 24.2695 64.0644 25.2144C64.0644 26.1445 64.8042 26.7817 65.8808 26.7817Z" fill="black" fill-opacity="0.96"/>
<path d="M285.339 29.3337C285.891 29.3337 286.339 29.7815 286.339 30.3337V32.3337C286.339 32.8859 285.891 33.3337 285.339 33.3337H284.339C283.787 33.3337 283.339 32.8859 283.339 32.3337V30.3337C283.339 29.7815 283.787 29.3337 284.339 29.3337H285.339ZM290.006 27.3337C290.558 27.3339 291.006 27.7816 291.006 28.3337V32.3337C291.006 32.8858 290.558 33.3336 290.006 33.3337H289.006C288.454 33.3337 288.006 32.8859 288.006 32.3337V28.3337C288.006 27.7815 288.454 27.3337 289.006 27.3337H290.006ZM294.672 24.9998C295.224 24.9998 295.672 25.4476 295.672 25.9998V32.3337C295.672 32.8859 295.224 33.3337 294.672 33.3337H293.672C293.12 33.3336 292.672 32.8858 292.672 32.3337V25.9998C292.672 25.4477 293.12 24.9999 293.672 24.9998H294.672ZM299.339 22.6667C299.891 22.6667 300.339 23.1145 300.339 23.6667V32.3337C300.339 32.8859 299.891 33.3337 299.339 33.3337H298.339C297.787 33.3337 297.339 32.8859 297.339 32.3337V23.6667C297.339 23.1145 297.787 22.6667 298.339 22.6667H299.339Z" fill="black" fill-opacity="0.96"/>
<path fill-rule="evenodd" clip-rule="evenodd" d="M311.287 30.9267C312.568 29.8444 314.444 29.8444 315.725 30.9267C315.789 30.9849 315.826 31.0675 315.828 31.1542C315.83 31.2409 315.795 31.324 315.733 31.3847L313.729 33.4072C313.67 33.4666 313.589 33.4999 313.506 33.4999C313.422 33.4999 313.342 33.4666 313.283 33.4072L311.277 31.3847C311.216 31.324 311.182 31.2407 311.184 31.1542C311.185 31.0675 311.223 30.9848 311.287 30.9267ZM308.611 28.2294C311.37 25.665 315.643 25.6651 318.402 28.2294C318.465 28.2896 318.5 28.3724 318.501 28.4589C318.502 28.5453 318.468 28.6281 318.407 28.6894L317.248 29.8603C317.129 29.9796 316.936 29.9814 316.813 29.8652C315.907 29.0454 314.728 28.5917 313.506 28.5917C312.284 28.5923 311.107 29.0461 310.201 29.8652C310.079 29.9815 309.885 29.9798 309.766 29.8603L308.607 28.6894C308.546 28.6282 308.512 28.5453 308.513 28.4589C308.514 28.3724 308.549 28.2895 308.611 28.2294ZM305.936 25.539C310.167 21.4869 316.843 21.4871 321.075 25.539C321.136 25.5992 321.171 25.6817 321.172 25.7675C321.172 25.8533 321.139 25.9361 321.078 25.997L319.918 27.1669C319.798 27.287 319.604 27.2881 319.482 27.1699C317.87 25.6384 315.73 24.7842 313.506 24.7841C311.281 24.7841 309.141 25.6382 307.528 27.1699C307.407 27.2882 307.213 27.287 307.094 27.1669L305.933 25.997C305.872 25.9361 305.838 25.8532 305.839 25.7675C305.839 25.6817 305.874 25.5991 305.936 25.539Z" fill="black" fill-opacity="0.96"/>
<rect opacity="0.35" x="327.172" y="22.8333" width="21" height="10.3333" rx="3.5" stroke="black" stroke-opacity="0.96"/>
<path opacity="0.4" d="M349.672 26V30C350.477 29.6612 351 28.8731 351 28C351 27.1269 350.477 26.3388 349.672 26Z" fill="black" fill-opacity="0.96"/>
<rect x="328.672" y="24.3333" width="18" height="7.33333" rx="2.3" fill="black" fill-opacity="0.96"/>
<g clip-path="url(#clip4_17453_7529)">
<path d="M30.2934 75.2928L38.2942 67.292L39.7086 68.7063L32.4149 76L39.7086 83.2936L38.2942 84.708L30.2934 76.7072C29.9028 76.3166 29.9028 75.6834 30.2934 75.2928Z" fill="black" fill-opacity="0.64"/>
</g>
<path d="M35.424 138.28C29.292 138.28 25.288 133.884 25.288 128.116V127.892C25.288 122.04 29.488 117.7 35.424 117.7C41.388 117.7 45.504 121.928 45.504 127.808V128.032C45.504 133.884 41.5 138.28 35.424 138.28ZM35.48 135.284C39.26 135.284 41.64 132.4 41.64 128.06V127.836C41.64 123.72 39.344 120.668 35.424 120.668C31.504 120.668 29.18 123.552 29.18 127.864V128.088C29.18 132.456 31.84 135.284 35.48 135.284ZM47.9807 138V123.356H51.3687V125.68C52.0687 124.252 53.6927 123.048 56.1007 123.048C59.0407 123.048 61.1127 124.756 61.1127 128.788V138H57.7247V129.096C57.7247 126.884 56.8287 125.876 54.8127 125.876C52.9087 125.876 51.3687 127.052 51.3687 129.376V138H47.9807ZM69.6638 138.28C65.9958 138.28 63.2238 135.676 63.2238 130.916V130.692C63.2238 126.016 65.9958 123.048 69.8038 123.048C72.1838 123.048 73.6678 124.14 74.4798 125.596V116.58H77.8678V138H74.4798V135.536C73.6958 136.992 71.8198 138.28 69.6638 138.28ZM70.5038 135.592C72.8558 135.592 74.5918 134.024 74.5918 130.748V130.524C74.5918 127.304 73.1078 125.708 70.6438 125.708C68.1518 125.708 66.6958 127.444 66.6958 130.608V130.832C66.6958 134.052 68.3198 135.592 70.5038 135.592ZM87.4946 138.28C83.1826 138.28 80.0746 135.452 80.0746 130.832V130.608C80.0746 126.072 83.1826 123.048 87.3546 123.048C90.9946 123.048 94.2706 125.204 94.2706 130.44V131.42H83.5466C83.6586 134.192 85.0586 135.76 87.5786 135.76C89.6226 135.76 90.6866 134.948 90.9386 133.52H94.2146C93.7386 136.6 91.2466 138.28 87.4946 138.28ZM83.6026 129.152H90.9106C90.7426 126.632 89.4546 125.512 87.3546 125.512C85.3106 125.512 83.9386 126.884 83.6026 129.152ZM106.125 138L100.777 123.356H104.417L108.253 134.528L112.033 123.356H115.365L110.073 138H106.125ZM123.012 138.28C118.7 138.28 115.508 135.284 115.508 130.832V130.608C115.508 126.072 118.728 123.048 123.04 123.048C127.324 123.048 130.544 126.044 130.544 130.524V130.748C130.544 135.312 127.324 138.28 123.012 138.28ZM123.04 135.648C125.56 135.648 127.072 133.772 127.072 130.776V130.58C127.072 127.556 125.56 125.708 123.04 125.708C120.52 125.708 118.98 127.528 118.98 130.552V130.776C118.98 133.772 120.464 135.648 123.04 135.648ZM139.177 138.28C134.977 138.28 131.785 135.536 131.785 130.86V130.636C131.785 125.988 135.089 123.048 139.177 123.048C142.425 123.048 145.477 124.504 145.869 128.536H142.593C142.313 126.576 141.025 125.764 139.233 125.764C136.909 125.764 135.257 127.556 135.257 130.58V130.804C135.257 133.996 136.825 135.676 139.317 135.676C141.109 135.676 142.649 134.612 142.845 132.54H145.953C145.701 135.9 143.153 138.28 139.177 138.28ZM149.766 121.144L152.958 116.916H155.646L158.754 121.144H156.346L154.246 119.24L152.118 121.144H149.766ZM154.47 138.28C150.158 138.28 147.05 135.452 147.05 130.832V130.608C147.05 126.072 150.158 123.048 154.33 123.048C157.97 123.048 161.246 125.204 161.246 130.44V131.42H150.522C150.634 134.192 152.034 135.76 154.554 135.76C156.598 135.76 157.662 134.948 157.914 133.52H161.19C160.714 136.6 158.222 138.28 154.47 138.28ZM150.578 129.152H157.886C157.718 126.632 156.43 125.512 154.33 125.512C152.286 125.512 150.914 126.884 150.578 129.152ZM179.568 143.012V135.592C178.784 136.992 176.908 138.28 174.752 138.28C171.084 138.28 168.312 135.676 168.312 130.916V130.692C168.312 126.016 171.084 123.048 174.892 123.048C177.272 123.048 178.756 124.14 179.568 125.596V123.356H182.956V143.012H179.568ZM175.592 135.592C177.944 135.592 179.68 134.024 179.68 130.748V130.524C179.68 127.304 178.196 125.708 175.732 125.708C173.24 125.708 171.784 127.444 171.784 130.608V130.832C171.784 134.052 173.408 135.592 175.592 135.592ZM191.043 138.28C188.159 138.28 186.003 136.628 186.003 132.736V123.356H189.391V132.344C189.391 134.556 190.315 135.564 192.275 135.564C194.095 135.564 195.691 134.388 195.691 132.064V123.356H199.079V138H195.691V135.704C194.963 137.132 193.423 138.28 191.043 138.28ZM208.696 138.28C204.384 138.28 201.276 135.452 201.276 130.832V130.608C201.276 126.072 204.384 123.048 208.556 123.048C212.196 123.048 215.472 125.204 215.472 130.44V131.42H204.748C204.86 134.192 206.26 135.76 208.78 135.76C210.824 135.76 211.888 134.948 212.14 133.52H215.416C214.94 136.6 212.448 138.28 208.696 138.28ZM204.804 129.152H212.112C211.944 126.632 210.656 125.512 208.556 125.512C206.512 125.512 205.14 126.884 204.804 129.152ZM217.659 138V123.356H221.047V126.1C221.971 124.252 223.343 123.16 225.807 123.132V126.296C222.839 126.324 221.047 127.276 221.047 130.384V138H217.659ZM233.779 138V123.356H237.167V126.1C238.091 124.252 239.463 123.16 241.927 123.132V126.296C238.959 126.324 237.167 127.276 237.167 130.384V138H233.779ZM250.207 138.28C245.895 138.28 242.787 135.452 242.787 130.832V130.608C242.787 126.072 245.895 123.048 250.067 123.048C253.707 123.048 256.983 125.204 256.983 130.44V131.42H246.259C246.371 134.192 247.771 135.76 250.291 135.76C252.335 135.76 253.399 134.948 253.651 133.52H256.927C256.451 136.6 253.959 138.28 250.207 138.28ZM246.315 129.152H253.623C253.455 126.632 252.167 125.512 250.067 125.512C248.023 125.512 246.651 126.884 246.315 129.152ZM265.582 138.28C261.382 138.28 258.19 135.536 258.19 130.86V130.636C258.19 125.988 261.494 123.048 265.582 123.048C268.83 123.048 271.882 124.504 272.274 128.536H268.998C268.718 126.576 267.43 125.764 265.638 125.764C263.314 125.764 261.662 127.556 261.662 130.58V130.804C261.662 133.996 263.23 135.676 265.722 135.676C267.514 135.676 269.054 134.612 269.25 132.54H272.358C272.106 135.9 269.558 138.28 265.582 138.28ZM280.875 138.28C276.563 138.28 273.455 135.452 273.455 130.832V130.608C273.455 126.072 276.563 123.048 280.735 123.048C284.375 123.048 287.651 125.204 287.651 130.44V131.42H276.927C277.039 134.192 278.439 135.76 280.959 135.76C283.003 135.76 284.067 134.948 284.319 133.52H287.595C287.119 136.6 284.627 138.28 280.875 138.28ZM276.983 129.152H284.291C284.123 126.632 282.835 125.512 280.735 125.512C278.691 125.512 277.319 126.884 276.983 129.152ZM298.013 138.28C295.689 138.28 294.009 137.132 293.225 135.648V138H289.837V116.58H293.225V125.708C294.037 124.308 295.857 123.048 298.013 123.048C301.681 123.048 304.509 125.764 304.509 130.496V130.72C304.509 135.424 301.793 138.28 298.013 138.28ZM297.173 135.592C299.665 135.592 301.037 133.912 301.037 130.776V130.552C301.037 127.304 299.357 125.708 297.145 125.708C294.793 125.708 293.113 127.304 293.113 130.552V130.776C293.113 134.052 294.709 135.592 297.173 135.592ZM313.156 138.28C308.844 138.28 305.736 135.452 305.736 130.832V130.608C305.736 126.072 308.844 123.048 313.016 123.048C316.656 123.048 319.932 125.204 319.932 130.44V131.42H309.208C309.32 134.192 310.72 135.76 313.24 135.76C315.284 135.76 316.348 134.948 316.6 133.52H319.876C319.4 136.6 316.908 138.28 313.156 138.28ZM309.264 129.152H316.572C316.404 126.632 315.116 125.512 313.016 125.512C310.972 125.512 309.6 126.884 309.264 129.152ZM322.118 138V123.356H325.506V126.1C326.43 124.252 327.802 123.16 330.266 123.132V126.296C327.298 126.324 325.506 127.276 325.506 130.384V138H322.118ZM31.028 172.28C27.248 172.28 25.036 170.544 24.896 167.436H28.088C28.256 168.92 29.012 169.788 31 169.788C32.82 169.788 33.632 169.144 33.632 167.912C33.632 166.708 32.652 166.26 30.496 165.896C26.632 165.28 25.204 164.188 25.204 161.444C25.204 158.504 27.948 157.048 30.692 157.048C33.688 157.048 36.068 158.168 36.432 161.472H33.296C33.016 160.128 32.26 159.512 30.692 159.512C29.236 159.512 28.368 160.212 28.368 161.248C28.368 162.312 29.068 162.732 31.392 163.124C34.836 163.656 36.88 164.496 36.88 167.604C36.88 170.572 34.78 172.28 31.028 172.28ZM43.9119 172.28C41.0279 172.28 38.8719 170.628 38.8719 166.736V157.356H42.2599V166.344C42.2599 168.556 43.1839 169.564 45.1439 169.564C46.9639 169.564 48.5599 168.388 48.5599 166.064V157.356H51.9479V172H48.5599V169.704C47.8319 171.132 46.2919 172.28 43.9119 172.28ZM58.9611 172.28C56.2731 172.28 54.0611 170.992 54.0611 167.94C54.0611 164.524 57.3651 163.292 61.5651 163.292H63.3851V162.536C63.3851 160.576 62.7131 159.596 60.7251 159.596C58.9611 159.596 58.0931 160.436 57.9251 161.892H54.6491C54.9291 158.476 57.6451 157.048 60.9211 157.048C64.1971 157.048 66.7731 158.392 66.7731 162.396V172H63.4411V170.208C62.4891 171.468 61.2011 172.28 58.9611 172.28ZM59.7731 169.844C61.8451 169.844 63.3851 168.752 63.3851 166.876V165.42H61.6491C59.0731 165.42 57.4211 166.008 57.4211 167.8C57.4211 169.032 58.0931 169.844 59.7731 169.844ZM75.6482 172V157.356H79.0362V160.1C79.9602 158.252 81.3322 157.16 83.7962 157.132V160.296C80.8282 160.324 79.0362 161.276 79.0362 164.384V172H75.6482ZM92.1603 172.28C87.8483 172.28 84.6563 169.284 84.6563 164.832V164.608C84.6563 160.072 87.8763 157.048 92.1883 157.048C96.4723 157.048 99.6923 160.044 99.6923 164.524V164.748C99.6923 169.312 96.4723 172.28 92.1603 172.28ZM92.1883 169.648C94.7083 169.648 96.2203 167.772 96.2203 164.776V164.58C96.2203 161.556 94.7083 159.708 92.1883 159.708C89.6683 159.708 88.1283 161.528 88.1283 164.552V164.776C88.1283 167.772 89.6123 169.648 92.1883 169.648ZM99.5558 172L104.652 164.496L99.8918 157.356H103.812L106.864 162.088L109.888 157.356H113.444L108.712 164.244L113.948 172H110L106.584 166.708L103.084 172H99.5558ZM117.438 154.948C116.318 154.948 115.422 154.108 115.422 153.016C115.422 151.896 116.318 151.056 117.438 151.056C118.558 151.056 119.454 151.896 119.454 153.016C119.454 154.108 118.558 154.948 117.438 154.948ZM115.786 172V157.356H119.174V172H115.786ZM122.464 172V157.356H125.852V159.68C126.552 158.252 128.176 157.048 130.584 157.048C133.524 157.048 135.596 158.756 135.596 162.788V172H132.208V163.096C132.208 160.884 131.312 159.876 129.296 159.876C127.392 159.876 125.852 161.052 125.852 163.376V172H122.464ZM138.659 172V150.58H142.047V159.68C142.747 158.252 144.371 157.048 146.779 157.048C149.719 157.048 151.791 158.756 151.791 162.788V172H148.403V163.096C148.403 160.884 147.507 159.876 145.491 159.876C143.587 159.876 142.047 161.052 142.047 163.376V172H138.659ZM158.69 172.28C156.002 172.28 153.79 170.992 153.79 167.94C153.79 164.524 157.094 163.292 161.294 163.292H163.114V162.536C163.114 160.576 162.442 159.596 160.454 159.596C158.69 159.596 157.822 160.436 157.654 161.892H154.378C154.658 158.476 157.374 157.048 160.65 157.048C163.926 157.048 166.502 158.392 166.502 162.396V172H163.17V170.208C162.218 171.468 160.93 172.28 158.69 172.28ZM159.502 169.844C161.574 169.844 163.114 168.752 163.114 166.876V165.42H161.378C158.802 165.42 157.15 166.008 157.15 167.8C157.15 169.032 157.822 169.844 159.502 169.844ZM171.883 165.98V164.916C171.883 162.704 173.367 161.332 174.711 160.016C175.747 158.98 176.671 158.056 176.671 156.852C176.671 155.424 175.887 154.5 174.179 154.5C172.443 154.5 171.239 155.732 171.043 157.664H167.795C167.991 153.996 170.595 151.7 174.347 151.7C178.351 151.7 180.227 153.884 180.227 156.6C180.227 158.588 179.023 159.876 177.763 161.108C176.447 162.368 175.103 163.516 175.019 165.084V165.98H171.883ZM173.423 172.196C172.163 172.196 171.127 171.244 171.127 170.04C171.127 168.808 172.163 167.856 173.423 167.856C174.655 167.856 175.663 168.808 175.663 170.04C175.663 171.244 174.655 172.196 173.423 172.196Z" fill="black" fill-opacity="0.96"/>
<path d="M303 530C303 516.745 313.745 506 327 506C340.255 506 351 516.745 351 530C351 543.255 340.255 554 327 554C313.745 554 303 543.255 303 530Z" fill="#EFEFEF"/>
<path d="M327 522L325.59 523.41L331.17 529H319V531H331.17L325.59 536.59L327 538L334.293 530.707C334.683 530.317 334.683 529.683 334.293 529.293L327 522Z" fill="black" fill-opacity="0.32"/>
</g>
<defs>
<filter id="filter0_d_17453_7529" x="253" y="579.5" width="114" height="45" filterUnits="userSpaceOnUse" color-interpolation-filters="sRGB">
<feFlood flood-opacity="0" result="BackgroundImageFix"/>
<feColorMatrix in="SourceAlpha" type="matrix" values="0 0 0 0 0 0 0 0 0 0 0 0 0 0 0 0 0 0 127 0" result="hardAlpha"/>
<feOffset dy="1"/>
<feColorMatrix type="matrix" values="0 0 0 0 0 0 0 0 0 0 0 0 0 0 0 0 0 0 0.35 0"/>
<feBlend mode="normal" in2="BackgroundImageFix" result="effect1_dropShadow_17453_7529"/>
<feBlend mode="normal" in="SourceGraphic" in2="effect1_dropShadow_17453_7529" result="shape"/>
</filter>
<filter id="filter1_d_17453_7529" x="130" y="579.5" width="115" height="45" filterUnits="userSpaceOnUse" color-interpolation-filters="sRGB">
<feFlood flood-opacity="0" result="BackgroundImageFix"/>
<feColorMatrix in="SourceAlpha" type="matrix" values="0 0 0 0 0 0 0 0 0 0 0 0 0 0 0 0 0 0 127 0" result="hardAlpha"/>
<feOffset dy="1"/>
<feColorMatrix type="matrix" values="0 0 0 0 0 0 0 0 0 0 0 0 0 0 0 0 0 0 0.35 0"/>
<feBlend mode="normal" in2="BackgroundImageFix" result="effect1_dropShadow_17453_7529"/>
<feBlend mode="normal" in="SourceGraphic" in2="effect1_dropShadow_17453_7529" result="shape"/>
</filter>
<filter id="filter2_d_17453_7529" x="8" y="579.5" width="114" height="45" filterUnits="userSpaceOnUse" color-interpolation-filters="sRGB">
<feFlood flood-opacity="0" result="BackgroundImageFix"/>
<feColorMatrix in="SourceAlpha" type="matrix" values="0 0 0 0 0 0 0 0 0 0 0 0 0 0 0 0 0 0 127 0" result="hardAlpha"/>
<feOffset dy="1"/>
<feColorMatrix type="matrix" values="0 0 0 0 0 0 0 0 0 0 0 0 0 0 0 0 0 0 0.35 0"/>
<feBlend mode="normal" in2="BackgroundImageFix" result="effect1_dropShadow_17453_7529"/>
<feBlend mode="normal" in="SourceGraphic" in2="effect1_dropShadow_17453_7529" result="shape"/>
</filter>
<filter id="filter3_d_17453_7529" x="253" y="631.5" width="114" height="45" filterUnits="userSpaceOnUse" color-interpolation-filters="sRGB">
<feFlood flood-opacity="0" result="BackgroundImageFix"/>
<feColorMatrix in="SourceAlpha" type="matrix" values="0 0 0 0 0 0 0 0 0 0 0 0 0 0 0 0 0 0 127 0" result="hardAlpha"/>
<feOffset dy="1"/>
<feColorMatrix type="matrix" values="0 0 0 0 0 0 0 0 0 0 0 0 0 0 0 0 0 0 0.35 0"/>
<feBlend mode="normal" in2="BackgroundImageFix" result="effect1_dropShadow_17453_7529"/>
<feBlend mode="normal" in="SourceGraphic" in2="effect1_dropShadow_17453_7529" result="shape"/>
</filter>
<filter id="filter4_d_17453_7529" x="130" y="631.5" width="115" height="45" filterUnits="userSpaceOnUse" color-interpolation-filters="sRGB">
<feFlood flood-opacity="0" result="BackgroundImageFix"/>
<feColorMatrix in="SourceAlpha" type="matrix" values="0 0 0 0 0 0 0 0 0 0 0 0 0 0 0 0 0 0 127 0" result="hardAlpha"/>
<feOffset dy="1"/>
<feColorMatrix type="matrix" values="0 0 0 0 0 0 0 0 0 0 0 0 0 0 0 0 0 0 0.35 0"/>
<feBlend mode="normal" in2="BackgroundImageFix" result="effect1_dropShadow_17453_7529"/>
<feBlend mode="normal" in="SourceGraphic" in2="effect1_dropShadow_17453_7529" result="shape"/>
</filter>
<filter id="filter5_d_17453_7529" x="8" y="631.5" width="114" height="45" filterUnits="userSpaceOnUse" color-interpolation-filters="sRGB">
<feFlood flood-opacity="0" result="BackgroundImageFix"/>
<feColorMatrix in="SourceAlpha" type="matrix" values="0 0 0 0 0 0 0 0 0 0 0 0 0 0 0 0 0 0 127 0" result="hardAlpha"/>
<feOffset dy="1"/>
<feColorMatrix type="matrix" values="0 0 0 0 0 0 0 0 0 0 0 0 0 0 0 0 0 0 0.35 0"/>
<feBlend mode="normal" in2="BackgroundImageFix" result="effect1_dropShadow_17453_7529"/>
<feBlend mode="normal" in="SourceGraphic" in2="effect1_dropShadow_17453_7529" result="shape"/>
</filter>
<filter id="filter6_d_17453_7529" x="253" y="683.5" width="114" height="45" filterUnits="userSpaceOnUse" color-interpolation-filters="sRGB">
<feFlood flood-opacity="0" result="BackgroundImageFix"/>
<feColorMatrix in="SourceAlpha" type="matrix" values="0 0 0 0 0 0 0 0 0 0 0 0 0 0 0 0 0 0 127 0" result="hardAlpha"/>
<feOffset dy="1"/>
<feColorMatrix type="matrix" values="0 0 0 0 0 0 0 0 0 0 0 0 0 0 0 0 0 0 0.35 0"/>
<feBlend mode="normal" in2="BackgroundImageFix" result="effect1_dropShadow_17453_7529"/>
<feBlend mode="normal" in="SourceGraphic" in2="effect1_dropShadow_17453_7529" result="shape"/>
</filter>
<filter id="filter7_d_17453_7529" x="130" y="683.5" width="115" height="45" filterUnits="userSpaceOnUse" color-interpolation-filters="sRGB">
<feFlood flood-opacity="0" result="BackgroundImageFix"/>
<feColorMatrix in="SourceAlpha" type="matrix" values="0 0 0 0 0 0 0 0 0 0 0 0 0 0 0 0 0 0 127 0" result="hardAlpha"/>
<feOffset dy="1"/>
<feColorMatrix type="matrix" values="0 0 0 0 0 0 0 0 0 0 0 0 0 0 0 0 0 0 0.35 0"/>
<feBlend mode="normal" in2="BackgroundImageFix" result="effect1_dropShadow_17453_7529"/>
<feBlend mode="normal" in="SourceGraphic" in2="effect1_dropShadow_17453_7529" result="shape"/>
</filter>
<filter id="filter8_d_17453_7529" x="130" y="735.5" width="115" height="45" filterUnits="userSpaceOnUse" color-interpolation-filters="sRGB">
<feFlood flood-opacity="0" result="BackgroundImageFix"/>
<feColorMatrix in="SourceAlpha" type="matrix" values="0 0 0 0 0 0 0 0 0 0 0 0 0 0 0 0 0 0 127 0" result="hardAlpha"/>
<feOffset dy="1"/>
<feColorMatrix type="matrix" values="0 0 0 0 0 0 0 0 0 0 0 0 0 0 0 0 0 0 0.35 0"/>
<feBlend mode="normal" in2="BackgroundImageFix" result="effect1_dropShadow_17453_7529"/>
<feBlend mode="normal" in="SourceGraphic" in2="effect1_dropShadow_17453_7529" result="shape"/>
</filter>
<filter id="filter9_d_17453_7529" x="8" y="683.5" width="114" height="45" filterUnits="userSpaceOnUse" color-interpolation-filters="sRGB">
<feFlood flood-opacity="0" result="BackgroundImageFix"/>
<feColorMatrix in="SourceAlpha" type="matrix" values="0 0 0 0 0 0 0 0 0 0 0 0 0 0 0 0 0 0 127 0" result="hardAlpha"/>
<feOffset dy="1"/>
<feColorMatrix type="matrix" values="0 0 0 0 0 0 0 0 0 0 0 0 0 0 0 0 0 0 0.35 0"/>
<feBlend mode="normal" in2="BackgroundImageFix" result="effect1_dropShadow_17453_7529"/>
<feBlend mode="normal" in="SourceGraphic" in2="effect1_dropShadow_17453_7529" result="shape"/>
</filter>
<clipPath id="clip0_17453_7529">
<rect width="375" height="812" rx="10" fill="white"/>
</clipPath>
<clipPath id="clip1_17453_7529">
<rect width="184" height="34" fill="white" transform="translate(24 216)"/>
</clipPath>
<clipPath id="clip2_17453_7529">
<rect width="184" height="34" fill="white" transform="translate(24 216)"/>
</clipPath>
<clipPath id="clip3_17453_7529">
<rect width="327" height="2" fill="white" transform="translate(24 256)"/>
</clipPath>
<clipPath id="clip4_17453_7529">
<rect width="48" height="48" fill="white" transform="translate(12 52)"/>
</clipPath>
</defs>
</svg>
