<svg width="375" height="812" viewBox="0 0 375 812" fill="none" xmlns="http://www.w3.org/2000/svg">
<g clip-path="url(#clip0_17453_7277)">
<rect width="375" height="812" fill="white"/>
<path d="M55.5 232C55.5 218.745 66.2452 208 79.5 208C92.7548 208 103.5 218.745 103.5 232C103.5 245.255 92.7548 256 79.5 256C66.2452 256 55.5 245.255 55.5 232Z" fill="white"/>
<circle cx="79.5" cy="232" r="4" fill="black" fill-opacity="0.64"/>
<path d="M127.5 232C127.5 218.745 138.245 208 151.5 208C164.755 208 175.5 218.745 175.5 232C175.5 245.255 164.755 256 151.5 256C138.245 256 127.5 245.255 127.5 232Z" fill="white"/>
<circle cx="151.5" cy="232" r="4" fill="black" fill-opacity="0.32"/>
<path d="M199.5 232C199.5 218.745 210.245 208 223.5 208C236.755 208 247.5 218.745 247.5 232C247.5 245.255 236.755 256 223.5 256C210.245 256 199.5 245.255 199.5 232Z" fill="white"/>
<circle cx="223.5" cy="232" r="4" fill="black" fill-opacity="0.32"/>
<path d="M271.5 232C271.5 218.745 282.245 208 295.5 208C308.755 208 319.5 218.745 319.5 232C319.5 245.255 308.755 256 295.5 256C282.245 256 271.5 245.255 271.5 232Z" fill="white"/>
<circle cx="295.5" cy="232" r="4" fill="black" fill-opacity="0.32"/>
<rect width="375" height="216" transform="translate(0 598)" fill="#D0D5DB"/>
<g filter="url(#filter0_d_17453_7277)">
<path d="M253 611.5C253 609.291 254.791 607.5 257 607.5H363C365.209 607.5 367 609.291 367 611.5V647.5C367 649.709 365.209 651.5 363 651.5H257C254.791 651.5 253 649.709 253 647.5V611.5Z" fill="white"/>
</g>
<g filter="url(#filter1_d_17453_7277)">
<path d="M130 611.5C130 609.291 131.791 607.5 134 607.5H241C243.209 607.5 245 609.291 245 611.5V647.5C245 649.709 243.209 651.5 241 651.5H134C131.791 651.5 130 649.709 130 647.5V611.5Z" fill="white"/>
</g>
<g filter="url(#filter2_d_17453_7277)">
<path d="M8 611.5C8 609.291 9.79086 607.5 12 607.5H118C120.209 607.5 122 609.291 122 611.5V647.5C122 649.709 120.209 651.5 118 651.5H12C9.79086 651.5 8 649.709 8 647.5V611.5Z" fill="white"/>
</g>
<g filter="url(#filter3_d_17453_7277)">
<path d="M253 663.5C253 661.291 254.791 659.5 257 659.5H363C365.209 659.5 367 661.291 367 663.5V699.5C367 701.709 365.209 703.5 363 703.5H257C254.791 703.5 253 701.709 253 699.5V663.5Z" fill="white"/>
</g>
<g filter="url(#filter4_d_17453_7277)">
<path d="M130 663.5C130 661.291 131.791 659.5 134 659.5H241C243.209 659.5 245 661.291 245 663.5V699.5C245 701.709 243.209 703.5 241 703.5H134C131.791 703.5 130 701.709 130 699.5V663.5Z" fill="white"/>
</g>
<g filter="url(#filter5_d_17453_7277)">
<path d="M8 663.5C8 661.291 9.79086 659.5 12 659.5H118C120.209 659.5 122 661.291 122 663.5V699.5C122 701.709 120.209 703.5 118 703.5H12C9.79086 703.5 8 701.709 8 699.5V663.5Z" fill="white"/>
</g>
<g filter="url(#filter6_d_17453_7277)">
<path d="M253 715.5C253 713.291 254.791 711.5 257 711.5H363C365.209 711.5 367 713.291 367 715.5V751.5C367 753.709 365.209 755.5 363 755.5H257C254.791 755.5 253 753.709 253 751.5V715.5Z" fill="white"/>
</g>
<g filter="url(#filter7_d_17453_7277)">
<path d="M130 715.5C130 713.291 131.791 711.5 134 711.5H241C243.209 711.5 245 713.291 245 715.5V751.5C245 753.709 243.209 755.5 241 755.5H134C131.791 755.5 130 753.709 130 751.5V715.5Z" fill="white"/>
</g>
<g filter="url(#filter8_d_17453_7277)">
<path d="M130 767.5C130 765.291 131.791 763.5 134 763.5H241C243.209 763.5 245 765.291 245 767.5V803.5C245 805.709 243.209 807.5 241 807.5H134C131.791 807.5 130 805.709 130 803.5V767.5Z" fill="white"/>
</g>
<g filter="url(#filter9_d_17453_7277)">
<path d="M8 715.5C8 713.291 9.79086 711.5 12 711.5H118C120.209 711.5 122 713.291 122 715.5V751.5C122 753.709 120.209 755.5 118 755.5H12C9.79086 755.5 8 753.709 8 751.5V715.5Z" fill="white"/>
</g>
<path fill-rule="evenodd" clip-rule="evenodd" d="M317.274 776.5C319.331 776.503 320.997 778.169 321 780.226V789.775C320.997 791.832 319.331 793.498 317.274 793.501H307.694C306.531 793.504 305.414 793.042 304.594 792.216L298.439 786.061C297.854 785.475 297.854 784.526 298.439 783.94L304.599 777.785C305.417 776.961 306.532 776.498 307.694 776.5H317.274ZM307.694 778C306.929 777.999 306.195 778.303 305.654 778.845L299.499 785.001L305.659 791.156C306.199 791.696 306.931 792 307.694 792.001H317.274C318.503 792.001 319.5 791.004 319.5 789.775V780.226C319.5 779.635 319.266 779.069 318.849 778.651C318.431 778.234 317.865 778 317.274 778H307.694ZM308.69 781.221C308.921 781.167 309.163 781.248 309.315 781.431L311.999 784.12L314.685 781.431C314.928 781.189 315.321 781.189 315.565 781.431C315.682 781.548 315.748 781.707 315.748 781.873C315.748 782.039 315.682 782.198 315.565 782.315L312.88 785L315.565 787.686C315.77 787.934 315.754 788.298 315.525 788.526C315.297 788.754 314.933 788.771 314.685 788.565L311.999 785.881L309.315 788.565C309.163 788.748 308.921 788.83 308.69 788.775C308.459 788.721 308.279 788.541 308.225 788.31C308.171 788.079 308.252 787.837 308.435 787.686L311.119 785L308.435 782.311C308.252 782.159 308.171 781.917 308.225 781.687C308.279 781.455 308.459 781.275 308.69 781.221Z" fill="#030303"/>
<path d="M187.012 794.898C183.203 794.898 181.012 791.664 181.012 786.039C181.012 780.461 183.227 777.191 187.012 777.191C190.773 777.191 192.988 780.473 192.988 786.074C192.988 791.688 190.809 794.898 187.012 794.898ZM187.012 793.059C189.508 793.059 190.867 790.574 190.867 786.039C190.867 781.551 189.484 779.043 187.012 779.043C184.539 779.043 183.133 781.574 183.133 786.039C183.133 790.562 184.516 793.059 187.012 793.059Z" fill="#030303"/>
<path d="M296.291 742.382L294.507 748.5H293.594L291.483 740.75H292.493L294.035 747.05H294.099L295.834 740.75H296.812L298.546 747.05H298.611L300.152 740.75H301.162L299.051 748.5H298.138L296.355 742.382H296.291ZM303.129 748.5L305.782 744.601L303.161 740.75H304.327L306.368 743.833H306.454L308.527 740.75H309.628L306.942 744.644L309.569 748.5H308.409L306.378 745.444H306.292L304.225 748.5H303.129ZM315.204 748.5H314.237V745.165L311.487 740.75H312.588L314.678 744.192H314.764L316.853 740.75H317.954L315.204 745.165V748.5ZM320.104 748.5V747.812L324.492 741.706V741.62H320.254V740.75H325.743V741.437L321.376 747.544V747.63H325.834V748.5H320.104Z" fill="#030303"/>
<path d="M309.637 734.887C306.766 734.887 304.621 733.223 304.094 730.562H306.262C306.707 732.086 307.996 733.012 309.66 733.012C312.414 733.012 313.973 730.574 314.09 726.074H313.902C313.07 727.715 311.418 728.676 309.402 728.676C306.18 728.676 303.848 726.297 303.848 723.016C303.848 719.617 306.309 717.191 309.777 717.191C313.422 717.191 316.141 719.992 316.141 725.746C316.141 731.559 313.773 734.887 309.637 734.887ZM309.777 726.848C312.016 726.848 313.621 725.254 313.621 723.016C313.621 720.754 311.969 719.043 309.801 719.043C307.633 719.043 305.98 720.73 305.98 722.945C305.98 725.254 307.539 726.848 309.777 726.848Z" fill="#030303"/>
<path d="M177.969 748.5H177.002V741.62H174.505V740.75H180.467V741.62H177.969V748.5ZM183.916 740.75V745.771C183.916 746.942 184.684 747.791 186.027 747.791C187.37 747.791 188.138 746.942 188.138 745.771V740.75H189.104V745.836C189.104 747.49 187.95 748.683 186.027 748.683C184.104 748.683 182.949 747.49 182.949 745.836V740.75H183.916ZM195.266 748.5H194.31L191.453 740.75H192.468L194.745 747.249H194.831L197.108 740.75H198.124L195.266 748.5Z" fill="#030303"/>
<path d="M187 734.898C183.414 734.898 180.906 732.871 180.906 729.977C180.906 727.773 182.301 726.062 184.422 725.664V725.477C182.699 725.008 181.598 723.543 181.598 721.703C181.598 719.066 183.836 717.191 187 717.191C190.164 717.191 192.402 719.066 192.402 721.703C192.402 723.555 191.324 724.996 189.578 725.477V725.664C191.699 726.062 193.094 727.773 193.094 729.977C193.094 732.871 190.586 734.898 187 734.898ZM187 733.094C189.344 733.094 190.961 731.758 190.961 729.824C190.961 727.891 189.344 726.555 187 726.555C184.656 726.555 183.039 727.891 183.039 729.824C183.039 731.758 184.656 733.094 187 733.094ZM187 724.773C188.992 724.773 190.328 723.625 190.328 721.902C190.328 720.156 189.004 718.996 187 718.996C184.996 718.996 183.672 720.156 183.672 721.902C183.672 723.625 185.008 724.773 187 724.773Z" fill="#030303"/>
<path d="M48.9883 740.75H51.9155C53.3818 740.75 54.397 741.781 54.397 743.258C54.397 744.708 53.3604 745.734 51.9048 745.734H49.9551V748.5H48.9883V740.75ZM49.9551 741.609V744.875H51.6631C52.7642 744.875 53.4033 744.284 53.4033 743.258C53.4033 742.194 52.7856 741.609 51.6631 741.609H49.9551ZM60.2417 748.683C58.0342 748.683 56.6807 747.141 56.6807 744.627C56.6807 742.125 58.0503 740.567 60.2417 740.567C62.4224 740.567 63.7866 742.13 63.7866 744.627C63.7866 746.169 63.2925 747.377 62.4116 748.011L63.3945 749.375H62.3096L61.6274 748.446C61.2139 748.602 60.7412 748.683 60.2417 748.683ZM60.2471 747.791C60.5317 747.791 60.8057 747.753 61.0742 747.673L60.0483 746.282H61.144L61.8477 747.216C62.4546 746.733 62.793 745.809 62.793 744.627C62.793 742.683 61.8101 741.458 60.2417 741.458C58.6626 741.458 57.6743 742.678 57.6743 744.627C57.6743 746.583 58.6572 747.791 60.2471 747.791ZM67.4346 741.609V744.574H69.3413C70.335 744.574 70.8989 744.042 70.8989 743.091C70.8989 742.162 70.2974 741.609 69.2983 741.609H67.4346ZM67.4346 745.433V748.5H66.4678V740.75H69.4272C70.9204 740.75 71.8979 741.663 71.8979 743.059C71.8979 744.139 71.3125 744.977 70.3403 745.283L72.1343 748.5H71.001L69.3413 745.433H67.4346ZM74.2837 746.475H75.2612C75.3794 747.286 76.1528 747.802 77.2539 747.802C78.2959 747.802 79.064 747.238 79.064 746.47C79.064 745.809 78.5806 745.39 77.5117 745.122L76.5181 744.864C75.1162 744.509 74.5093 743.875 74.5093 742.774C74.5093 741.458 75.6104 740.567 77.2485 740.567C78.7471 740.567 79.8643 741.458 79.9448 742.71H78.9727C78.8384 741.915 78.1831 741.442 77.2163 741.442C76.1851 741.442 75.5029 741.958 75.5029 742.742C75.5029 743.349 75.9272 743.698 76.9961 743.972L77.8071 744.187C79.4131 744.59 80.0576 745.213 80.0576 746.352C80.0576 747.775 78.9351 748.683 77.1626 748.683C75.519 748.683 74.3857 747.812 74.2837 746.475Z" fill="#030303"/>
<path d="M60.7461 734.5L68.3398 719.641V719.477H59.293V717.59H70.4844V719.547L62.9609 734.5H60.7461Z" fill="#030303"/>
<path d="M304.626 696.5H303.724V690.581H303.659L301.215 696.5H300.399L297.955 690.581H297.891V696.5H296.988V688.75H298.111L300.764 695.216H300.85L303.503 688.75H304.626V696.5ZM308.559 696.5H307.603V688.75H308.542L312.748 694.781H312.834V688.75H313.79V696.5H312.85L308.645 690.49H308.559V696.5ZM320.021 688.567C322.224 688.567 323.577 690.135 323.577 692.622C323.577 695.098 322.234 696.683 320.021 696.683C317.798 696.683 316.466 695.104 316.466 692.622C316.466 690.13 317.83 688.567 320.021 688.567ZM320.021 689.458C318.442 689.458 317.459 690.683 317.459 692.622C317.459 694.545 318.41 695.791 320.021 695.791C321.611 695.791 322.583 694.545 322.583 692.622C322.583 690.683 321.606 689.458 320.021 689.458Z" fill="#030303"/>
<path d="M310.211 682.887C306.531 682.887 303.848 680.027 303.848 674.332C303.848 668.52 306.355 665.191 310.352 665.191C313.434 665.191 315.461 666.891 315.895 669.516H313.727C313.375 667.945 312.133 667.066 310.422 667.066C307.609 667.066 305.969 669.41 305.898 674.004H306.086C306.918 672.363 308.57 671.402 310.586 671.402C313.809 671.402 316.141 673.781 316.141 677.062C316.141 680.461 313.68 682.887 310.211 682.887ZM310.188 681.035C312.355 681.035 314.008 679.348 314.008 677.133C314.008 674.824 312.449 673.23 310.211 673.23C307.973 673.23 306.367 674.824 306.367 677.062C306.367 679.324 308.02 681.035 310.188 681.035Z" fill="#030303"/>
<path d="M176.462 694.69H177.423C177.445 695.34 177.939 695.791 178.669 695.791C179.497 695.791 179.964 695.286 179.964 694.335V688.75H180.931V694.341C180.931 695.818 180.077 696.683 178.675 696.683C177.375 696.683 176.462 695.877 176.462 694.69ZM184.874 696.5H183.907V688.75H184.874V692.515H184.96L188.354 688.75H189.568L186.469 692.096L189.853 696.5H188.602L185.803 692.767L184.874 693.793V696.5ZM196.863 695.63V696.5H192.158V688.75H193.125V695.63H196.863Z" fill="#030303"/>
<path d="M187.082 682.898C183.883 682.898 181.586 680.93 181.398 678.035H183.473C183.66 679.84 185.113 681.047 187.105 681.047C189.32 681.047 190.785 679.453 190.785 677.086C190.785 674.801 189.32 673.266 187.188 673.266C185.582 673.266 184.316 674.004 183.648 675.258H181.668L182.641 665.59H192.027V667.477H184.293L183.766 672.984H183.953C184.773 671.965 186.027 671.449 187.715 671.449C190.551 671.449 192.895 673.676 192.895 677.027C192.895 680.508 190.539 682.898 187.082 682.898Z" fill="#030303"/>
<path d="M60.4927 693.503C60.4927 695.415 59.1821 696.683 57.2002 696.683C55.0571 696.683 53.6875 695.104 53.6875 692.622C53.6875 690.173 55.0786 688.567 57.2002 688.567C58.9189 688.567 60.165 689.523 60.4443 691.059H59.4614C59.1284 690.012 58.3496 689.458 57.2002 689.458C55.6641 689.458 54.6812 690.694 54.6812 692.622C54.6812 694.577 55.6479 695.791 57.2056 695.791C58.5913 695.791 59.5312 694.905 59.5312 693.594V693.406H57.3506V692.558H60.4927V693.503ZM69.3936 696.5H68.4268V692.971H64.1729V696.5H63.2061V688.75H64.1729V692.101H68.4268V688.75H69.3936V696.5ZM73.3369 696.5H72.3701V688.75H73.3369V696.5Z" fill="#030303"/>
<path d="M66.3867 683V679.496H58.1484V677.574C60.4336 673.742 63.0234 669.617 65.3906 666.09H68.4492V677.609H70.8516V679.496H68.4492V683H66.3867ZM60.3047 677.48V677.621H66.3984V668.047H66.2578C64.3594 670.883 62.1445 674.375 60.3047 677.48Z" fill="#030303"/>
<path d="M298.988 636.75H301.647C303.946 636.75 305.305 638.184 305.305 640.622C305.305 643.066 303.951 644.5 301.647 644.5H298.988V636.75ZM299.955 637.62V643.63H301.583C303.312 643.63 304.316 642.523 304.316 640.633C304.316 638.737 303.301 637.62 301.583 637.62H299.955ZM312.782 643.63V644.5H307.98V636.75H312.782V637.62H308.947V640.106H312.583V640.966H308.947V643.63H312.782ZM316.5 644.5H315.533V636.75H320.238V637.62H316.5V640.284H319.932V641.143H316.5V644.5Z" fill="#030303"/>
<path d="M307.914 622.707V620.902H309.918C311.863 620.902 313.246 619.66 313.246 617.902C313.246 616.32 312.039 615.031 310 615.031C307.961 615.031 306.637 616.074 306.461 617.973H304.41C304.621 615.219 306.719 613.191 310.141 613.191C313.48 613.191 315.402 615.301 315.391 617.668C315.379 619.707 314.113 621.055 312.379 621.559V621.746C314.57 622.098 316.023 623.586 316.023 625.941C316.023 628.777 313.434 630.898 310.07 630.898C306.637 630.898 304.27 629.012 304.117 626.141H306.156C306.344 627.922 307.867 629.059 310.047 629.059C312.273 629.059 313.855 627.781 313.855 625.883C313.855 623.926 312.391 622.707 310.012 622.707H307.914Z" fill="#030303"/>
<path d="M181.026 644.5L180.248 642.282H177.165L176.386 644.5H175.371L178.228 636.75H179.184L182.042 644.5H181.026ZM178.663 638.001L177.449 641.46H179.963L178.749 638.001H178.663ZM187.424 644.5H184.4V636.75H187.365C188.789 636.75 189.659 637.496 189.659 638.683C189.659 639.489 189.068 640.219 188.321 640.354V640.439C189.379 640.574 190.051 641.299 190.051 642.325C190.051 643.689 189.073 644.5 187.424 644.5ZM185.367 637.604V640.09H186.914C188.085 640.09 188.681 639.671 188.681 638.85C188.681 638.06 188.123 637.604 187.161 637.604H185.367ZM185.367 643.646H187.279C188.445 643.646 189.057 643.173 189.057 642.276C189.057 641.379 188.423 640.923 187.188 640.923H185.367V643.646ZM195.75 644.683C193.645 644.683 192.329 643.125 192.329 640.627C192.329 638.125 193.64 636.567 195.745 636.567C197.378 636.567 198.651 637.593 198.882 639.086H197.899C197.641 638.087 196.814 637.458 195.745 637.458C194.257 637.458 193.323 638.683 193.323 640.627C193.323 642.572 194.257 643.791 195.75 643.791C196.83 643.791 197.652 643.238 197.899 642.341H198.882C198.624 643.764 197.399 644.683 195.75 644.683Z" fill="#030303"/>
<path d="M182.027 618.359C182.027 615.348 184.348 613.191 187.582 613.191C190.535 613.191 192.797 615.195 192.797 617.938C192.797 619.883 191.953 621.289 188.906 624.441L185.062 628.414V628.602H193.078V630.5H182.133V629.047L187.852 622.859C190.008 620.527 190.641 619.648 190.641 618.16C190.641 616.367 189.434 615.031 187.441 615.031C185.414 615.031 184.066 616.355 184.066 618.359H182.027Z" fill="#030303"/>
<path d="M65.3281 630.5V615.934H65.1406L60.8398 619.051V616.824L65.3398 613.59H67.4375V630.5H65.3281Z" fill="#030303"/>
<path d="M34.7202 33V24.3354H34.5957L31.9663 26.1812V24.3647L34.7276 22.4312H36.6099V33H34.7202ZM41.9216 33V24.3354H41.7971L39.1677 26.1812V24.3647L41.929 22.4312H43.8113V33H41.9216ZM47.9365 31.5425C47.248 31.5425 46.7646 31.0444 46.7646 30.3853C46.7646 29.7188 47.248 29.228 47.9365 29.228C48.6323 29.228 49.1084 29.7188 49.1084 30.3853C49.1084 31.0444 48.6323 31.5425 47.9365 31.5425ZM47.9365 26.1958C47.248 26.1958 46.7646 25.7051 46.7646 25.0459C46.7646 24.3794 47.248 23.8887 47.9365 23.8887C48.6323 23.8887 49.1084 24.3794 49.1084 25.0459C49.1084 25.7051 48.6323 26.1958 47.9365 26.1958ZM55.0793 33.2637C52.5452 33.2637 51.0437 31.2129 51.0437 27.7046C51.0437 24.2109 52.5671 22.1675 55.0793 22.1675C57.5842 22.1675 59.1077 24.2109 59.1077 27.7192C59.1077 31.2129 57.6062 33.2637 55.0793 33.2637ZM55.0793 31.6963C56.4197 31.6963 57.196 30.3267 57.196 27.7046C57.196 25.0972 56.405 23.7422 55.0793 23.7422C53.7537 23.7422 52.9553 25.1045 52.9553 27.7046C52.9553 30.3267 53.739 31.6963 55.0793 31.6963ZM64.8735 33.2637C62.4492 33.2637 60.7793 32.0039 60.7793 30.1729C60.7793 28.8325 61.6802 27.7705 63.0644 27.4775V27.353C61.9365 27.0747 61.2041 26.1592 61.2041 25.0312C61.2041 23.3613 62.7348 22.1675 64.8808 22.1675C67.0268 22.1675 68.5503 23.3613 68.5503 25.0312C68.5503 26.1665 67.8325 27.0674 66.6972 27.353V27.4775C68.0742 27.7339 68.9824 28.8032 68.9824 30.1655C68.9824 32.0039 67.3125 33.2637 64.8735 33.2637ZM64.8808 31.7915C66.1553 31.7915 67.0268 31.0664 67.0268 30.0117C67.0268 28.957 66.1479 28.2319 64.8808 28.2319C63.6064 28.2319 62.7275 28.957 62.7275 30.0117C62.7275 31.0664 63.6064 31.7915 64.8808 31.7915ZM64.8808 26.7817C65.9502 26.7817 66.6899 26.1445 66.6899 25.2144C66.6899 24.2695 65.9575 23.6177 64.8808 23.6177C63.7969 23.6177 63.0644 24.2695 63.0644 25.2144C63.0644 26.1445 63.8042 26.7817 64.8808 26.7817Z" fill="black" fill-opacity="0.96"/>
<path d="M284.339 29.3336C284.891 29.3336 285.339 29.7814 285.339 30.3336V32.3336C285.339 32.8858 284.891 33.3336 284.339 33.3336H283.339C282.787 33.3336 282.339 32.8858 282.339 32.3336V30.3336C282.339 29.7814 282.787 29.3336 283.339 29.3336H284.339ZM289.006 27.3336C289.558 27.3338 290.006 27.7815 290.006 28.3336V32.3336C290.006 32.8857 289.558 33.3335 289.006 33.3336H288.006C287.454 33.3336 287.006 32.8858 287.006 32.3336V28.3336C287.006 27.7814 287.454 27.3336 288.006 27.3336H289.006ZM293.672 24.9997C294.224 24.9997 294.672 25.4475 294.672 25.9997V32.3336C294.672 32.8858 294.224 33.3336 293.672 33.3336H292.672C292.12 33.3335 291.672 32.8857 291.672 32.3336V25.9997C291.672 25.4476 292.12 24.9998 292.672 24.9997H293.672ZM298.339 22.6667C298.891 22.6667 299.339 23.1144 299.339 23.6667V32.3336C299.339 32.8858 298.891 33.3336 298.339 33.3336H297.339C296.787 33.3336 296.339 32.8858 296.339 32.3336V23.6667C296.339 23.1144 296.787 22.6667 297.339 22.6667H298.339Z" fill="black" fill-opacity="0.96"/>
<path fill-rule="evenodd" clip-rule="evenodd" d="M310.287 30.9267C311.568 29.8444 313.444 29.8444 314.725 30.9267C314.789 30.9849 314.826 31.0675 314.828 31.1542C314.83 31.2409 314.795 31.324 314.733 31.3847L312.729 33.4072C312.67 33.4666 312.589 33.4999 312.506 33.4999C312.422 33.4999 312.342 33.4666 312.283 33.4072L310.277 31.3847C310.216 31.324 310.182 31.2407 310.184 31.1542C310.185 31.0675 310.223 30.9848 310.287 30.9267ZM307.611 28.2294C310.37 25.665 314.643 25.6651 317.402 28.2294C317.465 28.2896 317.5 28.3724 317.501 28.4589C317.502 28.5453 317.468 28.6281 317.407 28.6894L316.248 29.8603C316.129 29.9796 315.936 29.9814 315.813 29.8652C314.907 29.0454 313.728 28.5917 312.506 28.5917C311.284 28.5923 310.107 29.0461 309.201 29.8652C309.079 29.9815 308.885 29.9798 308.766 29.8603L307.607 28.6894C307.546 28.6282 307.512 28.5453 307.513 28.4589C307.514 28.3724 307.549 28.2895 307.611 28.2294ZM304.936 25.539C309.167 21.4869 315.843 21.4871 320.075 25.539C320.136 25.5992 320.171 25.6817 320.172 25.7675C320.172 25.8533 320.139 25.9361 320.078 25.997L318.918 27.1669C318.798 27.287 318.604 27.2881 318.482 27.1699C316.87 25.6384 314.73 24.7842 312.506 24.7841C310.281 24.7841 308.141 25.6382 306.528 27.1699C306.407 27.2882 306.213 27.287 306.094 27.1669L304.933 25.997C304.872 25.9361 304.838 25.8532 304.839 25.7675C304.839 25.6817 304.874 25.5991 304.936 25.539Z" fill="black" fill-opacity="0.96"/>
<rect opacity="0.35" x="326.172" y="22.8333" width="21" height="10.3333" rx="3.5" stroke="black" stroke-opacity="0.96"/>
<path opacity="0.4" d="M348.672 26V30C349.477 29.6612 350 28.8731 350 28C350 27.1269 349.477 26.3388 348.672 26Z" fill="black" fill-opacity="0.96"/>
<rect x="327.672" y="24.3333" width="18" height="7.33333" rx="2.3" fill="black" fill-opacity="0.96"/>
<g clip-path="url(#clip1_17453_7277)">
<path d="M29.2929 75.2929L37.2929 67.2929L38.7071 68.7071L31.4142 76L38.7071 83.2929L37.2929 84.7071L29.2929 76.7071C28.9024 76.3166 28.9024 75.6834 29.2929 75.2929Z" fill="black" fill-opacity="0.64"/>
</g>
<path d="M24.64 130V115.7H28.98C33.96 115.7 36.38 118.54 36.38 122.7V122.88C36.38 127.04 33.96 130 28.94 130H24.64ZM27.3 127.9H28.86C32.06 127.9 33.6 126.06 33.6 122.9V122.74C33.6 119.66 32.2 117.8 28.84 117.8H27.3V127.9ZM39.5573 117.82C38.7573 117.82 38.1173 117.22 38.1173 116.44C38.1173 115.64 38.7573 115.04 39.5573 115.04C40.3573 115.04 40.9973 115.64 40.9973 116.44C40.9973 117.22 40.3573 117.82 39.5573 117.82ZM38.3773 130V119.54H40.7973V130H38.3773ZM47.807 133.84C44.527 133.84 43.047 132.36 42.767 130.36H45.207C45.407 131.4 46.207 132 47.787 132C49.667 132 50.707 131.06 50.707 129.18V127.64C50.127 128.64 48.827 129.58 47.287 129.58C44.667 129.58 42.647 127.62 42.647 124.6V124.46C42.647 121.52 44.647 119.32 47.347 119.32C49.067 119.32 50.107 120.1 50.707 121.14V119.54H53.127V129.22C53.107 132.3 51.047 133.84 47.807 133.84ZM47.887 127.72C49.567 127.72 50.787 126.52 50.787 124.52V124.38C50.787 122.4 49.707 121.22 47.967 121.22C46.167 121.22 45.127 122.52 45.127 124.42V124.58C45.127 126.52 46.327 127.72 47.887 127.72ZM56.8433 117.82C56.0433 117.82 55.4033 117.22 55.4033 116.44C55.4033 115.64 56.0433 115.04 56.8433 115.04C57.6433 115.04 58.2833 115.64 58.2833 116.44C58.2833 117.22 57.6433 117.82 56.8433 117.82ZM55.6633 130V119.54H58.0833V130H55.6633ZM64.193 130.18C62.113 130.18 61.033 129.06 61.033 127.08V121.36H59.633V119.54H61.033V117.24H63.453V119.54H65.753V121.36H63.453V126.86C63.453 127.78 63.893 128.2 64.653 128.2C65.133 128.2 65.493 128.14 65.833 128V129.92C65.453 130.06 64.933 130.18 64.193 130.18ZM72.2158 130.2C69.1358 130.2 66.9158 128.18 66.9158 124.88V124.72C66.9158 121.48 69.1358 119.32 72.1158 119.32C74.7158 119.32 77.0558 120.86 77.0558 124.6V125.3H69.3958C69.4758 127.28 70.4758 128.4 72.2758 128.4C73.7358 128.4 74.4958 127.82 74.6758 126.8H77.0158C76.6758 129 74.8958 130.2 72.2158 130.2ZM69.4358 123.68H74.6558C74.5358 121.88 73.6158 121.08 72.1158 121.08C70.6558 121.08 69.6758 122.06 69.4358 123.68ZM86.763 130.2C84.063 130.2 82.483 128.96 82.383 126.74H84.663C84.783 127.8 85.323 128.42 86.743 128.42C88.043 128.42 88.623 127.96 88.623 127.08C88.623 126.22 87.923 125.9 86.383 125.64C83.623 125.2 82.603 124.42 82.603 122.46C82.603 120.36 84.563 119.32 86.523 119.32C88.663 119.32 90.363 120.12 90.623 122.48H88.383C88.183 121.52 87.643 121.08 86.523 121.08C85.483 121.08 84.863 121.58 84.863 122.32C84.863 123.08 85.363 123.38 87.023 123.66C89.483 124.04 90.943 124.64 90.943 126.86C90.943 128.98 89.443 130.2 86.763 130.2ZM96.1658 130.2C94.1058 130.2 92.5658 129.02 92.5658 126.24V119.54H94.9858V125.96C94.9858 127.54 95.6458 128.26 97.0458 128.26C98.3458 128.26 99.4858 127.42 99.4858 125.76V119.54H101.906V130H99.4858V128.36C98.9658 129.38 97.8658 130.2 96.1658 130.2ZM107.115 130.2C105.195 130.2 103.615 129.28 103.615 127.1C103.615 124.66 105.975 123.78 108.975 123.78H110.275V123.24C110.275 121.84 109.795 121.14 108.375 121.14C107.115 121.14 106.495 121.74 106.375 122.78H104.035C104.235 120.34 106.175 119.32 108.515 119.32C110.855 119.32 112.695 120.28 112.695 123.14V130H110.315V128.72C109.635 129.62 108.715 130.2 107.115 130.2ZM107.695 128.46C109.175 128.46 110.275 127.68 110.275 126.34V125.3H109.035C107.195 125.3 106.015 125.72 106.015 127C106.015 127.88 106.495 128.46 107.695 128.46ZM123.015 130.2C120.315 130.2 118.735 128.96 118.635 126.74H120.915C121.035 127.8 121.575 128.42 122.995 128.42C124.295 128.42 124.875 127.96 124.875 127.08C124.875 126.22 124.175 125.9 122.635 125.64C119.875 125.2 118.855 124.42 118.855 122.46C118.855 120.36 120.815 119.32 122.775 119.32C124.915 119.32 126.615 120.12 126.875 122.48H124.635C124.435 121.52 123.895 121.08 122.775 121.08C121.735 121.08 121.115 121.58 121.115 122.32C121.115 123.08 121.615 123.38 123.275 123.66C125.735 124.04 127.195 124.64 127.195 126.86C127.195 128.98 125.695 130.2 123.015 130.2ZM133.537 130.2C130.457 130.2 128.237 128.18 128.237 124.88V124.72C128.237 121.48 130.457 119.32 133.437 119.32C136.037 119.32 138.377 120.86 138.377 124.6V125.3H130.717C130.797 127.28 131.797 128.4 133.597 128.4C135.057 128.4 135.817 127.82 135.997 126.8H138.337C137.997 129 136.217 130.2 133.537 130.2ZM130.757 123.68H135.977C135.857 121.88 134.937 121.08 133.437 121.08C131.977 121.08 130.997 122.06 130.757 123.68ZM140.138 130V119.54H142.558V121.2C143.058 120.18 144.218 119.32 145.938 119.32C148.038 119.32 149.518 120.54 149.518 123.42V130H147.098V123.64C147.098 122.06 146.458 121.34 145.018 121.34C143.658 121.34 142.558 122.18 142.558 123.84V130H140.138ZM151.906 130V114.7H154.326V121.2C154.826 120.18 155.986 119.32 157.706 119.32C159.806 119.32 161.286 120.54 161.286 123.42V130H158.866V123.64C158.866 122.06 158.226 121.34 156.786 121.34C155.426 121.34 154.326 122.18 154.326 123.84V130H151.906ZM166.414 130.2C164.494 130.2 162.914 129.28 162.914 127.1C162.914 124.66 165.274 123.78 168.274 123.78H169.574V123.24C169.574 121.84 169.094 121.14 167.674 121.14C166.414 121.14 165.794 121.74 165.674 122.78H163.334C163.534 120.34 165.474 119.32 167.814 119.32C170.154 119.32 171.994 120.28 171.994 123.14V130H169.614V128.72C168.934 129.62 168.014 130.2 166.414 130.2ZM166.994 128.46C168.474 128.46 169.574 127.68 169.574 126.34V125.3H168.334C166.494 125.3 165.314 125.72 165.314 127C165.314 127.88 165.794 128.46 166.994 128.46ZM182.654 130.2C180.034 130.2 178.054 128.34 178.054 124.94V124.78C178.054 121.44 180.034 119.32 182.754 119.32C184.454 119.32 185.514 120.1 186.094 121.14V114.7H188.514V130H186.094V128.24C185.534 129.28 184.194 130.2 182.654 130.2ZM183.254 128.28C184.934 128.28 186.174 127.16 186.174 124.82V124.66C186.174 122.36 185.114 121.22 183.354 121.22C181.574 121.22 180.534 122.46 180.534 124.72V124.88C180.534 127.18 181.694 128.28 183.254 128.28ZM195.59 130.2C192.51 130.2 190.29 128.18 190.29 124.88V124.72C190.29 121.48 192.51 119.32 195.49 119.32C198.09 119.32 200.43 120.86 200.43 124.6V125.3H192.77C192.85 127.28 193.85 128.4 195.65 128.4C197.11 128.4 197.87 127.82 198.05 126.8H200.39C200.05 129 198.27 130.2 195.59 130.2ZM192.81 123.68H198.03C197.91 121.88 196.99 121.08 195.49 121.08C194.03 121.08 193.05 122.06 192.81 123.68ZM212.817 130V127.1H205.737V126.16L212.057 115.7H215.397V125.12H217.317V127.1H215.397V130H212.817ZM208.577 125.12H212.857V117.72L208.577 125.12ZM227.255 130.2C224.635 130.2 222.655 128.34 222.655 124.94V124.78C222.655 121.44 224.635 119.32 227.355 119.32C229.055 119.32 230.115 120.1 230.695 121.14V114.7H233.115V130H230.695V128.24C230.135 129.28 228.795 130.2 227.255 130.2ZM227.855 128.28C229.535 128.28 230.775 127.16 230.775 124.82V124.66C230.775 122.36 229.715 121.22 227.955 121.22C226.175 121.22 225.135 122.46 225.135 124.72V124.88C225.135 127.18 226.295 128.28 227.855 128.28ZM235.872 117.98L237.052 114.88H239.732L237.652 117.98H235.872ZM235.652 130V119.54H238.072V130H235.652ZM245.081 133.84C241.801 133.84 240.321 132.36 240.041 130.36H242.481C242.681 131.4 243.481 132 245.061 132C246.941 132 247.981 131.06 247.981 129.18V127.64C247.401 128.64 246.101 129.58 244.561 129.58C241.941 129.58 239.921 127.62 239.921 124.6V124.46C239.921 121.52 241.921 119.32 244.621 119.32C246.341 119.32 247.381 120.1 247.981 121.14V119.54H250.401V129.22C250.381 132.3 248.321 133.84 245.081 133.84ZM245.161 127.72C246.841 127.72 248.061 126.52 248.061 124.52V124.38C248.061 122.4 246.981 121.22 245.241 121.22C243.441 121.22 242.401 122.52 242.401 124.42V124.58C242.401 126.52 243.601 127.72 245.161 127.72ZM254.118 117.82C253.318 117.82 252.678 117.22 252.678 116.44C252.678 115.64 253.318 115.04 254.118 115.04C254.918 115.04 255.558 115.64 255.558 116.44C255.558 117.22 254.918 117.82 254.118 117.82ZM252.938 130V119.54H255.358V130H252.938ZM261.467 130.18C259.387 130.18 258.307 129.06 258.307 127.08V121.36H256.907V119.54H258.307V117.24H260.727V119.54H263.027V121.36H260.727V126.86C260.727 127.78 261.167 128.2 261.927 128.2C262.407 128.2 262.767 128.14 263.107 128V129.92C262.727 130.06 262.207 130.18 261.467 130.18ZM269.55 130.2C266.47 130.2 264.19 128.06 264.19 124.88V124.72C264.19 121.48 266.49 119.32 269.57 119.32C272.63 119.32 274.93 121.46 274.93 124.66V124.82C274.93 128.08 272.63 130.2 269.55 130.2ZM269.57 128.32C271.37 128.32 272.45 126.98 272.45 124.84V124.7C272.45 122.54 271.37 121.22 269.57 121.22C267.77 121.22 266.67 122.52 266.67 124.68V124.84C266.67 126.98 267.73 128.32 269.57 128.32ZM280.316 130.2C277.616 130.2 276.036 128.96 275.936 126.74H278.216C278.336 127.8 278.876 128.42 280.296 128.42C281.596 128.42 282.176 127.96 282.176 127.08C282.176 126.22 281.476 125.9 279.936 125.64C277.176 125.2 276.156 124.42 276.156 122.46C276.156 120.36 278.116 119.32 280.076 119.32C282.216 119.32 283.916 120.12 284.176 122.48H281.936C281.736 121.52 281.196 121.08 280.076 121.08C279.036 121.08 278.416 121.58 278.416 122.32C278.416 123.08 278.916 123.38 280.576 123.66C283.036 124.04 284.496 124.64 284.496 126.86C284.496 128.98 282.996 130.2 280.316 130.2ZM290.585 133.58V119.54H293.005V121.22C293.585 120.22 294.885 119.32 296.425 119.32C299.045 119.32 301.065 121.26 301.065 124.64V124.8C301.065 128.16 299.125 130.2 296.425 130.2C294.765 130.2 293.565 129.38 293.005 128.36V133.58H290.585ZM295.825 128.28C297.605 128.28 298.585 127.08 298.585 124.84V124.68C298.585 122.36 297.385 121.22 295.805 121.22C294.125 121.22 292.925 122.36 292.925 124.68V124.84C292.925 127.18 294.065 128.28 295.825 128.28ZM305.581 130.2C303.661 130.2 302.081 129.28 302.081 127.1C302.081 124.66 304.441 123.78 307.441 123.78H308.741V123.24C308.741 121.84 308.261 121.14 306.841 121.14C305.581 121.14 304.961 121.74 304.841 122.78H302.501C302.701 120.34 304.641 119.32 306.981 119.32C309.321 119.32 311.161 120.28 311.161 123.14V130H308.781V128.72C308.101 129.62 307.181 130.2 305.581 130.2ZM306.161 128.46C307.641 128.46 308.741 127.68 308.741 126.34V125.3H307.501C305.661 125.3 304.481 125.72 304.481 127C304.481 127.88 304.961 128.46 306.161 128.46ZM313.535 130V119.54H315.955V121.5C316.615 120.18 317.595 119.4 319.355 119.38V121.64C317.235 121.66 315.955 122.34 315.955 124.56V130H313.535ZM323.667 130.2C321.747 130.2 320.167 129.28 320.167 127.1C320.167 124.66 322.527 123.78 325.527 123.78H326.827V123.24C326.827 121.84 326.347 121.14 324.927 121.14C323.667 121.14 323.047 121.74 322.927 122.78H320.587C320.787 120.34 322.727 119.32 325.067 119.32C327.407 119.32 329.247 120.28 329.247 123.14V130H326.867V128.72C326.187 129.62 325.267 130.2 323.667 130.2ZM324.247 128.46C325.727 128.46 326.827 127.68 326.827 126.34V125.3H325.587C323.747 125.3 322.567 125.72 322.567 127C322.567 127.88 323.047 128.46 324.247 128.46ZM29.02 154.2C26.02 154.2 23.74 152.24 23.74 148.9V148.74C23.74 145.42 26.1 143.32 29.02 143.32C31.34 143.32 33.52 144.36 33.8 147.24H31.46C31.26 145.84 30.34 145.26 29.06 145.26C27.4 145.26 26.22 146.54 26.22 148.7V148.86C26.22 151.14 27.34 152.34 29.12 152.34C30.4 152.34 31.5 151.58 31.64 150.1H33.86C33.68 152.5 31.86 154.2 29.02 154.2ZM40.2039 154.2C37.1239 154.2 34.8439 152.06 34.8439 148.88V148.72C34.8439 145.48 37.1439 143.32 40.2239 143.32C43.2839 143.32 45.5839 145.46 45.5839 148.66V148.82C45.5839 152.08 43.2839 154.2 40.2039 154.2ZM40.2239 152.32C42.0239 152.32 43.1039 150.98 43.1039 148.84V148.7C43.1039 146.54 42.0239 145.22 40.2239 145.22C38.4239 145.22 37.3239 146.52 37.3239 148.68V148.84C37.3239 150.98 38.3839 152.32 40.2239 152.32ZM47.3705 154V143.54H49.7905V145.2C50.2905 144.18 51.4505 143.32 53.1705 143.32C55.2705 143.32 56.7505 144.54 56.7505 147.42V154H54.3305V147.64C54.3305 146.06 53.6905 145.34 52.2505 145.34C50.8905 145.34 49.7905 146.18 49.7905 147.84V154H47.3705ZM59.5584 154V145.36H58.1384V143.54H59.5584V142.14C59.5584 139.84 60.8184 138.6 63.0384 138.6C63.6384 138.6 63.9784 138.66 64.3584 138.78V140.66C64.0784 140.54 63.7784 140.5 63.3384 140.5C62.3784 140.5 61.9784 141.14 61.9784 142.04V143.54H64.3584V145.36H61.9784V154H59.5584ZM66.9511 141.82C66.1511 141.82 65.5111 141.22 65.5111 140.44C65.5111 139.64 66.1511 139.04 66.9511 139.04C67.7511 139.04 68.3911 139.64 68.3911 140.44C68.3911 141.22 67.7511 141.82 66.9511 141.82ZM65.7711 154V143.54H68.1911V154H65.7711ZM70.7408 154V143.54H73.1608V145.5C73.8208 144.18 74.8008 143.4 76.5608 143.38V145.64C74.4408 145.66 73.1608 146.34 73.1608 148.56V154H70.7408ZM78.29 154V143.54H80.71V145.14C81.21 144.16 82.35 143.32 83.89 143.32C85.25 143.32 86.33 143.9 86.85 145.2C87.65 143.9 89.09 143.32 90.39 143.32C92.31 143.32 93.87 144.5 93.87 147.38V154H91.45V147.54C91.45 146 90.79 145.34 89.59 145.34C88.39 145.34 87.29 146.14 87.29 147.74V154H84.87V147.54C84.87 146 84.19 145.34 83.01 145.34C81.81 145.34 80.71 146.14 80.71 147.74V154H78.29ZM98.9894 154.2C97.0694 154.2 95.4894 153.28 95.4894 151.1C95.4894 148.66 97.8494 147.78 100.849 147.78H102.149V147.24C102.149 145.84 101.669 145.14 100.249 145.14C98.9894 145.14 98.3694 145.74 98.2494 146.78H95.9094C96.1094 144.34 98.0494 143.32 100.389 143.32C102.729 143.32 104.569 144.28 104.569 147.14V154H102.189V152.72C101.509 153.62 100.589 154.2 98.9894 154.2ZM99.5694 152.46C101.049 152.46 102.149 151.68 102.149 150.34V149.3H100.909C99.0694 149.3 97.8894 149.72 97.8894 151C97.8894 151.88 98.3694 152.46 99.5694 152.46ZM106.943 154V143.54H109.363V145.5C110.023 144.18 111.003 143.4 112.763 143.38V145.64C110.643 145.66 109.363 146.34 109.363 148.56V154H106.943ZM122.438 154.2C119.738 154.2 118.158 152.96 118.058 150.74H120.338C120.458 151.8 120.998 152.42 122.418 152.42C123.718 152.42 124.298 151.96 124.298 151.08C124.298 150.22 123.598 149.9 122.058 149.64C119.298 149.2 118.278 148.42 118.278 146.46C118.278 144.36 120.238 143.32 122.198 143.32C124.338 143.32 126.038 144.12 126.298 146.48H124.058C123.858 145.52 123.318 145.08 122.198 145.08C121.158 145.08 120.538 145.58 120.538 146.32C120.538 147.08 121.038 147.38 122.698 147.66C125.158 148.04 126.618 148.64 126.618 150.86C126.618 152.98 125.118 154.2 122.438 154.2ZM132.96 154.2C129.88 154.2 127.66 152.18 127.66 148.88V148.72C127.66 145.48 129.88 143.32 132.86 143.32C135.46 143.32 137.8 144.86 137.8 148.6V149.3H130.14C130.22 151.28 131.22 152.4 133.02 152.4C134.48 152.4 135.24 151.82 135.42 150.8H137.76C137.42 153 135.64 154.2 132.96 154.2ZM130.18 147.68H135.4C135.28 145.88 134.36 145.08 132.86 145.08C131.4 145.08 130.42 146.06 130.18 147.68ZM143.062 154.2C141.002 154.2 139.462 153.02 139.462 150.24V143.54H141.882V149.96C141.882 151.54 142.542 152.26 143.942 152.26C145.242 152.26 146.382 151.42 146.382 149.76V143.54H148.802V154H146.382V152.36C145.862 153.38 144.762 154.2 143.062 154.2ZM155.637 157.58V143.54H158.057V145.22C158.637 144.22 159.937 143.32 161.477 143.32C164.097 143.32 166.117 145.26 166.117 148.64V148.8C166.117 152.16 164.177 154.2 161.477 154.2C159.817 154.2 158.617 153.38 158.057 152.36V157.58H155.637ZM160.877 152.28C162.657 152.28 163.637 151.08 163.637 148.84V148.68C163.637 146.36 162.437 145.22 160.857 145.22C159.177 145.22 157.977 146.36 157.977 148.68V148.84C157.977 151.18 159.117 152.28 160.877 152.28ZM172.493 154.2C169.413 154.2 167.193 152.18 167.193 148.88V148.72C167.193 145.48 169.413 143.32 172.393 143.32C174.993 143.32 177.333 144.86 177.333 148.6V149.3H169.673C169.753 151.28 170.753 152.4 172.553 152.4C174.013 152.4 174.773 151.82 174.953 150.8H177.293C176.953 153 175.173 154.2 172.493 154.2ZM169.713 147.68H174.933C174.813 145.88 173.893 145.08 172.393 145.08C170.933 145.08 169.953 146.06 169.713 147.68ZM183.015 154.2C180.395 154.2 178.415 152.34 178.415 148.94V148.78C178.415 145.44 180.395 143.32 183.115 143.32C184.815 143.32 185.875 144.1 186.455 145.14V138.7H188.875V154H186.455V152.24C185.895 153.28 184.555 154.2 183.015 154.2ZM183.615 152.28C185.295 152.28 186.535 151.16 186.535 148.82V148.66C186.535 146.36 185.475 145.22 183.715 145.22C181.935 145.22 180.895 146.46 180.895 148.72V148.88C180.895 151.18 182.055 152.28 183.615 152.28ZM192.591 141.82C191.791 141.82 191.151 141.22 191.151 140.44C191.151 139.64 191.791 139.04 192.591 139.04C193.391 139.04 194.031 139.64 194.031 140.44C194.031 141.22 193.391 141.82 192.591 141.82ZM191.411 154V143.54H193.831V154H191.411ZM200.301 154.2C197.681 154.2 195.701 152.34 195.701 148.94V148.78C195.701 145.44 197.681 143.32 200.401 143.32C202.101 143.32 203.161 144.1 203.741 145.14V138.7H206.161V154H203.741V152.24C203.181 153.28 201.841 154.2 200.301 154.2ZM200.901 152.28C202.581 152.28 203.821 151.16 203.821 148.82V148.66C203.821 146.36 202.761 145.22 201.001 145.22C199.221 145.22 198.181 146.46 198.181 148.72V148.88C198.181 151.18 199.341 152.28 200.901 152.28ZM213.297 154.2C210.217 154.2 207.937 152.06 207.937 148.88V148.72C207.937 145.48 210.237 143.32 213.317 143.32C216.377 143.32 218.677 145.46 218.677 148.66V148.82C218.677 152.08 216.377 154.2 213.297 154.2ZM213.317 152.32C215.117 152.32 216.197 150.98 216.197 148.84V148.7C216.197 146.54 215.117 145.22 213.317 145.22C211.517 145.22 210.417 146.52 210.417 148.68V148.84C210.417 150.98 211.477 152.32 213.317 152.32Z" fill="black" fill-opacity="0.96"/>
</g>
<defs>
<filter id="filter0_d_17453_7277" x="253" y="607.5" width="114" height="45" filterUnits="userSpaceOnUse" color-interpolation-filters="sRGB">
<feFlood flood-opacity="0" result="BackgroundImageFix"/>
<feColorMatrix in="SourceAlpha" type="matrix" values="0 0 0 0 0 0 0 0 0 0 0 0 0 0 0 0 0 0 127 0" result="hardAlpha"/>
<feOffset dy="1"/>
<feColorMatrix type="matrix" values="0 0 0 0 0 0 0 0 0 0 0 0 0 0 0 0 0 0 0.35 0"/>
<feBlend mode="normal" in2="BackgroundImageFix" result="effect1_dropShadow_17453_7277"/>
<feBlend mode="normal" in="SourceGraphic" in2="effect1_dropShadow_17453_7277" result="shape"/>
</filter>
<filter id="filter1_d_17453_7277" x="130" y="607.5" width="115" height="45" filterUnits="userSpaceOnUse" color-interpolation-filters="sRGB">
<feFlood flood-opacity="0" result="BackgroundImageFix"/>
<feColorMatrix in="SourceAlpha" type="matrix" values="0 0 0 0 0 0 0 0 0 0 0 0 0 0 0 0 0 0 127 0" result="hardAlpha"/>
<feOffset dy="1"/>
<feColorMatrix type="matrix" values="0 0 0 0 0 0 0 0 0 0 0 0 0 0 0 0 0 0 0.35 0"/>
<feBlend mode="normal" in2="BackgroundImageFix" result="effect1_dropShadow_17453_7277"/>
<feBlend mode="normal" in="SourceGraphic" in2="effect1_dropShadow_17453_7277" result="shape"/>
</filter>
<filter id="filter2_d_17453_7277" x="8" y="607.5" width="114" height="45" filterUnits="userSpaceOnUse" color-interpolation-filters="sRGB">
<feFlood flood-opacity="0" result="BackgroundImageFix"/>
<feColorMatrix in="SourceAlpha" type="matrix" values="0 0 0 0 0 0 0 0 0 0 0 0 0 0 0 0 0 0 127 0" result="hardAlpha"/>
<feOffset dy="1"/>
<feColorMatrix type="matrix" values="0 0 0 0 0 0 0 0 0 0 0 0 0 0 0 0 0 0 0.35 0"/>
<feBlend mode="normal" in2="BackgroundImageFix" result="effect1_dropShadow_17453_7277"/>
<feBlend mode="normal" in="SourceGraphic" in2="effect1_dropShadow_17453_7277" result="shape"/>
</filter>
<filter id="filter3_d_17453_7277" x="253" y="659.5" width="114" height="45" filterUnits="userSpaceOnUse" color-interpolation-filters="sRGB">
<feFlood flood-opacity="0" result="BackgroundImageFix"/>
<feColorMatrix in="SourceAlpha" type="matrix" values="0 0 0 0 0 0 0 0 0 0 0 0 0 0 0 0 0 0 127 0" result="hardAlpha"/>
<feOffset dy="1"/>
<feColorMatrix type="matrix" values="0 0 0 0 0 0 0 0 0 0 0 0 0 0 0 0 0 0 0.35 0"/>
<feBlend mode="normal" in2="BackgroundImageFix" result="effect1_dropShadow_17453_7277"/>
<feBlend mode="normal" in="SourceGraphic" in2="effect1_dropShadow_17453_7277" result="shape"/>
</filter>
<filter id="filter4_d_17453_7277" x="130" y="659.5" width="115" height="45" filterUnits="userSpaceOnUse" color-interpolation-filters="sRGB">
<feFlood flood-opacity="0" result="BackgroundImageFix"/>
<feColorMatrix in="SourceAlpha" type="matrix" values="0 0 0 0 0 0 0 0 0 0 0 0 0 0 0 0 0 0 127 0" result="hardAlpha"/>
<feOffset dy="1"/>
<feColorMatrix type="matrix" values="0 0 0 0 0 0 0 0 0 0 0 0 0 0 0 0 0 0 0.35 0"/>
<feBlend mode="normal" in2="BackgroundImageFix" result="effect1_dropShadow_17453_7277"/>
<feBlend mode="normal" in="SourceGraphic" in2="effect1_dropShadow_17453_7277" result="shape"/>
</filter>
<filter id="filter5_d_17453_7277" x="8" y="659.5" width="114" height="45" filterUnits="userSpaceOnUse" color-interpolation-filters="sRGB">
<feFlood flood-opacity="0" result="BackgroundImageFix"/>
<feColorMatrix in="SourceAlpha" type="matrix" values="0 0 0 0 0 0 0 0 0 0 0 0 0 0 0 0 0 0 127 0" result="hardAlpha"/>
<feOffset dy="1"/>
<feColorMatrix type="matrix" values="0 0 0 0 0 0 0 0 0 0 0 0 0 0 0 0 0 0 0.35 0"/>
<feBlend mode="normal" in2="BackgroundImageFix" result="effect1_dropShadow_17453_7277"/>
<feBlend mode="normal" in="SourceGraphic" in2="effect1_dropShadow_17453_7277" result="shape"/>
</filter>
<filter id="filter6_d_17453_7277" x="253" y="711.5" width="114" height="45" filterUnits="userSpaceOnUse" color-interpolation-filters="sRGB">
<feFlood flood-opacity="0" result="BackgroundImageFix"/>
<feColorMatrix in="SourceAlpha" type="matrix" values="0 0 0 0 0 0 0 0 0 0 0 0 0 0 0 0 0 0 127 0" result="hardAlpha"/>
<feOffset dy="1"/>
<feColorMatrix type="matrix" values="0 0 0 0 0 0 0 0 0 0 0 0 0 0 0 0 0 0 0.35 0"/>
<feBlend mode="normal" in2="BackgroundImageFix" result="effect1_dropShadow_17453_7277"/>
<feBlend mode="normal" in="SourceGraphic" in2="effect1_dropShadow_17453_7277" result="shape"/>
</filter>
<filter id="filter7_d_17453_7277" x="130" y="711.5" width="115" height="45" filterUnits="userSpaceOnUse" color-interpolation-filters="sRGB">
<feFlood flood-opacity="0" result="BackgroundImageFix"/>
<feColorMatrix in="SourceAlpha" type="matrix" values="0 0 0 0 0 0 0 0 0 0 0 0 0 0 0 0 0 0 127 0" result="hardAlpha"/>
<feOffset dy="1"/>
<feColorMatrix type="matrix" values="0 0 0 0 0 0 0 0 0 0 0 0 0 0 0 0 0 0 0.35 0"/>
<feBlend mode="normal" in2="BackgroundImageFix" result="effect1_dropShadow_17453_7277"/>
<feBlend mode="normal" in="SourceGraphic" in2="effect1_dropShadow_17453_7277" result="shape"/>
</filter>
<filter id="filter8_d_17453_7277" x="130" y="763.5" width="115" height="45" filterUnits="userSpaceOnUse" color-interpolation-filters="sRGB">
<feFlood flood-opacity="0" result="BackgroundImageFix"/>
<feColorMatrix in="SourceAlpha" type="matrix" values="0 0 0 0 0 0 0 0 0 0 0 0 0 0 0 0 0 0 127 0" result="hardAlpha"/>
<feOffset dy="1"/>
<feColorMatrix type="matrix" values="0 0 0 0 0 0 0 0 0 0 0 0 0 0 0 0 0 0 0.35 0"/>
<feBlend mode="normal" in2="BackgroundImageFix" result="effect1_dropShadow_17453_7277"/>
<feBlend mode="normal" in="SourceGraphic" in2="effect1_dropShadow_17453_7277" result="shape"/>
</filter>
<filter id="filter9_d_17453_7277" x="8" y="711.5" width="114" height="45" filterUnits="userSpaceOnUse" color-interpolation-filters="sRGB">
<feFlood flood-opacity="0" result="BackgroundImageFix"/>
<feColorMatrix in="SourceAlpha" type="matrix" values="0 0 0 0 0 0 0 0 0 0 0 0 0 0 0 0 0 0 127 0" result="hardAlpha"/>
<feOffset dy="1"/>
<feColorMatrix type="matrix" values="0 0 0 0 0 0 0 0 0 0 0 0 0 0 0 0 0 0 0.35 0"/>
<feBlend mode="normal" in2="BackgroundImageFix" result="effect1_dropShadow_17453_7277"/>
<feBlend mode="normal" in="SourceGraphic" in2="effect1_dropShadow_17453_7277" result="shape"/>
</filter>
<clipPath id="clip0_17453_7277">
<rect width="375" height="812" fill="white"/>
</clipPath>
<clipPath id="clip1_17453_7277">
<rect width="24" height="24" fill="white" transform="translate(23 64)"/>
</clipPath>
</defs>
</svg>
