<svg preserveAspectRatio="none" width="100%" height="100%" overflow="visible" style="display: block;" viewBox="0 0 19.8108 19.8099" fill="none" xmlns="http://www.w3.org/2000/svg">
<path id="Icon" d="M8.00293 0.0100887C8.4623 -0.0830151 8.73602 0.489172 8.45801 0.866534C8.38291 0.968472 8.3102 1.07227 8.24023 1.17806C8.07258 1.43156 7.91962 1.69625 7.7832 1.97005C7.75428 2.02811 7.7257 2.08692 7.69824 2.14583C7.25022 3.10719 7.00005 4.17934 7 5.30989C7 9.45203 10.3579 12.8099 14.5 12.8099C15.6306 12.8099 16.7026 12.5597 17.6641 12.1117C17.7229 12.0842 17.7819 12.0566 17.8398 12.0277C18.1137 11.8912 18.3783 11.7383 18.6318 11.5706C18.7378 11.5006 18.8422 11.4281 18.9443 11.3529C19.3216 11.075 19.8935 11.3478 19.8008 11.807C19.764 11.9883 19.7222 12.1684 19.6758 12.346C19.5967 12.6486 19.5035 12.946 19.3975 13.2367C19.3634 13.33 19.3278 13.4229 19.291 13.515C17.8189 17.2037 14.2139 19.8099 10 19.8099C4.47715 19.8099 0 15.3327 0 9.80989C0.00014271 5.59617 2.60642 1.99103 6.29492 0.518878C6.38712 0.482083 6.48069 0.446538 6.57422 0.412432C6.8649 0.306445 7.16228 0.213182 7.46484 0.134112C7.64228 0.0877509 7.82179 0.0468024 8.00293 0.0100887ZM5.18848 3.41732C3.2518 4.87775 2.00011 7.1988 2 9.80989C2 14.2282 5.58172 17.8099 10 17.8099C12.6113 17.8099 14.9321 16.5582 16.3926 14.6214C15.7806 14.7453 15.1476 14.8099 14.5 14.8099C9.25329 14.8099 5 10.5566 5 5.30989C5.00002 4.66233 5.06461 4.02921 5.18848 3.41732Z" fill="var(--fill-0, black)" fill-opacity="0.64"/>
</svg>
