<svg preserveAspectRatio="none" width="100%" height="100%" overflow="visible" style="display: block;" viewBox="0 0 67.6611 20" fill="none" xmlns="http://www.w3.org/2000/svg">
<g id="Carrier">
<path id="Signal" d="M2 11.3337C2.55228 11.3337 3 11.7814 3 12.3337V14.3337C2.99982 14.8858 2.55218 15.3337 2 15.3337H1C0.447824 15.3337 0.000175969 14.8858 0 14.3337V12.3337C0 11.7814 0.447715 11.3337 1 11.3337H2ZM6.66699 9.33366C7.21913 9.33383 7.66699 9.78148 7.66699 10.3337V14.3337C7.66682 14.8857 7.21902 15.3335 6.66699 15.3337H5.66699C5.11482 15.3337 4.66717 14.8858 4.66699 14.3337V10.3337C4.66699 9.78137 5.11471 9.33366 5.66699 9.33366H6.66699ZM11.333 6.99967C11.8852 6.99967 12.3328 7.44754 12.333 7.99967V14.3337C12.3328 14.8858 11.8852 15.3337 11.333 15.3337H10.333C9.78098 15.3335 9.33318 14.8857 9.33301 14.3337V7.99967C9.33318 7.44765 9.78098 6.99985 10.333 6.99967H11.333ZM16 4.66667C16.5523 4.66667 17 5.11438 17 5.66667V14.3337C16.9998 14.8858 16.5522 15.3337 16 15.3337H15C14.4478 15.3337 14.0002 14.8858 14 14.3337V5.66667C14 5.11438 14.4477 4.66667 15 4.66667H16Z" fill="var(--fill-0, black)" fill-opacity="0.96"/>
<path id="Wi-Fi" d="M27.9482 12.9268C29.2289 11.8445 31.1051 11.8445 32.3857 12.9268C32.4501 12.985 32.4875 13.0676 32.4893 13.1543C32.4909 13.2409 32.4564 13.3241 32.3945 13.3848L30.3896 15.4072C30.3309 15.4666 30.2506 15.5 30.167 15.5C30.0834 15.5 30.0031 15.4666 29.9443 15.4072L27.9385 13.3848C27.8769 13.3241 27.843 13.2407 27.8447 13.1543C27.8466 13.0676 27.8839 12.9849 27.9482 12.9268ZM25.2725 10.2295C28.0316 7.66511 32.3043 7.66517 35.0635 10.2295C35.1258 10.2896 35.1612 10.3724 35.1621 10.459C35.1629 10.5453 35.1293 10.6282 35.0684 10.6895L33.9092 11.8604C33.7897 11.9797 33.5971 11.9815 33.4746 11.8652C32.5685 11.0455 31.3893 10.5917 30.167 10.5918C28.9456 10.5923 27.7677 11.0462 26.8623 11.8652C26.7398 11.9816 26.5462 11.9799 26.4268 11.8604L25.2686 10.6895C25.2075 10.6283 25.1731 10.5454 25.1738 10.459C25.1746 10.3725 25.2103 10.2896 25.2725 10.2295ZM22.5967 7.53906C26.8285 3.48699 33.5044 3.48715 37.7363 7.53906C37.7976 7.59926 37.8325 7.68173 37.833 7.76758C37.8334 7.85334 37.7997 7.93622 37.7393 7.99707L36.5791 9.16699C36.4595 9.28709 36.265 9.28817 36.1436 9.16992C34.5312 7.63852 32.3916 6.78428 30.167 6.78418C27.9421 6.78419 25.802 7.63829 24.1895 9.16992C24.0682 9.28829 23.8744 9.2871 23.7549 9.16699L22.5938 7.99707C22.5333 7.93619 22.4995 7.85331 22.5 7.76758C22.5006 7.68173 22.5354 7.59922 22.5967 7.53906Z" fill="var(--fill-0, black)" fill-opacity="0.96"/>
<g id="Battery">
<rect id="Border" opacity="0.35" x="43.833" y="4.83333" width="21" height="10.3333" rx="3.5" stroke="var(--stroke-0, black)" stroke-opacity="0.96"/>
<path id="Cap" opacity="0.4" d="M66.333 8V12C67.1377 11.6612 67.6611 10.8731 67.6611 10C67.6611 9.12687 67.1377 8.33878 66.333 8" fill="var(--fill-0, black)" fill-opacity="0.96"/>
<rect id="Capacity" x="45.333" y="6.33333" width="18" height="7.33333" rx="2.3" fill="var(--fill-0, black)" fill-opacity="0.96"/>
</g>
</g>
</svg>
