<svg width="26" height="10" viewBox="0 0 25.178 9.649" fill="none" xmlns="http://www.w3.org/2000/svg">
<g id="Group">
<path d="M3.92513 2.13151C4.20798 2.03702 4.51035 1.98624 4.8252 1.98624C6.1981 1.98624 7.34435 2.9614 7.60692 4.25758L9.55307 3.86059C9.10644 1.65779 7.15978 2.14764e-05 4.8252 2.14764e-05C4.29025 2.14764e-05 3.77634 0.0872061 3.29556 0.247842L3.92513 2.13151Z" fill="#FFCB08"/>
<path d="M1.62851 8.43881L2.9446 6.95088C2.35711 6.43042 1.98645 5.67083 1.98645 4.82456C1.98645 3.97829 2.35661 3.21971 2.94372 2.69987L1.62738 1.21181C0.629671 2.09575 0.000102539 3.38689 0.000102539 4.82456C0.000102539 6.26222 0.629923 7.55487 1.62851 8.43881Z" fill="#00A4E0"/>
<path d="M7.6062 5.39409C7.34263 6.68964 6.19751 7.6629 4.82498 7.6629C4.51001 7.6629 4.20675 7.61213 3.92403 7.51714L3.29358 9.40156C3.77449 9.56207 4.2894 9.649 4.82498 9.649C7.1573 9.649 9.10371 7.994 9.5521 5.79322L7.6062 5.39421V5.39409Z" fill="#EF3F23"/>
<path d="M11.255 7.01349C11.1912 6.91018 11.1047 6.74501 11.0524 6.62343C10.7442 5.90793 10.7295 5.16749 10.9898 4.45666C11.2759 3.67717 11.8226 3.08036 12.5289 2.77647C13.4168 2.39434 14.3989 2.46969 15.25 2.97465C15.7906 3.28484 16.1739 3.76372 16.4649 4.44091C16.5019 4.52759 16.5346 4.6202 16.5663 4.69881L11.255 7.01349ZM13.0285 3.92511C12.398 4.19612 12.0729 4.78764 12.1397 5.48121L14.8109 4.33156C14.3515 3.79182 13.7537 3.61291 13.0284 3.92511H13.0285ZM15.144 6.42651C15.1434 6.42701 15.143 6.42751 15.1425 6.42802L15.0872 6.39073C14.9278 6.64938 14.6791 6.8589 14.3653 6.99497C13.7682 7.25463 13.2149 7.18786 12.8175 6.83937L12.781 6.89493C12.781 6.89493 12.7805 6.8938 12.7798 6.8938L12.1021 7.90764C12.2703 8.02455 12.451 8.12358 12.6407 8.2027C13.3894 8.51365 14.1552 8.49928 14.9098 8.17108C15.4556 7.9346 15.8838 7.57389 16.1765 7.1168L15.1441 6.42651H15.144Z" fill="#000000"/>
<path d="M18.4227 1.28344V6.91995L19.2989 7.27512L18.801 8.43699L17.8337 8.0342C17.6166 7.94022 17.4688 7.79634 17.3569 7.63394C17.25 7.46839 17.17 7.24123 17.17 6.93533V1.28344H18.4226H18.4227Z" fill="#000000"/>
<path d="M20.6928 5.48411C20.6934 5.0041 20.9053 4.57372 21.2406 4.28117L20.3416 3.27867C19.7318 3.81765 19.3478 4.60521 19.347 5.48273C19.346 6.3605 19.7295 7.14894 20.3387 7.68931L21.2367 6.6858C20.903 6.39199 20.6925 5.96287 20.6928 5.48399V5.48411Z" fill="#000000"/>
<path d="M22.2905 7.08396C22.1135 7.08345 21.943 7.05422 21.784 7.00131L21.3547 8.27796C21.6481 8.37648 21.9624 8.43015 22.2891 8.43066C23.7127 8.43204 24.9014 7.42199 25.1768 6.07919L23.8571 5.8097C23.707 6.53779 23.0626 7.08471 22.2905 7.08408V7.08396Z" fill="#000000"/>
<path d="M22.2944 2.54061C21.9681 2.54023 21.6539 2.59328 21.3608 2.69092L21.7864 3.9687C21.9459 3.91604 22.1164 3.88693 22.2931 3.88693C23.067 3.88769 23.7119 4.43789 23.8584 5.16774L25.1783 4.90001C24.9068 3.55546 23.7192 2.54162 22.2945 2.54061H22.2944Z" fill="#000000"/>
</g>
</svg>
