<svg preserveAspectRatio="none" width="100%" height="100%" overflow="visible" style="display: block;" viewBox="0 0 26.1822 8.49406" fill="none" xmlns="http://www.w3.org/2000/svg">
<g id="g12">
<path id="path14" d="M11.3504 0.141285H9.21401L10.5493 8.34725H12.6858L11.3504 0.141285Z" fill="var(--fill-0, #1434CB)"/>
<path id="path16" d="M7.41629 8.34725L5.37948 2.70327L5.13854 3.91866L5.1388 3.91824L4.41976 7.60815C4.41976 7.60815 4.33299 8.34725 3.40628 8.34725H0.0394444L0 8.20844C0 8.20844 1.02994 7.99425 2.23461 7.27016L4.09077 0.141285H6.31664L9.71574 8.34725H7.41629Z" fill="var(--fill-0, #1434CB)"/>
<path id="path18" d="M21.8695 3.04411L22.9923 6.11504L23.6238 3.04411H21.8695ZM24.2204 0.141285H26.1821L24.4717 8.34725H22.7541C21.9609 8.34725 21.7679 7.73574 21.7679 7.73574L18.5818 0.141285H20.8085L21.2541 1.36012H23.9699L24.2204 0.141285" fill="var(--fill-0, #1434CB)"/>
<path id="path20" d="M18.7488 6.37382L19.0536 8.13625C19.0536 8.13625 18.1127 8.49406 17.1321 8.49406C16.0719 8.49406 13.5542 8.03037 13.5542 5.77748C13.5542 3.65733 16.5092 3.63093 16.5092 2.51782C16.5092 1.40463 13.8589 1.60356 12.9843 2.30578L12.6664 0.463695C12.6664 0.463695 13.6202 7.7398e-07 15.0781 7.7398e-07C16.5358 7.7398e-07 18.7355 0.755124 18.7355 2.80934C18.7355 4.94277 15.7539 5.14153 15.7539 6.069C15.7539 6.99674 17.8345 6.87764 18.7488 6.37382" fill="var(--fill-0, #1434CB)"/>
<path id="path22" d="M5.1388 3.91805L4.41976 7.60796C4.41976 7.60796 4.33299 8.34706 3.40628 8.34706H0.0394444L0 8.20825C0 8.20825 1.61838 7.87274 3.171 6.61619C4.65469 5.4152 5.1388 3.91805 5.1388 3.91805" fill="var(--fill-0, #1434CB)"/>
</g>
</svg>
