<svg preserveAspectRatio="none" width="100%" height="100%" overflow="visible" style="display: block;" viewBox="0 0 16 20" fill="none" xmlns="http://www.w3.org/2000/svg">
<path id="Icon" d="M12 0C14.2091 0 16 1.79086 16 4V16C16 18.2091 14.2091 20 12 20H4C1.79086 20 0 18.2091 0 16V4C0 1.79086 1.79086 0 4 0H12ZM4 2C2.89543 2 2 2.89543 2 4V16C2 17.1046 2.89543 18 4 18H12C13.1046 18 14 17.1046 14 16V4C14 2.89543 13.1046 2 12 2H4ZM6 16H4V14H6V16ZM9 16H7V14H9V16ZM12 16H10V14H12V16ZM6 13H4V11H6V13ZM9 13H7V11H9V13ZM12 13H10V11H12V13ZM6 10H4V8H6V10ZM9 10H7V8H9V10ZM12 10H10V8H12V10ZM12 6H4V4H12V6Z" fill="var(--fill-0, black)" fill-opacity="0.96"/>
</svg>
