<svg preserveAspectRatio="none" width="100%" height="100%" overflow="visible" style="display: block;" viewBox="0 0 18.8907 18" fill="none" xmlns="http://www.w3.org/2000/svg">
<g id="Icon">
<path d="M18.8907 0L2.69072 18H0L16.2 0H18.8907Z" fill="var(--fill-0, black)" fill-opacity="0.96"/>
<path d="M4.44531 8C6.65445 8 8.44531 6.20914 8.44531 4C8.44531 1.79086 6.65445 0 4.44531 0C2.23617 0 0.445312 1.79086 0.445312 4C0.445312 6.20914 2.23617 8 4.44531 8ZM4.44531 6C3.34074 6 2.44531 5.10457 2.44531 4C2.44531 2.89543 3.34074 2 4.44531 2C5.54988 2 6.44531 2.89543 6.44531 4C6.44531 5.10457 5.54988 6 4.44531 6Z" fill="var(--fill-0, black)" fill-opacity="0.96"/>
<path d="M18.4453 14C18.4453 16.2091 16.6545 18 14.4453 18C12.2362 18 10.4453 16.2091 10.4453 14C10.4453 11.7909 12.2362 10 14.4453 10C16.6545 10 18.4453 11.7909 18.4453 14ZM16.4453 14C16.4453 12.8954 15.5499 12 14.4453 12C13.3407 12 12.4453 12.8954 12.4453 14C12.4453 15.1046 13.3407 16 14.4453 16C15.5499 16 16.4453 15.1046 16.4453 14Z" fill="var(--fill-0, black)" fill-opacity="0.96"/>
</g>
</svg>
