<svg width="100" height="100" viewBox="0 0 50.67 81.44" fill="none" xmlns="http://www.w3.org/2000/svg">
<path d="M37.77 0.31C37.87 0.31 37.96 0.3 38.06 0.3C45.02 0.3 50.67 5.95 50.67 12.91C50.67 18.13 48.6 22.6 44.09 24.52V75.96C44.09 78.98 41.63 81.44 38.61 81.44H5.71C2.69 81.44 0.23 78.98 0.23 75.96V5.79C0.23 2.76 2.69 0.3 5.71 0.3H37.51C37.6 0.3 37.69 0.31 37.77 0.31Z" fill="#C3B2CA"/>
<path d="M4.76 81.44C2.13 81.44 0 79.3 0 76.67V4.77C0 2.14 2.13 0 4.76 0H32.8C35.42 0 37.55 2.14 37.55 4.77V76.67C37.55 79.3 35.42 81.44 32.8 81.44H4.76Z" fill="#A087AE"/>
<path d="M4.98 0H32.79C35.4 0 37.53 2.99 37.53 6.67V73.46H0.25V6.67C0.25 2.99 2.37 0 4.98 0Z" fill="#A087AE"/>
<path d="M31.37 9.6H6.15C5.07 9.6 4.19 10.81 4.19 12.29V66.91C4.19 68.39 5.07 69.6 6.15 69.6H31.37C32.45 69.6 33.33 68.39 33.33 66.91V12.29C33.33 10.81 32.45 9.6 31.37 9.6Z" fill="#EADBF1"/>
<path d="M16.31 42.76L10.11 36.41L11.74 34.73L16.32 39.42L26.04 29.6L27.66 31.29L16.31 42.76Z" fill="white"/>
<rect x="5.7" y="75.96" width="24.12" height="5.48" fill="#714F8F"/>
<rect x="6.79" y="0.3" width="23.02" height="4.39" fill="#EADBF1"/>
</svg>
