<svg preserveAspectRatio="none" width="100%" height="100%" overflow="visible" style="display: block;" viewBox="0 0 50.6668 81.4381" fill="none" xmlns="http://www.w3.org/2000/svg">
<g id="Group 544224">
<path id="Union" d="M37.7733 0.310429C37.868 0.30833 37.9629 0.304005 38.0581 0.304005C45.0217 0.304005 50.6668 5.94908 50.6668 12.9126C50.6668 18.1253 48.5999 22.5988 44.0884 24.5191V75.9557C44.0883 78.9834 41.634 81.4377 38.6063 81.4377H5.71429C2.68666 81.4377 0.232278 78.9834 0.232278 75.9557V5.78601C0.232279 2.75839 2.68666 0.304005 5.71429 0.304005H37.5099C37.5982 0.304005 37.6861 0.3063 37.7733 0.310429Z" fill="var(--fill-0, #C3B2CA)"/>
<g id="Group">
<mask id="mask0_0_3219" style="mask-type:alpha" maskUnits="userSpaceOnUse" x="0" y="0" width="38" height="82">
<path id="Vector" d="M4.75739 81.4378C2.13296 81.4378 0.000119299 79.3014 0.000119299 76.6726L0.000119299 4.76523C0.000119299 2.13641 2.13296 0 4.75739 0L32.795 0C35.4194 0 37.5523 2.13641 37.5523 4.76523V76.6726C37.5523 79.3014 35.4194 81.4378 32.795 81.4378H4.75739Z" fill="url(#paint0_linear_0_3219)"/>
</mask>
<g mask="url(#mask0_0_3219)">
<path id="Vector_2" d="M4.75739 81.4378C2.13296 81.4378 0.000119299 79.3014 0.000119299 76.6726L0.000119299 4.76523C0.000119299 2.13641 2.13296 0 4.75739 0L32.795 0C35.4194 0 37.5523 2.13641 37.5523 4.76523V76.6726C37.5523 79.3014 35.4194 81.4378 32.795 81.4378H4.75739Z" fill="var(--fill-0, #A087AE)"/>
</g>
</g>
<path id="Vector_3" d="M4.97775 1.58946e-07L32.7947 1.58946e-07C35.4043 1.58946e-07 37.5251 2.99084 37.5251 6.67101V73.4589H0.247396L0.247396 6.67101C0.247396 2.99084 2.36817 1.58946e-07 4.97775 1.58946e-07Z" fill="var(--fill-0, #A087AE)"/>
<g id="Group_2">
<path id="Vector_4" d="M31.3668 9.60322L6.15177 9.60322C5.0658 9.60322 4.18544 10.8058 4.18544 12.2893L4.18544 66.9109C4.18544 68.3944 5.0658 69.597 6.15177 69.597H31.3668C32.4527 69.597 33.3331 68.3944 33.3331 66.9109V12.2893C33.3331 10.8058 32.4527 9.60322 31.3668 9.60322Z" fill="var(--fill-0, #EADBF1)"/>
<mask id="mask1_0_3219" style="mask-type:alpha" maskUnits="userSpaceOnUse" x="4" y="9" width="30" height="61">
<path id="Vector_5" d="M31.3668 9.60322L6.15177 9.60322C5.0658 9.60322 4.18544 10.8058 4.18544 12.2893L4.18544 66.9109C4.18544 68.3944 5.0658 69.597 6.15177 69.597H31.3668C32.4527 69.597 33.3331 68.3944 33.3331 66.9109V12.2893C33.3331 10.8058 32.4527 9.60322 31.3668 9.60322Z" fill="url(#paint1_linear_0_3219)"/>
</mask>
<g mask="url(#mask1_0_3219)">
<path id="Vector_6" d="M31.3668 9.60322L6.15177 9.60322C5.0658 9.60322 4.18544 10.8058 4.18544 12.2893L4.18544 66.9109C4.18544 68.3944 5.0658 69.597 6.15177 69.597H31.3668C32.4527 69.597 33.3331 68.3944 33.3331 66.9109V12.2893C33.3331 10.8058 32.4527 9.60322 31.3668 9.60322Z" fill="var(--fill-0, #C3B2CA)"/>
</g>
</g>
<path id="Vector_7" d="M16.3119 42.7596L10.1144 36.4097L11.7417 34.7302L16.3235 39.4185L26.0353 29.6028L27.6568 31.2941L16.3119 42.7596Z" fill="var(--fill-0, white)"/>
<rect id="Rectangle 113338" x="5.6956" y="75.9561" width="24.1208" height="5.48201" fill="var(--fill-0, #714F8F)"/>
<rect id="Print" x="29.8167" y="4.68901" width="23.0244" height="4.38561" transform="rotate(180 29.8167 4.68901)" fill="var(--fill-0, #EADBF1)"/>
</g>
<defs>
<linearGradient id="paint0_linear_0_3219" x1="13.2942" y1="89.4419" x2="13.2942" y2="-3.10108" gradientUnits="userSpaceOnUse">
<stop/>
<stop offset="1" stop-color="white" stop-opacity="0"/>
</linearGradient>
<linearGradient id="paint1_linear_0_3219" x1="18.7593" y1="75.4934" x2="18.7593" y2="7.31871" gradientUnits="userSpaceOnUse">
<stop stop-color="white" stop-opacity="0"/>
<stop offset="0.729167"/>
</linearGradient>
</defs>
</svg>
