<svg preserveAspectRatio="none" width="100%" height="100%" overflow="visible" style="display: block;" viewBox="0 0 24 24" fill="none" xmlns="http://www.w3.org/2000/svg">
<path id="Icon" d="M13 24H11V21H13V24ZM6.34277 19.0713L4.22168 21.1924L2.80762 19.7783L4.92871 17.6572L6.34277 19.0713ZM21.1924 19.7783L19.7783 21.1924L17.6572 19.0713L19.0713 17.6572L21.1924 19.7783ZM12 5C15.866 5 19 8.13401 19 12C19 15.866 15.866 19 12 19C8.13401 19 5 15.866 5 12C5 8.13401 8.13401 5 12 5ZM12 7C9.23858 7 7 9.23858 7 12C7 14.7614 9.23858 17 12 17C14.7614 17 17 14.7614 17 12C17 9.23858 14.7614 7 12 7ZM3 13H0V11H3V13ZM24 13H21V11H24V13ZM6.34277 4.92871L4.92871 6.34277L2.80762 4.22168L4.22168 2.80762L6.34277 4.92871ZM21.1924 4.22168L19.0713 6.34277L17.6572 4.92871L19.7783 2.80762L21.1924 4.22168ZM13 3H11V0H13V3Z" fill="var(--fill-0, black)" fill-opacity="0.64"/>
</svg>
